<?xml version="1.0" encoding="UTF-8" standalone="no"?>

<svg xmlns="http://www.w3.org/2000/svg" version="1.1"
  width="141.732" height="70.8661" id="svg2">

  <path
     style="fill:none;stroke:#000000;stroke-width:1.77165353;stroke-linecap:round;stroke-linejoin:round;stroke-miterlimit:4;stroke-opacity:1;stroke-dasharray:none"
     id="path3223"
     d="m 141.45998,217.22241 a 78.90625,80.46875 0 0 1 90.51753,0"
     transform="matrix(1.0436717,0,0,1.0234063,-125.0367,-179.70486)" />
<line x1="22.221083" y1="42.764635" x2="16.485318" y2="34.573114" style="stroke:black;stroke-width:2;" />
<line x1="26.475870" y1="39.975074" x2="23.340878" y2="34.859233" style="stroke:black;stroke-width:2;" />
<line x1="30.893019" y1="37.450466" x2="28.076189" y2="32.152780" style="stroke:black;stroke-width:2;" />
<line x1="35.456053" y1="35.200226" x2="32.967893" y2="29.740459" style="stroke:black;stroke-width:2;" />
<line x1="40.147950" y1="33.232750" x2="37.997742" y2="27.631268" style="stroke:black;stroke-width:2;" />
<line x1="44.951207" y1="31.555378" x2="41.944149" y2="22.018208" style="stroke:black;stroke-width:2;" />
<line x1="49.847906" y1="30.174366" x2="48.396375" y2="24.352592" style="stroke:black;stroke-width:2;" />
<line x1="54.819781" y1="29.094866" x2="53.726368" y2="23.195337" style="stroke:black;stroke-width:2;" />
<line x1="59.848284" y1="28.320906" x2="59.117068" y2="22.365629" style="stroke:black;stroke-width:2;" />
<line x1="64.914657" y1="27.855371" x2="64.548365" y2="21.866563" style="stroke:black;stroke-width:2;" />
<line x1="70.000000" y1="27.700000" x2="70.000000" y2="17.700000" style="stroke:black;stroke-width:2;" />
<line x1="75.085343" y1="27.855371" x2="75.451635" y2="21.866563" style="stroke:black;stroke-width:2;" />
<line x1="80.151716" y1="28.320906" x2="80.882932" y2="22.365629" style="stroke:black;stroke-width:2;" />
<line x1="85.180219" y1="29.094866" x2="86.273632" y2="23.195337" style="stroke:black;stroke-width:2;" />
<line x1="90.152094" y1="30.174366" x2="91.603625" y2="24.352592" style="stroke:black;stroke-width:2;" />
<line x1="95.048793" y1="31.555378" x2="98.055851" y2="22.018208" style="stroke:black;stroke-width:2;" />
<line x1="99.852050" y1="33.232750" x2="102.002258" y2="27.631268" style="stroke:black;stroke-width:2;" />
<line x1="104.543947" y1="35.200226" x2="107.032107" y2="29.740459" style="stroke:black;stroke-width:2;" />
<line x1="109.106981" y1="37.450466" x2="111.923811" y2="32.152780" style="stroke:black;stroke-width:2;" />
<line x1="113.524130" y1="39.975074" x2="116.659122" y2="34.859233" style="stroke:black;stroke-width:2;" />
<line x1="117.778917" y1="42.764635" x2="123.514682" y2="34.573114" style="stroke:black;stroke-width:2;" />
<line x1="22.221083" y1="42.764635" x2="27.956847" y2="50.956155" style="stroke:black;stroke-width:2;" />
<line x1="26.475870" y1="39.975074" x2="29.610861" y2="45.090915" style="stroke:black;stroke-width:2;" />
<line x1="30.893019" y1="37.450466" x2="33.709848" y2="42.748151" style="stroke:black;stroke-width:2;" />
<line x1="35.456053" y1="35.200226" x2="37.944212" y2="40.659994" style="stroke:black;stroke-width:2;" />
<line x1="40.147950" y1="33.232750" x2="42.298158" y2="38.834233" style="stroke:black;stroke-width:2;" />
<line x1="44.951207" y1="31.555378" x2="47.958265" y2="41.092548" style="stroke:black;stroke-width:2;" />
<line x1="49.847906" y1="30.174366" x2="51.299437" y2="35.996140" style="stroke:black;stroke-width:2;" />
<line x1="54.819781" y1="29.094866" x2="55.913194" y2="34.994396" style="stroke:black;stroke-width:2;" />
<line x1="59.848284" y1="28.320906" x2="60.579500" y2="34.276182" style="stroke:black;stroke-width:2;" />
<line x1="64.914657" y1="27.855371" x2="65.280948" y2="33.844180" style="stroke:black;stroke-width:2;" />
<line x1="70.000000" y1="27.700000" x2="70.000000" y2="37.700000" style="stroke:black;stroke-width:2;" />
<line x1="75.085343" y1="27.855371" x2="74.719052" y2="33.844180" style="stroke:black;stroke-width:2;" />
<line x1="80.151716" y1="28.320906" x2="79.420500" y2="34.276182" style="stroke:black;stroke-width:2;" />
<line x1="85.180219" y1="29.094866" x2="84.086806" y2="34.994396" style="stroke:black;stroke-width:2;" />
<line x1="90.152094" y1="30.174366" x2="88.700563" y2="35.996140" style="stroke:black;stroke-width:2;" />
<line x1="95.048793" y1="31.555378" x2="92.041735" y2="41.092548" style="stroke:black;stroke-width:2;" />
<line x1="99.852050" y1="33.232750" x2="97.701842" y2="38.834233" style="stroke:black;stroke-width:2;" />
<line x1="104.543947" y1="35.200226" x2="102.055788" y2="40.659994" style="stroke:black;stroke-width:2;" />
<line x1="109.106981" y1="37.450466" x2="106.290152" y2="42.748151" style="stroke:black;stroke-width:2;" />
<line x1="113.524130" y1="39.975074" x2="110.389139" y2="45.090915" style="stroke:black;stroke-width:2;" />
<line x1="117.778917" y1="42.764635" x2="112.043153" y2="50.956155" style="stroke:black;stroke-width:2;" />

</svg>
