%FSLAX34Y34*%
G04 Gerber Fmt 3.4, Leading zero omitted, Abs format*
G04 (created by PCBNEW (2014-03-14 BZR 4748)-product) date Mon 17 Mar 2014 11:54:22 PM EDT*
%MOIN*%
G01*
G70*
G90*
G04 APERTURE LIST*
%ADD10C,0.005906*%
%ADD11C,0.011811*%
%ADD12C,0.007874*%
%ADD13C,0.009843*%
%ADD14C,0.003937*%
%ADD15C,0.013780*%
%ADD16C,0.015000*%
%ADD17C,0.008000*%
%ADD18C,0.010000*%
G04 APERTURE END LIST*
G54D10*
G54D11*
X60433Y-49606D02*
X52362Y-49606D01*
X66338Y-49606D02*
X60433Y-49606D01*
X56496Y-35433D02*
X56496Y-35531D01*
X56594Y-35433D02*
X56496Y-35433D01*
X56594Y-35531D02*
X56594Y-35433D01*
X56496Y-35531D02*
X56594Y-35531D01*
X54330Y-37992D02*
X54330Y-38582D01*
X54330Y-42322D02*
X54330Y-40944D01*
G54D12*
X53585Y-39639D02*
X53545Y-39653D01*
X53506Y-39692D01*
X53479Y-39745D01*
X53479Y-39798D01*
X53492Y-39838D01*
X53532Y-39904D01*
X53572Y-39944D01*
X53638Y-39984D01*
X53678Y-39997D01*
X53731Y-39997D01*
X53784Y-39971D01*
X53811Y-39944D01*
X53837Y-39891D01*
X53837Y-39865D01*
X53744Y-39772D01*
X53691Y-39825D01*
X53983Y-39772D02*
X53705Y-39494D01*
X54142Y-39613D01*
X53864Y-39334D01*
X54275Y-39480D02*
X53996Y-39202D01*
X54062Y-39136D01*
X54115Y-39109D01*
X54168Y-39109D01*
X54208Y-39122D01*
X54275Y-39162D01*
X54314Y-39202D01*
X54354Y-39268D01*
X54367Y-39308D01*
X54367Y-39361D01*
X54341Y-39414D01*
X54275Y-39480D01*
G54D11*
X67913Y-32283D02*
X67913Y-32874D01*
G54D12*
X75436Y-37474D02*
X75396Y-37487D01*
X75356Y-37527D01*
X75330Y-37580D01*
X75330Y-37633D01*
X75343Y-37673D01*
X75383Y-37739D01*
X75422Y-37779D01*
X75489Y-37819D01*
X75528Y-37832D01*
X75581Y-37832D01*
X75634Y-37805D01*
X75661Y-37779D01*
X75687Y-37726D01*
X75687Y-37699D01*
X75595Y-37607D01*
X75542Y-37660D01*
X75833Y-37607D02*
X75555Y-37328D01*
X75992Y-37447D01*
X75714Y-37169D01*
X76125Y-37315D02*
X75847Y-37037D01*
X75913Y-36970D01*
X75966Y-36944D01*
X76019Y-36944D01*
X76059Y-36957D01*
X76125Y-36997D01*
X76165Y-37037D01*
X76204Y-37103D01*
X76218Y-37143D01*
X76218Y-37196D01*
X76191Y-37249D01*
X76125Y-37315D01*
X61459Y-40624D02*
X61419Y-40637D01*
X61380Y-40677D01*
X61353Y-40730D01*
X61353Y-40783D01*
X61366Y-40822D01*
X61406Y-40889D01*
X61446Y-40928D01*
X61512Y-40968D01*
X61552Y-40982D01*
X61605Y-40982D01*
X61658Y-40955D01*
X61685Y-40928D01*
X61711Y-40875D01*
X61711Y-40849D01*
X61618Y-40756D01*
X61565Y-40809D01*
X61857Y-40756D02*
X61579Y-40478D01*
X62016Y-40597D01*
X61738Y-40319D01*
X62149Y-40465D02*
X61870Y-40186D01*
X61936Y-40120D01*
X61989Y-40093D01*
X62043Y-40093D01*
X62082Y-40107D01*
X62149Y-40146D01*
X62188Y-40186D01*
X62228Y-40252D01*
X62241Y-40292D01*
X62241Y-40345D01*
X62215Y-40398D01*
X62149Y-40465D01*
X65593Y-34521D02*
X65553Y-34534D01*
X65514Y-34574D01*
X65487Y-34627D01*
X65487Y-34680D01*
X65500Y-34720D01*
X65540Y-34786D01*
X65580Y-34826D01*
X65646Y-34866D01*
X65686Y-34879D01*
X65739Y-34879D01*
X65792Y-34853D01*
X65818Y-34826D01*
X65845Y-34773D01*
X65845Y-34747D01*
X65752Y-34654D01*
X65699Y-34707D01*
X65991Y-34654D02*
X65712Y-34375D01*
X66150Y-34495D01*
X65871Y-34216D01*
X66282Y-34362D02*
X66004Y-34084D01*
X66070Y-34017D01*
X66123Y-33991D01*
X66176Y-33991D01*
X66216Y-34004D01*
X66282Y-34044D01*
X66322Y-34084D01*
X66362Y-34150D01*
X66375Y-34190D01*
X66375Y-34243D01*
X66349Y-34296D01*
X66282Y-34362D01*
X87645Y-30146D02*
X87945Y-30146D01*
X87645Y-28965D02*
X87945Y-28965D01*
X87795Y-29115D02*
X87795Y-28815D01*
G54D11*
X60826Y-44685D02*
X60826Y-49606D01*
X61220Y-43897D02*
X61220Y-44685D01*
X74409Y-41929D02*
X74409Y-42125D01*
X76574Y-41929D02*
X74409Y-41929D01*
X78149Y-40059D02*
X78149Y-40452D01*
X78149Y-40452D02*
X77755Y-40255D01*
X77755Y-40255D02*
X78149Y-40059D01*
X77755Y-40059D02*
X77755Y-40452D01*
X78149Y-40255D02*
X78346Y-40255D01*
X77755Y-40255D02*
X77559Y-40255D01*
X78149Y-40255D02*
X77854Y-40255D01*
X77854Y-40255D02*
X78149Y-40157D01*
X77854Y-40255D02*
X78149Y-40354D01*
G54D12*
X61726Y-46822D02*
X61857Y-46822D01*
X61914Y-47028D02*
X61726Y-47028D01*
X61726Y-46634D01*
X61914Y-46634D01*
X63507Y-46991D02*
X63488Y-47009D01*
X63432Y-47028D01*
X63395Y-47028D01*
X63338Y-47009D01*
X63301Y-46972D01*
X63282Y-46934D01*
X63263Y-46859D01*
X63263Y-46803D01*
X63282Y-46728D01*
X63301Y-46691D01*
X63338Y-46653D01*
X63395Y-46634D01*
X63432Y-46634D01*
X63488Y-46653D01*
X63507Y-46672D01*
X64988Y-46822D02*
X65044Y-46841D01*
X65063Y-46859D01*
X65082Y-46897D01*
X65082Y-46953D01*
X65063Y-46991D01*
X65044Y-47009D01*
X65007Y-47028D01*
X64857Y-47028D01*
X64857Y-46634D01*
X64988Y-46634D01*
X65026Y-46653D01*
X65044Y-46672D01*
X65063Y-46709D01*
X65063Y-46747D01*
X65044Y-46784D01*
X65026Y-46803D01*
X64988Y-46822D01*
X64857Y-46822D01*
G54D11*
X52263Y-41732D02*
X52263Y-41633D01*
X52362Y-41732D02*
X52263Y-41732D01*
X52362Y-41633D02*
X52362Y-41732D01*
X52263Y-41633D02*
X52362Y-41633D01*
X53740Y-36614D02*
X49606Y-36614D01*
X53740Y-37401D02*
X53740Y-36614D01*
X54330Y-37992D02*
X53740Y-37401D01*
X52165Y-34251D02*
X50787Y-35236D01*
X61220Y-34251D02*
X52165Y-34251D01*
X57677Y-42322D02*
X54330Y-42322D01*
X57677Y-44685D02*
X57677Y-42322D01*
X61220Y-44685D02*
X57677Y-44685D01*
X61220Y-43897D02*
X61220Y-43110D01*
X64960Y-43897D02*
X61220Y-43897D01*
X64960Y-42519D02*
X64960Y-43897D01*
X61220Y-33858D02*
X61220Y-43110D01*
X61220Y-33562D02*
X61220Y-33858D01*
X61318Y-33464D02*
X61220Y-33562D01*
X73720Y-29921D02*
X74015Y-30019D01*
X73720Y-29921D02*
X74015Y-29822D01*
X74015Y-29921D02*
X73720Y-29921D01*
X73622Y-29921D02*
X73425Y-29921D01*
X74015Y-29921D02*
X74212Y-29921D01*
X73622Y-29724D02*
X73622Y-30118D01*
X73622Y-29921D02*
X74015Y-29724D01*
X74015Y-30118D02*
X73622Y-29921D01*
X74015Y-29724D02*
X74015Y-30118D01*
X74212Y-35728D02*
X74212Y-35629D01*
X74114Y-35728D02*
X74212Y-35728D01*
X74114Y-35629D02*
X74114Y-35728D01*
X74212Y-35629D02*
X74114Y-35629D01*
X62992Y-38484D02*
X62992Y-38582D01*
X63090Y-38582D02*
X62992Y-38582D01*
X63090Y-38484D02*
X63090Y-38582D01*
X62992Y-38484D02*
X63090Y-38484D01*
X71062Y-36712D02*
X70866Y-36909D01*
X71062Y-36712D02*
X70866Y-36515D01*
X68897Y-36712D02*
X71062Y-36712D01*
X57480Y-39468D02*
X57283Y-39665D01*
X57480Y-39468D02*
X57283Y-39271D01*
X55807Y-39468D02*
X57480Y-39468D01*
X62500Y-32283D02*
X63188Y-32283D01*
X61318Y-33464D02*
X62500Y-32283D01*
X67913Y-32677D02*
X67913Y-38582D01*
X67913Y-32283D02*
X67913Y-27165D01*
X72440Y-32283D02*
X81692Y-32283D01*
X63188Y-32283D02*
X72440Y-32283D01*
X64960Y-42519D02*
X64960Y-38582D01*
X71259Y-44291D02*
X71062Y-44291D01*
X71062Y-38582D02*
X64960Y-38582D01*
X71062Y-45669D02*
X71062Y-38582D01*
G54D13*
X81913Y-35315D02*
X81913Y-34922D01*
X82044Y-35203D01*
X82175Y-34922D01*
X82175Y-35315D01*
X82363Y-35109D02*
X82494Y-35109D01*
X82550Y-35315D02*
X82363Y-35315D01*
X82363Y-34922D01*
X82550Y-34922D01*
X82663Y-34922D02*
X82888Y-34922D01*
X82775Y-35315D02*
X82775Y-34922D01*
X83019Y-35109D02*
X83150Y-35109D01*
X83206Y-35315D02*
X83019Y-35315D01*
X83019Y-34922D01*
X83206Y-34922D01*
X83600Y-35315D02*
X83469Y-35128D01*
X83375Y-35315D02*
X83375Y-34922D01*
X83525Y-34922D01*
X83562Y-34940D01*
X83581Y-34959D01*
X83600Y-34997D01*
X83600Y-35053D01*
X83581Y-35090D01*
X83562Y-35109D01*
X83525Y-35128D01*
X83375Y-35128D01*
X84012Y-34922D02*
X84237Y-34922D01*
X84125Y-35315D02*
X84125Y-34922D01*
X84594Y-35315D02*
X84462Y-35128D01*
X84369Y-35315D02*
X84369Y-34922D01*
X84519Y-34922D01*
X84556Y-34940D01*
X84575Y-34959D01*
X84594Y-34997D01*
X84594Y-35053D01*
X84575Y-35090D01*
X84556Y-35109D01*
X84519Y-35128D01*
X84369Y-35128D01*
X84762Y-35315D02*
X84762Y-34922D01*
X84950Y-35315D02*
X84950Y-34922D01*
X85081Y-35203D01*
X85212Y-34922D01*
X85212Y-35315D01*
X82011Y-27599D02*
X81880Y-27599D01*
X81880Y-27806D02*
X81880Y-27412D01*
X82067Y-27412D01*
X82217Y-27599D02*
X82349Y-27599D01*
X82405Y-27806D02*
X82217Y-27806D01*
X82217Y-27412D01*
X82405Y-27412D01*
X82574Y-27599D02*
X82705Y-27599D01*
X82761Y-27806D02*
X82574Y-27806D01*
X82574Y-27412D01*
X82761Y-27412D01*
X82930Y-27806D02*
X82930Y-27412D01*
X83023Y-27412D01*
X83080Y-27431D01*
X83117Y-27468D01*
X83136Y-27506D01*
X83155Y-27581D01*
X83155Y-27637D01*
X83136Y-27712D01*
X83117Y-27749D01*
X83080Y-27787D01*
X83023Y-27806D01*
X82930Y-27806D01*
X83455Y-27599D02*
X83511Y-27618D01*
X83530Y-27637D01*
X83548Y-27674D01*
X83548Y-27731D01*
X83530Y-27768D01*
X83511Y-27787D01*
X83473Y-27806D01*
X83323Y-27806D01*
X83323Y-27412D01*
X83455Y-27412D01*
X83492Y-27431D01*
X83511Y-27449D01*
X83530Y-27487D01*
X83530Y-27524D01*
X83511Y-27562D01*
X83492Y-27581D01*
X83455Y-27599D01*
X83323Y-27599D01*
X83698Y-27693D02*
X83886Y-27693D01*
X83661Y-27806D02*
X83792Y-27412D01*
X83923Y-27806D01*
X84280Y-27768D02*
X84261Y-27787D01*
X84205Y-27806D01*
X84167Y-27806D01*
X84111Y-27787D01*
X84073Y-27749D01*
X84055Y-27712D01*
X84036Y-27637D01*
X84036Y-27581D01*
X84055Y-27506D01*
X84073Y-27468D01*
X84111Y-27431D01*
X84167Y-27412D01*
X84205Y-27412D01*
X84261Y-27431D01*
X84280Y-27449D01*
X84448Y-27806D02*
X84448Y-27412D01*
X84673Y-27806D02*
X84505Y-27581D01*
X84673Y-27412D02*
X84448Y-27637D01*
X82508Y-28455D02*
X82508Y-28061D01*
X82695Y-28455D02*
X82695Y-28061D01*
X82920Y-28455D01*
X82920Y-28061D01*
X83108Y-28455D02*
X83108Y-28061D01*
X83258Y-28061D01*
X83295Y-28080D01*
X83314Y-28099D01*
X83333Y-28136D01*
X83333Y-28193D01*
X83314Y-28230D01*
X83295Y-28249D01*
X83258Y-28268D01*
X83108Y-28268D01*
X83502Y-28061D02*
X83502Y-28380D01*
X83520Y-28418D01*
X83539Y-28436D01*
X83577Y-28455D01*
X83652Y-28455D01*
X83689Y-28436D01*
X83708Y-28418D01*
X83727Y-28380D01*
X83727Y-28061D01*
X83858Y-28061D02*
X84083Y-28061D01*
X83970Y-28455D02*
X83970Y-28061D01*
X52043Y-28002D02*
X52043Y-27609D01*
X52193Y-27609D01*
X52230Y-27627D01*
X52249Y-27646D01*
X52268Y-27684D01*
X52268Y-27740D01*
X52249Y-27777D01*
X52230Y-27796D01*
X52193Y-27815D01*
X52043Y-27815D01*
X52512Y-27609D02*
X52587Y-27609D01*
X52624Y-27627D01*
X52662Y-27665D01*
X52680Y-27740D01*
X52680Y-27871D01*
X52662Y-27946D01*
X52624Y-27984D01*
X52587Y-28002D01*
X52512Y-28002D01*
X52474Y-27984D01*
X52437Y-27946D01*
X52418Y-27871D01*
X52418Y-27740D01*
X52437Y-27665D01*
X52474Y-27627D01*
X52512Y-27609D01*
X52812Y-27609D02*
X52905Y-28002D01*
X52980Y-27721D01*
X53055Y-28002D01*
X53149Y-27609D01*
X53299Y-27796D02*
X53430Y-27796D01*
X53487Y-28002D02*
X53299Y-28002D01*
X53299Y-27609D01*
X53487Y-27609D01*
X53880Y-28002D02*
X53749Y-27815D01*
X53655Y-28002D02*
X53655Y-27609D01*
X53805Y-27609D01*
X53843Y-27627D01*
X53862Y-27646D01*
X53880Y-27684D01*
X53880Y-27740D01*
X53862Y-27777D01*
X53843Y-27796D01*
X53805Y-27815D01*
X53655Y-27815D01*
X52193Y-28652D02*
X52193Y-28258D01*
X52380Y-28652D02*
X52380Y-28258D01*
X52605Y-28652D01*
X52605Y-28258D01*
X52793Y-28652D02*
X52793Y-28258D01*
X52943Y-28258D01*
X52980Y-28277D01*
X52999Y-28296D01*
X53018Y-28333D01*
X53018Y-28390D01*
X52999Y-28427D01*
X52980Y-28446D01*
X52943Y-28465D01*
X52793Y-28465D01*
X53187Y-28258D02*
X53187Y-28577D01*
X53205Y-28615D01*
X53224Y-28633D01*
X53262Y-28652D01*
X53337Y-28652D01*
X53374Y-28633D01*
X53393Y-28615D01*
X53412Y-28577D01*
X53412Y-28258D01*
X53543Y-28258D02*
X53768Y-28258D01*
X53655Y-28652D02*
X53655Y-28258D01*
X68832Y-31054D02*
X69056Y-31054D01*
X68944Y-31447D02*
X68944Y-31054D01*
X69188Y-31447D02*
X69188Y-31054D01*
X69188Y-31241D02*
X69413Y-31241D01*
X69413Y-31447D02*
X69413Y-31054D01*
X69600Y-31241D02*
X69731Y-31241D01*
X69788Y-31447D02*
X69600Y-31447D01*
X69600Y-31054D01*
X69788Y-31054D01*
X70181Y-31447D02*
X70050Y-31260D01*
X69956Y-31447D02*
X69956Y-31054D01*
X70106Y-31054D01*
X70144Y-31072D01*
X70163Y-31091D01*
X70181Y-31129D01*
X70181Y-31185D01*
X70163Y-31222D01*
X70144Y-31241D01*
X70106Y-31260D01*
X69956Y-31260D01*
X70350Y-31447D02*
X70350Y-31054D01*
X70481Y-31335D01*
X70613Y-31054D01*
X70613Y-31447D01*
X70781Y-31335D02*
X70969Y-31335D01*
X70744Y-31447D02*
X70875Y-31054D01*
X71006Y-31447D01*
X71325Y-31447D02*
X71137Y-31447D01*
X71137Y-31054D01*
X69300Y-32059D02*
X69281Y-32078D01*
X69225Y-32097D01*
X69188Y-32097D01*
X69131Y-32078D01*
X69094Y-32041D01*
X69075Y-32003D01*
X69056Y-31928D01*
X69056Y-31872D01*
X69075Y-31797D01*
X69094Y-31759D01*
X69131Y-31722D01*
X69188Y-31703D01*
X69225Y-31703D01*
X69281Y-31722D01*
X69300Y-31741D01*
X69469Y-31703D02*
X69469Y-32022D01*
X69488Y-32059D01*
X69506Y-32078D01*
X69544Y-32097D01*
X69619Y-32097D01*
X69656Y-32078D01*
X69675Y-32059D01*
X69694Y-32022D01*
X69694Y-31703D01*
X69825Y-31703D02*
X70050Y-31703D01*
X69938Y-32097D02*
X69938Y-31703D01*
X70256Y-31703D02*
X70331Y-31703D01*
X70369Y-31722D01*
X70406Y-31759D01*
X70425Y-31834D01*
X70425Y-31966D01*
X70406Y-32041D01*
X70369Y-32078D01*
X70331Y-32097D01*
X70256Y-32097D01*
X70219Y-32078D01*
X70181Y-32041D01*
X70163Y-31966D01*
X70163Y-31834D01*
X70181Y-31759D01*
X70219Y-31722D01*
X70256Y-31703D01*
X70725Y-31891D02*
X70594Y-31891D01*
X70594Y-32097D02*
X70594Y-31703D01*
X70781Y-31703D01*
X71062Y-31891D02*
X70931Y-31891D01*
X70931Y-32097D02*
X70931Y-31703D01*
X71119Y-31703D01*
X68475Y-32886D02*
X68457Y-32905D01*
X68400Y-32924D01*
X68363Y-32924D01*
X68307Y-32905D01*
X68269Y-32867D01*
X68250Y-32830D01*
X68232Y-32755D01*
X68232Y-32699D01*
X68250Y-32624D01*
X68269Y-32586D01*
X68307Y-32549D01*
X68363Y-32530D01*
X68400Y-32530D01*
X68457Y-32549D01*
X68475Y-32567D01*
X68644Y-32530D02*
X68644Y-32849D01*
X68663Y-32886D01*
X68682Y-32905D01*
X68719Y-32924D01*
X68794Y-32924D01*
X68832Y-32905D01*
X68850Y-32886D01*
X68869Y-32849D01*
X68869Y-32530D01*
X69281Y-32924D02*
X69150Y-32736D01*
X69056Y-32924D02*
X69056Y-32530D01*
X69206Y-32530D01*
X69244Y-32549D01*
X69263Y-32567D01*
X69281Y-32605D01*
X69281Y-32661D01*
X69263Y-32699D01*
X69244Y-32717D01*
X69206Y-32736D01*
X69056Y-32736D01*
X69675Y-32924D02*
X69544Y-32736D01*
X69450Y-32924D02*
X69450Y-32530D01*
X69600Y-32530D01*
X69638Y-32549D01*
X69656Y-32567D01*
X69675Y-32605D01*
X69675Y-32661D01*
X69656Y-32699D01*
X69638Y-32717D01*
X69600Y-32736D01*
X69450Y-32736D01*
X69844Y-32717D02*
X69975Y-32717D01*
X70031Y-32924D02*
X69844Y-32924D01*
X69844Y-32530D01*
X70031Y-32530D01*
X70200Y-32924D02*
X70200Y-32530D01*
X70425Y-32924D01*
X70425Y-32530D01*
X70556Y-32530D02*
X70781Y-32530D01*
X70669Y-32924D02*
X70669Y-32530D01*
X68672Y-33573D02*
X68485Y-33573D01*
X68485Y-33180D01*
X68803Y-33573D02*
X68803Y-33180D01*
X68991Y-33573D02*
X68991Y-33180D01*
X69122Y-33461D01*
X69253Y-33180D01*
X69253Y-33573D01*
X69441Y-33573D02*
X69441Y-33180D01*
X69572Y-33180D02*
X69797Y-33180D01*
X69685Y-33573D02*
X69685Y-33180D01*
X69928Y-33367D02*
X70059Y-33367D01*
X70116Y-33573D02*
X69928Y-33573D01*
X69928Y-33180D01*
X70116Y-33180D01*
X70509Y-33573D02*
X70378Y-33386D01*
X70284Y-33573D02*
X70284Y-33180D01*
X70434Y-33180D01*
X70472Y-33198D01*
X70491Y-33217D01*
X70509Y-33255D01*
X70509Y-33311D01*
X70491Y-33348D01*
X70472Y-33367D01*
X70434Y-33386D01*
X70284Y-33386D01*
X65851Y-32717D02*
X65982Y-32717D01*
X66038Y-32924D02*
X65851Y-32924D01*
X65851Y-32530D01*
X66038Y-32530D01*
X66432Y-32924D02*
X66301Y-32736D01*
X66207Y-32924D02*
X66207Y-32530D01*
X66357Y-32530D01*
X66394Y-32549D01*
X66413Y-32567D01*
X66432Y-32605D01*
X66432Y-32661D01*
X66413Y-32699D01*
X66394Y-32717D01*
X66357Y-32736D01*
X66207Y-32736D01*
X66826Y-32924D02*
X66694Y-32736D01*
X66601Y-32924D02*
X66601Y-32530D01*
X66751Y-32530D01*
X66788Y-32549D01*
X66807Y-32567D01*
X66826Y-32605D01*
X66826Y-32661D01*
X66807Y-32699D01*
X66788Y-32717D01*
X66751Y-32736D01*
X66601Y-32736D01*
X67069Y-32530D02*
X67144Y-32530D01*
X67182Y-32549D01*
X67219Y-32586D01*
X67238Y-32661D01*
X67238Y-32792D01*
X67219Y-32867D01*
X67182Y-32905D01*
X67144Y-32924D01*
X67069Y-32924D01*
X67032Y-32905D01*
X66994Y-32867D01*
X66976Y-32792D01*
X66976Y-32661D01*
X66994Y-32586D01*
X67032Y-32549D01*
X67069Y-32530D01*
X67632Y-32924D02*
X67500Y-32736D01*
X67407Y-32924D02*
X67407Y-32530D01*
X67557Y-32530D01*
X67594Y-32549D01*
X67613Y-32567D01*
X67632Y-32605D01*
X67632Y-32661D01*
X67613Y-32699D01*
X67594Y-32717D01*
X67557Y-32736D01*
X67407Y-32736D01*
X65963Y-33461D02*
X66151Y-33461D01*
X65926Y-33573D02*
X66057Y-33180D01*
X66188Y-33573D01*
X66319Y-33573D02*
X66319Y-33180D01*
X66451Y-33461D01*
X66582Y-33180D01*
X66582Y-33573D01*
X66769Y-33573D02*
X66769Y-33180D01*
X66919Y-33180D01*
X66957Y-33198D01*
X66976Y-33217D01*
X66994Y-33255D01*
X66994Y-33311D01*
X66976Y-33348D01*
X66957Y-33367D01*
X66919Y-33386D01*
X66769Y-33386D01*
X67350Y-33573D02*
X67163Y-33573D01*
X67163Y-33180D01*
X67482Y-33536D02*
X67500Y-33555D01*
X67482Y-33573D01*
X67463Y-33555D01*
X67482Y-33536D01*
X67482Y-33573D01*
X51565Y-34892D02*
X51696Y-35286D01*
X51827Y-34892D01*
X52034Y-34892D02*
X52109Y-34892D01*
X52146Y-34911D01*
X52184Y-34948D01*
X52202Y-35023D01*
X52202Y-35155D01*
X52184Y-35230D01*
X52146Y-35267D01*
X52109Y-35286D01*
X52034Y-35286D01*
X51996Y-35267D01*
X51959Y-35230D01*
X51940Y-35155D01*
X51940Y-35023D01*
X51959Y-34948D01*
X51996Y-34911D01*
X52034Y-34892D01*
X52559Y-35286D02*
X52371Y-35286D01*
X52371Y-34892D01*
X52634Y-34892D02*
X52859Y-34892D01*
X52746Y-35286D02*
X52746Y-34892D01*
X52971Y-35173D02*
X53158Y-35173D01*
X52934Y-35286D02*
X53065Y-34892D01*
X53196Y-35286D01*
X53533Y-34911D02*
X53496Y-34892D01*
X53440Y-34892D01*
X53383Y-34911D01*
X53346Y-34948D01*
X53327Y-34986D01*
X53308Y-35061D01*
X53308Y-35117D01*
X53327Y-35192D01*
X53346Y-35230D01*
X53383Y-35267D01*
X53440Y-35286D01*
X53477Y-35286D01*
X53533Y-35267D01*
X53552Y-35248D01*
X53552Y-35117D01*
X53477Y-35117D01*
X53721Y-35080D02*
X53852Y-35080D01*
X53908Y-35286D02*
X53721Y-35286D01*
X53721Y-34892D01*
X53908Y-34892D01*
X51396Y-35935D02*
X51265Y-35748D01*
X51171Y-35935D02*
X51171Y-35542D01*
X51321Y-35542D01*
X51359Y-35561D01*
X51377Y-35579D01*
X51396Y-35617D01*
X51396Y-35673D01*
X51377Y-35711D01*
X51359Y-35729D01*
X51321Y-35748D01*
X51171Y-35748D01*
X51565Y-35729D02*
X51696Y-35729D01*
X51752Y-35935D02*
X51565Y-35935D01*
X51565Y-35542D01*
X51752Y-35542D01*
X52052Y-35729D02*
X51921Y-35729D01*
X51921Y-35935D02*
X51921Y-35542D01*
X52109Y-35542D01*
X52259Y-35729D02*
X52390Y-35729D01*
X52446Y-35935D02*
X52259Y-35935D01*
X52259Y-35542D01*
X52446Y-35542D01*
X52840Y-35935D02*
X52709Y-35748D01*
X52615Y-35935D02*
X52615Y-35542D01*
X52765Y-35542D01*
X52802Y-35561D01*
X52821Y-35579D01*
X52840Y-35617D01*
X52840Y-35673D01*
X52821Y-35711D01*
X52802Y-35729D01*
X52765Y-35748D01*
X52615Y-35748D01*
X53008Y-35729D02*
X53140Y-35729D01*
X53196Y-35935D02*
X53008Y-35935D01*
X53008Y-35542D01*
X53196Y-35542D01*
X53365Y-35935D02*
X53365Y-35542D01*
X53590Y-35935D01*
X53590Y-35542D01*
X54002Y-35898D02*
X53983Y-35917D01*
X53927Y-35935D01*
X53890Y-35935D01*
X53833Y-35917D01*
X53796Y-35879D01*
X53777Y-35842D01*
X53758Y-35767D01*
X53758Y-35711D01*
X53777Y-35636D01*
X53796Y-35598D01*
X53833Y-35561D01*
X53890Y-35542D01*
X53927Y-35542D01*
X53983Y-35561D01*
X54002Y-35579D01*
X54171Y-35729D02*
X54302Y-35729D01*
X54358Y-35935D02*
X54171Y-35935D01*
X54171Y-35542D01*
X54358Y-35542D01*
X71986Y-44439D02*
X72061Y-44439D01*
X72098Y-44458D01*
X72136Y-44496D01*
X72155Y-44571D01*
X72155Y-44702D01*
X72136Y-44777D01*
X72098Y-44814D01*
X72061Y-44833D01*
X71986Y-44833D01*
X71948Y-44814D01*
X71911Y-44777D01*
X71892Y-44702D01*
X71892Y-44571D01*
X71911Y-44496D01*
X71948Y-44458D01*
X71986Y-44439D01*
X72323Y-44439D02*
X72323Y-44758D01*
X72342Y-44796D01*
X72361Y-44814D01*
X72398Y-44833D01*
X72473Y-44833D01*
X72511Y-44814D01*
X72529Y-44796D01*
X72548Y-44758D01*
X72548Y-44439D01*
X72679Y-44439D02*
X72904Y-44439D01*
X72792Y-44833D02*
X72792Y-44439D01*
X73036Y-44833D02*
X73036Y-44439D01*
X73186Y-44439D01*
X73223Y-44458D01*
X73242Y-44477D01*
X73261Y-44514D01*
X73261Y-44571D01*
X73242Y-44608D01*
X73223Y-44627D01*
X73186Y-44646D01*
X73036Y-44646D01*
X73429Y-44439D02*
X73429Y-44758D01*
X73448Y-44796D01*
X73467Y-44814D01*
X73504Y-44833D01*
X73579Y-44833D01*
X73617Y-44814D01*
X73636Y-44796D01*
X73654Y-44758D01*
X73654Y-44439D01*
X73786Y-44439D02*
X74011Y-44439D01*
X73898Y-44833D02*
X73898Y-44439D01*
X72211Y-45276D02*
X72080Y-45276D01*
X72080Y-45483D02*
X72080Y-45089D01*
X72267Y-45089D01*
X72417Y-45483D02*
X72417Y-45089D01*
X72792Y-45483D02*
X72604Y-45483D01*
X72604Y-45089D01*
X72867Y-45089D02*
X73092Y-45089D01*
X72979Y-45483D02*
X72979Y-45089D01*
X73223Y-45276D02*
X73354Y-45276D01*
X73411Y-45483D02*
X73223Y-45483D01*
X73223Y-45089D01*
X73411Y-45089D01*
X73804Y-45483D02*
X73673Y-45295D01*
X73579Y-45483D02*
X73579Y-45089D01*
X73729Y-45089D01*
X73767Y-45108D01*
X73786Y-45127D01*
X73804Y-45164D01*
X73804Y-45220D01*
X73786Y-45258D01*
X73767Y-45276D01*
X73729Y-45295D01*
X73579Y-45295D01*
X61651Y-48278D02*
X61726Y-48278D01*
X61764Y-48297D01*
X61801Y-48334D01*
X61820Y-48409D01*
X61820Y-48540D01*
X61801Y-48615D01*
X61764Y-48653D01*
X61726Y-48672D01*
X61651Y-48672D01*
X61614Y-48653D01*
X61576Y-48615D01*
X61557Y-48540D01*
X61557Y-48409D01*
X61576Y-48334D01*
X61614Y-48297D01*
X61651Y-48278D01*
X61989Y-48278D02*
X61989Y-48597D01*
X62007Y-48634D01*
X62026Y-48653D01*
X62064Y-48672D01*
X62139Y-48672D01*
X62176Y-48653D01*
X62195Y-48634D01*
X62214Y-48597D01*
X62214Y-48278D01*
X62345Y-48278D02*
X62570Y-48278D01*
X62457Y-48672D02*
X62457Y-48278D01*
X62701Y-48672D02*
X62701Y-48278D01*
X62851Y-48278D01*
X62889Y-48297D01*
X62907Y-48315D01*
X62926Y-48353D01*
X62926Y-48409D01*
X62907Y-48447D01*
X62889Y-48465D01*
X62851Y-48484D01*
X62701Y-48484D01*
X63095Y-48278D02*
X63095Y-48597D01*
X63113Y-48634D01*
X63132Y-48653D01*
X63170Y-48672D01*
X63245Y-48672D01*
X63282Y-48653D01*
X63301Y-48634D01*
X63320Y-48597D01*
X63320Y-48278D01*
X63451Y-48278D02*
X63676Y-48278D01*
X63563Y-48672D02*
X63563Y-48278D01*
X61192Y-49209D02*
X61379Y-49209D01*
X61154Y-49321D02*
X61286Y-48928D01*
X61417Y-49321D01*
X61548Y-49321D02*
X61548Y-48928D01*
X61679Y-49209D01*
X61811Y-48928D01*
X61811Y-49321D01*
X61998Y-49321D02*
X61998Y-48928D01*
X62148Y-48928D01*
X62185Y-48946D01*
X62204Y-48965D01*
X62223Y-49003D01*
X62223Y-49059D01*
X62204Y-49096D01*
X62185Y-49115D01*
X62148Y-49134D01*
X61998Y-49134D01*
X62579Y-49321D02*
X62392Y-49321D01*
X62392Y-48928D01*
X62710Y-49321D02*
X62710Y-48928D01*
X63029Y-49115D02*
X62898Y-49115D01*
X62898Y-49321D02*
X62898Y-48928D01*
X63085Y-48928D01*
X63235Y-49321D02*
X63235Y-48928D01*
X63423Y-49115D02*
X63554Y-49115D01*
X63610Y-49321D02*
X63423Y-49321D01*
X63423Y-48928D01*
X63610Y-48928D01*
X64004Y-49321D02*
X63873Y-49134D01*
X63779Y-49321D02*
X63779Y-48928D01*
X63929Y-48928D01*
X63967Y-48946D01*
X63985Y-48965D01*
X64004Y-49003D01*
X64004Y-49059D01*
X63985Y-49096D01*
X63967Y-49115D01*
X63929Y-49134D01*
X63779Y-49134D01*
X58248Y-48672D02*
X58061Y-48672D01*
X58061Y-48278D01*
X58455Y-48278D02*
X58530Y-48278D01*
X58567Y-48297D01*
X58605Y-48334D01*
X58623Y-48409D01*
X58623Y-48540D01*
X58605Y-48615D01*
X58567Y-48653D01*
X58530Y-48672D01*
X58455Y-48672D01*
X58417Y-48653D01*
X58380Y-48615D01*
X58361Y-48540D01*
X58361Y-48409D01*
X58380Y-48334D01*
X58417Y-48297D01*
X58455Y-48278D01*
X59017Y-48634D02*
X58998Y-48653D01*
X58942Y-48672D01*
X58905Y-48672D01*
X58848Y-48653D01*
X58811Y-48615D01*
X58792Y-48578D01*
X58773Y-48503D01*
X58773Y-48447D01*
X58792Y-48372D01*
X58811Y-48334D01*
X58848Y-48297D01*
X58905Y-48278D01*
X58942Y-48278D01*
X58998Y-48297D01*
X59017Y-48315D01*
X59167Y-48559D02*
X59355Y-48559D01*
X59130Y-48672D02*
X59261Y-48278D01*
X59392Y-48672D01*
X59711Y-48672D02*
X59523Y-48672D01*
X59523Y-48278D01*
X57517Y-49321D02*
X57386Y-49134D01*
X57292Y-49321D02*
X57292Y-48928D01*
X57442Y-48928D01*
X57480Y-48946D01*
X57499Y-48965D01*
X57517Y-49003D01*
X57517Y-49059D01*
X57499Y-49096D01*
X57480Y-49115D01*
X57442Y-49134D01*
X57292Y-49134D01*
X57686Y-49115D02*
X57817Y-49115D01*
X57874Y-49321D02*
X57686Y-49321D01*
X57686Y-48928D01*
X57874Y-48928D01*
X58248Y-48946D02*
X58211Y-48928D01*
X58155Y-48928D01*
X58098Y-48946D01*
X58061Y-48984D01*
X58042Y-49021D01*
X58023Y-49096D01*
X58023Y-49153D01*
X58042Y-49228D01*
X58061Y-49265D01*
X58098Y-49303D01*
X58155Y-49321D01*
X58192Y-49321D01*
X58248Y-49303D01*
X58267Y-49284D01*
X58267Y-49153D01*
X58192Y-49153D01*
X58436Y-48928D02*
X58436Y-49246D01*
X58455Y-49284D01*
X58473Y-49303D01*
X58511Y-49321D01*
X58586Y-49321D01*
X58623Y-49303D01*
X58642Y-49284D01*
X58661Y-49246D01*
X58661Y-48928D01*
X59036Y-49321D02*
X58848Y-49321D01*
X58848Y-48928D01*
X59148Y-49209D02*
X59336Y-49209D01*
X59111Y-49321D02*
X59242Y-48928D01*
X59373Y-49321D01*
X59448Y-48928D02*
X59673Y-48928D01*
X59561Y-49321D02*
X59561Y-48928D01*
X59880Y-48928D02*
X59955Y-48928D01*
X59992Y-48946D01*
X60029Y-48984D01*
X60048Y-49059D01*
X60048Y-49190D01*
X60029Y-49265D01*
X59992Y-49303D01*
X59955Y-49321D01*
X59880Y-49321D01*
X59842Y-49303D01*
X59805Y-49265D01*
X59786Y-49190D01*
X59786Y-49059D01*
X59805Y-48984D01*
X59842Y-48946D01*
X59880Y-48928D01*
X60442Y-49321D02*
X60311Y-49134D01*
X60217Y-49321D02*
X60217Y-48928D01*
X60367Y-48928D01*
X60404Y-48946D01*
X60423Y-48965D01*
X60442Y-49003D01*
X60442Y-49059D01*
X60423Y-49096D01*
X60404Y-49115D01*
X60367Y-49134D01*
X60217Y-49134D01*
G54D11*
X88385Y-27165D02*
X88385Y-27559D01*
X81692Y-27165D02*
X88385Y-27165D01*
X81692Y-32480D02*
X81692Y-27165D01*
X88385Y-34645D02*
X88385Y-35236D01*
X81692Y-34645D02*
X88385Y-34645D01*
X88385Y-41141D02*
X81692Y-41141D01*
X88385Y-42913D02*
X88385Y-41141D01*
X88385Y-47047D02*
X88385Y-46456D01*
X85826Y-47047D02*
X88385Y-47047D01*
X85826Y-45669D02*
X85826Y-47047D01*
X71259Y-45669D02*
X85826Y-45669D01*
X81692Y-41141D02*
X81692Y-32480D01*
X79921Y-41141D02*
X81692Y-41141D01*
X79133Y-41929D02*
X79921Y-41141D01*
X76574Y-41929D02*
X79133Y-41929D01*
X74409Y-44291D02*
X74409Y-42125D01*
X71259Y-44291D02*
X74409Y-44291D01*
X66338Y-45669D02*
X66338Y-49606D01*
X71259Y-45669D02*
X66338Y-45669D01*
G54D14*
X88543Y-24488D02*
X88543Y-22598D01*
X88307Y-24488D02*
X88543Y-24488D01*
X88307Y-24488D02*
G75*
G03X87598Y-25196I0J-708D01*
G74*
G01*
X87598Y-25196D02*
G75*
G03X88307Y-25905I708J0D01*
G74*
G01*
X88543Y-25905D02*
X88307Y-25905D01*
X88543Y-48897D02*
X88543Y-25905D01*
X88307Y-48897D02*
X88543Y-48897D01*
X88307Y-48897D02*
G75*
G03X87598Y-49606I0J-708D01*
G74*
G01*
X87598Y-49606D02*
G75*
G03X88307Y-50314I708J0D01*
G74*
G01*
X88543Y-50314D02*
X88307Y-50314D01*
X88543Y-52125D02*
X88543Y-50314D01*
X49173Y-50314D02*
X49173Y-52125D01*
X49527Y-50314D02*
X49173Y-50314D01*
X49527Y-50314D02*
G75*
G03X50236Y-49606I0J708D01*
G74*
G01*
X50236Y-49606D02*
G75*
G03X49527Y-48897I-708J0D01*
G74*
G01*
X49173Y-48897D02*
X49527Y-48897D01*
X49173Y-25905D02*
X49173Y-48897D01*
X49527Y-25905D02*
X49173Y-25905D01*
X49527Y-25905D02*
G75*
G03X50236Y-25196I0J708D01*
G74*
G01*
X50236Y-25196D02*
G75*
G03X49527Y-24488I-708J0D01*
G74*
G01*
X49173Y-24488D02*
X49527Y-24488D01*
X49173Y-22598D02*
X49173Y-24488D01*
X88543Y-52125D02*
X49173Y-52125D01*
X49173Y-22598D02*
X88543Y-22598D01*
G54D11*
X49550Y-53107D02*
X49353Y-53107D01*
X49353Y-53416D02*
X49353Y-52826D01*
X49634Y-52826D01*
X50196Y-53416D02*
X50000Y-53135D01*
X49859Y-53416D02*
X49859Y-52826D01*
X50084Y-52826D01*
X50140Y-52854D01*
X50168Y-52882D01*
X50196Y-52938D01*
X50196Y-53023D01*
X50168Y-53079D01*
X50140Y-53107D01*
X50084Y-53135D01*
X49859Y-53135D01*
X50562Y-52826D02*
X50674Y-52826D01*
X50731Y-52854D01*
X50787Y-52910D01*
X50815Y-53023D01*
X50815Y-53219D01*
X50787Y-53332D01*
X50731Y-53388D01*
X50674Y-53416D01*
X50562Y-53416D01*
X50506Y-53388D01*
X50449Y-53332D01*
X50421Y-53219D01*
X50421Y-53023D01*
X50449Y-52910D01*
X50506Y-52854D01*
X50562Y-52826D01*
X51068Y-53416D02*
X51068Y-52826D01*
X51406Y-53416D01*
X51406Y-52826D01*
X51602Y-52826D02*
X51940Y-52826D01*
X51771Y-53416D02*
X51771Y-52826D01*
X52559Y-53388D02*
X52643Y-53416D01*
X52784Y-53416D01*
X52840Y-53388D01*
X52868Y-53360D01*
X52896Y-53304D01*
X52896Y-53248D01*
X52868Y-53191D01*
X52840Y-53163D01*
X52784Y-53135D01*
X52671Y-53107D01*
X52615Y-53079D01*
X52587Y-53051D01*
X52559Y-52994D01*
X52559Y-52938D01*
X52587Y-52882D01*
X52615Y-52854D01*
X52671Y-52826D01*
X52812Y-52826D01*
X52896Y-52854D01*
X53149Y-53416D02*
X53149Y-52826D01*
X53712Y-53416D02*
X53430Y-53416D01*
X53430Y-52826D01*
X53908Y-53416D02*
X53908Y-52826D01*
X54246Y-53416D02*
X53993Y-53079D01*
X54246Y-52826D02*
X53908Y-53163D01*
X54471Y-53388D02*
X54555Y-53416D01*
X54696Y-53416D01*
X54752Y-53388D01*
X54780Y-53360D01*
X54808Y-53304D01*
X54808Y-53248D01*
X54780Y-53191D01*
X54752Y-53163D01*
X54696Y-53135D01*
X54583Y-53107D01*
X54527Y-53079D01*
X54499Y-53051D01*
X54471Y-52994D01*
X54471Y-52938D01*
X54499Y-52882D01*
X54527Y-52854D01*
X54583Y-52826D01*
X54724Y-52826D01*
X54808Y-52854D01*
X55399Y-53360D02*
X55371Y-53388D01*
X55286Y-53416D01*
X55230Y-53416D01*
X55146Y-53388D01*
X55089Y-53332D01*
X55061Y-53276D01*
X55033Y-53163D01*
X55033Y-53079D01*
X55061Y-52966D01*
X55089Y-52910D01*
X55146Y-52854D01*
X55230Y-52826D01*
X55286Y-52826D01*
X55371Y-52854D01*
X55399Y-52882D01*
X55989Y-53416D02*
X55793Y-53135D01*
X55652Y-53416D02*
X55652Y-52826D01*
X55877Y-52826D01*
X55933Y-52854D01*
X55961Y-52882D01*
X55989Y-52938D01*
X55989Y-53023D01*
X55961Y-53079D01*
X55933Y-53107D01*
X55877Y-53135D01*
X55652Y-53135D01*
X56242Y-53107D02*
X56439Y-53107D01*
X56524Y-53416D02*
X56242Y-53416D01*
X56242Y-52826D01*
X56524Y-52826D01*
X56777Y-53107D02*
X56974Y-53107D01*
X57058Y-53416D02*
X56777Y-53416D01*
X56777Y-52826D01*
X57058Y-52826D01*
X57311Y-53416D02*
X57311Y-52826D01*
X57649Y-53416D01*
X57649Y-52826D01*
G54D13*
X71316Y-49981D02*
X71409Y-50374D01*
X71484Y-50093D01*
X71559Y-50374D01*
X71653Y-49981D01*
X71784Y-50262D02*
X71972Y-50262D01*
X71747Y-50374D02*
X71878Y-49981D01*
X72009Y-50374D01*
X72365Y-50374D02*
X72234Y-50187D01*
X72140Y-50374D02*
X72140Y-49981D01*
X72290Y-49981D01*
X72328Y-50000D01*
X72347Y-50018D01*
X72365Y-50056D01*
X72365Y-50112D01*
X72347Y-50149D01*
X72328Y-50168D01*
X72290Y-50187D01*
X72140Y-50187D01*
X72534Y-50374D02*
X72534Y-49981D01*
X72759Y-50374D01*
X72759Y-49981D01*
X72947Y-50374D02*
X72947Y-49981D01*
X73134Y-50374D02*
X73134Y-49981D01*
X73359Y-50374D01*
X73359Y-49981D01*
X73753Y-50000D02*
X73715Y-49981D01*
X73659Y-49981D01*
X73603Y-50000D01*
X73565Y-50037D01*
X73547Y-50074D01*
X73528Y-50149D01*
X73528Y-50206D01*
X73547Y-50281D01*
X73565Y-50318D01*
X73603Y-50356D01*
X73659Y-50374D01*
X73697Y-50374D01*
X73753Y-50356D01*
X73772Y-50337D01*
X73772Y-50206D01*
X73697Y-50206D01*
X73940Y-50337D02*
X73959Y-50356D01*
X73940Y-50374D01*
X73922Y-50356D01*
X73940Y-50337D01*
X73940Y-50374D01*
X73940Y-50131D02*
X73959Y-50149D01*
X73940Y-50168D01*
X73922Y-50149D01*
X73940Y-50131D01*
X73940Y-50168D01*
X74428Y-49981D02*
X74428Y-50299D01*
X74446Y-50337D01*
X74465Y-50356D01*
X74503Y-50374D01*
X74578Y-50374D01*
X74615Y-50356D01*
X74634Y-50337D01*
X74653Y-50299D01*
X74653Y-49981D01*
X74840Y-50112D02*
X74840Y-50506D01*
X74840Y-50131D02*
X74878Y-50112D01*
X74953Y-50112D01*
X74990Y-50131D01*
X75009Y-50149D01*
X75028Y-50187D01*
X75028Y-50299D01*
X75009Y-50337D01*
X74990Y-50356D01*
X74953Y-50374D01*
X74878Y-50374D01*
X74840Y-50356D01*
X75440Y-50112D02*
X75590Y-50112D01*
X75496Y-49981D02*
X75496Y-50318D01*
X75515Y-50356D01*
X75553Y-50374D01*
X75590Y-50374D01*
X75778Y-50374D02*
X75740Y-50356D01*
X75721Y-50337D01*
X75703Y-50299D01*
X75703Y-50187D01*
X75721Y-50149D01*
X75740Y-50131D01*
X75778Y-50112D01*
X75834Y-50112D01*
X75871Y-50131D01*
X75890Y-50149D01*
X75909Y-50187D01*
X75909Y-50299D01*
X75890Y-50337D01*
X75871Y-50356D01*
X75834Y-50374D01*
X75778Y-50374D01*
X76565Y-49981D02*
X76377Y-49981D01*
X76359Y-50168D01*
X76377Y-50149D01*
X76415Y-50131D01*
X76509Y-50131D01*
X76546Y-50149D01*
X76565Y-50168D01*
X76584Y-50206D01*
X76584Y-50299D01*
X76565Y-50337D01*
X76546Y-50356D01*
X76509Y-50374D01*
X76415Y-50374D01*
X76377Y-50356D01*
X76359Y-50337D01*
X76827Y-49981D02*
X76865Y-49981D01*
X76902Y-50000D01*
X76921Y-50018D01*
X76940Y-50056D01*
X76959Y-50131D01*
X76959Y-50224D01*
X76940Y-50299D01*
X76921Y-50337D01*
X76902Y-50356D01*
X76865Y-50374D01*
X76827Y-50374D01*
X76790Y-50356D01*
X76771Y-50337D01*
X76752Y-50299D01*
X76734Y-50224D01*
X76734Y-50131D01*
X76752Y-50056D01*
X76771Y-50018D01*
X76790Y-50000D01*
X76827Y-49981D01*
X77071Y-49981D02*
X77202Y-50374D01*
X77334Y-49981D01*
X77765Y-50112D02*
X77765Y-50506D01*
X77765Y-50131D02*
X77802Y-50112D01*
X77877Y-50112D01*
X77915Y-50131D01*
X77934Y-50149D01*
X77952Y-50187D01*
X77952Y-50299D01*
X77934Y-50337D01*
X77915Y-50356D01*
X77877Y-50374D01*
X77802Y-50374D01*
X77765Y-50356D01*
X78177Y-50374D02*
X78140Y-50356D01*
X78121Y-50337D01*
X78102Y-50299D01*
X78102Y-50187D01*
X78121Y-50149D01*
X78140Y-50131D01*
X78177Y-50112D01*
X78233Y-50112D01*
X78271Y-50131D01*
X78290Y-50149D01*
X78308Y-50187D01*
X78308Y-50299D01*
X78290Y-50337D01*
X78271Y-50356D01*
X78233Y-50374D01*
X78177Y-50374D01*
X78421Y-50112D02*
X78571Y-50112D01*
X78477Y-49981D02*
X78477Y-50318D01*
X78496Y-50356D01*
X78533Y-50374D01*
X78571Y-50374D01*
X78852Y-50356D02*
X78815Y-50374D01*
X78740Y-50374D01*
X78702Y-50356D01*
X78683Y-50318D01*
X78683Y-50168D01*
X78702Y-50131D01*
X78740Y-50112D01*
X78815Y-50112D01*
X78852Y-50131D01*
X78871Y-50168D01*
X78871Y-50206D01*
X78683Y-50243D01*
X79040Y-50112D02*
X79040Y-50374D01*
X79040Y-50149D02*
X79058Y-50131D01*
X79096Y-50112D01*
X79152Y-50112D01*
X79190Y-50131D01*
X79208Y-50168D01*
X79208Y-50374D01*
X79340Y-50112D02*
X79490Y-50112D01*
X79396Y-49981D02*
X79396Y-50318D01*
X79415Y-50356D01*
X79452Y-50374D01*
X79490Y-50374D01*
X79621Y-50374D02*
X79621Y-50112D01*
X79621Y-49981D02*
X79602Y-50000D01*
X79621Y-50018D01*
X79640Y-50000D01*
X79621Y-49981D01*
X79621Y-50018D01*
X79977Y-50374D02*
X79977Y-50168D01*
X79958Y-50131D01*
X79921Y-50112D01*
X79846Y-50112D01*
X79808Y-50131D01*
X79977Y-50356D02*
X79940Y-50374D01*
X79846Y-50374D01*
X79808Y-50356D01*
X79790Y-50318D01*
X79790Y-50281D01*
X79808Y-50243D01*
X79846Y-50224D01*
X79940Y-50224D01*
X79977Y-50206D01*
X80221Y-50374D02*
X80183Y-50356D01*
X80164Y-50318D01*
X80164Y-49981D01*
X80671Y-50374D02*
X80671Y-50112D01*
X80671Y-49981D02*
X80652Y-50000D01*
X80671Y-50018D01*
X80689Y-50000D01*
X80671Y-49981D01*
X80671Y-50018D01*
X80839Y-50356D02*
X80877Y-50374D01*
X80952Y-50374D01*
X80989Y-50356D01*
X81008Y-50318D01*
X81008Y-50299D01*
X80989Y-50262D01*
X80952Y-50243D01*
X80896Y-50243D01*
X80858Y-50224D01*
X80839Y-50187D01*
X80839Y-50168D01*
X80858Y-50131D01*
X80896Y-50112D01*
X80952Y-50112D01*
X80989Y-50131D01*
X81477Y-50112D02*
X81477Y-50506D01*
X81477Y-50131D02*
X81514Y-50112D01*
X81589Y-50112D01*
X81627Y-50131D01*
X81646Y-50149D01*
X81664Y-50187D01*
X81664Y-50299D01*
X81646Y-50337D01*
X81627Y-50356D01*
X81589Y-50374D01*
X81514Y-50374D01*
X81477Y-50356D01*
X81833Y-50374D02*
X81833Y-50112D01*
X81833Y-50187D02*
X81852Y-50149D01*
X81871Y-50131D01*
X81908Y-50112D01*
X81946Y-50112D01*
X82227Y-50356D02*
X82189Y-50374D01*
X82114Y-50374D01*
X82077Y-50356D01*
X82058Y-50318D01*
X82058Y-50168D01*
X82077Y-50131D01*
X82114Y-50112D01*
X82189Y-50112D01*
X82227Y-50131D01*
X82245Y-50168D01*
X82245Y-50206D01*
X82058Y-50243D01*
X82395Y-50356D02*
X82433Y-50374D01*
X82508Y-50374D01*
X82545Y-50356D01*
X82564Y-50318D01*
X82564Y-50299D01*
X82545Y-50262D01*
X82508Y-50243D01*
X82452Y-50243D01*
X82414Y-50224D01*
X82395Y-50187D01*
X82395Y-50168D01*
X82414Y-50131D01*
X82452Y-50112D01*
X82508Y-50112D01*
X82545Y-50131D01*
X82883Y-50356D02*
X82845Y-50374D01*
X82770Y-50374D01*
X82733Y-50356D01*
X82714Y-50318D01*
X82714Y-50168D01*
X82733Y-50131D01*
X82770Y-50112D01*
X82845Y-50112D01*
X82883Y-50131D01*
X82902Y-50168D01*
X82902Y-50206D01*
X82714Y-50243D01*
X83070Y-50112D02*
X83070Y-50374D01*
X83070Y-50149D02*
X83089Y-50131D01*
X83127Y-50112D01*
X83183Y-50112D01*
X83220Y-50131D01*
X83239Y-50168D01*
X83239Y-50374D01*
X83370Y-50112D02*
X83520Y-50112D01*
X83427Y-49981D02*
X83427Y-50318D01*
X83445Y-50356D01*
X83483Y-50374D01*
X83520Y-50374D01*
X80089Y-48997D02*
X79958Y-48809D01*
X79865Y-48997D02*
X79865Y-48603D01*
X80014Y-48603D01*
X80052Y-48622D01*
X80071Y-48640D01*
X80089Y-48678D01*
X80089Y-48734D01*
X80071Y-48772D01*
X80052Y-48790D01*
X80014Y-48809D01*
X79865Y-48809D01*
X80408Y-48978D02*
X80371Y-48997D01*
X80296Y-48997D01*
X80258Y-48978D01*
X80239Y-48940D01*
X80239Y-48790D01*
X80258Y-48753D01*
X80296Y-48734D01*
X80371Y-48734D01*
X80408Y-48753D01*
X80427Y-48790D01*
X80427Y-48828D01*
X80239Y-48865D01*
X80558Y-48734D02*
X80652Y-48997D01*
X80746Y-48734D01*
X81421Y-48959D02*
X81402Y-48978D01*
X81346Y-48997D01*
X81308Y-48997D01*
X81252Y-48978D01*
X81214Y-48940D01*
X81196Y-48903D01*
X81177Y-48828D01*
X81177Y-48772D01*
X81196Y-48697D01*
X81214Y-48659D01*
X81252Y-48622D01*
X81308Y-48603D01*
X81346Y-48603D01*
X81402Y-48622D01*
X81421Y-48640D01*
X81889Y-48997D02*
X81889Y-48603D01*
X82020Y-48884D01*
X82152Y-48603D01*
X82152Y-48997D01*
X82508Y-48997D02*
X82508Y-48790D01*
X82489Y-48753D01*
X82452Y-48734D01*
X82377Y-48734D01*
X82339Y-48753D01*
X82508Y-48978D02*
X82470Y-48997D01*
X82377Y-48997D01*
X82339Y-48978D01*
X82320Y-48940D01*
X82320Y-48903D01*
X82339Y-48865D01*
X82377Y-48847D01*
X82470Y-48847D01*
X82508Y-48828D01*
X82695Y-48997D02*
X82695Y-48734D01*
X82695Y-48809D02*
X82714Y-48772D01*
X82733Y-48753D01*
X82770Y-48734D01*
X82808Y-48734D01*
X83220Y-48640D02*
X83239Y-48622D01*
X83277Y-48603D01*
X83370Y-48603D01*
X83408Y-48622D01*
X83427Y-48640D01*
X83445Y-48678D01*
X83445Y-48715D01*
X83427Y-48772D01*
X83202Y-48997D01*
X83445Y-48997D01*
X83689Y-48603D02*
X83727Y-48603D01*
X83764Y-48622D01*
X83783Y-48640D01*
X83802Y-48678D01*
X83820Y-48753D01*
X83820Y-48847D01*
X83802Y-48922D01*
X83783Y-48959D01*
X83764Y-48978D01*
X83727Y-48997D01*
X83689Y-48997D01*
X83652Y-48978D01*
X83633Y-48959D01*
X83614Y-48922D01*
X83595Y-48847D01*
X83595Y-48753D01*
X83614Y-48678D01*
X83633Y-48640D01*
X83652Y-48622D01*
X83689Y-48603D01*
X84195Y-48997D02*
X83970Y-48997D01*
X84083Y-48997D02*
X84083Y-48603D01*
X84045Y-48659D01*
X84008Y-48697D01*
X83970Y-48715D01*
X84533Y-48734D02*
X84533Y-48997D01*
X84439Y-48584D02*
X84345Y-48865D01*
X84589Y-48865D01*
G54D11*
X76209Y-47539D02*
X76490Y-47539D01*
X76152Y-47708D02*
X76349Y-47117D01*
X76546Y-47708D01*
X77024Y-47708D02*
X76743Y-47708D01*
X76743Y-47117D01*
X77502Y-47708D02*
X77221Y-47708D01*
X77221Y-47117D01*
X77699Y-47483D02*
X78149Y-47483D01*
X78430Y-47708D02*
X78430Y-47117D01*
X78571Y-47117D01*
X78655Y-47145D01*
X78712Y-47201D01*
X78740Y-47258D01*
X78768Y-47370D01*
X78768Y-47455D01*
X78740Y-47567D01*
X78712Y-47623D01*
X78655Y-47679D01*
X78571Y-47708D01*
X78430Y-47708D01*
X79021Y-47708D02*
X79021Y-47117D01*
X79274Y-47679D02*
X79358Y-47708D01*
X79499Y-47708D01*
X79555Y-47679D01*
X79583Y-47651D01*
X79611Y-47595D01*
X79611Y-47539D01*
X79583Y-47483D01*
X79555Y-47455D01*
X79499Y-47426D01*
X79386Y-47398D01*
X79330Y-47370D01*
X79302Y-47342D01*
X79274Y-47286D01*
X79274Y-47230D01*
X79302Y-47173D01*
X79330Y-47145D01*
X79386Y-47117D01*
X79527Y-47117D01*
X79611Y-47145D01*
X80202Y-47651D02*
X80174Y-47679D01*
X80089Y-47708D01*
X80033Y-47708D01*
X79949Y-47679D01*
X79893Y-47623D01*
X79865Y-47567D01*
X79836Y-47455D01*
X79836Y-47370D01*
X79865Y-47258D01*
X79893Y-47201D01*
X79949Y-47145D01*
X80033Y-47117D01*
X80089Y-47117D01*
X80174Y-47145D01*
X80202Y-47173D01*
X80793Y-47708D02*
X80596Y-47426D01*
X80455Y-47708D02*
X80455Y-47117D01*
X80680Y-47117D01*
X80736Y-47145D01*
X80764Y-47173D01*
X80793Y-47230D01*
X80793Y-47314D01*
X80764Y-47370D01*
X80736Y-47398D01*
X80680Y-47426D01*
X80455Y-47426D01*
X81046Y-47398D02*
X81242Y-47398D01*
X81327Y-47708D02*
X81046Y-47708D01*
X81046Y-47117D01*
X81327Y-47117D01*
X81496Y-47117D02*
X81833Y-47117D01*
X81664Y-47708D02*
X81664Y-47117D01*
X82030Y-47398D02*
X82227Y-47398D01*
X82311Y-47708D02*
X82030Y-47708D01*
X82030Y-47117D01*
X82311Y-47117D01*
X83014Y-47708D02*
X83014Y-47117D01*
X83239Y-47117D01*
X83295Y-47145D01*
X83323Y-47173D01*
X83352Y-47230D01*
X83352Y-47314D01*
X83323Y-47370D01*
X83295Y-47398D01*
X83239Y-47426D01*
X83014Y-47426D01*
X83577Y-47679D02*
X83661Y-47708D01*
X83802Y-47708D01*
X83858Y-47679D01*
X83886Y-47651D01*
X83914Y-47595D01*
X83914Y-47539D01*
X83886Y-47483D01*
X83858Y-47455D01*
X83802Y-47426D01*
X83689Y-47398D01*
X83633Y-47370D01*
X83605Y-47342D01*
X83577Y-47286D01*
X83577Y-47230D01*
X83605Y-47173D01*
X83633Y-47145D01*
X83689Y-47117D01*
X83830Y-47117D01*
X83914Y-47145D01*
X84167Y-47117D02*
X84167Y-47595D01*
X84195Y-47651D01*
X84223Y-47679D01*
X84280Y-47708D01*
X84392Y-47708D01*
X84448Y-47679D01*
X84476Y-47651D01*
X84505Y-47595D01*
X84505Y-47117D01*
G54D13*
X71522Y-48978D02*
X71484Y-48997D01*
X71409Y-48997D01*
X71372Y-48978D01*
X71353Y-48959D01*
X71334Y-48922D01*
X71334Y-48809D01*
X71353Y-48772D01*
X71372Y-48753D01*
X71409Y-48734D01*
X71484Y-48734D01*
X71522Y-48753D01*
X71859Y-48734D02*
X71859Y-48997D01*
X71766Y-48584D02*
X71672Y-48865D01*
X71916Y-48865D01*
X72028Y-48603D02*
X72290Y-48603D01*
X72122Y-48997D01*
X72628Y-48603D02*
X72440Y-48603D01*
X72422Y-48790D01*
X72440Y-48772D01*
X72478Y-48753D01*
X72572Y-48753D01*
X72609Y-48772D01*
X72628Y-48790D01*
X72647Y-48828D01*
X72647Y-48922D01*
X72628Y-48959D01*
X72609Y-48978D01*
X72572Y-48997D01*
X72478Y-48997D01*
X72440Y-48978D01*
X72422Y-48959D01*
X72778Y-48603D02*
X73040Y-48603D01*
X72872Y-48997D01*
X73190Y-48734D02*
X73190Y-49128D01*
X73190Y-48753D02*
X73228Y-48734D01*
X73303Y-48734D01*
X73340Y-48753D01*
X73359Y-48772D01*
X73378Y-48809D01*
X73378Y-48922D01*
X73359Y-48959D01*
X73340Y-48978D01*
X73303Y-48997D01*
X73228Y-48997D01*
X73190Y-48978D01*
X73547Y-48959D02*
X73565Y-48978D01*
X73547Y-48997D01*
X73528Y-48978D01*
X73547Y-48959D01*
X73547Y-48997D01*
X73903Y-48978D02*
X73865Y-48997D01*
X73790Y-48997D01*
X73753Y-48978D01*
X73734Y-48959D01*
X73715Y-48922D01*
X73715Y-48809D01*
X73734Y-48772D01*
X73753Y-48753D01*
X73790Y-48734D01*
X73865Y-48734D01*
X73903Y-48753D01*
X74128Y-48997D02*
X74090Y-48978D01*
X74071Y-48959D01*
X74053Y-48922D01*
X74053Y-48809D01*
X74071Y-48772D01*
X74090Y-48753D01*
X74128Y-48734D01*
X74184Y-48734D01*
X74221Y-48753D01*
X74240Y-48772D01*
X74259Y-48809D01*
X74259Y-48922D01*
X74240Y-48959D01*
X74221Y-48978D01*
X74184Y-48997D01*
X74128Y-48997D01*
X74428Y-48997D02*
X74428Y-48734D01*
X74428Y-48772D02*
X74446Y-48753D01*
X74484Y-48734D01*
X74540Y-48734D01*
X74578Y-48753D01*
X74596Y-48790D01*
X74596Y-48997D01*
X74596Y-48790D02*
X74615Y-48753D01*
X74653Y-48734D01*
X74709Y-48734D01*
X74746Y-48753D01*
X74765Y-48790D01*
X74765Y-48997D01*
X75234Y-48584D02*
X74896Y-49090D01*
X75365Y-48734D02*
X75365Y-49128D01*
X75365Y-48753D02*
X75403Y-48734D01*
X75478Y-48734D01*
X75515Y-48753D01*
X75534Y-48772D01*
X75553Y-48809D01*
X75553Y-48922D01*
X75534Y-48959D01*
X75515Y-48978D01*
X75478Y-48997D01*
X75403Y-48997D01*
X75365Y-48978D01*
X75721Y-48997D02*
X75721Y-48734D01*
X75721Y-48809D02*
X75740Y-48772D01*
X75759Y-48753D01*
X75796Y-48734D01*
X75834Y-48734D01*
X76021Y-48997D02*
X75984Y-48978D01*
X75965Y-48959D01*
X75946Y-48922D01*
X75946Y-48809D01*
X75965Y-48772D01*
X75984Y-48753D01*
X76021Y-48734D01*
X76077Y-48734D01*
X76115Y-48753D01*
X76134Y-48772D01*
X76152Y-48809D01*
X76152Y-48922D01*
X76134Y-48959D01*
X76115Y-48978D01*
X76077Y-48997D01*
X76021Y-48997D01*
X76321Y-48734D02*
X76321Y-49071D01*
X76302Y-49109D01*
X76265Y-49128D01*
X76246Y-49128D01*
X76321Y-48603D02*
X76302Y-48622D01*
X76321Y-48640D01*
X76340Y-48622D01*
X76321Y-48603D01*
X76321Y-48640D01*
X76659Y-48978D02*
X76621Y-48997D01*
X76546Y-48997D01*
X76509Y-48978D01*
X76490Y-48940D01*
X76490Y-48790D01*
X76509Y-48753D01*
X76546Y-48734D01*
X76621Y-48734D01*
X76659Y-48753D01*
X76677Y-48790D01*
X76677Y-48828D01*
X76490Y-48865D01*
X77015Y-48978D02*
X76977Y-48997D01*
X76902Y-48997D01*
X76865Y-48978D01*
X76846Y-48959D01*
X76827Y-48922D01*
X76827Y-48809D01*
X76846Y-48772D01*
X76865Y-48753D01*
X76902Y-48734D01*
X76977Y-48734D01*
X77015Y-48753D01*
X77127Y-48734D02*
X77277Y-48734D01*
X77184Y-48603D02*
X77184Y-48940D01*
X77202Y-48978D01*
X77240Y-48997D01*
X77277Y-48997D01*
X77390Y-48978D02*
X77427Y-48997D01*
X77502Y-48997D01*
X77540Y-48978D01*
X77559Y-48940D01*
X77559Y-48922D01*
X77540Y-48884D01*
X77502Y-48865D01*
X77446Y-48865D01*
X77409Y-48847D01*
X77390Y-48809D01*
X77390Y-48790D01*
X77409Y-48753D01*
X77446Y-48734D01*
X77502Y-48734D01*
X77540Y-48753D01*
X78008Y-48584D02*
X77671Y-49090D01*
X78140Y-48734D02*
X78140Y-49128D01*
X78140Y-48753D02*
X78177Y-48734D01*
X78252Y-48734D01*
X78290Y-48753D01*
X78308Y-48772D01*
X78327Y-48809D01*
X78327Y-48922D01*
X78308Y-48959D01*
X78290Y-48978D01*
X78252Y-48997D01*
X78177Y-48997D01*
X78140Y-48978D01*
X78477Y-48978D02*
X78515Y-48997D01*
X78590Y-48997D01*
X78627Y-48978D01*
X78646Y-48940D01*
X78646Y-48922D01*
X78627Y-48884D01*
X78590Y-48865D01*
X78533Y-48865D01*
X78496Y-48847D01*
X78477Y-48809D01*
X78477Y-48790D01*
X78496Y-48753D01*
X78533Y-48734D01*
X78590Y-48734D01*
X78627Y-48753D01*
X79021Y-48997D02*
X78796Y-48997D01*
X78908Y-48997D02*
X78908Y-48603D01*
X78871Y-48659D01*
X78833Y-48697D01*
X78796Y-48715D01*
G54D15*
X51574Y-41732D02*
X51574Y-40944D01*
X57677Y-30708D02*
G75*
G03X60826Y-33858I3149J0D01*
G74*
G01*
X60826Y-27559D02*
G75*
G03X57677Y-30708I0J-3149D01*
G74*
G01*
X63976Y-30708D02*
G75*
G03X60826Y-27559I-3149J0D01*
G74*
G01*
X60826Y-30458D02*
X60826Y-29708D01*
X60826Y-30958D02*
X60826Y-31708D01*
X61326Y-30958D02*
X60326Y-30958D01*
X61326Y-30458D02*
X61326Y-30708D01*
X61326Y-30708D02*
X60326Y-30708D01*
X60326Y-30708D02*
X60326Y-30458D01*
X60326Y-30458D02*
X61326Y-30458D01*
G54D16*
X61220Y-29724D02*
X61220Y-30117D01*
X61023Y-29921D02*
X61417Y-29921D01*
G54D15*
X74803Y-35826D02*
X74803Y-36614D01*
X63779Y-38582D02*
X63779Y-39370D01*
X57086Y-35629D02*
X57086Y-36417D01*
G54D16*
X78425Y-43307D02*
G75*
G03X78425Y-43307I-1260J0D01*
G74*
G01*
X77795Y-43032D02*
X77795Y-42717D01*
X77638Y-42874D02*
X77953Y-42874D01*
G54D15*
X56305Y-41138D02*
X56505Y-41138D01*
X56505Y-41138D02*
X56505Y-41338D01*
X55305Y-41338D02*
X55305Y-41138D01*
X55305Y-41138D02*
X55505Y-41138D01*
X62604Y-38776D02*
X62804Y-38776D01*
X62804Y-38776D02*
X62804Y-38976D01*
X61604Y-38976D02*
X61604Y-38776D01*
X61604Y-38776D02*
X61804Y-38776D01*
X57880Y-41138D02*
X58080Y-41138D01*
X58080Y-41138D02*
X58080Y-41338D01*
X56880Y-41338D02*
X56880Y-41138D01*
X56880Y-41138D02*
X57080Y-41138D01*
X64179Y-40351D02*
X64379Y-40351D01*
X64379Y-40351D02*
X64379Y-40551D01*
X63179Y-40551D02*
X63179Y-40351D01*
X63179Y-40351D02*
X63379Y-40351D01*
X66341Y-37801D02*
X66341Y-38001D01*
X66341Y-38001D02*
X66141Y-38001D01*
X66141Y-36801D02*
X66341Y-36801D01*
X66341Y-36801D02*
X66341Y-37001D01*
X66344Y-40351D02*
X66544Y-40351D01*
X66544Y-40351D02*
X66544Y-40551D01*
X65344Y-40551D02*
X65344Y-40351D01*
X65344Y-40351D02*
X65544Y-40351D01*
X79521Y-36420D02*
X79321Y-36420D01*
X79321Y-36420D02*
X79321Y-36220D01*
X80521Y-36220D02*
X80521Y-36420D01*
X80521Y-36420D02*
X80321Y-36420D01*
X58180Y-36113D02*
X58180Y-36327D01*
X58180Y-36327D02*
X58180Y-36113D01*
X58551Y-36113D02*
X58551Y-36327D01*
X58551Y-36327D02*
X58551Y-36113D01*
X58968Y-36113D02*
X58968Y-36327D01*
X58968Y-36327D02*
X58968Y-36113D01*
X59338Y-36113D02*
X59338Y-36327D01*
X59338Y-36327D02*
X59338Y-36113D01*
X60542Y-36113D02*
X60542Y-36327D01*
X60542Y-36327D02*
X60542Y-36113D01*
X60913Y-36113D02*
X60913Y-36327D01*
X60913Y-36327D02*
X60913Y-36113D01*
X59755Y-36113D02*
X59755Y-36327D01*
X59755Y-36327D02*
X59755Y-36113D01*
X60126Y-36113D02*
X60126Y-36327D01*
X60126Y-36327D02*
X60126Y-36113D01*
X63987Y-37294D02*
X63987Y-37508D01*
X63987Y-37508D02*
X63987Y-37294D01*
X64358Y-37294D02*
X64358Y-37508D01*
X64358Y-37508D02*
X64358Y-37294D01*
X58768Y-43909D02*
X58554Y-43909D01*
X58554Y-43909D02*
X58768Y-43909D01*
X58768Y-44279D02*
X58554Y-44279D01*
X58554Y-44279D02*
X58768Y-44279D01*
X63886Y-41940D02*
X63672Y-41940D01*
X63672Y-41940D02*
X63886Y-41940D01*
X63886Y-42311D02*
X63672Y-42311D01*
X63672Y-42311D02*
X63886Y-42311D01*
X67901Y-43413D02*
X67901Y-43200D01*
X67901Y-43200D02*
X67901Y-43413D01*
X67531Y-43413D02*
X67531Y-43200D01*
X67531Y-43200D02*
X67531Y-43413D01*
X80916Y-36113D02*
X80916Y-36327D01*
X80916Y-36327D02*
X80916Y-36113D01*
X81287Y-36113D02*
X81287Y-36327D01*
X81287Y-36327D02*
X81287Y-36113D01*
X85539Y-28554D02*
X85326Y-28554D01*
X85326Y-28554D02*
X85539Y-28554D01*
X85539Y-28925D02*
X85326Y-28925D01*
X85326Y-28925D02*
X85539Y-28925D01*
X85539Y-30326D02*
X85326Y-30326D01*
X85326Y-30326D02*
X85539Y-30326D01*
X85539Y-30697D02*
X85326Y-30697D01*
X85326Y-30697D02*
X85539Y-30697D01*
X86507Y-32075D02*
X86720Y-32075D01*
X86720Y-32075D02*
X86507Y-32075D01*
X86507Y-31704D02*
X86720Y-31704D01*
X86720Y-31704D02*
X86507Y-31704D01*
X72954Y-43344D02*
X73502Y-43344D01*
X73502Y-43344D02*
X72954Y-43344D01*
X72954Y-42481D02*
X73502Y-42481D01*
X73502Y-42481D02*
X72954Y-42481D01*
X73436Y-36113D02*
X73436Y-36327D01*
X73436Y-36327D02*
X73436Y-36113D01*
X73807Y-36113D02*
X73807Y-36327D01*
X73807Y-36327D02*
X73807Y-36113D01*
X70264Y-43413D02*
X70264Y-43200D01*
X70264Y-43200D02*
X70264Y-43413D01*
X69893Y-43413D02*
X69893Y-43200D01*
X69893Y-43200D02*
X69893Y-43413D01*
X54735Y-36113D02*
X54735Y-36327D01*
X54735Y-36327D02*
X54735Y-36113D01*
X55106Y-36113D02*
X55106Y-36327D01*
X55106Y-36327D02*
X55106Y-36113D01*
X66153Y-43200D02*
X66153Y-43413D01*
X66153Y-43413D02*
X66153Y-43200D01*
X66524Y-43200D02*
X66524Y-43413D01*
X66524Y-43413D02*
X66524Y-43200D01*
X72649Y-36113D02*
X72649Y-36327D01*
X72649Y-36327D02*
X72649Y-36113D01*
X73020Y-36113D02*
X73020Y-36327D01*
X73020Y-36327D02*
X73020Y-36113D01*
X78925Y-36327D02*
X78925Y-36113D01*
X78925Y-36113D02*
X78925Y-36327D01*
X78554Y-36327D02*
X78554Y-36113D01*
X78554Y-36113D02*
X78554Y-36327D01*
X76586Y-36113D02*
X76586Y-36327D01*
X76586Y-36327D02*
X76586Y-36113D01*
X76957Y-36113D02*
X76957Y-36327D01*
X76957Y-36327D02*
X76957Y-36113D01*
X75798Y-36113D02*
X75798Y-36327D01*
X75798Y-36327D02*
X75798Y-36113D01*
X76169Y-36113D02*
X76169Y-36327D01*
X76169Y-36327D02*
X76169Y-36113D01*
X55651Y-35985D02*
X55651Y-36455D01*
X55651Y-36455D02*
X55651Y-35985D01*
X56159Y-35985D02*
X56159Y-36455D01*
X56159Y-36455D02*
X56159Y-35985D01*
X81478Y-41694D02*
X81929Y-41694D01*
X81929Y-41694D02*
X81929Y-44920D01*
X81929Y-44920D02*
X81478Y-44920D01*
X79938Y-41694D02*
X79487Y-41694D01*
X79487Y-41694D02*
X79487Y-44920D01*
X79487Y-44920D02*
X79938Y-44920D01*
X81543Y-41394D02*
X81593Y-41444D01*
X81593Y-41444D02*
X81543Y-41494D01*
X81543Y-41494D02*
X81493Y-41444D01*
X81493Y-41444D02*
X81543Y-41394D01*
X64166Y-34845D02*
X63966Y-34845D01*
X63966Y-34845D02*
X63966Y-34645D01*
X65166Y-34645D02*
X65166Y-34845D01*
X65166Y-34845D02*
X64966Y-34845D01*
X67137Y-37294D02*
X67137Y-37508D01*
X67137Y-37508D02*
X67137Y-37294D01*
X67508Y-37294D02*
X67508Y-37508D01*
X67508Y-37508D02*
X67508Y-37294D01*
X82862Y-36720D02*
X82862Y-36507D01*
X82862Y-36507D02*
X82862Y-36720D01*
X82491Y-36720D02*
X82491Y-36507D01*
X82491Y-36507D02*
X82491Y-36720D01*
X82491Y-39657D02*
X82491Y-39870D01*
X82491Y-39870D02*
X82491Y-39657D01*
X82862Y-39657D02*
X82862Y-39870D01*
X82862Y-39870D02*
X82862Y-39657D01*
X57386Y-27216D02*
X57386Y-27333D01*
X57386Y-27333D02*
X55211Y-27333D01*
X55211Y-27333D02*
X55211Y-27216D01*
X57386Y-26326D02*
X57386Y-26209D01*
X57386Y-26209D02*
X55211Y-26209D01*
X55211Y-26209D02*
X55211Y-26326D01*
X57686Y-27281D02*
X57636Y-27331D01*
X57636Y-27331D02*
X57586Y-27281D01*
X57586Y-27281D02*
X57636Y-27231D01*
X57636Y-27231D02*
X57686Y-27281D01*
X60536Y-27216D02*
X60536Y-27333D01*
X60536Y-27333D02*
X58361Y-27333D01*
X58361Y-27333D02*
X58361Y-27216D01*
X60536Y-26326D02*
X60536Y-26209D01*
X60536Y-26209D02*
X58361Y-26209D01*
X58361Y-26209D02*
X58361Y-26326D01*
X60836Y-27281D02*
X60786Y-27331D01*
X60786Y-27331D02*
X60736Y-27281D01*
X60736Y-27281D02*
X60786Y-27231D01*
X60786Y-27231D02*
X60836Y-27281D01*
X63685Y-27216D02*
X63685Y-27333D01*
X63685Y-27333D02*
X61511Y-27333D01*
X61511Y-27333D02*
X61511Y-27216D01*
X63685Y-26326D02*
X63685Y-26209D01*
X63685Y-26209D02*
X61511Y-26209D01*
X61511Y-26209D02*
X61511Y-26326D01*
X63985Y-27281D02*
X63935Y-27331D01*
X63935Y-27331D02*
X63885Y-27281D01*
X63885Y-27281D02*
X63935Y-27231D01*
X63935Y-27231D02*
X63985Y-27281D01*
X58361Y-24751D02*
X58361Y-24635D01*
X58361Y-24635D02*
X60536Y-24635D01*
X60536Y-24635D02*
X60536Y-24751D01*
X58361Y-25642D02*
X58361Y-25758D01*
X58361Y-25758D02*
X60536Y-25758D01*
X60536Y-25758D02*
X60536Y-25642D01*
X58061Y-24686D02*
X58111Y-24636D01*
X58111Y-24636D02*
X58161Y-24686D01*
X58161Y-24686D02*
X58111Y-24736D01*
X58111Y-24736D02*
X58061Y-24686D01*
X85526Y-32625D02*
X85526Y-32509D01*
X85526Y-32509D02*
X87701Y-32509D01*
X87701Y-32509D02*
X87701Y-32625D01*
X85526Y-33516D02*
X85526Y-33632D01*
X85526Y-33632D02*
X87701Y-33632D01*
X87701Y-33632D02*
X87701Y-33516D01*
X85226Y-32560D02*
X85276Y-32510D01*
X85276Y-32510D02*
X85326Y-32560D01*
X85326Y-32560D02*
X85276Y-32610D01*
X85276Y-32610D02*
X85226Y-32560D01*
X57677Y-47244D02*
X57677Y-47637D01*
X57677Y-47637D02*
X56692Y-47637D01*
X56692Y-45275D02*
X57677Y-45275D01*
X57677Y-45275D02*
X57677Y-45669D01*
X53335Y-43020D02*
X53335Y-42806D01*
X53335Y-42806D02*
X53335Y-43020D01*
X52964Y-43020D02*
X52964Y-42806D01*
X52964Y-42806D02*
X52964Y-43020D01*
X63200Y-37294D02*
X63200Y-37508D01*
X63200Y-37508D02*
X63200Y-37294D01*
X63571Y-37294D02*
X63571Y-37508D01*
X63571Y-37508D02*
X63571Y-37294D01*
X58554Y-43492D02*
X58768Y-43492D01*
X58768Y-43492D02*
X58554Y-43492D01*
X58554Y-43121D02*
X58768Y-43121D01*
X58768Y-43121D02*
X58554Y-43121D01*
X84551Y-33516D02*
X84551Y-33632D01*
X84551Y-33632D02*
X82377Y-33632D01*
X82377Y-33632D02*
X82377Y-33516D01*
X84551Y-32625D02*
X84551Y-32509D01*
X84551Y-32509D02*
X82377Y-32509D01*
X82377Y-32509D02*
X82377Y-32625D01*
X84851Y-33581D02*
X84801Y-33631D01*
X84801Y-33631D02*
X84751Y-33581D01*
X84751Y-33581D02*
X84801Y-33531D01*
X84801Y-33531D02*
X84851Y-33581D01*
X83357Y-32075D02*
X83571Y-32075D01*
X83571Y-32075D02*
X83357Y-32075D01*
X83357Y-31704D02*
X83571Y-31704D01*
X83571Y-31704D02*
X83357Y-31704D01*
X75011Y-43200D02*
X75011Y-43413D01*
X75011Y-43413D02*
X75011Y-43200D01*
X75382Y-43200D02*
X75382Y-43413D01*
X75382Y-43413D02*
X75382Y-43200D01*
X64775Y-37294D02*
X64775Y-37508D01*
X64775Y-37508D02*
X64775Y-37294D01*
X65146Y-37294D02*
X65146Y-37508D01*
X65146Y-37508D02*
X65146Y-37294D01*
X52895Y-41103D02*
X52895Y-41573D01*
X52895Y-41573D02*
X52895Y-41103D01*
X53403Y-41103D02*
X53403Y-41573D01*
X53403Y-41573D02*
X53403Y-41103D01*
X62592Y-34845D02*
X62392Y-34845D01*
X62392Y-34845D02*
X62392Y-34645D01*
X63592Y-34645D02*
X63592Y-34845D01*
X63592Y-34845D02*
X63392Y-34845D01*
X80911Y-29622D02*
X81111Y-29622D01*
X81111Y-29622D02*
X81111Y-29822D01*
X79911Y-29822D02*
X79911Y-29622D01*
X79911Y-29622D02*
X80111Y-29622D01*
X65365Y-43200D02*
X65365Y-43413D01*
X65365Y-43413D02*
X65365Y-43200D01*
X65736Y-43200D02*
X65736Y-43413D01*
X65736Y-43413D02*
X65736Y-43200D01*
X70078Y-39960D02*
X70472Y-39960D01*
X70472Y-39960D02*
X70472Y-40944D01*
X68110Y-40944D02*
X68110Y-39960D01*
X68110Y-39960D02*
X68503Y-39960D01*
X68497Y-43507D02*
X68297Y-43507D01*
X68297Y-43507D02*
X68297Y-43307D01*
X69497Y-43307D02*
X69497Y-43507D01*
X69497Y-43507D02*
X69297Y-43507D01*
X75011Y-39263D02*
X75011Y-39476D01*
X75011Y-39476D02*
X75011Y-39263D01*
X75382Y-39263D02*
X75382Y-39476D01*
X75382Y-39476D02*
X75382Y-39263D01*
X77373Y-36113D02*
X77373Y-36327D01*
X77373Y-36327D02*
X77373Y-36113D01*
X77744Y-36113D02*
X77744Y-36327D01*
X77744Y-36327D02*
X77744Y-36113D01*
X77006Y-25336D02*
X76537Y-25336D01*
X76537Y-25336D02*
X77006Y-25336D01*
X77006Y-25844D02*
X76537Y-25844D01*
X76537Y-25844D02*
X77006Y-25844D01*
X76371Y-28152D02*
X76171Y-28152D01*
X76171Y-28152D02*
X76171Y-27952D01*
X77371Y-27952D02*
X77371Y-28152D01*
X77371Y-28152D02*
X77171Y-28152D01*
X78746Y-27752D02*
X78946Y-27752D01*
X78946Y-27752D02*
X78946Y-27952D01*
X77746Y-27952D02*
X77746Y-27752D01*
X77746Y-27752D02*
X77946Y-27752D01*
X78138Y-29634D02*
X78138Y-29420D01*
X78138Y-29420D02*
X78138Y-29634D01*
X77767Y-29634D02*
X77767Y-29420D01*
X77767Y-29420D02*
X77767Y-29634D01*
X77153Y-29634D02*
X77153Y-29420D01*
X77153Y-29420D02*
X77153Y-29634D01*
X76783Y-29634D02*
X76783Y-29420D01*
X76783Y-29420D02*
X76783Y-29634D01*
X76878Y-26389D02*
X76664Y-26389D01*
X76664Y-26389D02*
X76878Y-26389D01*
X76878Y-26760D02*
X76664Y-26760D01*
X76664Y-26760D02*
X76878Y-26760D01*
X58464Y-41338D02*
X58464Y-41732D01*
X59153Y-40748D02*
X60433Y-40748D01*
X60433Y-40748D02*
X60433Y-42322D01*
X60433Y-42322D02*
X59153Y-42322D01*
X85236Y-36811D02*
X85236Y-36417D01*
X84547Y-37401D02*
X83267Y-37401D01*
X83267Y-37401D02*
X83267Y-35826D01*
X83267Y-35826D02*
X84547Y-35826D01*
X83267Y-39566D02*
X83267Y-39960D01*
X83956Y-38976D02*
X85236Y-38976D01*
X85236Y-38976D02*
X85236Y-40551D01*
X85236Y-40551D02*
X83956Y-40551D01*
X73425Y-38779D02*
X73031Y-38779D01*
X74015Y-39468D02*
X74015Y-40748D01*
X74015Y-40748D02*
X72440Y-40748D01*
X72440Y-40748D02*
X72440Y-39468D01*
X64115Y-50355D02*
X64115Y-50825D01*
X64115Y-50825D02*
X64115Y-50355D01*
X64624Y-50355D02*
X64624Y-50825D01*
X64624Y-50825D02*
X64624Y-50355D01*
X65690Y-50306D02*
X65690Y-50874D01*
X65690Y-50874D02*
X65690Y-50306D01*
X66199Y-50306D02*
X66199Y-50874D01*
X66199Y-50874D02*
X66199Y-50306D01*
X54040Y-30563D02*
X54040Y-30679D01*
X54040Y-30679D02*
X51865Y-30679D01*
X51865Y-30679D02*
X51865Y-30563D01*
X54040Y-29672D02*
X54040Y-29556D01*
X54040Y-29556D02*
X51865Y-29556D01*
X51865Y-29556D02*
X51865Y-29672D01*
X54340Y-30628D02*
X54290Y-30678D01*
X54290Y-30678D02*
X54240Y-30628D01*
X54240Y-30628D02*
X54290Y-30578D01*
X54290Y-30578D02*
X54340Y-30628D01*
X57189Y-30563D02*
X57189Y-30679D01*
X57189Y-30679D02*
X55014Y-30679D01*
X55014Y-30679D02*
X55014Y-30563D01*
X57189Y-29672D02*
X57189Y-29556D01*
X57189Y-29556D02*
X55014Y-29556D01*
X55014Y-29556D02*
X55014Y-29672D01*
X57489Y-30628D02*
X57439Y-30678D01*
X57439Y-30678D02*
X57389Y-30628D01*
X57389Y-30628D02*
X57439Y-30578D01*
X57439Y-30578D02*
X57489Y-30628D01*
X57189Y-33319D02*
X57189Y-33435D01*
X57189Y-33435D02*
X55014Y-33435D01*
X55014Y-33435D02*
X55014Y-33319D01*
X57189Y-32428D02*
X57189Y-32312D01*
X57189Y-32312D02*
X55014Y-32312D01*
X55014Y-32312D02*
X55014Y-32428D01*
X57489Y-33384D02*
X57439Y-33434D01*
X57439Y-33434D02*
X57389Y-33384D01*
X57389Y-33384D02*
X57439Y-33334D01*
X57439Y-33334D02*
X57489Y-33384D01*
X54040Y-33319D02*
X54040Y-33435D01*
X54040Y-33435D02*
X51865Y-33435D01*
X51865Y-33435D02*
X51865Y-33319D01*
X54040Y-32428D02*
X54040Y-32312D01*
X54040Y-32312D02*
X51865Y-32312D01*
X51865Y-32312D02*
X51865Y-32428D01*
X54340Y-33384D02*
X54290Y-33434D01*
X54290Y-33434D02*
X54240Y-33384D01*
X54240Y-33384D02*
X54290Y-33334D01*
X54290Y-33334D02*
X54340Y-33384D01*
X54302Y-45854D02*
X54358Y-45854D01*
X54358Y-45854D02*
X54302Y-45854D01*
X54302Y-45483D02*
X54358Y-45483D01*
X54358Y-45483D02*
X54302Y-45483D01*
G54D16*
X57559Y-43700D02*
G75*
G03X57559Y-43700I-1260J0D01*
G74*
G01*
X56929Y-43425D02*
X56929Y-43110D01*
X56772Y-43267D02*
X57087Y-43267D01*
G54D15*
X51174Y-38782D02*
X50974Y-38782D01*
X50974Y-38782D02*
X50974Y-38582D01*
X52174Y-38582D02*
X52174Y-38782D01*
X52174Y-38782D02*
X51974Y-38782D01*
X52749Y-38782D02*
X52549Y-38782D01*
X52549Y-38782D02*
X52549Y-38582D01*
X53749Y-38582D02*
X53749Y-38782D01*
X53749Y-38782D02*
X53549Y-38782D01*
X54530Y-48825D02*
X54530Y-49025D01*
X54530Y-49025D02*
X54330Y-49025D01*
X54330Y-47825D02*
X54530Y-47825D01*
X54530Y-47825D02*
X54530Y-48025D01*
X50387Y-47050D02*
X50187Y-47050D01*
X50187Y-47050D02*
X50187Y-46850D01*
X51387Y-46850D02*
X51387Y-47050D01*
X51387Y-47050D02*
X51187Y-47050D01*
X50987Y-45675D02*
X50987Y-45875D01*
X50987Y-45875D02*
X50787Y-45875D01*
X50787Y-44675D02*
X50987Y-44675D01*
X50987Y-44675D02*
X50987Y-44875D01*
X50208Y-41231D02*
X50208Y-41445D01*
X50208Y-41445D02*
X50208Y-41231D01*
X50579Y-41231D02*
X50579Y-41445D01*
X50579Y-41445D02*
X50579Y-41231D01*
X54224Y-46642D02*
X54437Y-46642D01*
X54437Y-46642D02*
X54224Y-46642D01*
X54224Y-46271D02*
X54437Y-46271D01*
X54437Y-46271D02*
X54224Y-46271D01*
X55720Y-48318D02*
X55720Y-48531D01*
X55720Y-48531D02*
X55720Y-48318D01*
X56090Y-48318D02*
X56090Y-48531D01*
X56090Y-48531D02*
X56090Y-48318D01*
X54437Y-47058D02*
X54224Y-47058D01*
X54224Y-47058D02*
X54437Y-47058D01*
X54437Y-47429D02*
X54224Y-47429D01*
X54224Y-47429D02*
X54437Y-47429D01*
X52153Y-43020D02*
X52153Y-42806D01*
X52153Y-42806D02*
X52153Y-43020D01*
X51783Y-43020D02*
X51783Y-42806D01*
X51783Y-42806D02*
X51783Y-43020D01*
X50995Y-42806D02*
X50995Y-43020D01*
X50995Y-43020D02*
X50995Y-42806D01*
X51366Y-42806D02*
X51366Y-43020D01*
X51366Y-43020D02*
X51366Y-42806D01*
X54224Y-45067D02*
X54437Y-45067D01*
X54437Y-45067D02*
X54224Y-45067D01*
X54224Y-44696D02*
X54437Y-44696D01*
X54437Y-44696D02*
X54224Y-44696D01*
X50208Y-42885D02*
X50208Y-42941D01*
X50208Y-42941D02*
X50208Y-42885D01*
X50579Y-42885D02*
X50579Y-42941D01*
X50579Y-42941D02*
X50579Y-42885D01*
G54D16*
X67204Y-30708D02*
G75*
G03X67204Y-30708I-1260J0D01*
G74*
G01*
X66574Y-30433D02*
X66574Y-30118D01*
X66417Y-30275D02*
X66732Y-30275D01*
G54D17*
X86876Y-28130D02*
X86876Y-28412D01*
X86857Y-28468D01*
X86820Y-28505D01*
X86763Y-28524D01*
X86726Y-28524D01*
X87233Y-28130D02*
X87157Y-28130D01*
X87120Y-28149D01*
X87101Y-28168D01*
X87064Y-28224D01*
X87045Y-28299D01*
X87045Y-28449D01*
X87064Y-28487D01*
X87082Y-28505D01*
X87120Y-28524D01*
X87195Y-28524D01*
X87233Y-28505D01*
X87251Y-28487D01*
X87270Y-28449D01*
X87270Y-28355D01*
X87251Y-28318D01*
X87233Y-28299D01*
X87195Y-28280D01*
X87120Y-28280D01*
X87082Y-28299D01*
X87064Y-28318D01*
X87045Y-28355D01*
G54D12*
X63160Y-44900D02*
X63123Y-44881D01*
X63085Y-44844D01*
X63029Y-44788D01*
X62992Y-44769D01*
X62954Y-44769D01*
X62973Y-44863D02*
X62935Y-44844D01*
X62898Y-44806D01*
X62879Y-44731D01*
X62879Y-44600D01*
X62898Y-44525D01*
X62935Y-44488D01*
X62973Y-44469D01*
X63048Y-44469D01*
X63085Y-44488D01*
X63123Y-44525D01*
X63142Y-44600D01*
X63142Y-44731D01*
X63123Y-44806D01*
X63085Y-44844D01*
X63048Y-44863D01*
X62973Y-44863D01*
X63517Y-44863D02*
X63292Y-44863D01*
X63404Y-44863D02*
X63404Y-44469D01*
X63367Y-44525D01*
X63329Y-44563D01*
X63292Y-44581D01*
X63648Y-44469D02*
X63910Y-44469D01*
X63742Y-44863D01*
X51790Y-40194D02*
X51771Y-40232D01*
X51734Y-40269D01*
X51677Y-40326D01*
X51659Y-40363D01*
X51659Y-40401D01*
X51752Y-40382D02*
X51734Y-40419D01*
X51696Y-40457D01*
X51621Y-40476D01*
X51490Y-40476D01*
X51415Y-40457D01*
X51377Y-40419D01*
X51359Y-40382D01*
X51359Y-40307D01*
X51377Y-40269D01*
X51415Y-40232D01*
X51490Y-40213D01*
X51621Y-40213D01*
X51696Y-40232D01*
X51734Y-40269D01*
X51752Y-40307D01*
X51752Y-40382D01*
X51359Y-40082D02*
X51359Y-39820D01*
X51752Y-39988D01*
X57808Y-28880D02*
X57789Y-28899D01*
X57733Y-28918D01*
X57695Y-28918D01*
X57639Y-28899D01*
X57602Y-28862D01*
X57583Y-28824D01*
X57564Y-28749D01*
X57564Y-28693D01*
X57583Y-28618D01*
X57602Y-28580D01*
X57639Y-28543D01*
X57695Y-28524D01*
X57733Y-28524D01*
X57789Y-28543D01*
X57808Y-28562D01*
X58183Y-28918D02*
X57958Y-28918D01*
X58070Y-28918D02*
X58070Y-28524D01*
X58033Y-28580D01*
X57995Y-28618D01*
X57958Y-28637D01*
X56458Y-37973D02*
X56327Y-37785D01*
X56233Y-37973D02*
X56233Y-37579D01*
X56383Y-37579D01*
X56421Y-37598D01*
X56439Y-37617D01*
X56458Y-37654D01*
X56458Y-37710D01*
X56439Y-37748D01*
X56421Y-37767D01*
X56383Y-37785D01*
X56233Y-37785D01*
X56571Y-37579D02*
X56702Y-37973D01*
X56833Y-37579D01*
X57170Y-37973D02*
X56946Y-37973D01*
X57058Y-37973D02*
X57058Y-37579D01*
X57020Y-37635D01*
X56983Y-37673D01*
X56946Y-37692D01*
G54D17*
X86876Y-35611D02*
X86876Y-35892D01*
X86857Y-35948D01*
X86820Y-35986D01*
X86763Y-36005D01*
X86726Y-36005D01*
X87270Y-36005D02*
X87045Y-36005D01*
X87157Y-36005D02*
X87157Y-35611D01*
X87120Y-35667D01*
X87082Y-35704D01*
X87045Y-35723D01*
X77474Y-38760D02*
X77474Y-38366D01*
X77568Y-38366D01*
X77624Y-38385D01*
X77661Y-38423D01*
X77680Y-38460D01*
X77699Y-38535D01*
X77699Y-38592D01*
X77680Y-38667D01*
X77661Y-38704D01*
X77624Y-38742D01*
X77568Y-38760D01*
X77474Y-38760D01*
X77849Y-38742D02*
X77905Y-38760D01*
X77999Y-38760D01*
X78037Y-38742D01*
X78055Y-38723D01*
X78074Y-38685D01*
X78074Y-38648D01*
X78055Y-38610D01*
X78037Y-38592D01*
X77999Y-38573D01*
X77924Y-38554D01*
X77887Y-38535D01*
X77868Y-38517D01*
X77849Y-38479D01*
X77849Y-38441D01*
X77868Y-38404D01*
X77887Y-38385D01*
X77924Y-38366D01*
X78018Y-38366D01*
X78074Y-38385D01*
X78449Y-38760D02*
X78224Y-38760D01*
X78337Y-38760D02*
X78337Y-38366D01*
X78299Y-38423D01*
X78262Y-38460D01*
X78224Y-38479D01*
X69844Y-35217D02*
X69712Y-35029D01*
X69619Y-35217D02*
X69619Y-34823D01*
X69769Y-34823D01*
X69806Y-34842D01*
X69825Y-34861D01*
X69844Y-34898D01*
X69844Y-34954D01*
X69825Y-34992D01*
X69806Y-35011D01*
X69769Y-35029D01*
X69619Y-35029D01*
X69956Y-34823D02*
X70088Y-35217D01*
X70219Y-34823D01*
X70313Y-34823D02*
X70557Y-34823D01*
X70425Y-34973D01*
X70482Y-34973D01*
X70519Y-34992D01*
X70538Y-35011D01*
X70557Y-35048D01*
X70557Y-35142D01*
X70538Y-35180D01*
X70519Y-35198D01*
X70482Y-35217D01*
X70369Y-35217D01*
X70332Y-35198D01*
X70313Y-35180D01*
X73340Y-28130D02*
X73340Y-27736D01*
X73434Y-27736D01*
X73490Y-27755D01*
X73528Y-27793D01*
X73546Y-27830D01*
X73565Y-27905D01*
X73565Y-27962D01*
X73546Y-28037D01*
X73528Y-28074D01*
X73490Y-28112D01*
X73434Y-28130D01*
X73340Y-28130D01*
X73715Y-28112D02*
X73771Y-28130D01*
X73865Y-28130D01*
X73903Y-28112D01*
X73922Y-28093D01*
X73940Y-28055D01*
X73940Y-28018D01*
X73922Y-27980D01*
X73903Y-27962D01*
X73865Y-27943D01*
X73790Y-27924D01*
X73753Y-27905D01*
X73734Y-27887D01*
X73715Y-27849D01*
X73715Y-27812D01*
X73734Y-27774D01*
X73753Y-27755D01*
X73790Y-27736D01*
X73884Y-27736D01*
X73940Y-27755D01*
X74090Y-27774D02*
X74109Y-27755D01*
X74147Y-27736D01*
X74241Y-27736D01*
X74278Y-27755D01*
X74297Y-27774D01*
X74316Y-27812D01*
X74316Y-27849D01*
X74297Y-27905D01*
X74072Y-28130D01*
X74316Y-28130D01*
X70219Y-28130D02*
X70087Y-27943D01*
X69994Y-28130D02*
X69994Y-27736D01*
X70144Y-27736D01*
X70181Y-27755D01*
X70200Y-27774D01*
X70219Y-27812D01*
X70219Y-27868D01*
X70200Y-27905D01*
X70181Y-27924D01*
X70144Y-27943D01*
X69994Y-27943D01*
X70556Y-27868D02*
X70556Y-28130D01*
X70463Y-27718D02*
X70369Y-27999D01*
X70613Y-27999D01*
X70725Y-27736D02*
X70969Y-27736D01*
X70838Y-27887D01*
X70894Y-27887D01*
X70932Y-27905D01*
X70950Y-27924D01*
X70969Y-27962D01*
X70969Y-28055D01*
X70950Y-28093D01*
X70932Y-28112D01*
X70894Y-28130D01*
X70782Y-28130D01*
X70744Y-28112D01*
X70725Y-28093D01*
G54D12*
X75018Y-35264D02*
X75000Y-35301D01*
X74962Y-35339D01*
X74906Y-35395D01*
X74887Y-35433D01*
X74887Y-35470D01*
X74981Y-35451D02*
X74962Y-35489D01*
X74925Y-35526D01*
X74850Y-35545D01*
X74718Y-35545D01*
X74643Y-35526D01*
X74606Y-35489D01*
X74587Y-35451D01*
X74587Y-35376D01*
X74606Y-35339D01*
X74643Y-35301D01*
X74718Y-35283D01*
X74850Y-35283D01*
X74925Y-35301D01*
X74962Y-35339D01*
X74981Y-35376D01*
X74981Y-35451D01*
X74981Y-34908D02*
X74981Y-35133D01*
X74981Y-35020D02*
X74587Y-35020D01*
X74643Y-35058D01*
X74681Y-35095D01*
X74700Y-35133D01*
X74756Y-34683D02*
X74737Y-34720D01*
X74718Y-34739D01*
X74681Y-34758D01*
X74662Y-34758D01*
X74625Y-34739D01*
X74606Y-34720D01*
X74587Y-34683D01*
X74587Y-34608D01*
X74606Y-34570D01*
X74625Y-34551D01*
X74662Y-34533D01*
X74681Y-34533D01*
X74718Y-34551D01*
X74737Y-34570D01*
X74756Y-34608D01*
X74756Y-34683D01*
X74775Y-34720D01*
X74793Y-34739D01*
X74831Y-34758D01*
X74906Y-34758D01*
X74943Y-34739D01*
X74962Y-34720D01*
X74981Y-34683D01*
X74981Y-34608D01*
X74962Y-34570D01*
X74943Y-34551D01*
X74906Y-34533D01*
X74831Y-34533D01*
X74793Y-34551D01*
X74775Y-34570D01*
X74756Y-34608D01*
X63554Y-38502D02*
X63517Y-38484D01*
X63479Y-38446D01*
X63423Y-38390D01*
X63385Y-38371D01*
X63348Y-38371D01*
X63367Y-38465D02*
X63329Y-38446D01*
X63292Y-38409D01*
X63273Y-38334D01*
X63273Y-38203D01*
X63292Y-38128D01*
X63329Y-38090D01*
X63367Y-38071D01*
X63442Y-38071D01*
X63479Y-38090D01*
X63517Y-38128D01*
X63535Y-38203D01*
X63535Y-38334D01*
X63517Y-38409D01*
X63479Y-38446D01*
X63442Y-38465D01*
X63367Y-38465D01*
X63910Y-38465D02*
X63685Y-38465D01*
X63798Y-38465D02*
X63798Y-38071D01*
X63760Y-38128D01*
X63723Y-38165D01*
X63685Y-38184D01*
X64285Y-38465D02*
X64060Y-38465D01*
X64173Y-38465D02*
X64173Y-38071D01*
X64135Y-38128D01*
X64098Y-38165D01*
X64060Y-38184D01*
X57049Y-35451D02*
X57011Y-35433D01*
X56974Y-35395D01*
X56917Y-35339D01*
X56880Y-35320D01*
X56842Y-35320D01*
X56861Y-35414D02*
X56824Y-35395D01*
X56786Y-35358D01*
X56767Y-35283D01*
X56767Y-35151D01*
X56786Y-35076D01*
X56824Y-35039D01*
X56861Y-35020D01*
X56936Y-35020D01*
X56974Y-35039D01*
X57011Y-35076D01*
X57030Y-35151D01*
X57030Y-35283D01*
X57011Y-35358D01*
X56974Y-35395D01*
X56936Y-35414D01*
X56861Y-35414D01*
X57255Y-35189D02*
X57217Y-35170D01*
X57199Y-35151D01*
X57180Y-35114D01*
X57180Y-35095D01*
X57199Y-35058D01*
X57217Y-35039D01*
X57255Y-35020D01*
X57330Y-35020D01*
X57367Y-35039D01*
X57386Y-35058D01*
X57405Y-35095D01*
X57405Y-35114D01*
X57386Y-35151D01*
X57367Y-35170D01*
X57330Y-35189D01*
X57255Y-35189D01*
X57217Y-35208D01*
X57199Y-35226D01*
X57180Y-35264D01*
X57180Y-35339D01*
X57199Y-35376D01*
X57217Y-35395D01*
X57255Y-35414D01*
X57330Y-35414D01*
X57367Y-35395D01*
X57386Y-35376D01*
X57405Y-35339D01*
X57405Y-35264D01*
X57386Y-35226D01*
X57367Y-35208D01*
X57330Y-35189D01*
X77099Y-45022D02*
X77080Y-45041D01*
X77024Y-45059D01*
X76987Y-45059D01*
X76931Y-45041D01*
X76893Y-45003D01*
X76874Y-44966D01*
X76856Y-44891D01*
X76856Y-44835D01*
X76874Y-44760D01*
X76893Y-44722D01*
X76931Y-44685D01*
X76987Y-44666D01*
X77024Y-44666D01*
X77080Y-44685D01*
X77099Y-44703D01*
X77324Y-44835D02*
X77287Y-44816D01*
X77268Y-44797D01*
X77249Y-44760D01*
X77249Y-44741D01*
X77268Y-44703D01*
X77287Y-44685D01*
X77324Y-44666D01*
X77399Y-44666D01*
X77437Y-44685D01*
X77455Y-44703D01*
X77474Y-44741D01*
X77474Y-44760D01*
X77455Y-44797D01*
X77437Y-44816D01*
X77399Y-44835D01*
X77324Y-44835D01*
X77287Y-44853D01*
X77268Y-44872D01*
X77249Y-44910D01*
X77249Y-44985D01*
X77268Y-45022D01*
X77287Y-45041D01*
X77324Y-45059D01*
X77399Y-45059D01*
X77437Y-45041D01*
X77455Y-45022D01*
X77474Y-44985D01*
X77474Y-44910D01*
X77455Y-44872D01*
X77437Y-44853D01*
X77399Y-44835D01*
X55614Y-40335D02*
X55614Y-39941D01*
X55708Y-39941D01*
X55764Y-39960D01*
X55802Y-39998D01*
X55821Y-40035D01*
X55839Y-40110D01*
X55839Y-40166D01*
X55821Y-40241D01*
X55802Y-40279D01*
X55764Y-40316D01*
X55708Y-40335D01*
X55614Y-40335D01*
X56027Y-40335D02*
X56102Y-40335D01*
X56139Y-40316D01*
X56158Y-40298D01*
X56196Y-40241D01*
X56214Y-40166D01*
X56214Y-40016D01*
X56196Y-39979D01*
X56177Y-39960D01*
X56139Y-39941D01*
X56064Y-39941D01*
X56027Y-39960D01*
X56008Y-39979D01*
X55989Y-40016D01*
X55989Y-40110D01*
X56008Y-40148D01*
X56027Y-40166D01*
X56064Y-40185D01*
X56139Y-40185D01*
X56177Y-40166D01*
X56196Y-40148D01*
X56214Y-40110D01*
X61726Y-38071D02*
X61726Y-37678D01*
X61820Y-37678D01*
X61876Y-37696D01*
X61914Y-37734D01*
X61932Y-37771D01*
X61951Y-37846D01*
X61951Y-37903D01*
X61932Y-37978D01*
X61914Y-38015D01*
X61876Y-38053D01*
X61820Y-38071D01*
X61726Y-38071D01*
X62326Y-38071D02*
X62101Y-38071D01*
X62214Y-38071D02*
X62214Y-37678D01*
X62176Y-37734D01*
X62139Y-37771D01*
X62101Y-37790D01*
X62570Y-37678D02*
X62607Y-37678D01*
X62645Y-37696D01*
X62664Y-37715D01*
X62682Y-37753D01*
X62701Y-37828D01*
X62701Y-37921D01*
X62682Y-37996D01*
X62664Y-38034D01*
X62645Y-38053D01*
X62607Y-38071D01*
X62570Y-38071D01*
X62532Y-38053D01*
X62514Y-38034D01*
X62495Y-37996D01*
X62476Y-37921D01*
X62476Y-37828D01*
X62495Y-37753D01*
X62514Y-37715D01*
X62532Y-37696D01*
X62570Y-37678D01*
X57002Y-40335D02*
X57002Y-39941D01*
X57095Y-39941D01*
X57152Y-39960D01*
X57189Y-39998D01*
X57208Y-40035D01*
X57227Y-40110D01*
X57227Y-40166D01*
X57208Y-40241D01*
X57189Y-40279D01*
X57152Y-40316D01*
X57095Y-40335D01*
X57002Y-40335D01*
X57358Y-39941D02*
X57620Y-39941D01*
X57358Y-40335D01*
X57620Y-40335D01*
X57977Y-40335D02*
X57752Y-40335D01*
X57864Y-40335D02*
X57864Y-39941D01*
X57827Y-39998D01*
X57789Y-40035D01*
X57752Y-40054D01*
X49448Y-28481D02*
X49448Y-28818D01*
X49426Y-28886D01*
X49381Y-28931D01*
X49313Y-28953D01*
X49268Y-28953D01*
X49628Y-28481D02*
X49921Y-28481D01*
X49763Y-28661D01*
X49831Y-28661D01*
X49876Y-28683D01*
X49898Y-28706D01*
X49921Y-28751D01*
X49921Y-28863D01*
X49898Y-28908D01*
X49876Y-28931D01*
X49831Y-28953D01*
X49696Y-28953D01*
X49651Y-28931D01*
X49628Y-28908D01*
X49448Y-31237D02*
X49448Y-31574D01*
X49426Y-31642D01*
X49381Y-31687D01*
X49313Y-31709D01*
X49268Y-31709D01*
X49876Y-31394D02*
X49876Y-31709D01*
X49763Y-31214D02*
X49651Y-31552D01*
X49943Y-31552D01*
X49448Y-33993D02*
X49448Y-34330D01*
X49426Y-34398D01*
X49381Y-34443D01*
X49313Y-34465D01*
X49268Y-34465D01*
X49898Y-33993D02*
X49673Y-33993D01*
X49651Y-34218D01*
X49673Y-34195D01*
X49718Y-34173D01*
X49831Y-34173D01*
X49876Y-34195D01*
X49898Y-34218D01*
X49921Y-34263D01*
X49921Y-34375D01*
X49898Y-34420D01*
X49876Y-34443D01*
X49831Y-34465D01*
X49718Y-34465D01*
X49673Y-34443D01*
X49651Y-34420D01*
X87850Y-43048D02*
X87850Y-43385D01*
X87827Y-43453D01*
X87782Y-43498D01*
X87715Y-43520D01*
X87670Y-43520D01*
X88142Y-43250D02*
X88097Y-43228D01*
X88075Y-43205D01*
X88052Y-43160D01*
X88052Y-43138D01*
X88075Y-43093D01*
X88097Y-43070D01*
X88142Y-43048D01*
X88232Y-43048D01*
X88277Y-43070D01*
X88300Y-43093D01*
X88322Y-43138D01*
X88322Y-43160D01*
X88300Y-43205D01*
X88277Y-43228D01*
X88232Y-43250D01*
X88142Y-43250D01*
X88097Y-43273D01*
X88075Y-43295D01*
X88052Y-43340D01*
X88052Y-43430D01*
X88075Y-43475D01*
X88097Y-43498D01*
X88142Y-43520D01*
X88232Y-43520D01*
X88277Y-43498D01*
X88300Y-43475D01*
X88322Y-43430D01*
X88322Y-43340D01*
X88300Y-43295D01*
X88277Y-43273D01*
X88232Y-43250D01*
X87850Y-45804D02*
X87850Y-46141D01*
X87827Y-46209D01*
X87782Y-46254D01*
X87715Y-46276D01*
X87670Y-46276D01*
X88097Y-46276D02*
X88187Y-46276D01*
X88232Y-46254D01*
X88255Y-46231D01*
X88300Y-46164D01*
X88322Y-46074D01*
X88322Y-45894D01*
X88300Y-45849D01*
X88277Y-45826D01*
X88232Y-45804D01*
X88142Y-45804D01*
X88097Y-45826D01*
X88075Y-45849D01*
X88052Y-45894D01*
X88052Y-46006D01*
X88075Y-46051D01*
X88097Y-46074D01*
X88142Y-46096D01*
X88232Y-46096D01*
X88277Y-46074D01*
X88300Y-46051D01*
X88322Y-46006D01*
X63554Y-41751D02*
X63517Y-41732D01*
X63479Y-41694D01*
X63423Y-41638D01*
X63385Y-41619D01*
X63348Y-41619D01*
X63367Y-41713D02*
X63329Y-41694D01*
X63292Y-41657D01*
X63273Y-41582D01*
X63273Y-41451D01*
X63292Y-41376D01*
X63329Y-41338D01*
X63367Y-41319D01*
X63442Y-41319D01*
X63479Y-41338D01*
X63517Y-41376D01*
X63535Y-41451D01*
X63535Y-41582D01*
X63517Y-41657D01*
X63479Y-41694D01*
X63442Y-41713D01*
X63367Y-41713D01*
X63910Y-41713D02*
X63685Y-41713D01*
X63798Y-41713D02*
X63798Y-41319D01*
X63760Y-41376D01*
X63723Y-41413D01*
X63685Y-41432D01*
X64060Y-41357D02*
X64079Y-41338D01*
X64116Y-41319D01*
X64210Y-41319D01*
X64248Y-41338D01*
X64266Y-41357D01*
X64285Y-41394D01*
X64285Y-41432D01*
X64266Y-41488D01*
X64041Y-41713D01*
X64285Y-41713D01*
X65916Y-36436D02*
X65879Y-36417D01*
X65841Y-36379D01*
X65785Y-36323D01*
X65748Y-36304D01*
X65710Y-36304D01*
X65729Y-36398D02*
X65691Y-36379D01*
X65654Y-36342D01*
X65635Y-36267D01*
X65635Y-36136D01*
X65654Y-36061D01*
X65691Y-36023D01*
X65729Y-36004D01*
X65804Y-36004D01*
X65841Y-36023D01*
X65879Y-36061D01*
X65898Y-36136D01*
X65898Y-36267D01*
X65879Y-36342D01*
X65841Y-36379D01*
X65804Y-36398D01*
X65729Y-36398D01*
X66272Y-36398D02*
X66047Y-36398D01*
X66160Y-36398D02*
X66160Y-36004D01*
X66122Y-36061D01*
X66085Y-36098D01*
X66047Y-36117D01*
X66404Y-36004D02*
X66647Y-36004D01*
X66516Y-36154D01*
X66572Y-36154D01*
X66610Y-36173D01*
X66629Y-36192D01*
X66647Y-36229D01*
X66647Y-36323D01*
X66629Y-36361D01*
X66610Y-36379D01*
X66572Y-36398D01*
X66460Y-36398D01*
X66422Y-36379D01*
X66404Y-36361D01*
X65719Y-39585D02*
X65682Y-39566D01*
X65644Y-39529D01*
X65588Y-39473D01*
X65551Y-39454D01*
X65513Y-39454D01*
X65532Y-39548D02*
X65494Y-39529D01*
X65457Y-39491D01*
X65438Y-39416D01*
X65438Y-39285D01*
X65457Y-39210D01*
X65494Y-39173D01*
X65532Y-39154D01*
X65607Y-39154D01*
X65644Y-39173D01*
X65682Y-39210D01*
X65701Y-39285D01*
X65701Y-39416D01*
X65682Y-39491D01*
X65644Y-39529D01*
X65607Y-39548D01*
X65532Y-39548D01*
X66076Y-39548D02*
X65851Y-39548D01*
X65963Y-39548D02*
X65963Y-39154D01*
X65926Y-39210D01*
X65888Y-39248D01*
X65851Y-39266D01*
X66413Y-39285D02*
X66413Y-39548D01*
X66319Y-39135D02*
X66226Y-39416D01*
X66469Y-39416D01*
X79696Y-35254D02*
X79658Y-35236D01*
X79621Y-35198D01*
X79565Y-35142D01*
X79527Y-35123D01*
X79490Y-35123D01*
X79508Y-35217D02*
X79471Y-35198D01*
X79433Y-35161D01*
X79415Y-35086D01*
X79415Y-34955D01*
X79433Y-34880D01*
X79471Y-34842D01*
X79508Y-34823D01*
X79583Y-34823D01*
X79621Y-34842D01*
X79658Y-34880D01*
X79677Y-34955D01*
X79677Y-35086D01*
X79658Y-35161D01*
X79621Y-35198D01*
X79583Y-35217D01*
X79508Y-35217D01*
X80052Y-35217D02*
X79827Y-35217D01*
X79940Y-35217D02*
X79940Y-34823D01*
X79902Y-34880D01*
X79865Y-34917D01*
X79827Y-34936D01*
X80239Y-35217D02*
X80314Y-35217D01*
X80352Y-35198D01*
X80371Y-35179D01*
X80408Y-35123D01*
X80427Y-35048D01*
X80427Y-34898D01*
X80408Y-34861D01*
X80389Y-34842D01*
X80352Y-34823D01*
X80277Y-34823D01*
X80239Y-34842D01*
X80221Y-34861D01*
X80202Y-34898D01*
X80202Y-34992D01*
X80221Y-35029D01*
X80239Y-35048D01*
X80277Y-35067D01*
X80352Y-35067D01*
X80389Y-35048D01*
X80408Y-35029D01*
X80427Y-34992D01*
X58544Y-35292D02*
X58356Y-35423D01*
X58544Y-35517D02*
X58150Y-35517D01*
X58150Y-35367D01*
X58169Y-35329D01*
X58188Y-35311D01*
X58225Y-35292D01*
X58281Y-35292D01*
X58319Y-35311D01*
X58338Y-35329D01*
X58356Y-35367D01*
X58356Y-35517D01*
X58544Y-34917D02*
X58544Y-35142D01*
X58544Y-35029D02*
X58150Y-35029D01*
X58206Y-35067D01*
X58244Y-35104D01*
X58263Y-35142D01*
X58188Y-34767D02*
X58169Y-34748D01*
X58150Y-34711D01*
X58150Y-34617D01*
X58169Y-34580D01*
X58188Y-34561D01*
X58225Y-34542D01*
X58263Y-34542D01*
X58319Y-34561D01*
X58544Y-34786D01*
X58544Y-34542D01*
X59331Y-35292D02*
X59144Y-35423D01*
X59331Y-35517D02*
X58937Y-35517D01*
X58937Y-35367D01*
X58956Y-35329D01*
X58975Y-35311D01*
X59012Y-35292D01*
X59069Y-35292D01*
X59106Y-35311D01*
X59125Y-35329D01*
X59144Y-35367D01*
X59144Y-35517D01*
X59331Y-34917D02*
X59331Y-35142D01*
X59331Y-35029D02*
X58937Y-35029D01*
X58994Y-35067D01*
X59031Y-35104D01*
X59050Y-35142D01*
X58937Y-34786D02*
X58937Y-34542D01*
X59087Y-34673D01*
X59087Y-34617D01*
X59106Y-34580D01*
X59125Y-34561D01*
X59162Y-34542D01*
X59256Y-34542D01*
X59294Y-34561D01*
X59312Y-34580D01*
X59331Y-34617D01*
X59331Y-34730D01*
X59312Y-34767D01*
X59294Y-34786D01*
X60906Y-35292D02*
X60718Y-35423D01*
X60906Y-35517D02*
X60512Y-35517D01*
X60512Y-35367D01*
X60531Y-35329D01*
X60550Y-35311D01*
X60587Y-35292D01*
X60643Y-35292D01*
X60681Y-35311D01*
X60700Y-35329D01*
X60718Y-35367D01*
X60718Y-35517D01*
X60906Y-34917D02*
X60906Y-35142D01*
X60906Y-35029D02*
X60512Y-35029D01*
X60568Y-35067D01*
X60606Y-35104D01*
X60625Y-35142D01*
X60643Y-34580D02*
X60906Y-34580D01*
X60494Y-34673D02*
X60775Y-34767D01*
X60775Y-34523D01*
X60119Y-35292D02*
X59931Y-35423D01*
X60119Y-35517D02*
X59725Y-35517D01*
X59725Y-35367D01*
X59744Y-35329D01*
X59762Y-35311D01*
X59800Y-35292D01*
X59856Y-35292D01*
X59894Y-35311D01*
X59912Y-35329D01*
X59931Y-35367D01*
X59931Y-35517D01*
X60119Y-34917D02*
X60119Y-35142D01*
X60119Y-35029D02*
X59725Y-35029D01*
X59781Y-35067D01*
X59819Y-35104D01*
X59837Y-35142D01*
X59725Y-34561D02*
X59725Y-34748D01*
X59912Y-34767D01*
X59894Y-34748D01*
X59875Y-34711D01*
X59875Y-34617D01*
X59894Y-34580D01*
X59912Y-34561D01*
X59950Y-34542D01*
X60044Y-34542D01*
X60081Y-34561D01*
X60100Y-34580D01*
X60119Y-34617D01*
X60119Y-34711D01*
X60100Y-34748D01*
X60081Y-34767D01*
X64351Y-36473D02*
X64163Y-36604D01*
X64351Y-36698D02*
X63957Y-36698D01*
X63957Y-36548D01*
X63976Y-36511D01*
X63995Y-36492D01*
X64032Y-36473D01*
X64088Y-36473D01*
X64126Y-36492D01*
X64145Y-36511D01*
X64163Y-36548D01*
X64163Y-36698D01*
X64351Y-36098D02*
X64351Y-36323D01*
X64351Y-36211D02*
X63957Y-36211D01*
X64013Y-36248D01*
X64051Y-36286D01*
X64070Y-36323D01*
X63957Y-35967D02*
X63957Y-35704D01*
X64351Y-35873D01*
X59786Y-44272D02*
X59655Y-44085D01*
X59561Y-44272D02*
X59561Y-43878D01*
X59711Y-43878D01*
X59748Y-43897D01*
X59767Y-43916D01*
X59786Y-43953D01*
X59786Y-44010D01*
X59767Y-44047D01*
X59748Y-44066D01*
X59711Y-44085D01*
X59561Y-44085D01*
X60161Y-44272D02*
X59936Y-44272D01*
X60048Y-44272D02*
X60048Y-43878D01*
X60011Y-43935D01*
X59973Y-43972D01*
X59936Y-43991D01*
X60404Y-43878D02*
X60442Y-43878D01*
X60479Y-43897D01*
X60498Y-43916D01*
X60517Y-43953D01*
X60536Y-44028D01*
X60536Y-44122D01*
X60517Y-44197D01*
X60498Y-44235D01*
X60479Y-44253D01*
X60442Y-44272D01*
X60404Y-44272D01*
X60367Y-44253D01*
X60348Y-44235D01*
X60329Y-44197D01*
X60311Y-44122D01*
X60311Y-44028D01*
X60329Y-43953D01*
X60348Y-43916D01*
X60367Y-43897D01*
X60404Y-43878D01*
X63526Y-43091D02*
X63395Y-42904D01*
X63301Y-43091D02*
X63301Y-42697D01*
X63451Y-42697D01*
X63488Y-42716D01*
X63507Y-42735D01*
X63526Y-42772D01*
X63526Y-42829D01*
X63507Y-42866D01*
X63488Y-42885D01*
X63451Y-42904D01*
X63301Y-42904D01*
X63901Y-43091D02*
X63676Y-43091D01*
X63788Y-43091D02*
X63788Y-42697D01*
X63751Y-42754D01*
X63713Y-42791D01*
X63676Y-42810D01*
X64126Y-42866D02*
X64088Y-42847D01*
X64070Y-42829D01*
X64051Y-42791D01*
X64051Y-42772D01*
X64070Y-42735D01*
X64088Y-42716D01*
X64126Y-42697D01*
X64201Y-42697D01*
X64238Y-42716D01*
X64257Y-42735D01*
X64276Y-42772D01*
X64276Y-42791D01*
X64257Y-42829D01*
X64238Y-42847D01*
X64201Y-42866D01*
X64126Y-42866D01*
X64088Y-42885D01*
X64070Y-42904D01*
X64051Y-42941D01*
X64051Y-43016D01*
X64070Y-43053D01*
X64088Y-43072D01*
X64126Y-43091D01*
X64201Y-43091D01*
X64238Y-43072D01*
X64257Y-43053D01*
X64276Y-43016D01*
X64276Y-42941D01*
X64257Y-42904D01*
X64238Y-42885D01*
X64201Y-42866D01*
X67894Y-44741D02*
X67707Y-44872D01*
X67894Y-44966D02*
X67500Y-44966D01*
X67500Y-44816D01*
X67519Y-44778D01*
X67538Y-44760D01*
X67575Y-44741D01*
X67632Y-44741D01*
X67669Y-44760D01*
X67688Y-44778D01*
X67707Y-44816D01*
X67707Y-44966D01*
X67538Y-44591D02*
X67519Y-44572D01*
X67500Y-44535D01*
X67500Y-44441D01*
X67519Y-44403D01*
X67538Y-44385D01*
X67575Y-44366D01*
X67613Y-44366D01*
X67669Y-44385D01*
X67894Y-44610D01*
X67894Y-44366D01*
X67500Y-44235D02*
X67500Y-43991D01*
X67650Y-44122D01*
X67650Y-44066D01*
X67669Y-44028D01*
X67688Y-44010D01*
X67725Y-43991D01*
X67819Y-43991D01*
X67857Y-44010D01*
X67875Y-44028D01*
X67894Y-44066D01*
X67894Y-44178D01*
X67875Y-44216D01*
X67857Y-44235D01*
X81280Y-35292D02*
X81092Y-35423D01*
X81280Y-35517D02*
X80886Y-35517D01*
X80886Y-35367D01*
X80905Y-35329D01*
X80924Y-35311D01*
X80961Y-35292D01*
X81017Y-35292D01*
X81055Y-35311D01*
X81074Y-35329D01*
X81092Y-35367D01*
X81092Y-35517D01*
X80886Y-35161D02*
X80886Y-34917D01*
X81036Y-35048D01*
X81036Y-34992D01*
X81055Y-34955D01*
X81074Y-34936D01*
X81111Y-34917D01*
X81205Y-34917D01*
X81242Y-34936D01*
X81261Y-34955D01*
X81280Y-34992D01*
X81280Y-35104D01*
X81261Y-35142D01*
X81242Y-35161D01*
X80924Y-34767D02*
X80905Y-34748D01*
X80886Y-34711D01*
X80886Y-34617D01*
X80905Y-34580D01*
X80924Y-34561D01*
X80961Y-34542D01*
X80999Y-34542D01*
X81055Y-34561D01*
X81280Y-34786D01*
X81280Y-34542D01*
X85179Y-28130D02*
X85048Y-27943D01*
X84955Y-28130D02*
X84955Y-27737D01*
X85104Y-27737D01*
X85142Y-27755D01*
X85161Y-27774D01*
X85179Y-27812D01*
X85179Y-27868D01*
X85161Y-27905D01*
X85142Y-27924D01*
X85104Y-27943D01*
X84955Y-27943D01*
X85311Y-27737D02*
X85554Y-27737D01*
X85423Y-27887D01*
X85479Y-27887D01*
X85517Y-27905D01*
X85536Y-27924D01*
X85554Y-27962D01*
X85554Y-28055D01*
X85536Y-28093D01*
X85517Y-28112D01*
X85479Y-28130D01*
X85367Y-28130D01*
X85329Y-28112D01*
X85311Y-28093D01*
X85686Y-27737D02*
X85948Y-27737D01*
X85779Y-28130D01*
X85179Y-29902D02*
X85048Y-29715D01*
X84955Y-29902D02*
X84955Y-29508D01*
X85104Y-29508D01*
X85142Y-29527D01*
X85161Y-29546D01*
X85179Y-29583D01*
X85179Y-29640D01*
X85161Y-29677D01*
X85142Y-29696D01*
X85104Y-29715D01*
X84955Y-29715D01*
X85311Y-29508D02*
X85554Y-29508D01*
X85423Y-29658D01*
X85479Y-29658D01*
X85517Y-29677D01*
X85536Y-29696D01*
X85554Y-29733D01*
X85554Y-29827D01*
X85536Y-29865D01*
X85517Y-29883D01*
X85479Y-29902D01*
X85367Y-29902D01*
X85329Y-29883D01*
X85311Y-29865D01*
X85779Y-29677D02*
X85742Y-29658D01*
X85723Y-29640D01*
X85704Y-29602D01*
X85704Y-29583D01*
X85723Y-29546D01*
X85742Y-29527D01*
X85779Y-29508D01*
X85854Y-29508D01*
X85892Y-29527D01*
X85911Y-29546D01*
X85929Y-29583D01*
X85929Y-29602D01*
X85911Y-29640D01*
X85892Y-29658D01*
X85854Y-29677D01*
X85779Y-29677D01*
X85742Y-29696D01*
X85723Y-29715D01*
X85704Y-29752D01*
X85704Y-29827D01*
X85723Y-29865D01*
X85742Y-29883D01*
X85779Y-29902D01*
X85854Y-29902D01*
X85892Y-29883D01*
X85911Y-29865D01*
X85929Y-29827D01*
X85929Y-29752D01*
X85911Y-29715D01*
X85892Y-29696D01*
X85854Y-29677D01*
X86361Y-31477D02*
X86229Y-31289D01*
X86136Y-31477D02*
X86136Y-31083D01*
X86286Y-31083D01*
X86323Y-31102D01*
X86342Y-31121D01*
X86361Y-31158D01*
X86361Y-31214D01*
X86342Y-31252D01*
X86323Y-31271D01*
X86286Y-31289D01*
X86136Y-31289D01*
X86492Y-31083D02*
X86736Y-31083D01*
X86604Y-31233D01*
X86661Y-31233D01*
X86698Y-31252D01*
X86717Y-31271D01*
X86736Y-31308D01*
X86736Y-31402D01*
X86717Y-31439D01*
X86698Y-31458D01*
X86661Y-31477D01*
X86548Y-31477D01*
X86511Y-31458D01*
X86492Y-31439D01*
X86923Y-31477D02*
X86998Y-31477D01*
X87035Y-31458D01*
X87054Y-31439D01*
X87092Y-31383D01*
X87110Y-31308D01*
X87110Y-31158D01*
X87092Y-31121D01*
X87073Y-31102D01*
X87035Y-31083D01*
X86961Y-31083D01*
X86923Y-31102D01*
X86904Y-31121D01*
X86886Y-31158D01*
X86886Y-31252D01*
X86904Y-31289D01*
X86923Y-31308D01*
X86961Y-31327D01*
X87035Y-31327D01*
X87073Y-31308D01*
X87092Y-31289D01*
X87110Y-31252D01*
X72975Y-44075D02*
X72844Y-43888D01*
X72750Y-44075D02*
X72750Y-43682D01*
X72900Y-43682D01*
X72937Y-43700D01*
X72956Y-43719D01*
X72975Y-43757D01*
X72975Y-43813D01*
X72956Y-43850D01*
X72937Y-43869D01*
X72900Y-43888D01*
X72750Y-43888D01*
X73106Y-43682D02*
X73350Y-43682D01*
X73218Y-43832D01*
X73275Y-43832D01*
X73312Y-43850D01*
X73331Y-43869D01*
X73350Y-43907D01*
X73350Y-44000D01*
X73331Y-44038D01*
X73312Y-44056D01*
X73275Y-44075D01*
X73162Y-44075D01*
X73125Y-44056D01*
X73106Y-44038D01*
X73481Y-43682D02*
X73725Y-43682D01*
X73593Y-43832D01*
X73650Y-43832D01*
X73687Y-43850D01*
X73706Y-43869D01*
X73725Y-43907D01*
X73725Y-44000D01*
X73706Y-44038D01*
X73687Y-44056D01*
X73650Y-44075D01*
X73537Y-44075D01*
X73500Y-44056D01*
X73481Y-44038D01*
X73800Y-35292D02*
X73612Y-35423D01*
X73800Y-35517D02*
X73406Y-35517D01*
X73406Y-35367D01*
X73425Y-35329D01*
X73443Y-35311D01*
X73481Y-35292D01*
X73537Y-35292D01*
X73575Y-35311D01*
X73593Y-35329D01*
X73612Y-35367D01*
X73612Y-35517D01*
X73443Y-35142D02*
X73425Y-35123D01*
X73406Y-35086D01*
X73406Y-34992D01*
X73425Y-34955D01*
X73443Y-34936D01*
X73481Y-34917D01*
X73518Y-34917D01*
X73575Y-34936D01*
X73800Y-35161D01*
X73800Y-34917D01*
X73406Y-34580D02*
X73406Y-34655D01*
X73425Y-34692D01*
X73443Y-34711D01*
X73500Y-34748D01*
X73575Y-34767D01*
X73725Y-34767D01*
X73762Y-34748D01*
X73781Y-34730D01*
X73800Y-34692D01*
X73800Y-34617D01*
X73781Y-34580D01*
X73762Y-34561D01*
X73725Y-34542D01*
X73631Y-34542D01*
X73593Y-34561D01*
X73575Y-34580D01*
X73556Y-34617D01*
X73556Y-34692D01*
X73575Y-34730D01*
X73593Y-34748D01*
X73631Y-34767D01*
X70256Y-44741D02*
X70069Y-44872D01*
X70256Y-44966D02*
X69863Y-44966D01*
X69863Y-44816D01*
X69881Y-44778D01*
X69900Y-44760D01*
X69938Y-44741D01*
X69994Y-44741D01*
X70031Y-44760D01*
X70050Y-44778D01*
X70069Y-44816D01*
X70069Y-44966D01*
X69900Y-44591D02*
X69881Y-44572D01*
X69863Y-44535D01*
X69863Y-44441D01*
X69881Y-44403D01*
X69900Y-44385D01*
X69938Y-44366D01*
X69975Y-44366D01*
X70031Y-44385D01*
X70256Y-44610D01*
X70256Y-44366D01*
X69994Y-44028D02*
X70256Y-44028D01*
X69844Y-44122D02*
X70125Y-44216D01*
X70125Y-43972D01*
X55099Y-35292D02*
X54911Y-35423D01*
X55099Y-35517D02*
X54705Y-35517D01*
X54705Y-35367D01*
X54724Y-35329D01*
X54743Y-35311D01*
X54780Y-35292D01*
X54836Y-35292D01*
X54874Y-35311D01*
X54893Y-35329D01*
X54911Y-35367D01*
X54911Y-35517D01*
X55099Y-34917D02*
X55099Y-35142D01*
X55099Y-35029D02*
X54705Y-35029D01*
X54761Y-35067D01*
X54799Y-35104D01*
X54818Y-35142D01*
X55099Y-34542D02*
X55099Y-34767D01*
X55099Y-34655D02*
X54705Y-34655D01*
X54761Y-34692D01*
X54799Y-34730D01*
X54818Y-34767D01*
X66516Y-44741D02*
X66329Y-44872D01*
X66516Y-44966D02*
X66122Y-44966D01*
X66122Y-44816D01*
X66141Y-44778D01*
X66160Y-44760D01*
X66197Y-44741D01*
X66254Y-44741D01*
X66291Y-44760D01*
X66310Y-44778D01*
X66329Y-44816D01*
X66329Y-44966D01*
X66160Y-44591D02*
X66141Y-44572D01*
X66122Y-44535D01*
X66122Y-44441D01*
X66141Y-44403D01*
X66160Y-44385D01*
X66197Y-44366D01*
X66235Y-44366D01*
X66291Y-44385D01*
X66516Y-44610D01*
X66516Y-44366D01*
X66160Y-44216D02*
X66141Y-44197D01*
X66122Y-44160D01*
X66122Y-44066D01*
X66141Y-44028D01*
X66160Y-44010D01*
X66197Y-43991D01*
X66235Y-43991D01*
X66291Y-44010D01*
X66516Y-44235D01*
X66516Y-43991D01*
X73012Y-35292D02*
X72825Y-35423D01*
X73012Y-35517D02*
X72619Y-35517D01*
X72619Y-35367D01*
X72637Y-35329D01*
X72656Y-35311D01*
X72694Y-35292D01*
X72750Y-35292D01*
X72787Y-35311D01*
X72806Y-35329D01*
X72825Y-35367D01*
X72825Y-35517D01*
X72656Y-35142D02*
X72637Y-35123D01*
X72619Y-35086D01*
X72619Y-34992D01*
X72637Y-34955D01*
X72656Y-34936D01*
X72694Y-34917D01*
X72731Y-34917D01*
X72787Y-34936D01*
X73012Y-35161D01*
X73012Y-34917D01*
X72619Y-34786D02*
X72619Y-34523D01*
X73012Y-34692D01*
X78918Y-35292D02*
X78730Y-35423D01*
X78918Y-35517D02*
X78524Y-35517D01*
X78524Y-35367D01*
X78543Y-35329D01*
X78562Y-35311D01*
X78599Y-35292D01*
X78655Y-35292D01*
X78693Y-35311D01*
X78712Y-35329D01*
X78730Y-35367D01*
X78730Y-35517D01*
X78524Y-35161D02*
X78524Y-34917D01*
X78674Y-35048D01*
X78674Y-34992D01*
X78693Y-34955D01*
X78712Y-34936D01*
X78749Y-34917D01*
X78843Y-34917D01*
X78880Y-34936D01*
X78899Y-34955D01*
X78918Y-34992D01*
X78918Y-35104D01*
X78899Y-35142D01*
X78880Y-35161D01*
X78918Y-34542D02*
X78918Y-34767D01*
X78918Y-34655D02*
X78524Y-34655D01*
X78580Y-34692D01*
X78618Y-34730D01*
X78637Y-34767D01*
X76949Y-35292D02*
X76762Y-35423D01*
X76949Y-35517D02*
X76556Y-35517D01*
X76556Y-35367D01*
X76574Y-35329D01*
X76593Y-35311D01*
X76631Y-35292D01*
X76687Y-35292D01*
X76724Y-35311D01*
X76743Y-35329D01*
X76762Y-35367D01*
X76762Y-35517D01*
X76593Y-35142D02*
X76574Y-35123D01*
X76556Y-35086D01*
X76556Y-34992D01*
X76574Y-34955D01*
X76593Y-34936D01*
X76631Y-34917D01*
X76668Y-34917D01*
X76724Y-34936D01*
X76949Y-35161D01*
X76949Y-34917D01*
X76949Y-34730D02*
X76949Y-34655D01*
X76931Y-34617D01*
X76912Y-34598D01*
X76856Y-34561D01*
X76781Y-34542D01*
X76631Y-34542D01*
X76593Y-34561D01*
X76574Y-34580D01*
X76556Y-34617D01*
X76556Y-34692D01*
X76574Y-34730D01*
X76593Y-34748D01*
X76631Y-34767D01*
X76724Y-34767D01*
X76762Y-34748D01*
X76781Y-34730D01*
X76799Y-34692D01*
X76799Y-34617D01*
X76781Y-34580D01*
X76762Y-34561D01*
X76724Y-34542D01*
X76162Y-35292D02*
X75974Y-35423D01*
X76162Y-35517D02*
X75768Y-35517D01*
X75768Y-35367D01*
X75787Y-35329D01*
X75806Y-35311D01*
X75843Y-35292D01*
X75899Y-35292D01*
X75937Y-35311D01*
X75956Y-35329D01*
X75974Y-35367D01*
X75974Y-35517D01*
X75806Y-35142D02*
X75787Y-35123D01*
X75768Y-35086D01*
X75768Y-34992D01*
X75787Y-34955D01*
X75806Y-34936D01*
X75843Y-34917D01*
X75881Y-34917D01*
X75937Y-34936D01*
X76162Y-35161D01*
X76162Y-34917D01*
X75937Y-34692D02*
X75918Y-34730D01*
X75899Y-34748D01*
X75862Y-34767D01*
X75843Y-34767D01*
X75806Y-34748D01*
X75787Y-34730D01*
X75768Y-34692D01*
X75768Y-34617D01*
X75787Y-34580D01*
X75806Y-34561D01*
X75843Y-34542D01*
X75862Y-34542D01*
X75899Y-34561D01*
X75918Y-34580D01*
X75937Y-34617D01*
X75937Y-34692D01*
X75956Y-34730D01*
X75974Y-34748D01*
X76012Y-34767D01*
X76087Y-34767D01*
X76124Y-34748D01*
X76143Y-34730D01*
X76162Y-34692D01*
X76162Y-34617D01*
X76143Y-34580D01*
X76124Y-34561D01*
X76087Y-34542D01*
X76012Y-34542D01*
X75974Y-34561D01*
X75956Y-34580D01*
X75937Y-34617D01*
X56046Y-35104D02*
X56064Y-35123D01*
X56083Y-35179D01*
X56083Y-35217D01*
X56064Y-35273D01*
X56027Y-35311D01*
X55989Y-35329D01*
X55914Y-35348D01*
X55858Y-35348D01*
X55783Y-35329D01*
X55746Y-35311D01*
X55708Y-35273D01*
X55689Y-35217D01*
X55689Y-35179D01*
X55708Y-35123D01*
X55727Y-35104D01*
X55689Y-34973D02*
X55689Y-34711D01*
X56083Y-34880D01*
X82461Y-43785D02*
X82067Y-43785D01*
X82067Y-43691D01*
X82086Y-43635D01*
X82124Y-43597D01*
X82161Y-43578D01*
X82236Y-43560D01*
X82292Y-43560D01*
X82367Y-43578D01*
X82405Y-43597D01*
X82442Y-43635D01*
X82461Y-43691D01*
X82461Y-43785D01*
X82067Y-43428D02*
X82067Y-43166D01*
X82461Y-43428D01*
X82461Y-43166D01*
X82105Y-43035D02*
X82086Y-43016D01*
X82067Y-42979D01*
X82067Y-42885D01*
X82086Y-42847D01*
X82105Y-42829D01*
X82142Y-42810D01*
X82180Y-42810D01*
X82236Y-42829D01*
X82461Y-43053D01*
X82461Y-42810D01*
X64735Y-33680D02*
X64698Y-33661D01*
X64660Y-33623D01*
X64604Y-33567D01*
X64566Y-33548D01*
X64529Y-33548D01*
X64548Y-33642D02*
X64510Y-33623D01*
X64473Y-33586D01*
X64454Y-33511D01*
X64454Y-33380D01*
X64473Y-33305D01*
X64510Y-33267D01*
X64548Y-33248D01*
X64623Y-33248D01*
X64660Y-33267D01*
X64698Y-33305D01*
X64716Y-33380D01*
X64716Y-33511D01*
X64698Y-33586D01*
X64660Y-33623D01*
X64623Y-33642D01*
X64548Y-33642D01*
X65091Y-33642D02*
X64866Y-33642D01*
X64979Y-33642D02*
X64979Y-33248D01*
X64941Y-33305D01*
X64904Y-33342D01*
X64866Y-33361D01*
X65335Y-33248D02*
X65373Y-33248D01*
X65410Y-33267D01*
X65429Y-33286D01*
X65448Y-33323D01*
X65466Y-33398D01*
X65466Y-33492D01*
X65448Y-33567D01*
X65429Y-33605D01*
X65410Y-33623D01*
X65373Y-33642D01*
X65335Y-33642D01*
X65298Y-33623D01*
X65279Y-33605D01*
X65260Y-33567D01*
X65241Y-33492D01*
X65241Y-33398D01*
X65260Y-33323D01*
X65279Y-33286D01*
X65298Y-33267D01*
X65335Y-33248D01*
X67500Y-36473D02*
X67313Y-36604D01*
X67500Y-36698D02*
X67107Y-36698D01*
X67107Y-36548D01*
X67125Y-36511D01*
X67144Y-36492D01*
X67182Y-36473D01*
X67238Y-36473D01*
X67275Y-36492D01*
X67294Y-36511D01*
X67313Y-36548D01*
X67313Y-36698D01*
X67144Y-36323D02*
X67125Y-36304D01*
X67107Y-36267D01*
X67107Y-36173D01*
X67125Y-36136D01*
X67144Y-36117D01*
X67182Y-36098D01*
X67219Y-36098D01*
X67275Y-36117D01*
X67500Y-36342D01*
X67500Y-36098D01*
X67500Y-35723D02*
X67500Y-35948D01*
X67500Y-35836D02*
X67107Y-35836D01*
X67163Y-35873D01*
X67200Y-35911D01*
X67219Y-35948D01*
X82264Y-36867D02*
X82077Y-36998D01*
X82264Y-37092D02*
X81871Y-37092D01*
X81871Y-36942D01*
X81889Y-36904D01*
X81908Y-36886D01*
X81946Y-36867D01*
X82002Y-36867D01*
X82039Y-36886D01*
X82058Y-36904D01*
X82077Y-36942D01*
X82077Y-37092D01*
X81871Y-36736D02*
X81871Y-36492D01*
X82020Y-36623D01*
X82020Y-36567D01*
X82039Y-36529D01*
X82058Y-36511D01*
X82095Y-36492D01*
X82189Y-36492D01*
X82227Y-36511D01*
X82245Y-36529D01*
X82264Y-36567D01*
X82264Y-36679D01*
X82245Y-36717D01*
X82227Y-36736D01*
X81871Y-36136D02*
X81871Y-36323D01*
X82058Y-36342D01*
X82039Y-36323D01*
X82020Y-36286D01*
X82020Y-36192D01*
X82039Y-36154D01*
X82058Y-36136D01*
X82095Y-36117D01*
X82189Y-36117D01*
X82227Y-36136D01*
X82245Y-36154D01*
X82264Y-36192D01*
X82264Y-36286D01*
X82245Y-36323D01*
X82227Y-36342D01*
X82264Y-40016D02*
X82077Y-40148D01*
X82264Y-40241D02*
X81871Y-40241D01*
X81871Y-40091D01*
X81889Y-40054D01*
X81908Y-40035D01*
X81946Y-40016D01*
X82002Y-40016D01*
X82039Y-40035D01*
X82058Y-40054D01*
X82077Y-40091D01*
X82077Y-40241D01*
X81871Y-39885D02*
X81871Y-39641D01*
X82020Y-39773D01*
X82020Y-39716D01*
X82039Y-39679D01*
X82058Y-39660D01*
X82095Y-39641D01*
X82189Y-39641D01*
X82227Y-39660D01*
X82245Y-39679D01*
X82264Y-39716D01*
X82264Y-39829D01*
X82245Y-39866D01*
X82227Y-39885D01*
X81871Y-39304D02*
X81871Y-39379D01*
X81889Y-39416D01*
X81908Y-39435D01*
X81964Y-39473D01*
X82039Y-39491D01*
X82189Y-39491D01*
X82227Y-39473D01*
X82245Y-39454D01*
X82264Y-39416D01*
X82264Y-39341D01*
X82245Y-39304D01*
X82227Y-39285D01*
X82189Y-39266D01*
X82095Y-39266D01*
X82058Y-39285D01*
X82039Y-39304D01*
X82020Y-39341D01*
X82020Y-39416D01*
X82039Y-39454D01*
X82058Y-39473D01*
X82095Y-39491D01*
X56008Y-27934D02*
X56008Y-27540D01*
X56102Y-27540D01*
X56158Y-27559D01*
X56196Y-27596D01*
X56214Y-27634D01*
X56233Y-27709D01*
X56233Y-27765D01*
X56214Y-27840D01*
X56196Y-27877D01*
X56158Y-27915D01*
X56102Y-27934D01*
X56008Y-27934D01*
X56589Y-27540D02*
X56402Y-27540D01*
X56383Y-27727D01*
X56402Y-27709D01*
X56439Y-27690D01*
X56533Y-27690D01*
X56571Y-27709D01*
X56589Y-27727D01*
X56608Y-27765D01*
X56608Y-27859D01*
X56589Y-27896D01*
X56571Y-27915D01*
X56533Y-27934D01*
X56439Y-27934D01*
X56402Y-27915D01*
X56383Y-27896D01*
X58370Y-27934D02*
X58370Y-27540D01*
X58464Y-27540D01*
X58520Y-27559D01*
X58558Y-27596D01*
X58577Y-27634D01*
X58595Y-27709D01*
X58595Y-27765D01*
X58577Y-27840D01*
X58558Y-27877D01*
X58520Y-27915D01*
X58464Y-27934D01*
X58370Y-27934D01*
X58933Y-27540D02*
X58858Y-27540D01*
X58820Y-27559D01*
X58802Y-27577D01*
X58764Y-27634D01*
X58745Y-27709D01*
X58745Y-27859D01*
X58764Y-27896D01*
X58783Y-27915D01*
X58820Y-27934D01*
X58895Y-27934D01*
X58933Y-27915D01*
X58952Y-27896D01*
X58970Y-27859D01*
X58970Y-27765D01*
X58952Y-27727D01*
X58933Y-27709D01*
X58895Y-27690D01*
X58820Y-27690D01*
X58783Y-27709D01*
X58764Y-27727D01*
X58745Y-27765D01*
X63095Y-27934D02*
X63095Y-27540D01*
X63188Y-27540D01*
X63245Y-27559D01*
X63282Y-27596D01*
X63301Y-27634D01*
X63320Y-27709D01*
X63320Y-27765D01*
X63301Y-27840D01*
X63282Y-27877D01*
X63245Y-27915D01*
X63188Y-27934D01*
X63095Y-27934D01*
X63451Y-27540D02*
X63713Y-27540D01*
X63545Y-27934D01*
X57386Y-25374D02*
X57386Y-24981D01*
X57480Y-24981D01*
X57536Y-25000D01*
X57574Y-25037D01*
X57592Y-25074D01*
X57611Y-25149D01*
X57611Y-25206D01*
X57592Y-25281D01*
X57574Y-25318D01*
X57536Y-25356D01*
X57480Y-25374D01*
X57386Y-25374D01*
X57836Y-25149D02*
X57799Y-25131D01*
X57780Y-25112D01*
X57761Y-25074D01*
X57761Y-25056D01*
X57780Y-25018D01*
X57799Y-25000D01*
X57836Y-24981D01*
X57911Y-24981D01*
X57949Y-25000D01*
X57967Y-25018D01*
X57986Y-25056D01*
X57986Y-25074D01*
X57967Y-25112D01*
X57949Y-25131D01*
X57911Y-25149D01*
X57836Y-25149D01*
X57799Y-25168D01*
X57780Y-25187D01*
X57761Y-25224D01*
X57761Y-25299D01*
X57780Y-25337D01*
X57799Y-25356D01*
X57836Y-25374D01*
X57911Y-25374D01*
X57949Y-25356D01*
X57967Y-25337D01*
X57986Y-25299D01*
X57986Y-25224D01*
X57967Y-25187D01*
X57949Y-25168D01*
X57911Y-25149D01*
X86136Y-34233D02*
X86136Y-33839D01*
X86229Y-33839D01*
X86286Y-33858D01*
X86323Y-33895D01*
X86342Y-33933D01*
X86361Y-34008D01*
X86361Y-34064D01*
X86342Y-34139D01*
X86323Y-34176D01*
X86286Y-34214D01*
X86229Y-34233D01*
X86136Y-34233D01*
X86736Y-34233D02*
X86511Y-34233D01*
X86623Y-34233D02*
X86623Y-33839D01*
X86586Y-33895D01*
X86548Y-33933D01*
X86511Y-33952D01*
X87110Y-34233D02*
X86886Y-34233D01*
X86998Y-34233D02*
X86998Y-33839D01*
X86961Y-33895D01*
X86923Y-33933D01*
X86886Y-33952D01*
X57442Y-48247D02*
X57405Y-48228D01*
X57367Y-48190D01*
X57311Y-48134D01*
X57274Y-48115D01*
X57236Y-48115D01*
X57255Y-48209D02*
X57217Y-48190D01*
X57180Y-48153D01*
X57161Y-48078D01*
X57161Y-47947D01*
X57180Y-47872D01*
X57217Y-47834D01*
X57255Y-47815D01*
X57330Y-47815D01*
X57367Y-47834D01*
X57405Y-47872D01*
X57424Y-47947D01*
X57424Y-48078D01*
X57405Y-48153D01*
X57367Y-48190D01*
X57330Y-48209D01*
X57255Y-48209D01*
X57555Y-47815D02*
X57799Y-47815D01*
X57667Y-47965D01*
X57724Y-47965D01*
X57761Y-47984D01*
X57780Y-48003D01*
X57799Y-48040D01*
X57799Y-48134D01*
X57780Y-48172D01*
X57761Y-48190D01*
X57724Y-48209D01*
X57611Y-48209D01*
X57574Y-48190D01*
X57555Y-48172D01*
X53327Y-44160D02*
X53140Y-44291D01*
X53327Y-44385D02*
X52934Y-44385D01*
X52934Y-44235D01*
X52952Y-44197D01*
X52971Y-44178D01*
X53008Y-44160D01*
X53065Y-44160D01*
X53102Y-44178D01*
X53121Y-44197D01*
X53140Y-44235D01*
X53140Y-44385D01*
X53102Y-43935D02*
X53083Y-43972D01*
X53065Y-43991D01*
X53027Y-44010D01*
X53008Y-44010D01*
X52971Y-43991D01*
X52952Y-43972D01*
X52934Y-43935D01*
X52934Y-43860D01*
X52952Y-43822D01*
X52971Y-43803D01*
X53008Y-43785D01*
X53027Y-43785D01*
X53065Y-43803D01*
X53083Y-43822D01*
X53102Y-43860D01*
X53102Y-43935D01*
X53121Y-43972D01*
X53140Y-43991D01*
X53177Y-44010D01*
X53252Y-44010D01*
X53290Y-43991D01*
X53308Y-43972D01*
X53327Y-43935D01*
X53327Y-43860D01*
X53308Y-43822D01*
X53290Y-43803D01*
X53252Y-43785D01*
X53177Y-43785D01*
X53140Y-43803D01*
X53121Y-43822D01*
X53102Y-43860D01*
X63563Y-36473D02*
X63376Y-36604D01*
X63563Y-36698D02*
X63170Y-36698D01*
X63170Y-36548D01*
X63188Y-36511D01*
X63207Y-36492D01*
X63245Y-36473D01*
X63301Y-36473D01*
X63338Y-36492D01*
X63357Y-36511D01*
X63376Y-36548D01*
X63376Y-36698D01*
X63563Y-36098D02*
X63563Y-36323D01*
X63563Y-36211D02*
X63170Y-36211D01*
X63226Y-36248D01*
X63263Y-36286D01*
X63282Y-36323D01*
X63170Y-35761D02*
X63170Y-35836D01*
X63188Y-35873D01*
X63207Y-35892D01*
X63263Y-35929D01*
X63338Y-35948D01*
X63488Y-35948D01*
X63526Y-35929D01*
X63545Y-35911D01*
X63563Y-35873D01*
X63563Y-35798D01*
X63545Y-35761D01*
X63526Y-35742D01*
X63488Y-35723D01*
X63395Y-35723D01*
X63357Y-35742D01*
X63338Y-35761D01*
X63320Y-35798D01*
X63320Y-35873D01*
X63338Y-35911D01*
X63357Y-35929D01*
X63395Y-35948D01*
X59973Y-43485D02*
X59842Y-43297D01*
X59748Y-43485D02*
X59748Y-43091D01*
X59898Y-43091D01*
X59936Y-43110D01*
X59955Y-43128D01*
X59973Y-43166D01*
X59973Y-43222D01*
X59955Y-43260D01*
X59936Y-43278D01*
X59898Y-43297D01*
X59748Y-43297D01*
X60161Y-43485D02*
X60236Y-43485D01*
X60273Y-43466D01*
X60292Y-43447D01*
X60329Y-43391D01*
X60348Y-43316D01*
X60348Y-43166D01*
X60329Y-43128D01*
X60311Y-43110D01*
X60273Y-43091D01*
X60198Y-43091D01*
X60161Y-43110D01*
X60142Y-43128D01*
X60123Y-43166D01*
X60123Y-43260D01*
X60142Y-43297D01*
X60161Y-43316D01*
X60198Y-43335D01*
X60273Y-43335D01*
X60311Y-43316D01*
X60329Y-43297D01*
X60348Y-43260D01*
X83183Y-34233D02*
X83183Y-33839D01*
X83277Y-33839D01*
X83333Y-33858D01*
X83370Y-33895D01*
X83389Y-33933D01*
X83408Y-34008D01*
X83408Y-34064D01*
X83389Y-34139D01*
X83370Y-34176D01*
X83333Y-34214D01*
X83277Y-34233D01*
X83183Y-34233D01*
X83783Y-34233D02*
X83558Y-34233D01*
X83670Y-34233D02*
X83670Y-33839D01*
X83633Y-33895D01*
X83595Y-33933D01*
X83558Y-33952D01*
X83933Y-33877D02*
X83952Y-33858D01*
X83989Y-33839D01*
X84083Y-33839D01*
X84120Y-33858D01*
X84139Y-33877D01*
X84158Y-33914D01*
X84158Y-33952D01*
X84139Y-34008D01*
X83914Y-34233D01*
X84158Y-34233D01*
X83211Y-31477D02*
X83080Y-31289D01*
X82986Y-31477D02*
X82986Y-31083D01*
X83136Y-31083D01*
X83173Y-31102D01*
X83192Y-31121D01*
X83211Y-31158D01*
X83211Y-31214D01*
X83192Y-31252D01*
X83173Y-31271D01*
X83136Y-31289D01*
X82986Y-31289D01*
X83548Y-31214D02*
X83548Y-31477D01*
X83455Y-31064D02*
X83361Y-31346D01*
X83605Y-31346D01*
X83830Y-31083D02*
X83867Y-31083D01*
X83905Y-31102D01*
X83923Y-31121D01*
X83942Y-31158D01*
X83961Y-31233D01*
X83961Y-31327D01*
X83942Y-31402D01*
X83923Y-31439D01*
X83905Y-31458D01*
X83867Y-31477D01*
X83830Y-31477D01*
X83792Y-31458D01*
X83773Y-31439D01*
X83755Y-31402D01*
X83736Y-31327D01*
X83736Y-31233D01*
X83755Y-31158D01*
X83773Y-31121D01*
X83792Y-31102D01*
X83830Y-31083D01*
X75374Y-44741D02*
X75187Y-44872D01*
X75374Y-44966D02*
X74981Y-44966D01*
X74981Y-44816D01*
X75000Y-44778D01*
X75018Y-44760D01*
X75056Y-44741D01*
X75112Y-44741D01*
X75149Y-44760D01*
X75168Y-44778D01*
X75187Y-44816D01*
X75187Y-44966D01*
X74981Y-44610D02*
X74981Y-44366D01*
X75131Y-44497D01*
X75131Y-44441D01*
X75149Y-44403D01*
X75168Y-44385D01*
X75206Y-44366D01*
X75299Y-44366D01*
X75337Y-44385D01*
X75356Y-44403D01*
X75374Y-44441D01*
X75374Y-44553D01*
X75356Y-44591D01*
X75337Y-44610D01*
X75112Y-44028D02*
X75374Y-44028D01*
X74962Y-44122D02*
X75243Y-44216D01*
X75243Y-43972D01*
X65138Y-36473D02*
X64951Y-36604D01*
X65138Y-36698D02*
X64745Y-36698D01*
X64745Y-36548D01*
X64763Y-36511D01*
X64782Y-36492D01*
X64820Y-36473D01*
X64876Y-36473D01*
X64913Y-36492D01*
X64932Y-36511D01*
X64951Y-36548D01*
X64951Y-36698D01*
X65138Y-36098D02*
X65138Y-36323D01*
X65138Y-36211D02*
X64745Y-36211D01*
X64801Y-36248D01*
X64838Y-36286D01*
X64857Y-36323D01*
X65138Y-35911D02*
X65138Y-35836D01*
X65119Y-35798D01*
X65101Y-35779D01*
X65044Y-35742D01*
X64970Y-35723D01*
X64820Y-35723D01*
X64782Y-35742D01*
X64763Y-35761D01*
X64745Y-35798D01*
X64745Y-35873D01*
X64763Y-35911D01*
X64782Y-35929D01*
X64820Y-35948D01*
X64913Y-35948D01*
X64951Y-35929D01*
X64970Y-35911D01*
X64988Y-35873D01*
X64988Y-35798D01*
X64970Y-35761D01*
X64951Y-35742D01*
X64913Y-35723D01*
X53290Y-40223D02*
X53308Y-40241D01*
X53327Y-40298D01*
X53327Y-40335D01*
X53308Y-40391D01*
X53271Y-40429D01*
X53233Y-40448D01*
X53158Y-40466D01*
X53102Y-40466D01*
X53027Y-40448D01*
X52990Y-40429D01*
X52952Y-40391D01*
X52934Y-40335D01*
X52934Y-40298D01*
X52952Y-40241D01*
X52971Y-40223D01*
X52934Y-39866D02*
X52934Y-40054D01*
X53121Y-40073D01*
X53102Y-40054D01*
X53083Y-40016D01*
X53083Y-39923D01*
X53102Y-39885D01*
X53121Y-39866D01*
X53158Y-39848D01*
X53252Y-39848D01*
X53290Y-39866D01*
X53308Y-39885D01*
X53327Y-39923D01*
X53327Y-40016D01*
X53308Y-40054D01*
X53290Y-40073D01*
X62954Y-33680D02*
X62917Y-33661D01*
X62879Y-33623D01*
X62823Y-33567D01*
X62785Y-33548D01*
X62748Y-33548D01*
X62767Y-33642D02*
X62729Y-33623D01*
X62692Y-33586D01*
X62673Y-33511D01*
X62673Y-33380D01*
X62692Y-33305D01*
X62729Y-33267D01*
X62767Y-33248D01*
X62842Y-33248D01*
X62879Y-33267D01*
X62917Y-33305D01*
X62935Y-33380D01*
X62935Y-33511D01*
X62917Y-33586D01*
X62879Y-33623D01*
X62842Y-33642D01*
X62767Y-33642D01*
X63123Y-33642D02*
X63198Y-33642D01*
X63235Y-33623D01*
X63254Y-33605D01*
X63292Y-33548D01*
X63310Y-33473D01*
X63310Y-33323D01*
X63292Y-33286D01*
X63273Y-33267D01*
X63235Y-33248D01*
X63160Y-33248D01*
X63123Y-33267D01*
X63104Y-33286D01*
X63085Y-33323D01*
X63085Y-33417D01*
X63104Y-33455D01*
X63123Y-33473D01*
X63160Y-33492D01*
X63235Y-33492D01*
X63273Y-33473D01*
X63292Y-33455D01*
X63310Y-33417D01*
X80286Y-31219D02*
X80249Y-31200D01*
X80211Y-31163D01*
X80155Y-31107D01*
X80118Y-31088D01*
X80080Y-31088D01*
X80099Y-31182D02*
X80061Y-31163D01*
X80024Y-31125D01*
X80005Y-31050D01*
X80005Y-30919D01*
X80024Y-30844D01*
X80061Y-30807D01*
X80099Y-30788D01*
X80174Y-30788D01*
X80211Y-30807D01*
X80249Y-30844D01*
X80268Y-30919D01*
X80268Y-31050D01*
X80249Y-31125D01*
X80211Y-31163D01*
X80174Y-31182D01*
X80099Y-31182D01*
X80418Y-30825D02*
X80436Y-30807D01*
X80474Y-30788D01*
X80568Y-30788D01*
X80605Y-30807D01*
X80624Y-30825D01*
X80643Y-30863D01*
X80643Y-30900D01*
X80624Y-30957D01*
X80399Y-31182D01*
X80643Y-31182D01*
X80886Y-30788D02*
X80924Y-30788D01*
X80961Y-30807D01*
X80980Y-30825D01*
X80999Y-30863D01*
X81017Y-30938D01*
X81017Y-31032D01*
X80999Y-31107D01*
X80980Y-31144D01*
X80961Y-31163D01*
X80924Y-31182D01*
X80886Y-31182D01*
X80849Y-31163D01*
X80830Y-31144D01*
X80811Y-31107D01*
X80793Y-31032D01*
X80793Y-30938D01*
X80811Y-30863D01*
X80830Y-30825D01*
X80849Y-30807D01*
X80886Y-30788D01*
X65729Y-44741D02*
X65541Y-44872D01*
X65729Y-44966D02*
X65335Y-44966D01*
X65335Y-44816D01*
X65354Y-44778D01*
X65373Y-44760D01*
X65410Y-44741D01*
X65466Y-44741D01*
X65504Y-44760D01*
X65523Y-44778D01*
X65541Y-44816D01*
X65541Y-44966D01*
X65373Y-44591D02*
X65354Y-44572D01*
X65335Y-44535D01*
X65335Y-44441D01*
X65354Y-44403D01*
X65373Y-44385D01*
X65410Y-44366D01*
X65448Y-44366D01*
X65504Y-44385D01*
X65729Y-44610D01*
X65729Y-44366D01*
X65335Y-44122D02*
X65335Y-44085D01*
X65354Y-44047D01*
X65373Y-44028D01*
X65410Y-44010D01*
X65485Y-43991D01*
X65579Y-43991D01*
X65654Y-44010D01*
X65691Y-44028D01*
X65710Y-44047D01*
X65729Y-44085D01*
X65729Y-44122D01*
X65710Y-44160D01*
X65691Y-44178D01*
X65654Y-44197D01*
X65579Y-44216D01*
X65485Y-44216D01*
X65410Y-44197D01*
X65373Y-44178D01*
X65354Y-44160D01*
X65335Y-44122D01*
X67735Y-40776D02*
X67716Y-40813D01*
X67679Y-40851D01*
X67622Y-40907D01*
X67604Y-40944D01*
X67604Y-40982D01*
X67697Y-40963D02*
X67679Y-41001D01*
X67641Y-41038D01*
X67566Y-41057D01*
X67435Y-41057D01*
X67360Y-41038D01*
X67322Y-41001D01*
X67304Y-40963D01*
X67304Y-40888D01*
X67322Y-40851D01*
X67360Y-40813D01*
X67435Y-40794D01*
X67566Y-40794D01*
X67641Y-40813D01*
X67679Y-40851D01*
X67697Y-40888D01*
X67697Y-40963D01*
X67697Y-40419D02*
X67697Y-40644D01*
X67697Y-40532D02*
X67304Y-40532D01*
X67360Y-40569D01*
X67397Y-40607D01*
X67416Y-40644D01*
X67304Y-40063D02*
X67304Y-40251D01*
X67491Y-40269D01*
X67472Y-40251D01*
X67454Y-40213D01*
X67454Y-40119D01*
X67472Y-40082D01*
X67491Y-40063D01*
X67529Y-40044D01*
X67622Y-40044D01*
X67660Y-40063D01*
X67679Y-40082D01*
X67697Y-40119D01*
X67697Y-40213D01*
X67679Y-40251D01*
X67660Y-40269D01*
X68672Y-44703D02*
X68635Y-44685D01*
X68597Y-44647D01*
X68541Y-44591D01*
X68503Y-44572D01*
X68466Y-44572D01*
X68485Y-44666D02*
X68447Y-44647D01*
X68410Y-44610D01*
X68391Y-44535D01*
X68391Y-44403D01*
X68410Y-44328D01*
X68447Y-44291D01*
X68485Y-44272D01*
X68560Y-44272D01*
X68597Y-44291D01*
X68635Y-44328D01*
X68653Y-44403D01*
X68653Y-44535D01*
X68635Y-44610D01*
X68597Y-44647D01*
X68560Y-44666D01*
X68485Y-44666D01*
X69028Y-44666D02*
X68803Y-44666D01*
X68916Y-44666D02*
X68916Y-44272D01*
X68878Y-44328D01*
X68841Y-44366D01*
X68803Y-44385D01*
X69366Y-44272D02*
X69291Y-44272D01*
X69253Y-44291D01*
X69235Y-44310D01*
X69197Y-44366D01*
X69178Y-44441D01*
X69178Y-44591D01*
X69197Y-44628D01*
X69216Y-44647D01*
X69253Y-44666D01*
X69328Y-44666D01*
X69366Y-44647D01*
X69385Y-44628D01*
X69403Y-44591D01*
X69403Y-44497D01*
X69385Y-44460D01*
X69366Y-44441D01*
X69328Y-44422D01*
X69253Y-44422D01*
X69216Y-44441D01*
X69197Y-44460D01*
X69178Y-44497D01*
X76063Y-39623D02*
X75876Y-39754D01*
X76063Y-39848D02*
X75670Y-39848D01*
X75670Y-39698D01*
X75688Y-39660D01*
X75707Y-39641D01*
X75745Y-39623D01*
X75801Y-39623D01*
X75838Y-39641D01*
X75857Y-39660D01*
X75876Y-39698D01*
X75876Y-39848D01*
X75707Y-39473D02*
X75688Y-39454D01*
X75670Y-39416D01*
X75670Y-39323D01*
X75688Y-39285D01*
X75707Y-39266D01*
X75745Y-39248D01*
X75782Y-39248D01*
X75838Y-39266D01*
X76063Y-39491D01*
X76063Y-39248D01*
X75670Y-38892D02*
X75670Y-39079D01*
X75857Y-39098D01*
X75838Y-39079D01*
X75820Y-39041D01*
X75820Y-38948D01*
X75838Y-38910D01*
X75857Y-38892D01*
X75895Y-38873D01*
X75988Y-38873D01*
X76026Y-38892D01*
X76045Y-38910D01*
X76063Y-38948D01*
X76063Y-39041D01*
X76045Y-39079D01*
X76026Y-39098D01*
X77737Y-35292D02*
X77549Y-35423D01*
X77737Y-35517D02*
X77343Y-35517D01*
X77343Y-35367D01*
X77362Y-35329D01*
X77380Y-35311D01*
X77418Y-35292D01*
X77474Y-35292D01*
X77512Y-35311D01*
X77530Y-35329D01*
X77549Y-35367D01*
X77549Y-35517D01*
X77343Y-35161D02*
X77343Y-34917D01*
X77493Y-35048D01*
X77493Y-34992D01*
X77512Y-34955D01*
X77530Y-34936D01*
X77568Y-34917D01*
X77662Y-34917D01*
X77699Y-34936D01*
X77718Y-34955D01*
X77737Y-34992D01*
X77737Y-35104D01*
X77718Y-35142D01*
X77699Y-35161D01*
X77343Y-34673D02*
X77343Y-34636D01*
X77362Y-34598D01*
X77380Y-34580D01*
X77418Y-34561D01*
X77493Y-34542D01*
X77587Y-34542D01*
X77662Y-34561D01*
X77699Y-34580D01*
X77718Y-34598D01*
X77737Y-34636D01*
X77737Y-34673D01*
X77718Y-34711D01*
X77699Y-34730D01*
X77662Y-34748D01*
X77587Y-34767D01*
X77493Y-34767D01*
X77418Y-34748D01*
X77380Y-34730D01*
X77362Y-34711D01*
X77343Y-34673D01*
X75731Y-25656D02*
X75749Y-25674D01*
X75768Y-25731D01*
X75768Y-25768D01*
X75749Y-25824D01*
X75712Y-25862D01*
X75674Y-25881D01*
X75599Y-25899D01*
X75543Y-25899D01*
X75468Y-25881D01*
X75431Y-25862D01*
X75393Y-25824D01*
X75374Y-25768D01*
X75374Y-25731D01*
X75393Y-25674D01*
X75412Y-25656D01*
X75768Y-25468D02*
X75768Y-25393D01*
X75749Y-25356D01*
X75731Y-25337D01*
X75674Y-25299D01*
X75599Y-25281D01*
X75449Y-25281D01*
X75412Y-25299D01*
X75393Y-25318D01*
X75374Y-25356D01*
X75374Y-25431D01*
X75393Y-25468D01*
X75412Y-25487D01*
X75449Y-25506D01*
X75543Y-25506D01*
X75581Y-25487D01*
X75599Y-25468D01*
X75618Y-25431D01*
X75618Y-25356D01*
X75599Y-25318D01*
X75581Y-25299D01*
X75543Y-25281D01*
X75759Y-29251D02*
X75721Y-29232D01*
X75684Y-29194D01*
X75628Y-29138D01*
X75590Y-29119D01*
X75553Y-29119D01*
X75571Y-29213D02*
X75534Y-29194D01*
X75496Y-29157D01*
X75478Y-29082D01*
X75478Y-28951D01*
X75496Y-28876D01*
X75534Y-28838D01*
X75571Y-28819D01*
X75646Y-28819D01*
X75684Y-28838D01*
X75721Y-28876D01*
X75740Y-28951D01*
X75740Y-29082D01*
X75721Y-29157D01*
X75684Y-29194D01*
X75646Y-29213D01*
X75571Y-29213D01*
X75890Y-28857D02*
X75909Y-28838D01*
X75946Y-28819D01*
X76040Y-28819D01*
X76077Y-28838D01*
X76096Y-28857D01*
X76115Y-28894D01*
X76115Y-28932D01*
X76096Y-28988D01*
X75871Y-29213D01*
X76115Y-29213D01*
X76265Y-28857D02*
X76284Y-28838D01*
X76321Y-28819D01*
X76415Y-28819D01*
X76452Y-28838D01*
X76471Y-28857D01*
X76490Y-28894D01*
X76490Y-28932D01*
X76471Y-28988D01*
X76246Y-29213D01*
X76490Y-29213D01*
X78810Y-29251D02*
X78772Y-29232D01*
X78735Y-29194D01*
X78679Y-29138D01*
X78641Y-29119D01*
X78604Y-29119D01*
X78622Y-29213D02*
X78585Y-29194D01*
X78547Y-29157D01*
X78529Y-29082D01*
X78529Y-28951D01*
X78547Y-28876D01*
X78585Y-28838D01*
X78622Y-28819D01*
X78697Y-28819D01*
X78735Y-28838D01*
X78772Y-28876D01*
X78791Y-28951D01*
X78791Y-29082D01*
X78772Y-29157D01*
X78735Y-29194D01*
X78697Y-29213D01*
X78622Y-29213D01*
X78941Y-28857D02*
X78960Y-28838D01*
X78997Y-28819D01*
X79091Y-28819D01*
X79129Y-28838D01*
X79147Y-28857D01*
X79166Y-28894D01*
X79166Y-28932D01*
X79147Y-28988D01*
X78922Y-29213D01*
X79166Y-29213D01*
X79541Y-29213D02*
X79316Y-29213D01*
X79429Y-29213D02*
X79429Y-28819D01*
X79391Y-28876D01*
X79354Y-28913D01*
X79316Y-28932D01*
X78130Y-31158D02*
X77943Y-31289D01*
X78130Y-31383D02*
X77737Y-31383D01*
X77737Y-31233D01*
X77755Y-31196D01*
X77774Y-31177D01*
X77812Y-31158D01*
X77868Y-31158D01*
X77905Y-31177D01*
X77924Y-31196D01*
X77943Y-31233D01*
X77943Y-31383D01*
X77868Y-30821D02*
X78130Y-30821D01*
X77718Y-30914D02*
X77999Y-31008D01*
X77999Y-30764D01*
X77774Y-30633D02*
X77755Y-30614D01*
X77737Y-30577D01*
X77737Y-30483D01*
X77755Y-30446D01*
X77774Y-30427D01*
X77812Y-30408D01*
X77849Y-30408D01*
X77905Y-30427D01*
X78130Y-30652D01*
X78130Y-30408D01*
X77146Y-31158D02*
X76959Y-31289D01*
X77146Y-31383D02*
X76752Y-31383D01*
X76752Y-31233D01*
X76771Y-31196D01*
X76790Y-31177D01*
X76827Y-31158D01*
X76884Y-31158D01*
X76921Y-31177D01*
X76940Y-31196D01*
X76959Y-31233D01*
X76959Y-31383D01*
X76884Y-30821D02*
X77146Y-30821D01*
X76734Y-30914D02*
X77015Y-31008D01*
X77015Y-30764D01*
X77146Y-30408D02*
X77146Y-30633D01*
X77146Y-30521D02*
X76752Y-30521D01*
X76809Y-30558D01*
X76846Y-30596D01*
X76865Y-30633D01*
X75768Y-27024D02*
X75581Y-27155D01*
X75768Y-27249D02*
X75374Y-27249D01*
X75374Y-27099D01*
X75393Y-27062D01*
X75412Y-27043D01*
X75449Y-27024D01*
X75506Y-27024D01*
X75543Y-27043D01*
X75562Y-27062D01*
X75581Y-27099D01*
X75581Y-27249D01*
X75506Y-26687D02*
X75768Y-26687D01*
X75356Y-26781D02*
X75637Y-26874D01*
X75637Y-26631D01*
X75506Y-26312D02*
X75768Y-26312D01*
X75356Y-26406D02*
X75637Y-26499D01*
X75637Y-26256D01*
X59214Y-40335D02*
X59083Y-40148D01*
X58989Y-40335D02*
X58989Y-39941D01*
X59139Y-39941D01*
X59176Y-39960D01*
X59195Y-39979D01*
X59214Y-40016D01*
X59214Y-40073D01*
X59195Y-40110D01*
X59176Y-40129D01*
X59139Y-40148D01*
X58989Y-40148D01*
X59326Y-39941D02*
X59458Y-40335D01*
X59589Y-39941D01*
X59701Y-39979D02*
X59720Y-39960D01*
X59758Y-39941D01*
X59851Y-39941D01*
X59889Y-39960D01*
X59908Y-39979D01*
X59926Y-40016D01*
X59926Y-40054D01*
X59908Y-40110D01*
X59683Y-40335D01*
X59926Y-40335D01*
X85808Y-36848D02*
X85620Y-36979D01*
X85808Y-37073D02*
X85414Y-37073D01*
X85414Y-36923D01*
X85433Y-36886D01*
X85451Y-36867D01*
X85489Y-36848D01*
X85545Y-36848D01*
X85583Y-36867D01*
X85601Y-36886D01*
X85620Y-36923D01*
X85620Y-37073D01*
X85414Y-36736D02*
X85808Y-36604D01*
X85414Y-36473D01*
X85414Y-36154D02*
X85414Y-36342D01*
X85601Y-36361D01*
X85583Y-36342D01*
X85564Y-36304D01*
X85564Y-36211D01*
X85583Y-36173D01*
X85601Y-36154D01*
X85639Y-36136D01*
X85733Y-36136D01*
X85770Y-36154D01*
X85789Y-36173D01*
X85808Y-36211D01*
X85808Y-36304D01*
X85789Y-36342D01*
X85770Y-36361D01*
X85808Y-39998D02*
X85620Y-40129D01*
X85808Y-40223D02*
X85414Y-40223D01*
X85414Y-40073D01*
X85433Y-40035D01*
X85451Y-40016D01*
X85489Y-39998D01*
X85545Y-39998D01*
X85583Y-40016D01*
X85601Y-40035D01*
X85620Y-40073D01*
X85620Y-40223D01*
X85414Y-39885D02*
X85808Y-39754D01*
X85414Y-39623D01*
X85414Y-39323D02*
X85414Y-39398D01*
X85433Y-39435D01*
X85451Y-39454D01*
X85508Y-39491D01*
X85583Y-39510D01*
X85733Y-39510D01*
X85770Y-39491D01*
X85789Y-39473D01*
X85808Y-39435D01*
X85808Y-39360D01*
X85789Y-39323D01*
X85770Y-39304D01*
X85733Y-39285D01*
X85639Y-39285D01*
X85601Y-39304D01*
X85583Y-39323D01*
X85564Y-39360D01*
X85564Y-39435D01*
X85583Y-39473D01*
X85601Y-39491D01*
X85639Y-39510D01*
X72994Y-38563D02*
X72862Y-38376D01*
X72769Y-38563D02*
X72769Y-38170D01*
X72919Y-38170D01*
X72956Y-38188D01*
X72975Y-38207D01*
X72994Y-38245D01*
X72994Y-38301D01*
X72975Y-38338D01*
X72956Y-38357D01*
X72919Y-38376D01*
X72769Y-38376D01*
X73106Y-38170D02*
X73237Y-38563D01*
X73368Y-38170D01*
X73668Y-38301D02*
X73668Y-38563D01*
X73575Y-38151D02*
X73481Y-38432D01*
X73725Y-38432D01*
X65101Y-49071D02*
X65119Y-49090D01*
X65138Y-49146D01*
X65138Y-49184D01*
X65119Y-49240D01*
X65082Y-49278D01*
X65044Y-49296D01*
X64970Y-49315D01*
X64913Y-49315D01*
X64838Y-49296D01*
X64801Y-49278D01*
X64763Y-49240D01*
X64745Y-49184D01*
X64745Y-49146D01*
X64763Y-49090D01*
X64782Y-49071D01*
X65138Y-48697D02*
X65138Y-48922D01*
X65138Y-48809D02*
X64745Y-48809D01*
X64801Y-48847D01*
X64838Y-48884D01*
X64857Y-48922D01*
X64745Y-48453D02*
X64745Y-48415D01*
X64763Y-48378D01*
X64782Y-48359D01*
X64820Y-48340D01*
X64895Y-48322D01*
X64988Y-48322D01*
X65063Y-48340D01*
X65101Y-48359D01*
X65119Y-48378D01*
X65138Y-48415D01*
X65138Y-48453D01*
X65119Y-48490D01*
X65101Y-48509D01*
X65063Y-48528D01*
X64988Y-48547D01*
X64895Y-48547D01*
X64820Y-48528D01*
X64782Y-48509D01*
X64763Y-48490D01*
X64745Y-48453D01*
X65926Y-49071D02*
X65738Y-49203D01*
X65926Y-49296D02*
X65532Y-49296D01*
X65532Y-49146D01*
X65551Y-49109D01*
X65569Y-49090D01*
X65607Y-49071D01*
X65663Y-49071D01*
X65701Y-49090D01*
X65719Y-49109D01*
X65738Y-49146D01*
X65738Y-49296D01*
X65663Y-48734D02*
X65926Y-48734D01*
X65513Y-48828D02*
X65794Y-48922D01*
X65794Y-48678D01*
X65532Y-48340D02*
X65532Y-48528D01*
X65719Y-48547D01*
X65701Y-48528D01*
X65682Y-48490D01*
X65682Y-48397D01*
X65701Y-48359D01*
X65719Y-48340D01*
X65757Y-48322D01*
X65851Y-48322D01*
X65888Y-48340D01*
X65907Y-48359D01*
X65926Y-48397D01*
X65926Y-48490D01*
X65907Y-48528D01*
X65888Y-48547D01*
X52662Y-29311D02*
X52662Y-28918D01*
X52755Y-28918D01*
X52812Y-28937D01*
X52849Y-28974D01*
X52868Y-29011D01*
X52887Y-29086D01*
X52887Y-29143D01*
X52868Y-29218D01*
X52849Y-29255D01*
X52812Y-29293D01*
X52755Y-29311D01*
X52662Y-29311D01*
X53262Y-29311D02*
X53037Y-29311D01*
X53149Y-29311D02*
X53149Y-28918D01*
X53112Y-28974D01*
X53074Y-29011D01*
X53037Y-29030D01*
X55811Y-29311D02*
X55811Y-28918D01*
X55905Y-28918D01*
X55961Y-28937D01*
X55999Y-28974D01*
X56017Y-29011D01*
X56036Y-29086D01*
X56036Y-29143D01*
X56017Y-29218D01*
X55999Y-29255D01*
X55961Y-29293D01*
X55905Y-29311D01*
X55811Y-29311D01*
X56186Y-28955D02*
X56205Y-28937D01*
X56242Y-28918D01*
X56336Y-28918D01*
X56374Y-28937D01*
X56392Y-28955D01*
X56411Y-28993D01*
X56411Y-29030D01*
X56392Y-29086D01*
X56167Y-29311D01*
X56411Y-29311D01*
X55811Y-32067D02*
X55811Y-31674D01*
X55905Y-31674D01*
X55961Y-31692D01*
X55999Y-31730D01*
X56017Y-31767D01*
X56036Y-31842D01*
X56036Y-31899D01*
X56017Y-31974D01*
X55999Y-32011D01*
X55961Y-32049D01*
X55905Y-32067D01*
X55811Y-32067D01*
X56374Y-31805D02*
X56374Y-32067D01*
X56280Y-31655D02*
X56186Y-31936D01*
X56430Y-31936D01*
X52662Y-32067D02*
X52662Y-31674D01*
X52755Y-31674D01*
X52812Y-31692D01*
X52849Y-31730D01*
X52868Y-31767D01*
X52887Y-31842D01*
X52887Y-31899D01*
X52868Y-31974D01*
X52849Y-32011D01*
X52812Y-32049D01*
X52755Y-32067D01*
X52662Y-32067D01*
X53018Y-31674D02*
X53262Y-31674D01*
X53130Y-31824D01*
X53187Y-31824D01*
X53224Y-31842D01*
X53243Y-31861D01*
X53262Y-31899D01*
X53262Y-31992D01*
X53243Y-32030D01*
X53224Y-32049D01*
X53187Y-32067D01*
X53074Y-32067D01*
X53037Y-32049D01*
X53018Y-32030D01*
X53083Y-45809D02*
X53065Y-45828D01*
X53008Y-45847D01*
X52971Y-45847D01*
X52915Y-45828D01*
X52877Y-45791D01*
X52859Y-45753D01*
X52840Y-45678D01*
X52840Y-45622D01*
X52859Y-45547D01*
X52877Y-45509D01*
X52915Y-45472D01*
X52971Y-45453D01*
X53008Y-45453D01*
X53065Y-45472D01*
X53083Y-45491D01*
X53215Y-45453D02*
X53458Y-45453D01*
X53327Y-45603D01*
X53383Y-45603D01*
X53421Y-45622D01*
X53440Y-45641D01*
X53458Y-45678D01*
X53458Y-45772D01*
X53440Y-45809D01*
X53421Y-45828D01*
X53383Y-45847D01*
X53271Y-45847D01*
X53233Y-45828D01*
X53215Y-45809D01*
G54D17*
X54658Y-43054D02*
X54639Y-43072D01*
X54583Y-43091D01*
X54546Y-43091D01*
X54489Y-43072D01*
X54452Y-43035D01*
X54433Y-42997D01*
X54414Y-42922D01*
X54414Y-42866D01*
X54433Y-42791D01*
X54452Y-42753D01*
X54489Y-42716D01*
X54546Y-42697D01*
X54583Y-42697D01*
X54639Y-42716D01*
X54658Y-42735D01*
X54996Y-42697D02*
X54921Y-42697D01*
X54883Y-42716D01*
X54865Y-42735D01*
X54827Y-42791D01*
X54808Y-42866D01*
X54808Y-43016D01*
X54827Y-43054D01*
X54846Y-43072D01*
X54883Y-43091D01*
X54958Y-43091D01*
X54996Y-43072D01*
X55015Y-43054D01*
X55033Y-43016D01*
X55033Y-42922D01*
X55015Y-42885D01*
X54996Y-42866D01*
X54958Y-42847D01*
X54883Y-42847D01*
X54846Y-42866D01*
X54827Y-42885D01*
X54808Y-42922D01*
G54D12*
X51537Y-37617D02*
X51499Y-37598D01*
X51462Y-37560D01*
X51406Y-37504D01*
X51368Y-37485D01*
X51331Y-37485D01*
X51349Y-37579D02*
X51312Y-37560D01*
X51274Y-37523D01*
X51256Y-37448D01*
X51256Y-37317D01*
X51274Y-37242D01*
X51312Y-37204D01*
X51349Y-37185D01*
X51424Y-37185D01*
X51462Y-37204D01*
X51499Y-37242D01*
X51518Y-37317D01*
X51518Y-37448D01*
X51499Y-37523D01*
X51462Y-37560D01*
X51424Y-37579D01*
X51349Y-37579D01*
X51874Y-37185D02*
X51687Y-37185D01*
X51668Y-37373D01*
X51687Y-37354D01*
X51724Y-37335D01*
X51818Y-37335D01*
X51856Y-37354D01*
X51874Y-37373D01*
X51893Y-37410D01*
X51893Y-37504D01*
X51874Y-37542D01*
X51856Y-37560D01*
X51818Y-37579D01*
X51724Y-37579D01*
X51687Y-37560D01*
X51668Y-37542D01*
X53112Y-37617D02*
X53074Y-37598D01*
X53037Y-37560D01*
X52980Y-37504D01*
X52943Y-37485D01*
X52905Y-37485D01*
X52924Y-37579D02*
X52887Y-37560D01*
X52849Y-37523D01*
X52830Y-37448D01*
X52830Y-37317D01*
X52849Y-37242D01*
X52887Y-37204D01*
X52924Y-37185D01*
X52999Y-37185D01*
X53037Y-37204D01*
X53074Y-37242D01*
X53093Y-37317D01*
X53093Y-37448D01*
X53074Y-37523D01*
X53037Y-37560D01*
X52999Y-37579D01*
X52924Y-37579D01*
X53430Y-37185D02*
X53355Y-37185D01*
X53318Y-37204D01*
X53299Y-37223D01*
X53262Y-37279D01*
X53243Y-37354D01*
X53243Y-37504D01*
X53262Y-37542D01*
X53280Y-37560D01*
X53318Y-37579D01*
X53393Y-37579D01*
X53430Y-37560D01*
X53449Y-37542D01*
X53468Y-37504D01*
X53468Y-37410D01*
X53449Y-37373D01*
X53430Y-37354D01*
X53393Y-37335D01*
X53318Y-37335D01*
X53280Y-37354D01*
X53262Y-37373D01*
X53243Y-37410D01*
X53365Y-48462D02*
X53346Y-48500D01*
X53308Y-48537D01*
X53252Y-48593D01*
X53233Y-48631D01*
X53233Y-48668D01*
X53327Y-48650D02*
X53308Y-48687D01*
X53271Y-48725D01*
X53196Y-48743D01*
X53065Y-48743D01*
X52990Y-48725D01*
X52952Y-48687D01*
X52934Y-48650D01*
X52934Y-48575D01*
X52952Y-48537D01*
X52990Y-48500D01*
X53065Y-48481D01*
X53196Y-48481D01*
X53271Y-48500D01*
X53308Y-48537D01*
X53327Y-48575D01*
X53327Y-48650D01*
X52971Y-48331D02*
X52952Y-48312D01*
X52934Y-48275D01*
X52934Y-48181D01*
X52952Y-48143D01*
X52971Y-48125D01*
X53008Y-48106D01*
X53046Y-48106D01*
X53102Y-48125D01*
X53327Y-48350D01*
X53327Y-48106D01*
X49821Y-46887D02*
X49803Y-46925D01*
X49765Y-46962D01*
X49709Y-47019D01*
X49690Y-47056D01*
X49690Y-47094D01*
X49784Y-47075D02*
X49765Y-47112D01*
X49728Y-47150D01*
X49653Y-47169D01*
X49521Y-47169D01*
X49446Y-47150D01*
X49409Y-47112D01*
X49390Y-47075D01*
X49390Y-47000D01*
X49409Y-46962D01*
X49446Y-46925D01*
X49521Y-46906D01*
X49653Y-46906D01*
X49728Y-46925D01*
X49765Y-46962D01*
X49784Y-47000D01*
X49784Y-47075D01*
X49784Y-46531D02*
X49784Y-46756D01*
X49784Y-46644D02*
X49390Y-46644D01*
X49446Y-46681D01*
X49484Y-46719D01*
X49503Y-46756D01*
X49821Y-45313D02*
X49803Y-45350D01*
X49765Y-45388D01*
X49709Y-45444D01*
X49690Y-45481D01*
X49690Y-45519D01*
X49784Y-45500D02*
X49765Y-45538D01*
X49728Y-45575D01*
X49653Y-45594D01*
X49521Y-45594D01*
X49446Y-45575D01*
X49409Y-45538D01*
X49390Y-45500D01*
X49390Y-45425D01*
X49409Y-45388D01*
X49446Y-45350D01*
X49521Y-45331D01*
X49653Y-45331D01*
X49728Y-45350D01*
X49765Y-45388D01*
X49784Y-45425D01*
X49784Y-45500D01*
X49521Y-44994D02*
X49784Y-44994D01*
X49371Y-45088D02*
X49653Y-45181D01*
X49653Y-44938D01*
X50571Y-40223D02*
X50384Y-40354D01*
X50571Y-40448D02*
X50178Y-40448D01*
X50178Y-40298D01*
X50196Y-40260D01*
X50215Y-40241D01*
X50253Y-40223D01*
X50309Y-40223D01*
X50346Y-40241D01*
X50365Y-40260D01*
X50384Y-40298D01*
X50384Y-40448D01*
X50178Y-40091D02*
X50178Y-39829D01*
X50571Y-39998D01*
X53083Y-46634D02*
X52952Y-46447D01*
X52859Y-46634D02*
X52859Y-46241D01*
X53008Y-46241D01*
X53046Y-46259D01*
X53065Y-46278D01*
X53083Y-46316D01*
X53083Y-46372D01*
X53065Y-46409D01*
X53046Y-46428D01*
X53008Y-46447D01*
X52859Y-46447D01*
X53458Y-46634D02*
X53233Y-46634D01*
X53346Y-46634D02*
X53346Y-46241D01*
X53308Y-46297D01*
X53271Y-46334D01*
X53233Y-46353D01*
X56871Y-48490D02*
X56683Y-48622D01*
X56871Y-48715D02*
X56477Y-48715D01*
X56477Y-48565D01*
X56496Y-48528D01*
X56514Y-48509D01*
X56552Y-48490D01*
X56608Y-48490D01*
X56646Y-48509D01*
X56664Y-48528D01*
X56683Y-48565D01*
X56683Y-48715D01*
X56477Y-48359D02*
X56477Y-48115D01*
X56627Y-48247D01*
X56627Y-48190D01*
X56646Y-48153D01*
X56664Y-48134D01*
X56702Y-48115D01*
X56796Y-48115D01*
X56833Y-48134D01*
X56852Y-48153D01*
X56871Y-48190D01*
X56871Y-48303D01*
X56852Y-48340D01*
X56833Y-48359D01*
X53083Y-47422D02*
X52952Y-47234D01*
X52859Y-47422D02*
X52859Y-47028D01*
X53008Y-47028D01*
X53046Y-47047D01*
X53065Y-47065D01*
X53083Y-47103D01*
X53083Y-47159D01*
X53065Y-47197D01*
X53046Y-47215D01*
X53008Y-47234D01*
X52859Y-47234D01*
X53233Y-47065D02*
X53252Y-47047D01*
X53290Y-47028D01*
X53383Y-47028D01*
X53421Y-47047D01*
X53440Y-47065D01*
X53458Y-47103D01*
X53458Y-47140D01*
X53440Y-47197D01*
X53215Y-47422D01*
X53458Y-47422D01*
X52146Y-44160D02*
X51959Y-44291D01*
X52146Y-44385D02*
X51752Y-44385D01*
X51752Y-44235D01*
X51771Y-44197D01*
X51790Y-44178D01*
X51827Y-44160D01*
X51884Y-44160D01*
X51921Y-44178D01*
X51940Y-44197D01*
X51959Y-44235D01*
X51959Y-44385D01*
X51752Y-43803D02*
X51752Y-43991D01*
X51940Y-44010D01*
X51921Y-43991D01*
X51902Y-43953D01*
X51902Y-43860D01*
X51921Y-43822D01*
X51940Y-43803D01*
X51977Y-43785D01*
X52071Y-43785D01*
X52109Y-43803D01*
X52127Y-43822D01*
X52146Y-43860D01*
X52146Y-43953D01*
X52127Y-43991D01*
X52109Y-44010D01*
X51359Y-44160D02*
X51171Y-44291D01*
X51359Y-44385D02*
X50965Y-44385D01*
X50965Y-44235D01*
X50984Y-44197D01*
X51002Y-44178D01*
X51040Y-44160D01*
X51096Y-44160D01*
X51134Y-44178D01*
X51152Y-44197D01*
X51171Y-44235D01*
X51171Y-44385D01*
X50965Y-43822D02*
X50965Y-43897D01*
X50984Y-43935D01*
X51002Y-43953D01*
X51059Y-43991D01*
X51134Y-44010D01*
X51284Y-44010D01*
X51321Y-43991D01*
X51340Y-43972D01*
X51359Y-43935D01*
X51359Y-43860D01*
X51340Y-43822D01*
X51321Y-43803D01*
X51284Y-43785D01*
X51190Y-43785D01*
X51152Y-43803D01*
X51134Y-43822D01*
X51115Y-43860D01*
X51115Y-43935D01*
X51134Y-43972D01*
X51152Y-43991D01*
X51190Y-44010D01*
X53083Y-45059D02*
X52952Y-44872D01*
X52859Y-45059D02*
X52859Y-44666D01*
X53008Y-44666D01*
X53046Y-44685D01*
X53065Y-44703D01*
X53083Y-44741D01*
X53083Y-44797D01*
X53065Y-44835D01*
X53046Y-44853D01*
X53008Y-44872D01*
X52859Y-44872D01*
X53421Y-44797D02*
X53421Y-45059D01*
X53327Y-44647D02*
X53233Y-44928D01*
X53477Y-44928D01*
X50534Y-44160D02*
X50553Y-44178D01*
X50571Y-44235D01*
X50571Y-44272D01*
X50553Y-44328D01*
X50515Y-44366D01*
X50478Y-44385D01*
X50403Y-44403D01*
X50346Y-44403D01*
X50271Y-44385D01*
X50234Y-44366D01*
X50196Y-44328D01*
X50178Y-44272D01*
X50178Y-44235D01*
X50196Y-44178D01*
X50215Y-44160D01*
X50309Y-43822D02*
X50571Y-43822D01*
X50159Y-43916D02*
X50440Y-44010D01*
X50440Y-43766D01*
G54D17*
X65879Y-29176D02*
X65860Y-29194D01*
X65804Y-29213D01*
X65766Y-29213D01*
X65710Y-29194D01*
X65672Y-29157D01*
X65654Y-29119D01*
X65635Y-29044D01*
X65635Y-28988D01*
X65654Y-28913D01*
X65672Y-28875D01*
X65710Y-28838D01*
X65766Y-28819D01*
X65804Y-28819D01*
X65860Y-28838D01*
X65879Y-28857D01*
X66029Y-28857D02*
X66048Y-28838D01*
X66085Y-28819D01*
X66179Y-28819D01*
X66216Y-28838D01*
X66235Y-28857D01*
X66254Y-28894D01*
X66254Y-28932D01*
X66235Y-28988D01*
X66010Y-29213D01*
X66254Y-29213D01*
G54D10*
G36*
X75934Y-47981D02*
X74459Y-47981D01*
X74459Y-46703D01*
X75934Y-46703D01*
X75934Y-47981D01*
X75934Y-47981D01*
G37*
G54D18*
X75934Y-47981D02*
X74459Y-47981D01*
X74459Y-46703D01*
X75934Y-46703D01*
X75934Y-47981D01*
M02*
