%FSLAX34Y34*%
G04 Gerber Fmt 3.4, Leading zero omitted, Abs format*
G04 (created by PCBNEW (2013-12-31 BZR 4598)-product) date Thu 09 Jan 2014 11:56:03 AM EST*
%MOIN*%
G01*
G70*
G90*
G04 APERTURE LIST*
%ADD10C,0.005906*%
%ADD11C,0.011811*%
%ADD12C,0.009843*%
%ADD13C,0.007874*%
%ADD14C,0.013780*%
%ADD15C,0.015000*%
%ADD16C,0.008000*%
G04 APERTURE END LIST*
G54D10*
G54D11*
X48818Y-42125D02*
X49606Y-42913D01*
X45669Y-42125D02*
X48818Y-42125D01*
X44881Y-42913D02*
X45669Y-42125D01*
G54D12*
X64548Y-33642D02*
X64773Y-33642D01*
X64660Y-34036D02*
X64660Y-33642D01*
X65185Y-34017D02*
X65241Y-34036D01*
X65335Y-34036D01*
X65373Y-34017D01*
X65391Y-33998D01*
X65410Y-33961D01*
X65410Y-33923D01*
X65391Y-33886D01*
X65373Y-33867D01*
X65335Y-33848D01*
X65260Y-33830D01*
X65223Y-33811D01*
X65204Y-33792D01*
X65185Y-33755D01*
X65185Y-33717D01*
X65204Y-33680D01*
X65223Y-33661D01*
X65260Y-33642D01*
X65354Y-33642D01*
X65410Y-33661D01*
X65579Y-33830D02*
X65710Y-33830D01*
X65766Y-34036D02*
X65579Y-34036D01*
X65579Y-33642D01*
X65766Y-33642D01*
X65935Y-34036D02*
X65935Y-33642D01*
X66160Y-34036D01*
X66160Y-33642D01*
X66329Y-34017D02*
X66385Y-34036D01*
X66479Y-34036D01*
X66516Y-34017D01*
X66535Y-33998D01*
X66554Y-33961D01*
X66554Y-33923D01*
X66535Y-33886D01*
X66516Y-33867D01*
X66479Y-33848D01*
X66404Y-33830D01*
X66366Y-33811D01*
X66347Y-33792D01*
X66329Y-33755D01*
X66329Y-33717D01*
X66347Y-33680D01*
X66366Y-33661D01*
X66404Y-33642D01*
X66497Y-33642D01*
X66554Y-33661D01*
X66722Y-33830D02*
X66854Y-33830D01*
X66910Y-34036D02*
X66722Y-34036D01*
X66722Y-33642D01*
X66910Y-33642D01*
X44460Y-22975D02*
X44441Y-22994D01*
X44385Y-23012D01*
X44347Y-23012D01*
X44291Y-22994D01*
X44253Y-22956D01*
X44235Y-22919D01*
X44216Y-22844D01*
X44216Y-22787D01*
X44235Y-22712D01*
X44253Y-22675D01*
X44291Y-22637D01*
X44347Y-22619D01*
X44385Y-22619D01*
X44441Y-22637D01*
X44460Y-22656D01*
X44628Y-22619D02*
X44628Y-22937D01*
X44647Y-22975D01*
X44666Y-22994D01*
X44703Y-23012D01*
X44778Y-23012D01*
X44816Y-22994D01*
X44835Y-22975D01*
X44853Y-22937D01*
X44853Y-22619D01*
X45266Y-23012D02*
X45134Y-22825D01*
X45041Y-23012D02*
X45041Y-22619D01*
X45191Y-22619D01*
X45228Y-22637D01*
X45247Y-22656D01*
X45266Y-22694D01*
X45266Y-22750D01*
X45247Y-22787D01*
X45228Y-22806D01*
X45191Y-22825D01*
X45041Y-22825D01*
X45659Y-23012D02*
X45528Y-22825D01*
X45434Y-23012D02*
X45434Y-22619D01*
X45584Y-22619D01*
X45622Y-22637D01*
X45641Y-22656D01*
X45659Y-22694D01*
X45659Y-22750D01*
X45641Y-22787D01*
X45622Y-22806D01*
X45584Y-22825D01*
X45434Y-22825D01*
X45828Y-22806D02*
X45959Y-22806D01*
X46016Y-23012D02*
X45828Y-23012D01*
X45828Y-22619D01*
X46016Y-22619D01*
X46184Y-23012D02*
X46184Y-22619D01*
X46409Y-23012D01*
X46409Y-22619D01*
X46541Y-22619D02*
X46766Y-22619D01*
X46653Y-23012D02*
X46653Y-22619D01*
X47422Y-23012D02*
X47290Y-22825D01*
X47197Y-23012D02*
X47197Y-22619D01*
X47347Y-22619D01*
X47384Y-22637D01*
X47403Y-22656D01*
X47422Y-22694D01*
X47422Y-22750D01*
X47403Y-22787D01*
X47384Y-22806D01*
X47347Y-22825D01*
X47197Y-22825D01*
X47590Y-22806D02*
X47722Y-22806D01*
X47778Y-23012D02*
X47590Y-23012D01*
X47590Y-22619D01*
X47778Y-22619D01*
X48078Y-22806D02*
X47947Y-22806D01*
X47947Y-23012D02*
X47947Y-22619D01*
X48134Y-22619D01*
X48284Y-22806D02*
X48415Y-22806D01*
X48472Y-23012D02*
X48284Y-23012D01*
X48284Y-22619D01*
X48472Y-22619D01*
X48865Y-23012D02*
X48734Y-22825D01*
X48640Y-23012D02*
X48640Y-22619D01*
X48790Y-22619D01*
X48828Y-22637D01*
X48847Y-22656D01*
X48865Y-22694D01*
X48865Y-22750D01*
X48847Y-22787D01*
X48828Y-22806D01*
X48790Y-22825D01*
X48640Y-22825D01*
X49034Y-22806D02*
X49165Y-22806D01*
X49221Y-23012D02*
X49034Y-23012D01*
X49034Y-22619D01*
X49221Y-22619D01*
X49390Y-23012D02*
X49390Y-22619D01*
X49615Y-23012D01*
X49615Y-22619D01*
X50028Y-22975D02*
X50009Y-22994D01*
X49953Y-23012D01*
X49915Y-23012D01*
X49859Y-22994D01*
X49821Y-22956D01*
X49803Y-22919D01*
X49784Y-22844D01*
X49784Y-22787D01*
X49803Y-22712D01*
X49821Y-22675D01*
X49859Y-22637D01*
X49915Y-22619D01*
X49953Y-22619D01*
X50009Y-22637D01*
X50028Y-22656D01*
X50196Y-22806D02*
X50328Y-22806D01*
X50384Y-23012D02*
X50196Y-23012D01*
X50196Y-22619D01*
X50384Y-22619D01*
X50834Y-22900D02*
X51021Y-22900D01*
X50796Y-23012D02*
X50928Y-22619D01*
X51059Y-23012D01*
X51190Y-23012D02*
X51190Y-22619D01*
X51415Y-23012D01*
X51415Y-22619D01*
X51602Y-23012D02*
X51602Y-22619D01*
X51696Y-22619D01*
X51752Y-22637D01*
X51790Y-22675D01*
X51809Y-22712D01*
X51827Y-22787D01*
X51827Y-22844D01*
X51809Y-22919D01*
X51790Y-22956D01*
X51752Y-22994D01*
X51696Y-23012D01*
X51602Y-23012D01*
X52427Y-22806D02*
X52484Y-22825D01*
X52502Y-22844D01*
X52521Y-22881D01*
X52521Y-22937D01*
X52502Y-22975D01*
X52484Y-22994D01*
X52446Y-23012D01*
X52296Y-23012D01*
X52296Y-22619D01*
X52427Y-22619D01*
X52465Y-22637D01*
X52484Y-22656D01*
X52502Y-22694D01*
X52502Y-22731D01*
X52484Y-22769D01*
X52465Y-22787D01*
X52427Y-22806D01*
X52296Y-22806D01*
X52690Y-23012D02*
X52690Y-22619D01*
X52859Y-22900D02*
X53046Y-22900D01*
X52821Y-23012D02*
X52952Y-22619D01*
X53083Y-23012D01*
X53196Y-22994D02*
X53252Y-23012D01*
X53346Y-23012D01*
X53383Y-22994D01*
X53402Y-22975D01*
X53421Y-22937D01*
X53421Y-22900D01*
X53402Y-22862D01*
X53383Y-22844D01*
X53346Y-22825D01*
X53271Y-22806D01*
X53233Y-22787D01*
X53215Y-22769D01*
X53196Y-22731D01*
X53196Y-22694D01*
X53215Y-22656D01*
X53233Y-22637D01*
X53271Y-22619D01*
X53365Y-22619D01*
X53421Y-22637D01*
G54D11*
X59055Y-28740D02*
X61417Y-28740D01*
G54D12*
X58989Y-27412D02*
X59214Y-27412D01*
X59101Y-27806D02*
X59101Y-27412D01*
X59345Y-27806D02*
X59345Y-27412D01*
X59345Y-27599D02*
X59570Y-27599D01*
X59570Y-27806D02*
X59570Y-27412D01*
X59758Y-27599D02*
X59889Y-27599D01*
X59945Y-27806D02*
X59758Y-27806D01*
X59758Y-27412D01*
X59945Y-27412D01*
X60339Y-27806D02*
X60208Y-27618D01*
X60114Y-27806D02*
X60114Y-27412D01*
X60264Y-27412D01*
X60301Y-27431D01*
X60320Y-27449D01*
X60339Y-27487D01*
X60339Y-27543D01*
X60320Y-27581D01*
X60301Y-27599D01*
X60264Y-27618D01*
X60114Y-27618D01*
X60508Y-27806D02*
X60508Y-27412D01*
X60639Y-27693D01*
X60770Y-27412D01*
X60770Y-27806D01*
X60939Y-27693D02*
X61126Y-27693D01*
X60901Y-27806D02*
X61032Y-27412D01*
X61164Y-27806D01*
X61482Y-27806D02*
X61295Y-27806D01*
X61295Y-27412D01*
X59458Y-28418D02*
X59439Y-28436D01*
X59383Y-28455D01*
X59345Y-28455D01*
X59289Y-28436D01*
X59251Y-28399D01*
X59233Y-28361D01*
X59214Y-28286D01*
X59214Y-28230D01*
X59233Y-28155D01*
X59251Y-28118D01*
X59289Y-28080D01*
X59345Y-28061D01*
X59383Y-28061D01*
X59439Y-28080D01*
X59458Y-28099D01*
X59626Y-28061D02*
X59626Y-28380D01*
X59645Y-28418D01*
X59664Y-28436D01*
X59701Y-28455D01*
X59776Y-28455D01*
X59814Y-28436D01*
X59833Y-28418D01*
X59851Y-28380D01*
X59851Y-28061D01*
X59983Y-28061D02*
X60208Y-28061D01*
X60095Y-28455D02*
X60095Y-28061D01*
X60414Y-28061D02*
X60489Y-28061D01*
X60526Y-28080D01*
X60564Y-28118D01*
X60583Y-28193D01*
X60583Y-28324D01*
X60564Y-28399D01*
X60526Y-28436D01*
X60489Y-28455D01*
X60414Y-28455D01*
X60376Y-28436D01*
X60339Y-28399D01*
X60320Y-28324D01*
X60320Y-28193D01*
X60339Y-28118D01*
X60376Y-28080D01*
X60414Y-28061D01*
X60883Y-28249D02*
X60751Y-28249D01*
X60751Y-28455D02*
X60751Y-28061D01*
X60939Y-28061D01*
X61220Y-28249D02*
X61089Y-28249D01*
X61089Y-28455D02*
X61089Y-28061D01*
X61276Y-28061D01*
X54499Y-27768D02*
X54480Y-27787D01*
X54424Y-27806D01*
X54386Y-27806D01*
X54330Y-27787D01*
X54293Y-27749D01*
X54274Y-27712D01*
X54255Y-27637D01*
X54255Y-27581D01*
X54274Y-27506D01*
X54293Y-27468D01*
X54330Y-27431D01*
X54386Y-27412D01*
X54424Y-27412D01*
X54480Y-27431D01*
X54499Y-27449D01*
X54668Y-27412D02*
X54668Y-27731D01*
X54686Y-27768D01*
X54705Y-27787D01*
X54743Y-27806D01*
X54818Y-27806D01*
X54855Y-27787D01*
X54874Y-27768D01*
X54893Y-27731D01*
X54893Y-27412D01*
X55305Y-27806D02*
X55174Y-27618D01*
X55080Y-27806D02*
X55080Y-27412D01*
X55230Y-27412D01*
X55268Y-27431D01*
X55286Y-27449D01*
X55305Y-27487D01*
X55305Y-27543D01*
X55286Y-27581D01*
X55268Y-27599D01*
X55230Y-27618D01*
X55080Y-27618D01*
X55699Y-27806D02*
X55568Y-27618D01*
X55474Y-27806D02*
X55474Y-27412D01*
X55624Y-27412D01*
X55661Y-27431D01*
X55680Y-27449D01*
X55699Y-27487D01*
X55699Y-27543D01*
X55680Y-27581D01*
X55661Y-27599D01*
X55624Y-27618D01*
X55474Y-27618D01*
X55868Y-27599D02*
X55999Y-27599D01*
X56055Y-27806D02*
X55868Y-27806D01*
X55868Y-27412D01*
X56055Y-27412D01*
X56224Y-27806D02*
X56224Y-27412D01*
X56449Y-27806D01*
X56449Y-27412D01*
X56580Y-27412D02*
X56805Y-27412D01*
X56692Y-27806D02*
X56692Y-27412D01*
X53890Y-28249D02*
X54021Y-28249D01*
X54077Y-28455D02*
X53890Y-28455D01*
X53890Y-28061D01*
X54077Y-28061D01*
X54471Y-28455D02*
X54340Y-28268D01*
X54246Y-28455D02*
X54246Y-28061D01*
X54396Y-28061D01*
X54433Y-28080D01*
X54452Y-28099D01*
X54471Y-28136D01*
X54471Y-28193D01*
X54452Y-28230D01*
X54433Y-28249D01*
X54396Y-28268D01*
X54246Y-28268D01*
X54865Y-28455D02*
X54733Y-28268D01*
X54640Y-28455D02*
X54640Y-28061D01*
X54790Y-28061D01*
X54827Y-28080D01*
X54846Y-28099D01*
X54865Y-28136D01*
X54865Y-28193D01*
X54846Y-28230D01*
X54827Y-28249D01*
X54790Y-28268D01*
X54640Y-28268D01*
X55108Y-28061D02*
X55183Y-28061D01*
X55221Y-28080D01*
X55258Y-28118D01*
X55277Y-28193D01*
X55277Y-28324D01*
X55258Y-28399D01*
X55221Y-28436D01*
X55183Y-28455D01*
X55108Y-28455D01*
X55071Y-28436D01*
X55033Y-28399D01*
X55014Y-28324D01*
X55014Y-28193D01*
X55033Y-28118D01*
X55071Y-28080D01*
X55108Y-28061D01*
X55671Y-28455D02*
X55539Y-28268D01*
X55446Y-28455D02*
X55446Y-28061D01*
X55596Y-28061D01*
X55633Y-28080D01*
X55652Y-28099D01*
X55671Y-28136D01*
X55671Y-28193D01*
X55652Y-28230D01*
X55633Y-28249D01*
X55596Y-28268D01*
X55446Y-28268D01*
X56121Y-28343D02*
X56308Y-28343D01*
X56083Y-28455D02*
X56214Y-28061D01*
X56346Y-28455D01*
X56477Y-28455D02*
X56477Y-28061D01*
X56608Y-28343D01*
X56739Y-28061D01*
X56739Y-28455D01*
X56927Y-28455D02*
X56927Y-28061D01*
X57077Y-28061D01*
X57114Y-28080D01*
X57133Y-28099D01*
X57152Y-28136D01*
X57152Y-28193D01*
X57133Y-28230D01*
X57114Y-28249D01*
X57077Y-28268D01*
X56927Y-28268D01*
X41432Y-28524D02*
X41563Y-28918D01*
X41694Y-28524D01*
X41901Y-28524D02*
X41976Y-28524D01*
X42013Y-28543D01*
X42050Y-28580D01*
X42069Y-28655D01*
X42069Y-28787D01*
X42050Y-28862D01*
X42013Y-28899D01*
X41976Y-28918D01*
X41901Y-28918D01*
X41863Y-28899D01*
X41826Y-28862D01*
X41807Y-28787D01*
X41807Y-28655D01*
X41826Y-28580D01*
X41863Y-28543D01*
X41901Y-28524D01*
X42425Y-28918D02*
X42238Y-28918D01*
X42238Y-28524D01*
X42500Y-28524D02*
X42725Y-28524D01*
X42613Y-28918D02*
X42613Y-28524D01*
X42838Y-28805D02*
X43025Y-28805D01*
X42800Y-28918D02*
X42932Y-28524D01*
X43063Y-28918D01*
X43400Y-28543D02*
X43363Y-28524D01*
X43307Y-28524D01*
X43250Y-28543D01*
X43213Y-28580D01*
X43194Y-28618D01*
X43175Y-28693D01*
X43175Y-28749D01*
X43194Y-28824D01*
X43213Y-28862D01*
X43250Y-28899D01*
X43307Y-28918D01*
X43344Y-28918D01*
X43400Y-28899D01*
X43419Y-28880D01*
X43419Y-28749D01*
X43344Y-28749D01*
X43588Y-28712D02*
X43719Y-28712D01*
X43775Y-28918D02*
X43588Y-28918D01*
X43588Y-28524D01*
X43775Y-28524D01*
X44244Y-28712D02*
X44375Y-28712D01*
X44431Y-28918D02*
X44244Y-28918D01*
X44244Y-28524D01*
X44431Y-28524D01*
X44825Y-28918D02*
X44694Y-28730D01*
X44600Y-28918D02*
X44600Y-28524D01*
X44750Y-28524D01*
X44788Y-28543D01*
X44806Y-28562D01*
X44825Y-28599D01*
X44825Y-28655D01*
X44806Y-28693D01*
X44788Y-28712D01*
X44750Y-28730D01*
X44600Y-28730D01*
X45219Y-28918D02*
X45088Y-28730D01*
X44994Y-28918D02*
X44994Y-28524D01*
X45144Y-28524D01*
X45181Y-28543D01*
X45200Y-28562D01*
X45219Y-28599D01*
X45219Y-28655D01*
X45200Y-28693D01*
X45181Y-28712D01*
X45144Y-28730D01*
X44994Y-28730D01*
X45463Y-28524D02*
X45538Y-28524D01*
X45575Y-28543D01*
X45613Y-28580D01*
X45631Y-28655D01*
X45631Y-28787D01*
X45613Y-28862D01*
X45575Y-28899D01*
X45538Y-28918D01*
X45463Y-28918D01*
X45425Y-28899D01*
X45388Y-28862D01*
X45369Y-28787D01*
X45369Y-28655D01*
X45388Y-28580D01*
X45425Y-28543D01*
X45463Y-28524D01*
X46025Y-28918D02*
X45894Y-28730D01*
X45800Y-28918D02*
X45800Y-28524D01*
X45950Y-28524D01*
X45988Y-28543D01*
X46006Y-28562D01*
X46025Y-28599D01*
X46025Y-28655D01*
X46006Y-28693D01*
X45988Y-28712D01*
X45950Y-28730D01*
X45800Y-28730D01*
X46475Y-28805D02*
X46662Y-28805D01*
X46437Y-28918D02*
X46569Y-28524D01*
X46700Y-28918D01*
X46831Y-28918D02*
X46831Y-28524D01*
X46962Y-28805D01*
X47094Y-28524D01*
X47094Y-28918D01*
X47281Y-28918D02*
X47281Y-28524D01*
X47431Y-28524D01*
X47469Y-28543D01*
X47487Y-28562D01*
X47506Y-28599D01*
X47506Y-28655D01*
X47487Y-28693D01*
X47469Y-28712D01*
X47431Y-28730D01*
X47281Y-28730D01*
X33202Y-27737D02*
X33333Y-28130D01*
X33464Y-27737D01*
X33670Y-27737D02*
X33745Y-27737D01*
X33783Y-27755D01*
X33820Y-27793D01*
X33839Y-27868D01*
X33839Y-27999D01*
X33820Y-28074D01*
X33783Y-28112D01*
X33745Y-28130D01*
X33670Y-28130D01*
X33633Y-28112D01*
X33595Y-28074D01*
X33577Y-27999D01*
X33577Y-27868D01*
X33595Y-27793D01*
X33633Y-27755D01*
X33670Y-27737D01*
X34195Y-28130D02*
X34008Y-28130D01*
X34008Y-27737D01*
X34270Y-27737D02*
X34495Y-27737D01*
X34383Y-28130D02*
X34383Y-27737D01*
X34608Y-28018D02*
X34795Y-28018D01*
X34570Y-28130D02*
X34701Y-27737D01*
X34833Y-28130D01*
X35170Y-27755D02*
X35133Y-27737D01*
X35076Y-27737D01*
X35020Y-27755D01*
X34983Y-27793D01*
X34964Y-27830D01*
X34945Y-27905D01*
X34945Y-27962D01*
X34964Y-28037D01*
X34983Y-28074D01*
X35020Y-28112D01*
X35076Y-28130D01*
X35114Y-28130D01*
X35170Y-28112D01*
X35189Y-28093D01*
X35189Y-27962D01*
X35114Y-27962D01*
X35358Y-27924D02*
X35489Y-27924D01*
X35545Y-28130D02*
X35358Y-28130D01*
X35358Y-27737D01*
X35545Y-27737D01*
X36239Y-28130D02*
X36107Y-27943D01*
X36014Y-28130D02*
X36014Y-27737D01*
X36164Y-27737D01*
X36201Y-27755D01*
X36220Y-27774D01*
X36239Y-27812D01*
X36239Y-27868D01*
X36220Y-27905D01*
X36201Y-27924D01*
X36164Y-27943D01*
X36014Y-27943D01*
X36407Y-27924D02*
X36539Y-27924D01*
X36595Y-28130D02*
X36407Y-28130D01*
X36407Y-27737D01*
X36595Y-27737D01*
X36895Y-27924D02*
X36764Y-27924D01*
X36764Y-28130D02*
X36764Y-27737D01*
X36951Y-27737D01*
X37101Y-27924D02*
X37232Y-27924D01*
X37289Y-28130D02*
X37101Y-28130D01*
X37101Y-27737D01*
X37289Y-27737D01*
X37682Y-28130D02*
X37551Y-27943D01*
X37457Y-28130D02*
X37457Y-27737D01*
X37607Y-27737D01*
X37645Y-27755D01*
X37664Y-27774D01*
X37682Y-27812D01*
X37682Y-27868D01*
X37664Y-27905D01*
X37645Y-27924D01*
X37607Y-27943D01*
X37457Y-27943D01*
X37851Y-27924D02*
X37982Y-27924D01*
X38038Y-28130D02*
X37851Y-28130D01*
X37851Y-27737D01*
X38038Y-27737D01*
X38207Y-28130D02*
X38207Y-27737D01*
X38432Y-28130D01*
X38432Y-27737D01*
X38845Y-28093D02*
X38826Y-28112D01*
X38770Y-28130D01*
X38732Y-28130D01*
X38676Y-28112D01*
X38638Y-28074D01*
X38620Y-28037D01*
X38601Y-27962D01*
X38601Y-27905D01*
X38620Y-27830D01*
X38638Y-27793D01*
X38676Y-27755D01*
X38732Y-27737D01*
X38770Y-27737D01*
X38826Y-27755D01*
X38845Y-27774D01*
X39013Y-27924D02*
X39145Y-27924D01*
X39201Y-28130D02*
X39013Y-28130D01*
X39013Y-27737D01*
X39201Y-27737D01*
X44666Y-41516D02*
X44741Y-41516D01*
X44778Y-41535D01*
X44816Y-41572D01*
X44835Y-41647D01*
X44835Y-41779D01*
X44816Y-41854D01*
X44778Y-41891D01*
X44741Y-41910D01*
X44666Y-41910D01*
X44628Y-41891D01*
X44591Y-41854D01*
X44572Y-41779D01*
X44572Y-41647D01*
X44591Y-41572D01*
X44628Y-41535D01*
X44666Y-41516D01*
X45003Y-41516D02*
X45003Y-41835D01*
X45022Y-41872D01*
X45041Y-41891D01*
X45078Y-41910D01*
X45153Y-41910D01*
X45191Y-41891D01*
X45209Y-41872D01*
X45228Y-41835D01*
X45228Y-41516D01*
X45359Y-41516D02*
X45584Y-41516D01*
X45472Y-41910D02*
X45472Y-41516D01*
X45716Y-41910D02*
X45716Y-41516D01*
X45866Y-41516D01*
X45903Y-41535D01*
X45922Y-41554D01*
X45941Y-41591D01*
X45941Y-41647D01*
X45922Y-41685D01*
X45903Y-41704D01*
X45866Y-41722D01*
X45716Y-41722D01*
X46109Y-41516D02*
X46109Y-41835D01*
X46128Y-41872D01*
X46147Y-41891D01*
X46184Y-41910D01*
X46259Y-41910D01*
X46297Y-41891D01*
X46316Y-41872D01*
X46334Y-41835D01*
X46334Y-41516D01*
X46466Y-41516D02*
X46691Y-41516D01*
X46578Y-41910D02*
X46578Y-41516D01*
X47103Y-41797D02*
X47290Y-41797D01*
X47065Y-41910D02*
X47197Y-41516D01*
X47328Y-41910D01*
X47459Y-41910D02*
X47459Y-41516D01*
X47590Y-41797D01*
X47722Y-41516D01*
X47722Y-41910D01*
X47909Y-41910D02*
X47909Y-41516D01*
X48059Y-41516D01*
X48097Y-41535D01*
X48115Y-41554D01*
X48134Y-41591D01*
X48134Y-41647D01*
X48115Y-41685D01*
X48097Y-41704D01*
X48059Y-41722D01*
X47909Y-41722D01*
X48490Y-41910D02*
X48303Y-41910D01*
X48303Y-41516D01*
X48622Y-41910D02*
X48622Y-41516D01*
X48940Y-41704D02*
X48809Y-41704D01*
X48809Y-41910D02*
X48809Y-41516D01*
X48997Y-41516D01*
X49146Y-41910D02*
X49146Y-41516D01*
X49334Y-41704D02*
X49465Y-41704D01*
X49521Y-41910D02*
X49334Y-41910D01*
X49334Y-41516D01*
X49521Y-41516D01*
X49915Y-41910D02*
X49784Y-41722D01*
X49690Y-41910D02*
X49690Y-41516D01*
X49840Y-41516D01*
X49878Y-41535D01*
X49896Y-41554D01*
X49915Y-41591D01*
X49915Y-41647D01*
X49896Y-41685D01*
X49878Y-41704D01*
X49840Y-41722D01*
X49690Y-41722D01*
X30652Y-44272D02*
X30464Y-44272D01*
X30464Y-43878D01*
X30858Y-43878D02*
X30933Y-43878D01*
X30971Y-43897D01*
X31008Y-43935D01*
X31027Y-44010D01*
X31027Y-44141D01*
X31008Y-44216D01*
X30971Y-44253D01*
X30933Y-44272D01*
X30858Y-44272D01*
X30821Y-44253D01*
X30783Y-44216D01*
X30764Y-44141D01*
X30764Y-44010D01*
X30783Y-43935D01*
X30821Y-43897D01*
X30858Y-43878D01*
X31421Y-44235D02*
X31402Y-44253D01*
X31346Y-44272D01*
X31308Y-44272D01*
X31252Y-44253D01*
X31214Y-44216D01*
X31196Y-44178D01*
X31177Y-44103D01*
X31177Y-44047D01*
X31196Y-43972D01*
X31214Y-43935D01*
X31252Y-43897D01*
X31308Y-43878D01*
X31346Y-43878D01*
X31402Y-43897D01*
X31421Y-43916D01*
X31571Y-44160D02*
X31758Y-44160D01*
X31533Y-44272D02*
X31664Y-43878D01*
X31796Y-44272D01*
X32114Y-44272D02*
X31927Y-44272D01*
X31927Y-43878D01*
X32770Y-44272D02*
X32639Y-44085D01*
X32545Y-44272D02*
X32545Y-43878D01*
X32695Y-43878D01*
X32733Y-43897D01*
X32752Y-43916D01*
X32770Y-43953D01*
X32770Y-44010D01*
X32752Y-44047D01*
X32733Y-44066D01*
X32695Y-44085D01*
X32545Y-44085D01*
X32939Y-44066D02*
X33070Y-44066D01*
X33127Y-44272D02*
X32939Y-44272D01*
X32939Y-43878D01*
X33127Y-43878D01*
X33502Y-43897D02*
X33464Y-43878D01*
X33408Y-43878D01*
X33352Y-43897D01*
X33314Y-43935D01*
X33295Y-43972D01*
X33277Y-44047D01*
X33277Y-44103D01*
X33295Y-44178D01*
X33314Y-44216D01*
X33352Y-44253D01*
X33408Y-44272D01*
X33445Y-44272D01*
X33502Y-44253D01*
X33520Y-44235D01*
X33520Y-44103D01*
X33445Y-44103D01*
X33689Y-43878D02*
X33689Y-44197D01*
X33708Y-44235D01*
X33727Y-44253D01*
X33764Y-44272D01*
X33839Y-44272D01*
X33877Y-44253D01*
X33895Y-44235D01*
X33914Y-44197D01*
X33914Y-43878D01*
X34289Y-44272D02*
X34101Y-44272D01*
X34101Y-43878D01*
X34401Y-44160D02*
X34589Y-44160D01*
X34364Y-44272D02*
X34495Y-43878D01*
X34626Y-44272D01*
X34701Y-43878D02*
X34926Y-43878D01*
X34814Y-44272D02*
X34814Y-43878D01*
X35133Y-43878D02*
X35208Y-43878D01*
X35245Y-43897D01*
X35283Y-43935D01*
X35301Y-44010D01*
X35301Y-44141D01*
X35283Y-44216D01*
X35245Y-44253D01*
X35208Y-44272D01*
X35133Y-44272D01*
X35095Y-44253D01*
X35058Y-44216D01*
X35039Y-44141D01*
X35039Y-44010D01*
X35058Y-43935D01*
X35095Y-43897D01*
X35133Y-43878D01*
X35695Y-44272D02*
X35564Y-44085D01*
X35470Y-44272D02*
X35470Y-43878D01*
X35620Y-43878D01*
X35658Y-43897D01*
X35676Y-43916D01*
X35695Y-43953D01*
X35695Y-44010D01*
X35676Y-44047D01*
X35658Y-44066D01*
X35620Y-44085D01*
X35470Y-44085D01*
G54D11*
X54330Y-23228D02*
X55118Y-24015D01*
X53543Y-23228D02*
X54330Y-23228D01*
X43307Y-23228D02*
X53543Y-23228D01*
X42519Y-24015D02*
X43307Y-23228D01*
X61417Y-28740D02*
X61811Y-29133D01*
X58661Y-29133D02*
X59055Y-28740D01*
X57086Y-28740D02*
X57874Y-29527D01*
X53937Y-28740D02*
X57086Y-28740D01*
X53149Y-29527D02*
X53937Y-28740D01*
X46456Y-29133D02*
X47244Y-29921D01*
X42519Y-29133D02*
X46456Y-29133D01*
X41732Y-29921D02*
X42519Y-29133D01*
X38976Y-28346D02*
X40944Y-30314D01*
X38188Y-28346D02*
X38976Y-28346D01*
X33070Y-28346D02*
X38188Y-28346D01*
X33070Y-28346D02*
X31102Y-30314D01*
X35433Y-43700D02*
X36220Y-42913D01*
X30708Y-43700D02*
X35433Y-43700D01*
X29921Y-42913D02*
X30708Y-43700D01*
G54D12*
X66760Y-42294D02*
X66760Y-41994D01*
X66516Y-41732D02*
X66516Y-41657D01*
X66535Y-41619D01*
X66572Y-41582D01*
X66647Y-41563D01*
X66779Y-41563D01*
X66854Y-41582D01*
X66891Y-41619D01*
X66910Y-41657D01*
X66910Y-41732D01*
X66891Y-41769D01*
X66854Y-41807D01*
X66779Y-41826D01*
X66647Y-41826D01*
X66572Y-41807D01*
X66535Y-41769D01*
X66516Y-41732D01*
X66516Y-41394D02*
X66835Y-41394D01*
X66872Y-41376D01*
X66891Y-41357D01*
X66910Y-41319D01*
X66910Y-41244D01*
X66891Y-41207D01*
X66872Y-41188D01*
X66835Y-41169D01*
X66516Y-41169D01*
X66516Y-41038D02*
X66516Y-40813D01*
X66910Y-40926D02*
X66516Y-40926D01*
X66760Y-40682D02*
X66760Y-40382D01*
X66910Y-40532D02*
X66610Y-40532D01*
X66760Y-37748D02*
X66760Y-37448D01*
X66891Y-37279D02*
X66910Y-37223D01*
X66910Y-37129D01*
X66891Y-37092D01*
X66872Y-37073D01*
X66835Y-37054D01*
X66797Y-37054D01*
X66760Y-37073D01*
X66741Y-37092D01*
X66722Y-37129D01*
X66704Y-37204D01*
X66685Y-37242D01*
X66666Y-37260D01*
X66629Y-37279D01*
X66591Y-37279D01*
X66554Y-37260D01*
X66535Y-37242D01*
X66516Y-37204D01*
X66516Y-37110D01*
X66535Y-37054D01*
X66704Y-36886D02*
X66704Y-36754D01*
X66910Y-36698D02*
X66910Y-36886D01*
X66516Y-36886D01*
X66516Y-36698D01*
X66910Y-36529D02*
X66516Y-36529D01*
X66910Y-36304D01*
X66516Y-36304D01*
X66891Y-36136D02*
X66910Y-36079D01*
X66910Y-35986D01*
X66891Y-35948D01*
X66872Y-35929D01*
X66835Y-35911D01*
X66797Y-35911D01*
X66760Y-35929D01*
X66741Y-35948D01*
X66722Y-35986D01*
X66704Y-36061D01*
X66685Y-36098D01*
X66666Y-36117D01*
X66629Y-36136D01*
X66591Y-36136D01*
X66554Y-36117D01*
X66535Y-36098D01*
X66516Y-36061D01*
X66516Y-35967D01*
X66535Y-35911D01*
X66704Y-35742D02*
X66704Y-35611D01*
X66910Y-35554D02*
X66910Y-35742D01*
X66516Y-35742D01*
X66516Y-35554D01*
X66760Y-35386D02*
X66760Y-35086D01*
X66910Y-35236D02*
X66610Y-35236D01*
G54D11*
X52755Y-34645D02*
X52460Y-34940D01*
X52362Y-34842D02*
X52755Y-34645D01*
X52559Y-35039D02*
X52362Y-34842D01*
X52755Y-34645D02*
X52559Y-35039D01*
X44881Y-33562D02*
X45078Y-33169D01*
X45078Y-33169D02*
X45275Y-33366D01*
X45275Y-33366D02*
X44881Y-33562D01*
X44881Y-33562D02*
X45177Y-33267D01*
X44881Y-31200D02*
X45177Y-30905D01*
X45275Y-31003D02*
X44881Y-31200D01*
X45078Y-30807D02*
X45275Y-31003D01*
X44881Y-31200D02*
X45078Y-30807D01*
X39960Y-33661D02*
X40255Y-33366D01*
X40354Y-33464D02*
X39960Y-33661D01*
X40157Y-33267D02*
X40354Y-33464D01*
X39960Y-33661D02*
X40157Y-33267D01*
G54D12*
X65476Y-30689D02*
X65476Y-30296D01*
X65476Y-30483D02*
X65701Y-30483D01*
X65701Y-30689D02*
X65701Y-30296D01*
X65963Y-30296D02*
X66038Y-30296D01*
X66076Y-30314D01*
X66113Y-30352D01*
X66132Y-30427D01*
X66132Y-30558D01*
X66113Y-30633D01*
X66076Y-30671D01*
X66038Y-30689D01*
X65963Y-30689D01*
X65926Y-30671D01*
X65888Y-30633D01*
X65869Y-30558D01*
X65869Y-30427D01*
X65888Y-30352D01*
X65926Y-30314D01*
X65963Y-30296D01*
X66244Y-30296D02*
X66469Y-30296D01*
X66357Y-30689D02*
X66357Y-30296D01*
X65307Y-27343D02*
X65119Y-27343D01*
X65119Y-26949D01*
X65438Y-27343D02*
X65438Y-26949D01*
X65626Y-27343D02*
X65626Y-26949D01*
X65757Y-27230D01*
X65888Y-26949D01*
X65888Y-27343D01*
X66076Y-27343D02*
X66076Y-26949D01*
X66207Y-26949D02*
X66432Y-26949D01*
X66319Y-27343D02*
X66319Y-26949D01*
G54D11*
X28487Y-49760D02*
X28290Y-49760D01*
X28290Y-50070D02*
X28290Y-49479D01*
X28571Y-49479D01*
X29133Y-50070D02*
X28937Y-49789D01*
X28796Y-50070D02*
X28796Y-49479D01*
X29021Y-49479D01*
X29077Y-49507D01*
X29105Y-49535D01*
X29133Y-49592D01*
X29133Y-49676D01*
X29105Y-49732D01*
X29077Y-49760D01*
X29021Y-49789D01*
X28796Y-49789D01*
X29499Y-49479D02*
X29611Y-49479D01*
X29668Y-49507D01*
X29724Y-49564D01*
X29752Y-49676D01*
X29752Y-49873D01*
X29724Y-49985D01*
X29668Y-50042D01*
X29611Y-50070D01*
X29499Y-50070D01*
X29443Y-50042D01*
X29386Y-49985D01*
X29358Y-49873D01*
X29358Y-49676D01*
X29386Y-49564D01*
X29443Y-49507D01*
X29499Y-49479D01*
X30005Y-50070D02*
X30005Y-49479D01*
X30343Y-50070D01*
X30343Y-49479D01*
X30539Y-49479D02*
X30877Y-49479D01*
X30708Y-50070D02*
X30708Y-49479D01*
X31496Y-50042D02*
X31580Y-50070D01*
X31721Y-50070D01*
X31777Y-50042D01*
X31805Y-50014D01*
X31833Y-49957D01*
X31833Y-49901D01*
X31805Y-49845D01*
X31777Y-49817D01*
X31721Y-49789D01*
X31608Y-49760D01*
X31552Y-49732D01*
X31524Y-49704D01*
X31496Y-49648D01*
X31496Y-49592D01*
X31524Y-49535D01*
X31552Y-49507D01*
X31608Y-49479D01*
X31749Y-49479D01*
X31833Y-49507D01*
X32086Y-50070D02*
X32086Y-49479D01*
X32649Y-50070D02*
X32367Y-50070D01*
X32367Y-49479D01*
X32845Y-50070D02*
X32845Y-49479D01*
X33183Y-50070D02*
X32930Y-49732D01*
X33183Y-49479D02*
X32845Y-49817D01*
X33408Y-50042D02*
X33492Y-50070D01*
X33633Y-50070D01*
X33689Y-50042D01*
X33717Y-50014D01*
X33745Y-49957D01*
X33745Y-49901D01*
X33717Y-49845D01*
X33689Y-49817D01*
X33633Y-49789D01*
X33520Y-49760D01*
X33464Y-49732D01*
X33436Y-49704D01*
X33408Y-49648D01*
X33408Y-49592D01*
X33436Y-49535D01*
X33464Y-49507D01*
X33520Y-49479D01*
X33661Y-49479D01*
X33745Y-49507D01*
X34336Y-50014D02*
X34308Y-50042D01*
X34223Y-50070D01*
X34167Y-50070D01*
X34083Y-50042D01*
X34026Y-49985D01*
X33998Y-49929D01*
X33970Y-49817D01*
X33970Y-49732D01*
X33998Y-49620D01*
X34026Y-49564D01*
X34083Y-49507D01*
X34167Y-49479D01*
X34223Y-49479D01*
X34308Y-49507D01*
X34336Y-49535D01*
X34926Y-50070D02*
X34730Y-49789D01*
X34589Y-50070D02*
X34589Y-49479D01*
X34814Y-49479D01*
X34870Y-49507D01*
X34898Y-49535D01*
X34926Y-49592D01*
X34926Y-49676D01*
X34898Y-49732D01*
X34870Y-49760D01*
X34814Y-49789D01*
X34589Y-49789D01*
X35179Y-49760D02*
X35376Y-49760D01*
X35461Y-50070D02*
X35179Y-50070D01*
X35179Y-49479D01*
X35461Y-49479D01*
X35714Y-49760D02*
X35911Y-49760D01*
X35995Y-50070D02*
X35714Y-50070D01*
X35714Y-49479D01*
X35995Y-49479D01*
X36248Y-50070D02*
X36248Y-49479D01*
X36586Y-50070D01*
X36586Y-49479D01*
X48270Y-48186D02*
X48354Y-48214D01*
X48383Y-48242D01*
X48411Y-48298D01*
X48411Y-48383D01*
X48383Y-48439D01*
X48354Y-48467D01*
X48298Y-48495D01*
X48073Y-48495D01*
X48073Y-47904D01*
X48270Y-47904D01*
X48326Y-47933D01*
X48354Y-47961D01*
X48383Y-48017D01*
X48383Y-48073D01*
X48354Y-48129D01*
X48326Y-48158D01*
X48270Y-48186D01*
X48073Y-48186D01*
X47426Y-48439D02*
X47398Y-48467D01*
X47314Y-48495D01*
X47258Y-48495D01*
X47173Y-48467D01*
X47117Y-48411D01*
X47089Y-48354D01*
X47061Y-48242D01*
X47061Y-48158D01*
X47089Y-48045D01*
X47117Y-47989D01*
X47173Y-47933D01*
X47258Y-47904D01*
X47314Y-47904D01*
X47398Y-47933D01*
X47426Y-47961D01*
X46133Y-48186D02*
X46330Y-48186D01*
X46414Y-48495D02*
X46133Y-48495D01*
X46133Y-47904D01*
X46414Y-47904D01*
G54D12*
X50843Y-19469D02*
X50937Y-19863D01*
X51012Y-19581D01*
X51087Y-19863D01*
X51181Y-19469D01*
X51312Y-19750D02*
X51499Y-19750D01*
X51274Y-19863D02*
X51406Y-19469D01*
X51537Y-19863D01*
X51893Y-19863D02*
X51762Y-19675D01*
X51668Y-19863D02*
X51668Y-19469D01*
X51818Y-19469D01*
X51856Y-19488D01*
X51874Y-19506D01*
X51893Y-19544D01*
X51893Y-19600D01*
X51874Y-19638D01*
X51856Y-19656D01*
X51818Y-19675D01*
X51668Y-19675D01*
X52062Y-19863D02*
X52062Y-19469D01*
X52287Y-19863D01*
X52287Y-19469D01*
X52474Y-19863D02*
X52474Y-19469D01*
X52662Y-19863D02*
X52662Y-19469D01*
X52887Y-19863D01*
X52887Y-19469D01*
X53280Y-19488D02*
X53243Y-19469D01*
X53187Y-19469D01*
X53130Y-19488D01*
X53093Y-19525D01*
X53074Y-19563D01*
X53055Y-19638D01*
X53055Y-19694D01*
X53074Y-19769D01*
X53093Y-19806D01*
X53130Y-19844D01*
X53187Y-19863D01*
X53224Y-19863D01*
X53280Y-19844D01*
X53299Y-19825D01*
X53299Y-19694D01*
X53224Y-19694D01*
X53468Y-19825D02*
X53487Y-19844D01*
X53468Y-19863D01*
X53449Y-19844D01*
X53468Y-19825D01*
X53468Y-19863D01*
X53468Y-19619D02*
X53487Y-19638D01*
X53468Y-19656D01*
X53449Y-19638D01*
X53468Y-19619D01*
X53468Y-19656D01*
X53955Y-19469D02*
X53955Y-19788D01*
X53974Y-19825D01*
X53993Y-19844D01*
X54030Y-19863D01*
X54105Y-19863D01*
X54143Y-19844D01*
X54161Y-19825D01*
X54180Y-19788D01*
X54180Y-19469D01*
X54368Y-19600D02*
X54368Y-19994D01*
X54368Y-19619D02*
X54405Y-19600D01*
X54480Y-19600D01*
X54518Y-19619D01*
X54536Y-19638D01*
X54555Y-19675D01*
X54555Y-19788D01*
X54536Y-19825D01*
X54518Y-19844D01*
X54480Y-19863D01*
X54405Y-19863D01*
X54368Y-19844D01*
X54968Y-19600D02*
X55118Y-19600D01*
X55024Y-19469D02*
X55024Y-19806D01*
X55043Y-19844D01*
X55080Y-19863D01*
X55118Y-19863D01*
X55305Y-19863D02*
X55268Y-19844D01*
X55249Y-19825D01*
X55230Y-19788D01*
X55230Y-19675D01*
X55249Y-19638D01*
X55268Y-19619D01*
X55305Y-19600D01*
X55361Y-19600D01*
X55399Y-19619D01*
X55418Y-19638D01*
X55436Y-19675D01*
X55436Y-19788D01*
X55418Y-19825D01*
X55399Y-19844D01*
X55361Y-19863D01*
X55305Y-19863D01*
X56092Y-19469D02*
X55905Y-19469D01*
X55886Y-19656D01*
X55905Y-19638D01*
X55943Y-19619D01*
X56036Y-19619D01*
X56074Y-19638D01*
X56092Y-19656D01*
X56111Y-19694D01*
X56111Y-19788D01*
X56092Y-19825D01*
X56074Y-19844D01*
X56036Y-19863D01*
X55943Y-19863D01*
X55905Y-19844D01*
X55886Y-19825D01*
X56355Y-19469D02*
X56392Y-19469D01*
X56430Y-19488D01*
X56449Y-19506D01*
X56467Y-19544D01*
X56486Y-19619D01*
X56486Y-19713D01*
X56467Y-19788D01*
X56449Y-19825D01*
X56430Y-19844D01*
X56392Y-19863D01*
X56355Y-19863D01*
X56317Y-19844D01*
X56299Y-19825D01*
X56280Y-19788D01*
X56261Y-19713D01*
X56261Y-19619D01*
X56280Y-19544D01*
X56299Y-19506D01*
X56317Y-19488D01*
X56355Y-19469D01*
X56599Y-19469D02*
X56730Y-19863D01*
X56861Y-19469D01*
X57292Y-19600D02*
X57292Y-19994D01*
X57292Y-19619D02*
X57330Y-19600D01*
X57405Y-19600D01*
X57442Y-19619D01*
X57461Y-19638D01*
X57480Y-19675D01*
X57480Y-19788D01*
X57461Y-19825D01*
X57442Y-19844D01*
X57405Y-19863D01*
X57330Y-19863D01*
X57292Y-19844D01*
X57705Y-19863D02*
X57667Y-19844D01*
X57649Y-19825D01*
X57630Y-19788D01*
X57630Y-19675D01*
X57649Y-19638D01*
X57667Y-19619D01*
X57705Y-19600D01*
X57761Y-19600D01*
X57799Y-19619D01*
X57817Y-19638D01*
X57836Y-19675D01*
X57836Y-19788D01*
X57817Y-19825D01*
X57799Y-19844D01*
X57761Y-19863D01*
X57705Y-19863D01*
X57949Y-19600D02*
X58098Y-19600D01*
X58005Y-19469D02*
X58005Y-19806D01*
X58023Y-19844D01*
X58061Y-19863D01*
X58098Y-19863D01*
X58380Y-19844D02*
X58342Y-19863D01*
X58267Y-19863D01*
X58230Y-19844D01*
X58211Y-19806D01*
X58211Y-19656D01*
X58230Y-19619D01*
X58267Y-19600D01*
X58342Y-19600D01*
X58380Y-19619D01*
X58398Y-19656D01*
X58398Y-19694D01*
X58211Y-19731D01*
X58567Y-19600D02*
X58567Y-19863D01*
X58567Y-19638D02*
X58586Y-19619D01*
X58623Y-19600D01*
X58680Y-19600D01*
X58717Y-19619D01*
X58736Y-19656D01*
X58736Y-19863D01*
X58867Y-19600D02*
X59017Y-19600D01*
X58923Y-19469D02*
X58923Y-19806D01*
X58942Y-19844D01*
X58980Y-19863D01*
X59017Y-19863D01*
X59148Y-19863D02*
X59148Y-19600D01*
X59148Y-19469D02*
X59130Y-19488D01*
X59148Y-19506D01*
X59167Y-19488D01*
X59148Y-19469D01*
X59148Y-19506D01*
X59505Y-19863D02*
X59505Y-19656D01*
X59486Y-19619D01*
X59448Y-19600D01*
X59373Y-19600D01*
X59336Y-19619D01*
X59505Y-19844D02*
X59467Y-19863D01*
X59373Y-19863D01*
X59336Y-19844D01*
X59317Y-19806D01*
X59317Y-19769D01*
X59336Y-19731D01*
X59373Y-19713D01*
X59467Y-19713D01*
X59505Y-19694D01*
X59748Y-19863D02*
X59711Y-19844D01*
X59692Y-19806D01*
X59692Y-19469D01*
X60198Y-19863D02*
X60198Y-19600D01*
X60198Y-19469D02*
X60179Y-19488D01*
X60198Y-19506D01*
X60217Y-19488D01*
X60198Y-19469D01*
X60198Y-19506D01*
X60367Y-19844D02*
X60404Y-19863D01*
X60479Y-19863D01*
X60517Y-19844D01*
X60536Y-19806D01*
X60536Y-19788D01*
X60517Y-19750D01*
X60479Y-19731D01*
X60423Y-19731D01*
X60386Y-19713D01*
X60367Y-19675D01*
X60367Y-19656D01*
X60386Y-19619D01*
X60423Y-19600D01*
X60479Y-19600D01*
X60517Y-19619D01*
X61004Y-19600D02*
X61004Y-19994D01*
X61004Y-19619D02*
X61042Y-19600D01*
X61117Y-19600D01*
X61154Y-19619D01*
X61173Y-19638D01*
X61192Y-19675D01*
X61192Y-19788D01*
X61173Y-19825D01*
X61154Y-19844D01*
X61117Y-19863D01*
X61042Y-19863D01*
X61004Y-19844D01*
X61361Y-19863D02*
X61361Y-19600D01*
X61361Y-19675D02*
X61379Y-19638D01*
X61398Y-19619D01*
X61436Y-19600D01*
X61473Y-19600D01*
X61754Y-19844D02*
X61717Y-19863D01*
X61642Y-19863D01*
X61604Y-19844D01*
X61586Y-19806D01*
X61586Y-19656D01*
X61604Y-19619D01*
X61642Y-19600D01*
X61717Y-19600D01*
X61754Y-19619D01*
X61773Y-19656D01*
X61773Y-19694D01*
X61586Y-19731D01*
X61923Y-19844D02*
X61961Y-19863D01*
X62035Y-19863D01*
X62073Y-19844D01*
X62092Y-19806D01*
X62092Y-19788D01*
X62073Y-19750D01*
X62035Y-19731D01*
X61979Y-19731D01*
X61942Y-19713D01*
X61923Y-19675D01*
X61923Y-19656D01*
X61942Y-19619D01*
X61979Y-19600D01*
X62035Y-19600D01*
X62073Y-19619D01*
X62410Y-19844D02*
X62373Y-19863D01*
X62298Y-19863D01*
X62260Y-19844D01*
X62242Y-19806D01*
X62242Y-19656D01*
X62260Y-19619D01*
X62298Y-19600D01*
X62373Y-19600D01*
X62410Y-19619D01*
X62429Y-19656D01*
X62429Y-19694D01*
X62242Y-19731D01*
X62598Y-19600D02*
X62598Y-19863D01*
X62598Y-19638D02*
X62617Y-19619D01*
X62654Y-19600D01*
X62710Y-19600D01*
X62748Y-19619D01*
X62767Y-19656D01*
X62767Y-19863D01*
X62898Y-19600D02*
X63048Y-19600D01*
X62954Y-19469D02*
X62954Y-19806D01*
X62973Y-19844D01*
X63010Y-19863D01*
X63048Y-19863D01*
X59655Y-18485D02*
X59523Y-18297D01*
X59430Y-18485D02*
X59430Y-18091D01*
X59580Y-18091D01*
X59617Y-18110D01*
X59636Y-18128D01*
X59655Y-18166D01*
X59655Y-18222D01*
X59636Y-18260D01*
X59617Y-18278D01*
X59580Y-18297D01*
X59430Y-18297D01*
X59973Y-18466D02*
X59936Y-18485D01*
X59861Y-18485D01*
X59823Y-18466D01*
X59805Y-18428D01*
X59805Y-18278D01*
X59823Y-18241D01*
X59861Y-18222D01*
X59936Y-18222D01*
X59973Y-18241D01*
X59992Y-18278D01*
X59992Y-18316D01*
X59805Y-18353D01*
X60123Y-18222D02*
X60217Y-18485D01*
X60311Y-18222D01*
X60892Y-18278D02*
X60948Y-18297D01*
X60967Y-18316D01*
X60986Y-18353D01*
X60986Y-18410D01*
X60967Y-18447D01*
X60948Y-18466D01*
X60911Y-18485D01*
X60761Y-18485D01*
X60761Y-18091D01*
X60892Y-18091D01*
X60929Y-18110D01*
X60948Y-18128D01*
X60967Y-18166D01*
X60967Y-18203D01*
X60948Y-18241D01*
X60929Y-18260D01*
X60892Y-18278D01*
X60761Y-18278D01*
X61567Y-18091D02*
X61567Y-18372D01*
X61548Y-18428D01*
X61511Y-18466D01*
X61454Y-18485D01*
X61417Y-18485D01*
X61923Y-18485D02*
X61923Y-18278D01*
X61904Y-18241D01*
X61867Y-18222D01*
X61792Y-18222D01*
X61754Y-18241D01*
X61923Y-18466D02*
X61886Y-18485D01*
X61792Y-18485D01*
X61754Y-18466D01*
X61736Y-18428D01*
X61736Y-18391D01*
X61754Y-18353D01*
X61792Y-18335D01*
X61886Y-18335D01*
X61923Y-18316D01*
X62110Y-18222D02*
X62110Y-18485D01*
X62110Y-18260D02*
X62129Y-18241D01*
X62167Y-18222D01*
X62223Y-18222D01*
X62260Y-18241D01*
X62279Y-18278D01*
X62279Y-18485D01*
X62748Y-18128D02*
X62767Y-18110D01*
X62804Y-18091D01*
X62898Y-18091D01*
X62935Y-18110D01*
X62954Y-18128D01*
X62973Y-18166D01*
X62973Y-18203D01*
X62954Y-18260D01*
X62729Y-18485D01*
X62973Y-18485D01*
X63217Y-18091D02*
X63254Y-18091D01*
X63292Y-18110D01*
X63310Y-18128D01*
X63329Y-18166D01*
X63348Y-18241D01*
X63348Y-18335D01*
X63329Y-18410D01*
X63310Y-18447D01*
X63292Y-18466D01*
X63254Y-18485D01*
X63217Y-18485D01*
X63179Y-18466D01*
X63160Y-18447D01*
X63142Y-18410D01*
X63123Y-18335D01*
X63123Y-18241D01*
X63142Y-18166D01*
X63160Y-18128D01*
X63179Y-18110D01*
X63217Y-18091D01*
X63723Y-18485D02*
X63498Y-18485D01*
X63610Y-18485D02*
X63610Y-18091D01*
X63573Y-18147D01*
X63535Y-18185D01*
X63498Y-18203D01*
X64060Y-18222D02*
X64060Y-18485D01*
X63967Y-18072D02*
X63873Y-18353D01*
X64116Y-18353D01*
G54D11*
X55736Y-17027D02*
X56017Y-17027D01*
X55680Y-17196D02*
X55877Y-16605D01*
X56074Y-17196D01*
X56552Y-17196D02*
X56271Y-17196D01*
X56271Y-16605D01*
X57030Y-17196D02*
X56749Y-17196D01*
X56749Y-16605D01*
X57227Y-16971D02*
X57677Y-16971D01*
X57958Y-17196D02*
X57958Y-16605D01*
X58098Y-16605D01*
X58183Y-16633D01*
X58239Y-16690D01*
X58267Y-16746D01*
X58295Y-16858D01*
X58295Y-16943D01*
X58267Y-17055D01*
X58239Y-17111D01*
X58183Y-17168D01*
X58098Y-17196D01*
X57958Y-17196D01*
X58548Y-17196D02*
X58548Y-16605D01*
X58802Y-17168D02*
X58886Y-17196D01*
X59026Y-17196D01*
X59083Y-17168D01*
X59111Y-17140D01*
X59139Y-17083D01*
X59139Y-17027D01*
X59111Y-16971D01*
X59083Y-16943D01*
X59026Y-16915D01*
X58914Y-16886D01*
X58858Y-16858D01*
X58830Y-16830D01*
X58802Y-16774D01*
X58802Y-16718D01*
X58830Y-16661D01*
X58858Y-16633D01*
X58914Y-16605D01*
X59055Y-16605D01*
X59139Y-16633D01*
X59730Y-17140D02*
X59701Y-17168D01*
X59617Y-17196D01*
X59561Y-17196D01*
X59476Y-17168D01*
X59420Y-17111D01*
X59392Y-17055D01*
X59364Y-16943D01*
X59364Y-16858D01*
X59392Y-16746D01*
X59420Y-16690D01*
X59476Y-16633D01*
X59561Y-16605D01*
X59617Y-16605D01*
X59701Y-16633D01*
X59730Y-16661D01*
X60320Y-17196D02*
X60123Y-16915D01*
X59983Y-17196D02*
X59983Y-16605D01*
X60208Y-16605D01*
X60264Y-16633D01*
X60292Y-16661D01*
X60320Y-16718D01*
X60320Y-16802D01*
X60292Y-16858D01*
X60264Y-16886D01*
X60208Y-16915D01*
X59983Y-16915D01*
X60573Y-16886D02*
X60770Y-16886D01*
X60854Y-17196D02*
X60573Y-17196D01*
X60573Y-16605D01*
X60854Y-16605D01*
X61023Y-16605D02*
X61361Y-16605D01*
X61192Y-17196D02*
X61192Y-16605D01*
X61557Y-16886D02*
X61754Y-16886D01*
X61839Y-17196D02*
X61557Y-17196D01*
X61557Y-16605D01*
X61839Y-16605D01*
X62542Y-17196D02*
X62542Y-16605D01*
X62767Y-16605D01*
X62823Y-16633D01*
X62851Y-16661D01*
X62879Y-16718D01*
X62879Y-16802D01*
X62851Y-16858D01*
X62823Y-16886D01*
X62767Y-16915D01*
X62542Y-16915D01*
X63104Y-17168D02*
X63188Y-17196D01*
X63329Y-17196D01*
X63385Y-17168D01*
X63413Y-17140D01*
X63442Y-17083D01*
X63442Y-17027D01*
X63413Y-16971D01*
X63385Y-16943D01*
X63329Y-16915D01*
X63217Y-16886D01*
X63160Y-16858D01*
X63132Y-16830D01*
X63104Y-16774D01*
X63104Y-16718D01*
X63132Y-16661D01*
X63160Y-16633D01*
X63217Y-16605D01*
X63357Y-16605D01*
X63442Y-16633D01*
X63695Y-16605D02*
X63695Y-17083D01*
X63723Y-17140D01*
X63751Y-17168D01*
X63807Y-17196D01*
X63920Y-17196D01*
X63976Y-17168D01*
X64004Y-17140D01*
X64032Y-17083D01*
X64032Y-16605D01*
G54D13*
X49021Y-28607D02*
X49021Y-28134D01*
X49178Y-28472D01*
X49336Y-28134D01*
X49336Y-28607D01*
X49538Y-28472D02*
X49763Y-28472D01*
X49493Y-28607D02*
X49651Y-28134D01*
X49808Y-28607D01*
X49921Y-28134D02*
X50236Y-28607D01*
X50236Y-28134D02*
X49921Y-28607D01*
X49032Y-29302D02*
X49010Y-29325D01*
X48942Y-29347D01*
X48897Y-29347D01*
X48830Y-29325D01*
X48785Y-29280D01*
X48762Y-29235D01*
X48740Y-29145D01*
X48740Y-29077D01*
X48762Y-28987D01*
X48785Y-28942D01*
X48830Y-28897D01*
X48897Y-28875D01*
X48942Y-28875D01*
X49010Y-28897D01*
X49032Y-28920D01*
X49235Y-28875D02*
X49235Y-29257D01*
X49257Y-29302D01*
X49280Y-29325D01*
X49325Y-29347D01*
X49415Y-29347D01*
X49460Y-29325D01*
X49482Y-29302D01*
X49505Y-29257D01*
X49505Y-28875D01*
X50000Y-29347D02*
X49842Y-29122D01*
X49730Y-29347D02*
X49730Y-28875D01*
X49910Y-28875D01*
X49955Y-28897D01*
X49977Y-28920D01*
X50000Y-28965D01*
X50000Y-29032D01*
X49977Y-29077D01*
X49955Y-29100D01*
X49910Y-29122D01*
X49730Y-29122D01*
X50472Y-29347D02*
X50314Y-29122D01*
X50202Y-29347D02*
X50202Y-28875D01*
X50382Y-28875D01*
X50427Y-28897D01*
X50449Y-28920D01*
X50472Y-28965D01*
X50472Y-29032D01*
X50449Y-29077D01*
X50427Y-29100D01*
X50382Y-29122D01*
X50202Y-29122D01*
X48852Y-29615D02*
X49122Y-29615D01*
X48987Y-30087D02*
X48987Y-29615D01*
X49550Y-30087D02*
X49392Y-29862D01*
X49280Y-30087D02*
X49280Y-29615D01*
X49460Y-29615D01*
X49505Y-29637D01*
X49527Y-29660D01*
X49550Y-29705D01*
X49550Y-29772D01*
X49527Y-29817D01*
X49505Y-29840D01*
X49460Y-29862D01*
X49280Y-29862D01*
X49752Y-30087D02*
X49752Y-29615D01*
X49977Y-30087D02*
X49977Y-29615D01*
X50134Y-29952D01*
X50292Y-29615D01*
X50292Y-30087D01*
X48391Y-38751D02*
X48368Y-38773D01*
X48301Y-38796D01*
X48256Y-38796D01*
X48188Y-38773D01*
X48143Y-38728D01*
X48121Y-38683D01*
X48098Y-38593D01*
X48098Y-38526D01*
X48121Y-38436D01*
X48143Y-38391D01*
X48188Y-38346D01*
X48256Y-38323D01*
X48301Y-38323D01*
X48368Y-38346D01*
X48391Y-38368D01*
X48593Y-38323D02*
X48593Y-38706D01*
X48616Y-38751D01*
X48638Y-38773D01*
X48683Y-38796D01*
X48773Y-38796D01*
X48818Y-38773D01*
X48841Y-38751D01*
X48863Y-38706D01*
X48863Y-38323D01*
X49358Y-38796D02*
X49201Y-38571D01*
X49088Y-38796D02*
X49088Y-38323D01*
X49268Y-38323D01*
X49313Y-38346D01*
X49336Y-38368D01*
X49358Y-38413D01*
X49358Y-38481D01*
X49336Y-38526D01*
X49313Y-38548D01*
X49268Y-38571D01*
X49088Y-38571D01*
X49831Y-38796D02*
X49673Y-38571D01*
X49561Y-38796D02*
X49561Y-38323D01*
X49741Y-38323D01*
X49786Y-38346D01*
X49808Y-38368D01*
X49831Y-38413D01*
X49831Y-38481D01*
X49808Y-38526D01*
X49786Y-38548D01*
X49741Y-38571D01*
X49561Y-38571D01*
X50033Y-38548D02*
X50191Y-38548D01*
X50258Y-38796D02*
X50033Y-38796D01*
X50033Y-38323D01*
X50258Y-38323D01*
X50461Y-38796D02*
X50461Y-38323D01*
X50731Y-38796D01*
X50731Y-38323D01*
X50888Y-38323D02*
X51158Y-38323D01*
X51023Y-38796D02*
X51023Y-38323D01*
X35185Y-29662D02*
X35343Y-30134D01*
X35500Y-29662D01*
X35748Y-29662D02*
X35838Y-29662D01*
X35883Y-29685D01*
X35928Y-29730D01*
X35950Y-29820D01*
X35950Y-29977D01*
X35928Y-30067D01*
X35883Y-30112D01*
X35838Y-30134D01*
X35748Y-30134D01*
X35703Y-30112D01*
X35658Y-30067D01*
X35635Y-29977D01*
X35635Y-29820D01*
X35658Y-29730D01*
X35703Y-29685D01*
X35748Y-29662D01*
X36377Y-30134D02*
X36152Y-30134D01*
X36152Y-29662D01*
X36467Y-29662D02*
X36737Y-29662D01*
X36602Y-30134D02*
X36602Y-29662D01*
X36872Y-30000D02*
X37097Y-30000D01*
X36827Y-30134D02*
X36985Y-29662D01*
X37142Y-30134D01*
X37547Y-29685D02*
X37502Y-29662D01*
X37435Y-29662D01*
X37367Y-29685D01*
X37322Y-29730D01*
X37300Y-29775D01*
X37277Y-29865D01*
X37277Y-29932D01*
X37300Y-30022D01*
X37322Y-30067D01*
X37367Y-30112D01*
X37435Y-30134D01*
X37480Y-30134D01*
X37547Y-30112D01*
X37570Y-30089D01*
X37570Y-29932D01*
X37480Y-29932D01*
X37772Y-29887D02*
X37930Y-29887D01*
X37997Y-30134D02*
X37772Y-30134D01*
X37772Y-29662D01*
X37997Y-29662D01*
G54D12*
X51049Y-18466D02*
X51012Y-18485D01*
X50937Y-18485D01*
X50899Y-18466D01*
X50881Y-18447D01*
X50862Y-18410D01*
X50862Y-18297D01*
X50881Y-18260D01*
X50899Y-18241D01*
X50937Y-18222D01*
X51012Y-18222D01*
X51049Y-18241D01*
X51387Y-18222D02*
X51387Y-18485D01*
X51293Y-18072D02*
X51199Y-18353D01*
X51443Y-18353D01*
X51556Y-18091D02*
X51818Y-18091D01*
X51649Y-18485D01*
X52155Y-18091D02*
X51968Y-18091D01*
X51949Y-18278D01*
X51968Y-18260D01*
X52005Y-18241D01*
X52099Y-18241D01*
X52137Y-18260D01*
X52155Y-18278D01*
X52174Y-18316D01*
X52174Y-18410D01*
X52155Y-18447D01*
X52137Y-18466D01*
X52099Y-18485D01*
X52005Y-18485D01*
X51968Y-18466D01*
X51949Y-18447D01*
X52305Y-18091D02*
X52568Y-18091D01*
X52399Y-18485D01*
X52718Y-18222D02*
X52718Y-18616D01*
X52718Y-18241D02*
X52755Y-18222D01*
X52830Y-18222D01*
X52868Y-18241D01*
X52887Y-18260D01*
X52905Y-18297D01*
X52905Y-18410D01*
X52887Y-18447D01*
X52868Y-18466D01*
X52830Y-18485D01*
X52755Y-18485D01*
X52718Y-18466D01*
X53074Y-18447D02*
X53093Y-18466D01*
X53074Y-18485D01*
X53055Y-18466D01*
X53074Y-18447D01*
X53074Y-18485D01*
X53430Y-18466D02*
X53393Y-18485D01*
X53318Y-18485D01*
X53280Y-18466D01*
X53262Y-18447D01*
X53243Y-18410D01*
X53243Y-18297D01*
X53262Y-18260D01*
X53280Y-18241D01*
X53318Y-18222D01*
X53393Y-18222D01*
X53430Y-18241D01*
X53655Y-18485D02*
X53618Y-18466D01*
X53599Y-18447D01*
X53580Y-18410D01*
X53580Y-18297D01*
X53599Y-18260D01*
X53618Y-18241D01*
X53655Y-18222D01*
X53712Y-18222D01*
X53749Y-18241D01*
X53768Y-18260D01*
X53787Y-18297D01*
X53787Y-18410D01*
X53768Y-18447D01*
X53749Y-18466D01*
X53712Y-18485D01*
X53655Y-18485D01*
X53955Y-18485D02*
X53955Y-18222D01*
X53955Y-18260D02*
X53974Y-18241D01*
X54011Y-18222D01*
X54068Y-18222D01*
X54105Y-18241D01*
X54124Y-18278D01*
X54124Y-18485D01*
X54124Y-18278D02*
X54143Y-18241D01*
X54180Y-18222D01*
X54236Y-18222D01*
X54274Y-18241D01*
X54293Y-18278D01*
X54293Y-18485D01*
X54761Y-18072D02*
X54424Y-18578D01*
X54893Y-18222D02*
X54893Y-18616D01*
X54893Y-18241D02*
X54930Y-18222D01*
X55005Y-18222D01*
X55043Y-18241D01*
X55061Y-18260D01*
X55080Y-18297D01*
X55080Y-18410D01*
X55061Y-18447D01*
X55043Y-18466D01*
X55005Y-18485D01*
X54930Y-18485D01*
X54893Y-18466D01*
X55249Y-18485D02*
X55249Y-18222D01*
X55249Y-18297D02*
X55268Y-18260D01*
X55286Y-18241D01*
X55324Y-18222D01*
X55361Y-18222D01*
X55549Y-18485D02*
X55511Y-18466D01*
X55493Y-18447D01*
X55474Y-18410D01*
X55474Y-18297D01*
X55493Y-18260D01*
X55511Y-18241D01*
X55549Y-18222D01*
X55605Y-18222D01*
X55643Y-18241D01*
X55661Y-18260D01*
X55680Y-18297D01*
X55680Y-18410D01*
X55661Y-18447D01*
X55643Y-18466D01*
X55605Y-18485D01*
X55549Y-18485D01*
X55849Y-18222D02*
X55849Y-18560D01*
X55830Y-18597D01*
X55793Y-18616D01*
X55774Y-18616D01*
X55849Y-18091D02*
X55830Y-18110D01*
X55849Y-18128D01*
X55868Y-18110D01*
X55849Y-18091D01*
X55849Y-18128D01*
X56186Y-18466D02*
X56149Y-18485D01*
X56074Y-18485D01*
X56036Y-18466D01*
X56017Y-18428D01*
X56017Y-18278D01*
X56036Y-18241D01*
X56074Y-18222D01*
X56149Y-18222D01*
X56186Y-18241D01*
X56205Y-18278D01*
X56205Y-18316D01*
X56017Y-18353D01*
X56542Y-18466D02*
X56505Y-18485D01*
X56430Y-18485D01*
X56392Y-18466D01*
X56374Y-18447D01*
X56355Y-18410D01*
X56355Y-18297D01*
X56374Y-18260D01*
X56392Y-18241D01*
X56430Y-18222D01*
X56505Y-18222D01*
X56542Y-18241D01*
X56655Y-18222D02*
X56805Y-18222D01*
X56711Y-18091D02*
X56711Y-18428D01*
X56730Y-18466D01*
X56767Y-18485D01*
X56805Y-18485D01*
X56917Y-18466D02*
X56955Y-18485D01*
X57030Y-18485D01*
X57067Y-18466D01*
X57086Y-18428D01*
X57086Y-18410D01*
X57067Y-18372D01*
X57030Y-18353D01*
X56974Y-18353D01*
X56936Y-18335D01*
X56917Y-18297D01*
X56917Y-18278D01*
X56936Y-18241D01*
X56974Y-18222D01*
X57030Y-18222D01*
X57067Y-18241D01*
X57536Y-18072D02*
X57199Y-18578D01*
X57667Y-18222D02*
X57667Y-18616D01*
X57667Y-18241D02*
X57705Y-18222D01*
X57780Y-18222D01*
X57817Y-18241D01*
X57836Y-18260D01*
X57855Y-18297D01*
X57855Y-18410D01*
X57836Y-18447D01*
X57817Y-18466D01*
X57780Y-18485D01*
X57705Y-18485D01*
X57667Y-18466D01*
X58005Y-18466D02*
X58042Y-18485D01*
X58117Y-18485D01*
X58155Y-18466D01*
X58173Y-18428D01*
X58173Y-18410D01*
X58155Y-18372D01*
X58117Y-18353D01*
X58061Y-18353D01*
X58023Y-18335D01*
X58005Y-18297D01*
X58005Y-18278D01*
X58023Y-18241D01*
X58061Y-18222D01*
X58117Y-18222D01*
X58155Y-18241D01*
X58548Y-18485D02*
X58323Y-18485D01*
X58436Y-18485D02*
X58436Y-18091D01*
X58398Y-18147D01*
X58361Y-18185D01*
X58323Y-18203D01*
G54D13*
X36422Y-37662D02*
X36422Y-37190D01*
X36580Y-37527D01*
X36737Y-37190D01*
X36737Y-37662D01*
X36940Y-37527D02*
X37165Y-37527D01*
X36895Y-37662D02*
X37052Y-37190D01*
X37210Y-37662D01*
X37322Y-37190D02*
X37637Y-37662D01*
X37637Y-37190D02*
X37322Y-37662D01*
X36231Y-37930D02*
X36389Y-38402D01*
X36546Y-37930D01*
X36794Y-37930D02*
X36884Y-37930D01*
X36929Y-37952D01*
X36974Y-37997D01*
X36996Y-38087D01*
X36996Y-38245D01*
X36974Y-38335D01*
X36929Y-38380D01*
X36884Y-38402D01*
X36794Y-38402D01*
X36749Y-38380D01*
X36704Y-38335D01*
X36681Y-38245D01*
X36681Y-38087D01*
X36704Y-37997D01*
X36749Y-37952D01*
X36794Y-37930D01*
X37424Y-38402D02*
X37199Y-38402D01*
X37199Y-37930D01*
X37514Y-37930D02*
X37784Y-37930D01*
X37649Y-38402D02*
X37649Y-37930D01*
X36254Y-38670D02*
X36524Y-38670D01*
X36389Y-39142D02*
X36389Y-38670D01*
X36951Y-39142D02*
X36794Y-38917D01*
X36681Y-39142D02*
X36681Y-38670D01*
X36861Y-38670D01*
X36906Y-38692D01*
X36929Y-38715D01*
X36951Y-38760D01*
X36951Y-38827D01*
X36929Y-38872D01*
X36906Y-38895D01*
X36861Y-38917D01*
X36681Y-38917D01*
X37154Y-39142D02*
X37154Y-38670D01*
X37379Y-39142D02*
X37379Y-38670D01*
X37536Y-39007D01*
X37694Y-38670D01*
X37694Y-39142D01*
G54D10*
X62796Y-40767D02*
X62796Y-40570D01*
X62698Y-40669D02*
X62895Y-40669D01*
X62895Y-40669D02*
X62796Y-40767D01*
X62796Y-40767D02*
X62698Y-40669D01*
X62698Y-40669D02*
X62796Y-40570D01*
X62796Y-40570D02*
X62895Y-40669D01*
G54D14*
X34251Y-16141D02*
X34645Y-15748D01*
X34645Y-15748D02*
X35433Y-15748D01*
X35433Y-15748D02*
X35826Y-16141D01*
X35826Y-16141D02*
X35826Y-15354D01*
X35826Y-18110D02*
X35826Y-17322D01*
X35826Y-20078D02*
X35826Y-19291D01*
X35826Y-22047D02*
X35826Y-21259D01*
X35826Y-24015D02*
X35826Y-23228D01*
X35826Y-24015D02*
X34251Y-24015D01*
X34251Y-24015D02*
X34251Y-15354D01*
X34251Y-15354D02*
X35826Y-15354D01*
X66535Y-30118D02*
X63385Y-30118D01*
X63385Y-30118D02*
X63385Y-27755D01*
X63385Y-27755D02*
X66535Y-27755D01*
X66535Y-27755D02*
X66535Y-30118D01*
X66535Y-26771D02*
X63385Y-26771D01*
X63385Y-26771D02*
X63385Y-24409D01*
X63385Y-24409D02*
X66535Y-24409D01*
X66535Y-24409D02*
X66535Y-26771D01*
X66535Y-33464D02*
X63385Y-33464D01*
X63385Y-33464D02*
X63385Y-31102D01*
X63385Y-31102D02*
X66535Y-31102D01*
X66535Y-31102D02*
X66535Y-33464D01*
X44881Y-31889D02*
X44094Y-31889D01*
X49212Y-47834D02*
X45275Y-47834D01*
X45275Y-47834D02*
X45275Y-45472D01*
X45275Y-45472D02*
X49212Y-45472D01*
X49212Y-45472D02*
X49212Y-47834D01*
X52952Y-34251D02*
X53740Y-34251D01*
X44881Y-34251D02*
X44094Y-34251D01*
X39763Y-34251D02*
X38976Y-34251D01*
G54D15*
X32874Y-27165D02*
G75*
G03X32874Y-27165I-1575J0D01*
G74*
G01*
X32008Y-26693D02*
X32008Y-26378D01*
X31850Y-26535D02*
X32165Y-26535D01*
G54D14*
X39763Y-20222D02*
X39763Y-19472D01*
X39763Y-20722D02*
X39763Y-21472D01*
X40263Y-20722D02*
X39263Y-20722D01*
X40263Y-20222D02*
X40263Y-20472D01*
X40263Y-20472D02*
X39263Y-20472D01*
X39263Y-20472D02*
X39263Y-20222D01*
X39263Y-20222D02*
X40263Y-20222D01*
G54D15*
X40157Y-19488D02*
X40157Y-19881D01*
X39960Y-19685D02*
X40354Y-19685D01*
X42913Y-20472D02*
G75*
G03X42913Y-20472I-3150J0D01*
G74*
G01*
G54D14*
X34323Y-33976D02*
X35157Y-33976D01*
X35157Y-33976D02*
X35157Y-32027D01*
X35157Y-32027D02*
X34507Y-31377D01*
X34507Y-31377D02*
X34323Y-31377D01*
X33393Y-33976D02*
X32559Y-33976D01*
X32559Y-33976D02*
X32559Y-32027D01*
X32559Y-32027D02*
X33208Y-31377D01*
X33208Y-31377D02*
X33393Y-31377D01*
X34473Y-31027D02*
X34523Y-31077D01*
X34523Y-31077D02*
X34473Y-31127D01*
X34473Y-31127D02*
X34423Y-31077D01*
X34423Y-31077D02*
X34473Y-31027D01*
X47315Y-26889D02*
X48149Y-26889D01*
X48149Y-26889D02*
X48149Y-24940D01*
X48149Y-24940D02*
X47500Y-24291D01*
X47500Y-24291D02*
X47315Y-24291D01*
X46385Y-26889D02*
X45551Y-26889D01*
X45551Y-26889D02*
X45551Y-24940D01*
X45551Y-24940D02*
X46200Y-24291D01*
X46200Y-24291D02*
X46385Y-24291D01*
X47465Y-23941D02*
X47515Y-23991D01*
X47515Y-23991D02*
X47465Y-24041D01*
X47465Y-24041D02*
X47415Y-23991D01*
X47415Y-23991D02*
X47465Y-23941D01*
X52176Y-35798D02*
X52176Y-35854D01*
X52176Y-35854D02*
X52176Y-35798D01*
X52547Y-35798D02*
X52547Y-35854D01*
X52547Y-35854D02*
X52547Y-35798D01*
G54D15*
X62677Y-41338D02*
G75*
G03X62677Y-41338I-1260J0D01*
G74*
G01*
X62047Y-41063D02*
X62047Y-40748D01*
X61890Y-40905D02*
X62205Y-40905D01*
G54D14*
X49393Y-13385D02*
X48893Y-13385D01*
X51393Y-13385D02*
X51893Y-13385D01*
X51043Y-12885D02*
X51043Y-13835D01*
X51143Y-13885D02*
X51143Y-12885D01*
X49393Y-13885D02*
X51393Y-13885D01*
X51393Y-13885D02*
X51393Y-12885D01*
X51393Y-12885D02*
X49393Y-12885D01*
X49393Y-12885D02*
X49393Y-13885D01*
X31696Y-32289D02*
X31696Y-32489D01*
X31696Y-32489D02*
X31496Y-32489D01*
X31496Y-31289D02*
X31696Y-31289D01*
X31696Y-31289D02*
X31696Y-31489D01*
X44688Y-36423D02*
X44688Y-36623D01*
X44688Y-36623D02*
X44488Y-36623D01*
X44488Y-35423D02*
X44688Y-35423D01*
X44688Y-35423D02*
X44688Y-35623D01*
X31296Y-38576D02*
X31296Y-38376D01*
X31296Y-38376D02*
X31496Y-38376D01*
X31496Y-39576D02*
X31296Y-39576D01*
X31296Y-39576D02*
X31296Y-39376D01*
X31296Y-33064D02*
X31296Y-32864D01*
X31296Y-32864D02*
X31496Y-32864D01*
X31496Y-34064D02*
X31296Y-34064D01*
X31296Y-34064D02*
X31296Y-33864D01*
X31296Y-41725D02*
X31296Y-41525D01*
X31296Y-41525D02*
X31496Y-41525D01*
X31496Y-42725D02*
X31296Y-42725D01*
X31296Y-42725D02*
X31296Y-42525D01*
X31696Y-40951D02*
X31696Y-41151D01*
X31696Y-41151D02*
X31496Y-41151D01*
X31496Y-39951D02*
X31696Y-39951D01*
X31696Y-39951D02*
X31696Y-40151D01*
X35039Y-38779D02*
X35433Y-38779D01*
X35433Y-38779D02*
X35433Y-39763D01*
X33070Y-39763D02*
X33070Y-38779D01*
X33070Y-38779D02*
X33464Y-38779D01*
X44688Y-38195D02*
X44688Y-38395D01*
X44688Y-38395D02*
X44488Y-38395D01*
X44488Y-37195D02*
X44688Y-37195D01*
X44688Y-37195D02*
X44688Y-37395D01*
X45862Y-31489D02*
X45862Y-31289D01*
X45862Y-31289D02*
X46062Y-31289D01*
X46062Y-32489D02*
X45862Y-32489D01*
X45862Y-32489D02*
X45862Y-32289D01*
X49206Y-25987D02*
X49006Y-25987D01*
X49006Y-25987D02*
X49006Y-25787D01*
X50206Y-25787D02*
X50206Y-25987D01*
X50206Y-25987D02*
X50006Y-25987D01*
X52946Y-25987D02*
X52746Y-25987D01*
X52746Y-25987D02*
X52746Y-25787D01*
X53946Y-25787D02*
X53946Y-25987D01*
X53946Y-25987D02*
X53746Y-25987D01*
X55321Y-30705D02*
X55521Y-30705D01*
X55521Y-30705D02*
X55521Y-30905D01*
X54321Y-30905D02*
X54321Y-30705D01*
X54321Y-30705D02*
X54521Y-30705D01*
X29342Y-39263D02*
X29342Y-39476D01*
X29342Y-39476D02*
X29342Y-39263D01*
X29712Y-39263D02*
X29712Y-39476D01*
X29712Y-39476D02*
X29712Y-39263D01*
X33256Y-42232D02*
X33256Y-42019D01*
X33256Y-42019D02*
X33256Y-42232D01*
X32885Y-42232D02*
X32885Y-42019D01*
X32885Y-42019D02*
X32885Y-42232D01*
X31602Y-34853D02*
X31389Y-34853D01*
X31389Y-34853D02*
X31602Y-34853D01*
X31602Y-35224D02*
X31389Y-35224D01*
X31389Y-35224D02*
X31602Y-35224D01*
X31389Y-36012D02*
X31602Y-36012D01*
X31602Y-36012D02*
X31389Y-36012D01*
X31389Y-35641D02*
X31602Y-35641D01*
X31602Y-35641D02*
X31389Y-35641D01*
X39184Y-35720D02*
X39184Y-35933D01*
X39184Y-35933D02*
X39184Y-35720D01*
X39555Y-35720D02*
X39555Y-35933D01*
X39555Y-35933D02*
X39555Y-35720D01*
X38397Y-35720D02*
X38397Y-35933D01*
X38397Y-35933D02*
X38397Y-35720D01*
X38768Y-35720D02*
X38768Y-35933D01*
X38768Y-35933D02*
X38768Y-35720D01*
X42412Y-34043D02*
X42626Y-34043D01*
X42626Y-34043D02*
X42412Y-34043D01*
X42412Y-33672D02*
X42626Y-33672D01*
X42626Y-33672D02*
X42412Y-33672D01*
X42412Y-34831D02*
X42626Y-34831D01*
X42626Y-34831D02*
X42412Y-34831D01*
X42412Y-34460D02*
X42626Y-34460D01*
X42626Y-34460D02*
X42412Y-34460D01*
X45483Y-34145D02*
X45483Y-34358D01*
X45483Y-34358D02*
X45483Y-34145D01*
X45854Y-34145D02*
X45854Y-34358D01*
X45854Y-34358D02*
X45854Y-34145D01*
X42626Y-37609D02*
X42412Y-37609D01*
X42412Y-37609D02*
X42626Y-37609D01*
X42626Y-37980D02*
X42412Y-37980D01*
X42412Y-37980D02*
X42626Y-37980D01*
X42412Y-36996D02*
X42626Y-36996D01*
X42626Y-36996D02*
X42412Y-36996D01*
X42412Y-36625D02*
X42626Y-36625D01*
X42626Y-36625D02*
X42412Y-36625D01*
X42626Y-38594D02*
X42412Y-38594D01*
X42412Y-38594D02*
X42626Y-38594D01*
X42626Y-38964D02*
X42412Y-38964D01*
X42412Y-38964D02*
X42626Y-38964D01*
X49712Y-24224D02*
X49499Y-24224D01*
X49499Y-24224D02*
X49712Y-24224D01*
X49712Y-24594D02*
X49499Y-24594D01*
X49499Y-24594D02*
X49712Y-24594D01*
X53453Y-24224D02*
X53239Y-24224D01*
X53239Y-24224D02*
X53453Y-24224D01*
X53453Y-24594D02*
X53239Y-24594D01*
X53239Y-24594D02*
X53453Y-24594D01*
X63098Y-35247D02*
X62885Y-35247D01*
X62885Y-35247D02*
X63098Y-35247D01*
X63098Y-35618D02*
X62885Y-35618D01*
X62885Y-35618D02*
X63098Y-35618D01*
X63098Y-37216D02*
X62885Y-37216D01*
X62885Y-37216D02*
X63098Y-37216D01*
X63098Y-37587D02*
X62885Y-37587D01*
X62885Y-37587D02*
X63098Y-37587D01*
X35629Y-35236D02*
X35629Y-35629D01*
X36318Y-34645D02*
X37598Y-34645D01*
X37598Y-34645D02*
X37598Y-36220D01*
X37598Y-36220D02*
X36318Y-36220D01*
X35364Y-31283D02*
X35114Y-31033D01*
X35114Y-31033D02*
X35114Y-31283D01*
X35114Y-31283D02*
X35114Y-31533D01*
X35114Y-31533D02*
X35364Y-31283D01*
X35364Y-31283D02*
X35114Y-31283D01*
X37992Y-30314D02*
X37992Y-34251D01*
X37992Y-34251D02*
X35629Y-34251D01*
X35629Y-34251D02*
X35629Y-30314D01*
X35629Y-30314D02*
X37992Y-30314D01*
X49409Y-32874D02*
X49803Y-32874D01*
X48818Y-32185D02*
X48818Y-30905D01*
X48818Y-30905D02*
X50393Y-30905D01*
X50393Y-30905D02*
X50393Y-32185D01*
X48159Y-34433D02*
X47909Y-34183D01*
X47909Y-34183D02*
X47909Y-34433D01*
X47909Y-34433D02*
X47909Y-34683D01*
X47909Y-34683D02*
X48159Y-34433D01*
X48159Y-34433D02*
X47909Y-34433D01*
X50787Y-33464D02*
X50787Y-37401D01*
X50787Y-37401D02*
X48425Y-37401D01*
X48425Y-37401D02*
X48425Y-33464D01*
X48425Y-33464D02*
X50787Y-33464D01*
X63098Y-38397D02*
X62885Y-38397D01*
X62885Y-38397D02*
X63098Y-38397D01*
X63098Y-38768D02*
X62885Y-38768D01*
X62885Y-38768D02*
X63098Y-38768D01*
X52974Y-46888D02*
X53522Y-46888D01*
X53522Y-46888D02*
X52974Y-46888D01*
X52974Y-46025D02*
X53522Y-46025D01*
X53522Y-46025D02*
X52974Y-46025D01*
X54342Y-34145D02*
X54342Y-34358D01*
X54342Y-34358D02*
X54342Y-34145D01*
X54712Y-34145D02*
X54712Y-34358D01*
X54712Y-34358D02*
X54712Y-34145D01*
X45956Y-30697D02*
X46169Y-30697D01*
X46169Y-30697D02*
X45956Y-30697D01*
X45956Y-30326D02*
X46169Y-30326D01*
X46169Y-30326D02*
X45956Y-30326D01*
X51192Y-35720D02*
X51192Y-35933D01*
X51192Y-35933D02*
X51192Y-35720D01*
X51563Y-35720D02*
X51563Y-35933D01*
X51563Y-35933D02*
X51563Y-35720D01*
X38397Y-31783D02*
X38397Y-31996D01*
X38397Y-31996D02*
X38397Y-31783D01*
X38768Y-31783D02*
X38768Y-31996D01*
X38768Y-31996D02*
X38768Y-31783D01*
X59617Y-35224D02*
X59673Y-35224D01*
X59673Y-35224D02*
X59617Y-35224D01*
X59617Y-34853D02*
X59673Y-34853D01*
X59673Y-34853D02*
X59617Y-34853D01*
X38763Y-13385D02*
X38263Y-13385D01*
X40763Y-13385D02*
X41263Y-13385D01*
X40413Y-12885D02*
X40413Y-13835D01*
X40513Y-13885D02*
X40513Y-12885D01*
X38763Y-13885D02*
X40763Y-13885D01*
X40763Y-13885D02*
X40763Y-12885D01*
X40763Y-12885D02*
X38763Y-12885D01*
X38763Y-12885D02*
X38763Y-13885D01*
X44078Y-13385D02*
X43578Y-13385D01*
X46078Y-13385D02*
X46578Y-13385D01*
X45728Y-12885D02*
X45728Y-13835D01*
X45828Y-13885D02*
X45828Y-12885D01*
X44078Y-13885D02*
X46078Y-13885D01*
X46078Y-13885D02*
X46078Y-12885D01*
X46078Y-12885D02*
X44078Y-12885D01*
X44078Y-12885D02*
X44078Y-13885D01*
X44294Y-25400D02*
X44294Y-25600D01*
X44294Y-25600D02*
X44094Y-25600D01*
X44094Y-24400D02*
X44294Y-24400D01*
X44294Y-24400D02*
X44294Y-24600D01*
X44294Y-26974D02*
X44294Y-27174D01*
X44294Y-27174D02*
X44094Y-27174D01*
X44094Y-25974D02*
X44294Y-25974D01*
X44294Y-25974D02*
X44294Y-26174D01*
X54924Y-36226D02*
X54924Y-36426D01*
X54924Y-36426D02*
X54724Y-36426D01*
X54724Y-35226D02*
X54924Y-35226D01*
X54924Y-35226D02*
X54924Y-35426D01*
X47634Y-43694D02*
X47634Y-43494D01*
X47634Y-43494D02*
X47834Y-43494D01*
X47834Y-44694D02*
X47634Y-44694D01*
X47634Y-44694D02*
X47634Y-44494D01*
X60045Y-32477D02*
X60245Y-32477D01*
X60245Y-32477D02*
X60245Y-32677D01*
X59045Y-32677D02*
X59045Y-32477D01*
X59045Y-32477D02*
X59245Y-32477D01*
X60820Y-32877D02*
X60620Y-32877D01*
X60620Y-32877D02*
X60620Y-32677D01*
X61820Y-32677D02*
X61820Y-32877D01*
X61820Y-32877D02*
X61620Y-32877D01*
X57092Y-30705D02*
X57292Y-30705D01*
X57292Y-30705D02*
X57292Y-30905D01*
X56092Y-30905D02*
X56092Y-30705D01*
X56092Y-30705D02*
X56292Y-30705D01*
X44201Y-27767D02*
X43987Y-27767D01*
X43987Y-27767D02*
X44201Y-27767D01*
X44201Y-28138D02*
X43987Y-28138D01*
X43987Y-28138D02*
X44201Y-28138D01*
X59460Y-30208D02*
X59460Y-30421D01*
X59460Y-30421D02*
X59460Y-30208D01*
X59831Y-30208D02*
X59831Y-30421D01*
X59831Y-30421D02*
X59831Y-30208D01*
X60444Y-30208D02*
X60444Y-30421D01*
X60444Y-30421D02*
X60444Y-30208D01*
X60815Y-30208D02*
X60815Y-30421D01*
X60815Y-30421D02*
X60815Y-30208D01*
X59538Y-34240D02*
X59752Y-34240D01*
X59752Y-34240D02*
X59538Y-34240D01*
X59538Y-33869D02*
X59752Y-33869D01*
X59752Y-33869D02*
X59538Y-33869D01*
X54342Y-32570D02*
X54342Y-32783D01*
X54342Y-32783D02*
X54342Y-32570D01*
X54712Y-32570D02*
X54712Y-32783D01*
X54712Y-32783D02*
X54712Y-32570D01*
X55326Y-32570D02*
X55326Y-32783D01*
X55326Y-32783D02*
X55326Y-32570D01*
X55697Y-32570D02*
X55697Y-32783D01*
X55697Y-32783D02*
X55697Y-32570D01*
X62412Y-25483D02*
X62412Y-25697D01*
X62412Y-25697D02*
X62412Y-25483D01*
X62783Y-25483D02*
X62783Y-25697D01*
X62783Y-25697D02*
X62783Y-25483D01*
X45828Y-43820D02*
X45828Y-44368D01*
X45828Y-44368D02*
X45828Y-43820D01*
X46691Y-43820D02*
X46691Y-44368D01*
X46691Y-44368D02*
X46691Y-43820D01*
X53161Y-35720D02*
X53161Y-35933D01*
X53161Y-35933D02*
X53161Y-35720D01*
X53531Y-35720D02*
X53531Y-35933D01*
X53531Y-35933D02*
X53531Y-35720D01*
X39509Y-31655D02*
X39509Y-32124D01*
X39509Y-32124D02*
X39509Y-31655D01*
X40018Y-31655D02*
X40018Y-32124D01*
X40018Y-32124D02*
X40018Y-31655D01*
X40763Y-11811D02*
X41263Y-11811D01*
X38763Y-11811D02*
X38263Y-11811D01*
X39113Y-12311D02*
X39113Y-11361D01*
X39013Y-11311D02*
X39013Y-12311D01*
X40763Y-11311D02*
X38763Y-11311D01*
X38763Y-11311D02*
X38763Y-12311D01*
X38763Y-12311D02*
X40763Y-12311D01*
X40763Y-12311D02*
X40763Y-11311D01*
G54D13*
X62907Y-40138D02*
X62907Y-39745D01*
X63001Y-39745D01*
X63057Y-39763D01*
X63095Y-39801D01*
X63113Y-39838D01*
X63132Y-39913D01*
X63132Y-39970D01*
X63113Y-40044D01*
X63095Y-40082D01*
X63057Y-40119D01*
X63001Y-40138D01*
X62907Y-40138D01*
X63263Y-39745D02*
X63526Y-39745D01*
X63263Y-40138D01*
X63526Y-40138D01*
X63845Y-39876D02*
X63845Y-40138D01*
X63751Y-39726D02*
X63657Y-40007D01*
X63901Y-40007D01*
X34355Y-15138D02*
X34355Y-14745D01*
X34448Y-14745D01*
X34505Y-14763D01*
X34542Y-14801D01*
X34561Y-14838D01*
X34580Y-14913D01*
X34580Y-14970D01*
X34561Y-15044D01*
X34542Y-15082D01*
X34505Y-15119D01*
X34448Y-15138D01*
X34355Y-15138D01*
X34730Y-14782D02*
X34748Y-14763D01*
X34786Y-14745D01*
X34880Y-14745D01*
X34917Y-14763D01*
X34936Y-14782D01*
X34955Y-14820D01*
X34955Y-14857D01*
X34936Y-14913D01*
X34711Y-15138D01*
X34955Y-15138D01*
G54D11*
X34725Y-18839D02*
X34697Y-18811D01*
X34669Y-18755D01*
X34725Y-18642D01*
X34697Y-18586D01*
X34669Y-18558D01*
X34725Y-20839D02*
X34697Y-20811D01*
X34669Y-20755D01*
X34725Y-20642D01*
X34697Y-20586D01*
X34669Y-20558D01*
X34725Y-22910D02*
X34725Y-22460D01*
X34725Y-16910D02*
X34725Y-16460D01*
X34950Y-16685D02*
X34500Y-16685D01*
G54D16*
X63301Y-30690D02*
X63301Y-30296D01*
X63394Y-30296D01*
X63451Y-30314D01*
X63488Y-30352D01*
X63507Y-30389D01*
X63526Y-30464D01*
X63526Y-30521D01*
X63507Y-30596D01*
X63488Y-30633D01*
X63451Y-30671D01*
X63394Y-30690D01*
X63301Y-30690D01*
X63676Y-30671D02*
X63732Y-30690D01*
X63826Y-30690D01*
X63863Y-30671D01*
X63882Y-30652D01*
X63901Y-30615D01*
X63901Y-30577D01*
X63882Y-30539D01*
X63863Y-30521D01*
X63826Y-30502D01*
X63751Y-30483D01*
X63713Y-30464D01*
X63695Y-30446D01*
X63676Y-30408D01*
X63676Y-30371D01*
X63695Y-30333D01*
X63713Y-30314D01*
X63751Y-30296D01*
X63845Y-30296D01*
X63901Y-30314D01*
X64276Y-30690D02*
X64051Y-30690D01*
X64164Y-30690D02*
X64164Y-30296D01*
X64126Y-30352D01*
X64089Y-30389D01*
X64051Y-30408D01*
X63301Y-27343D02*
X63301Y-26949D01*
X63394Y-26949D01*
X63451Y-26968D01*
X63488Y-27005D01*
X63507Y-27043D01*
X63526Y-27118D01*
X63526Y-27174D01*
X63507Y-27249D01*
X63488Y-27287D01*
X63451Y-27324D01*
X63394Y-27343D01*
X63301Y-27343D01*
X63676Y-27324D02*
X63732Y-27343D01*
X63826Y-27343D01*
X63863Y-27324D01*
X63882Y-27306D01*
X63901Y-27268D01*
X63901Y-27231D01*
X63882Y-27193D01*
X63863Y-27174D01*
X63826Y-27155D01*
X63751Y-27137D01*
X63713Y-27118D01*
X63695Y-27099D01*
X63676Y-27062D01*
X63676Y-27024D01*
X63695Y-26987D01*
X63713Y-26968D01*
X63751Y-26949D01*
X63845Y-26949D01*
X63901Y-26968D01*
X64051Y-26987D02*
X64070Y-26968D01*
X64107Y-26949D01*
X64201Y-26949D01*
X64239Y-26968D01*
X64257Y-26987D01*
X64276Y-27024D01*
X64276Y-27062D01*
X64257Y-27118D01*
X64032Y-27343D01*
X64276Y-27343D01*
X63526Y-34036D02*
X63394Y-33848D01*
X63301Y-34036D02*
X63301Y-33642D01*
X63451Y-33642D01*
X63488Y-33661D01*
X63507Y-33680D01*
X63526Y-33717D01*
X63526Y-33773D01*
X63507Y-33811D01*
X63488Y-33830D01*
X63451Y-33848D01*
X63301Y-33848D01*
X63657Y-33642D02*
X63901Y-33642D01*
X63770Y-33792D01*
X63826Y-33792D01*
X63863Y-33811D01*
X63882Y-33830D01*
X63901Y-33867D01*
X63901Y-33961D01*
X63882Y-33998D01*
X63863Y-34017D01*
X63826Y-34036D01*
X63713Y-34036D01*
X63676Y-34017D01*
X63657Y-33998D01*
X64276Y-34036D02*
X64051Y-34036D01*
X64164Y-34036D02*
X64164Y-33642D01*
X64126Y-33698D01*
X64089Y-33736D01*
X64051Y-33755D01*
G54D13*
X44066Y-31219D02*
X44028Y-31200D01*
X43991Y-31163D01*
X43935Y-31107D01*
X43897Y-31088D01*
X43860Y-31088D01*
X43878Y-31182D02*
X43841Y-31163D01*
X43803Y-31125D01*
X43785Y-31050D01*
X43785Y-30919D01*
X43803Y-30844D01*
X43841Y-30807D01*
X43878Y-30788D01*
X43953Y-30788D01*
X43991Y-30807D01*
X44028Y-30844D01*
X44047Y-30919D01*
X44047Y-31050D01*
X44028Y-31125D01*
X43991Y-31163D01*
X43953Y-31182D01*
X43878Y-31182D01*
X44422Y-31182D02*
X44197Y-31182D01*
X44310Y-31182D02*
X44310Y-30788D01*
X44272Y-30844D01*
X44235Y-30882D01*
X44197Y-30900D01*
X44760Y-30788D02*
X44685Y-30788D01*
X44647Y-30807D01*
X44628Y-30825D01*
X44591Y-30882D01*
X44572Y-30957D01*
X44572Y-31107D01*
X44591Y-31144D01*
X44610Y-31163D01*
X44647Y-31182D01*
X44722Y-31182D01*
X44760Y-31163D01*
X44778Y-31144D01*
X44797Y-31107D01*
X44797Y-31013D01*
X44778Y-30975D01*
X44760Y-30957D01*
X44722Y-30938D01*
X44647Y-30938D01*
X44610Y-30957D01*
X44591Y-30975D01*
X44572Y-31013D01*
X44647Y-46672D02*
X44610Y-46653D01*
X44572Y-46616D01*
X44516Y-46559D01*
X44478Y-46541D01*
X44441Y-46541D01*
X44460Y-46634D02*
X44422Y-46616D01*
X44385Y-46578D01*
X44366Y-46503D01*
X44366Y-46372D01*
X44385Y-46297D01*
X44422Y-46259D01*
X44460Y-46241D01*
X44535Y-46241D01*
X44572Y-46259D01*
X44610Y-46297D01*
X44628Y-46372D01*
X44628Y-46503D01*
X44610Y-46578D01*
X44572Y-46616D01*
X44535Y-46634D01*
X44460Y-46634D01*
X44816Y-46634D02*
X44891Y-46634D01*
X44928Y-46616D01*
X44947Y-46597D01*
X44985Y-46541D01*
X45003Y-46466D01*
X45003Y-46316D01*
X44985Y-46278D01*
X44966Y-46259D01*
X44928Y-46241D01*
X44853Y-46241D01*
X44816Y-46259D01*
X44797Y-46278D01*
X44778Y-46316D01*
X44778Y-46409D01*
X44797Y-46447D01*
X44816Y-46466D01*
X44853Y-46484D01*
X44928Y-46484D01*
X44966Y-46466D01*
X44985Y-46447D01*
X45003Y-46409D01*
X53121Y-33483D02*
X53083Y-33464D01*
X53046Y-33427D01*
X52990Y-33370D01*
X52952Y-33352D01*
X52915Y-33352D01*
X52934Y-33445D02*
X52896Y-33427D01*
X52859Y-33389D01*
X52840Y-33314D01*
X52840Y-33183D01*
X52859Y-33108D01*
X52896Y-33070D01*
X52934Y-33052D01*
X53008Y-33052D01*
X53046Y-33070D01*
X53083Y-33108D01*
X53102Y-33183D01*
X53102Y-33314D01*
X53083Y-33389D01*
X53046Y-33427D01*
X53008Y-33445D01*
X52934Y-33445D01*
X53477Y-33445D02*
X53252Y-33445D01*
X53365Y-33445D02*
X53365Y-33052D01*
X53327Y-33108D01*
X53290Y-33145D01*
X53252Y-33164D01*
X53627Y-33089D02*
X53646Y-33070D01*
X53683Y-33052D01*
X53777Y-33052D01*
X53815Y-33070D01*
X53833Y-33089D01*
X53852Y-33127D01*
X53852Y-33164D01*
X53833Y-33220D01*
X53608Y-33445D01*
X53852Y-33445D01*
X44155Y-33581D02*
X44117Y-33562D01*
X44080Y-33525D01*
X44024Y-33469D01*
X43986Y-33450D01*
X43949Y-33450D01*
X43967Y-33544D02*
X43930Y-33525D01*
X43892Y-33488D01*
X43874Y-33413D01*
X43874Y-33281D01*
X43892Y-33206D01*
X43930Y-33169D01*
X43967Y-33150D01*
X44042Y-33150D01*
X44080Y-33169D01*
X44117Y-33206D01*
X44136Y-33281D01*
X44136Y-33413D01*
X44117Y-33488D01*
X44080Y-33525D01*
X44042Y-33544D01*
X43967Y-33544D01*
X44492Y-33150D02*
X44305Y-33150D01*
X44286Y-33338D01*
X44305Y-33319D01*
X44342Y-33300D01*
X44436Y-33300D01*
X44474Y-33319D01*
X44492Y-33338D01*
X44511Y-33375D01*
X44511Y-33469D01*
X44492Y-33506D01*
X44474Y-33525D01*
X44436Y-33544D01*
X44342Y-33544D01*
X44305Y-33525D01*
X44286Y-33506D01*
X39332Y-33483D02*
X39295Y-33464D01*
X39257Y-33427D01*
X39201Y-33370D01*
X39163Y-33352D01*
X39126Y-33352D01*
X39145Y-33445D02*
X39107Y-33427D01*
X39070Y-33389D01*
X39051Y-33314D01*
X39051Y-33183D01*
X39070Y-33108D01*
X39107Y-33070D01*
X39145Y-33052D01*
X39220Y-33052D01*
X39257Y-33070D01*
X39295Y-33108D01*
X39313Y-33183D01*
X39313Y-33314D01*
X39295Y-33389D01*
X39257Y-33427D01*
X39220Y-33445D01*
X39145Y-33445D01*
X39651Y-33183D02*
X39651Y-33445D01*
X39557Y-33033D02*
X39463Y-33314D01*
X39707Y-33314D01*
X31233Y-25337D02*
X31214Y-25356D01*
X31158Y-25374D01*
X31121Y-25374D01*
X31064Y-25356D01*
X31027Y-25318D01*
X31008Y-25281D01*
X30989Y-25206D01*
X30989Y-25149D01*
X31008Y-25074D01*
X31027Y-25037D01*
X31064Y-25000D01*
X31121Y-24981D01*
X31158Y-24981D01*
X31214Y-25000D01*
X31233Y-25018D01*
X31608Y-25374D02*
X31383Y-25374D01*
X31496Y-25374D02*
X31496Y-24981D01*
X31458Y-25037D01*
X31421Y-25074D01*
X31383Y-25093D01*
X37532Y-17660D02*
X37514Y-17679D01*
X37457Y-17697D01*
X37420Y-17697D01*
X37364Y-17679D01*
X37326Y-17641D01*
X37307Y-17604D01*
X37289Y-17529D01*
X37289Y-17472D01*
X37307Y-17397D01*
X37326Y-17360D01*
X37364Y-17322D01*
X37420Y-17304D01*
X37457Y-17304D01*
X37514Y-17322D01*
X37532Y-17341D01*
X37682Y-17341D02*
X37701Y-17322D01*
X37739Y-17304D01*
X37832Y-17304D01*
X37870Y-17322D01*
X37889Y-17341D01*
X37907Y-17379D01*
X37907Y-17416D01*
X37889Y-17472D01*
X37664Y-17697D01*
X37907Y-17697D01*
X33792Y-30849D02*
X33773Y-30868D01*
X33717Y-30886D01*
X33680Y-30886D01*
X33623Y-30868D01*
X33586Y-30830D01*
X33567Y-30793D01*
X33548Y-30718D01*
X33548Y-30661D01*
X33567Y-30586D01*
X33586Y-30549D01*
X33623Y-30511D01*
X33680Y-30493D01*
X33717Y-30493D01*
X33773Y-30511D01*
X33792Y-30530D01*
X33923Y-30493D02*
X34167Y-30493D01*
X34036Y-30643D01*
X34092Y-30643D01*
X34130Y-30661D01*
X34148Y-30680D01*
X34167Y-30718D01*
X34167Y-30811D01*
X34148Y-30849D01*
X34130Y-30868D01*
X34092Y-30886D01*
X33980Y-30886D01*
X33942Y-30868D01*
X33923Y-30849D01*
X45800Y-24156D02*
X45781Y-24175D01*
X45725Y-24193D01*
X45688Y-24193D01*
X45631Y-24175D01*
X45594Y-24137D01*
X45575Y-24100D01*
X45556Y-24025D01*
X45556Y-23968D01*
X45575Y-23893D01*
X45594Y-23856D01*
X45631Y-23818D01*
X45688Y-23800D01*
X45725Y-23800D01*
X45781Y-23818D01*
X45800Y-23837D01*
X46137Y-23800D02*
X46062Y-23800D01*
X46025Y-23818D01*
X46006Y-23837D01*
X45969Y-23893D01*
X45950Y-23968D01*
X45950Y-24118D01*
X45969Y-24156D01*
X45988Y-24175D01*
X46025Y-24193D01*
X46100Y-24193D01*
X46137Y-24175D01*
X46156Y-24156D01*
X46175Y-24118D01*
X46175Y-24025D01*
X46156Y-23987D01*
X46137Y-23968D01*
X46100Y-23950D01*
X46025Y-23950D01*
X45988Y-23968D01*
X45969Y-23987D01*
X45950Y-24025D01*
X52198Y-37148D02*
X52179Y-37167D01*
X52123Y-37185D01*
X52085Y-37185D01*
X52029Y-37167D01*
X51991Y-37129D01*
X51973Y-37092D01*
X51954Y-37017D01*
X51954Y-36961D01*
X51973Y-36886D01*
X51991Y-36848D01*
X52029Y-36811D01*
X52085Y-36792D01*
X52123Y-36792D01*
X52179Y-36811D01*
X52198Y-36829D01*
X52329Y-36792D02*
X52591Y-36792D01*
X52423Y-37185D01*
X61351Y-39707D02*
X61332Y-39726D01*
X61276Y-39745D01*
X61239Y-39745D01*
X61182Y-39726D01*
X61145Y-39688D01*
X61126Y-39651D01*
X61107Y-39576D01*
X61107Y-39520D01*
X61126Y-39445D01*
X61145Y-39407D01*
X61182Y-39370D01*
X61239Y-39351D01*
X61276Y-39351D01*
X61332Y-39370D01*
X61351Y-39388D01*
X61576Y-39520D02*
X61539Y-39501D01*
X61520Y-39482D01*
X61501Y-39445D01*
X61501Y-39426D01*
X61520Y-39388D01*
X61539Y-39370D01*
X61576Y-39351D01*
X61651Y-39351D01*
X61689Y-39370D01*
X61707Y-39388D01*
X61726Y-39426D01*
X61726Y-39445D01*
X61707Y-39482D01*
X61689Y-39501D01*
X61651Y-39520D01*
X61576Y-39520D01*
X61539Y-39538D01*
X61520Y-39557D01*
X61501Y-39595D01*
X61501Y-39670D01*
X61520Y-39707D01*
X61539Y-39726D01*
X61576Y-39745D01*
X61651Y-39745D01*
X61689Y-39726D01*
X61707Y-39707D01*
X61726Y-39670D01*
X61726Y-39595D01*
X61707Y-39557D01*
X61689Y-39538D01*
X61651Y-39520D01*
X50103Y-14548D02*
X50103Y-14154D01*
X50196Y-14154D01*
X50253Y-14173D01*
X50290Y-14210D01*
X50309Y-14248D01*
X50328Y-14323D01*
X50328Y-14379D01*
X50309Y-14454D01*
X50290Y-14491D01*
X50253Y-14529D01*
X50196Y-14548D01*
X50103Y-14548D01*
X50703Y-14548D02*
X50478Y-14548D01*
X50590Y-14548D02*
X50590Y-14154D01*
X50553Y-14210D01*
X50515Y-14248D01*
X50478Y-14266D01*
X29630Y-32067D02*
X29630Y-31674D01*
X29724Y-31674D01*
X29780Y-31692D01*
X29818Y-31730D01*
X29836Y-31767D01*
X29855Y-31842D01*
X29855Y-31899D01*
X29836Y-31974D01*
X29818Y-32011D01*
X29780Y-32049D01*
X29724Y-32067D01*
X29630Y-32067D01*
X29986Y-31674D02*
X30230Y-31674D01*
X30099Y-31824D01*
X30155Y-31824D01*
X30193Y-31842D01*
X30211Y-31861D01*
X30230Y-31899D01*
X30230Y-31992D01*
X30211Y-32030D01*
X30193Y-32049D01*
X30155Y-32067D01*
X30043Y-32067D01*
X30005Y-32049D01*
X29986Y-32030D01*
X45477Y-36201D02*
X45477Y-35808D01*
X45570Y-35808D01*
X45627Y-35826D01*
X45664Y-35864D01*
X45683Y-35901D01*
X45702Y-35976D01*
X45702Y-36032D01*
X45683Y-36107D01*
X45664Y-36145D01*
X45627Y-36182D01*
X45570Y-36201D01*
X45477Y-36201D01*
X46039Y-35939D02*
X46039Y-36201D01*
X45945Y-35789D02*
X45852Y-36070D01*
X46095Y-36070D01*
X31017Y-38071D02*
X31017Y-37678D01*
X31111Y-37678D01*
X31167Y-37696D01*
X31205Y-37734D01*
X31224Y-37771D01*
X31242Y-37846D01*
X31242Y-37903D01*
X31224Y-37978D01*
X31205Y-38015D01*
X31167Y-38053D01*
X31111Y-38071D01*
X31017Y-38071D01*
X31374Y-37678D02*
X31636Y-37678D01*
X31374Y-38071D01*
X31636Y-38071D01*
X31992Y-38071D02*
X31767Y-38071D01*
X31880Y-38071D02*
X31880Y-37678D01*
X31842Y-37734D01*
X31805Y-37771D01*
X31767Y-37790D01*
X29443Y-33642D02*
X29443Y-33248D01*
X29536Y-33248D01*
X29593Y-33267D01*
X29630Y-33305D01*
X29649Y-33342D01*
X29668Y-33417D01*
X29668Y-33473D01*
X29649Y-33548D01*
X29630Y-33586D01*
X29593Y-33623D01*
X29536Y-33642D01*
X29443Y-33642D01*
X29799Y-33248D02*
X30061Y-33248D01*
X29799Y-33642D01*
X30061Y-33642D01*
X30193Y-33286D02*
X30211Y-33267D01*
X30249Y-33248D01*
X30343Y-33248D01*
X30380Y-33267D01*
X30399Y-33286D01*
X30418Y-33323D01*
X30418Y-33361D01*
X30399Y-33417D01*
X30174Y-33642D01*
X30418Y-33642D01*
X30157Y-19426D02*
X30157Y-19763D01*
X30134Y-19831D01*
X30089Y-19876D01*
X30022Y-19898D01*
X29977Y-19898D01*
X30337Y-19426D02*
X30629Y-19426D01*
X30472Y-19606D01*
X30539Y-19606D01*
X30584Y-19628D01*
X30607Y-19651D01*
X30629Y-19696D01*
X30629Y-19808D01*
X30607Y-19853D01*
X30584Y-19876D01*
X30539Y-19898D01*
X30404Y-19898D01*
X30359Y-19876D01*
X30337Y-19853D01*
X30157Y-21394D02*
X30157Y-21732D01*
X30134Y-21799D01*
X30089Y-21844D01*
X30022Y-21867D01*
X29977Y-21867D01*
X30584Y-21552D02*
X30584Y-21867D01*
X30472Y-21372D02*
X30359Y-21709D01*
X30652Y-21709D01*
X30157Y-23363D02*
X30157Y-23700D01*
X30134Y-23768D01*
X30089Y-23813D01*
X30022Y-23835D01*
X29977Y-23835D01*
X30607Y-23363D02*
X30382Y-23363D01*
X30359Y-23588D01*
X30382Y-23565D01*
X30427Y-23543D01*
X30539Y-23543D01*
X30584Y-23565D01*
X30607Y-23588D01*
X30629Y-23633D01*
X30629Y-23745D01*
X30607Y-23790D01*
X30584Y-23813D01*
X30539Y-23835D01*
X30427Y-23835D01*
X30382Y-23813D01*
X30359Y-23790D01*
X65803Y-35174D02*
X65803Y-35511D01*
X65780Y-35579D01*
X65735Y-35624D01*
X65668Y-35646D01*
X65623Y-35646D01*
X66230Y-35174D02*
X66140Y-35174D01*
X66095Y-35196D01*
X66073Y-35219D01*
X66028Y-35286D01*
X66005Y-35376D01*
X66005Y-35556D01*
X66028Y-35601D01*
X66050Y-35624D01*
X66095Y-35646D01*
X66185Y-35646D01*
X66230Y-35624D01*
X66253Y-35601D01*
X66275Y-35556D01*
X66275Y-35444D01*
X66253Y-35399D01*
X66230Y-35376D01*
X66185Y-35354D01*
X66095Y-35354D01*
X66050Y-35376D01*
X66028Y-35399D01*
X66005Y-35444D01*
X65803Y-37142D02*
X65803Y-37480D01*
X65780Y-37547D01*
X65735Y-37592D01*
X65668Y-37615D01*
X65623Y-37615D01*
X65983Y-37142D02*
X66298Y-37142D01*
X66095Y-37615D01*
X65803Y-40095D02*
X65803Y-40433D01*
X65780Y-40500D01*
X65735Y-40545D01*
X65668Y-40568D01*
X65623Y-40568D01*
X66095Y-40298D02*
X66050Y-40275D01*
X66028Y-40253D01*
X66005Y-40208D01*
X66005Y-40185D01*
X66028Y-40140D01*
X66050Y-40118D01*
X66095Y-40095D01*
X66185Y-40095D01*
X66230Y-40118D01*
X66253Y-40140D01*
X66275Y-40185D01*
X66275Y-40208D01*
X66253Y-40253D01*
X66230Y-40275D01*
X66185Y-40298D01*
X66095Y-40298D01*
X66050Y-40320D01*
X66028Y-40343D01*
X66005Y-40388D01*
X66005Y-40478D01*
X66028Y-40523D01*
X66050Y-40545D01*
X66095Y-40568D01*
X66185Y-40568D01*
X66230Y-40545D01*
X66253Y-40523D01*
X66275Y-40478D01*
X66275Y-40388D01*
X66253Y-40343D01*
X66230Y-40320D01*
X66185Y-40298D01*
X65803Y-42064D02*
X65803Y-42401D01*
X65780Y-42469D01*
X65735Y-42514D01*
X65668Y-42536D01*
X65623Y-42536D01*
X66050Y-42536D02*
X66140Y-42536D01*
X66185Y-42514D01*
X66208Y-42491D01*
X66253Y-42424D01*
X66275Y-42334D01*
X66275Y-42154D01*
X66253Y-42109D01*
X66230Y-42086D01*
X66185Y-42064D01*
X66095Y-42064D01*
X66050Y-42086D01*
X66028Y-42109D01*
X66005Y-42154D01*
X66005Y-42266D01*
X66028Y-42311D01*
X66050Y-42334D01*
X66095Y-42356D01*
X66185Y-42356D01*
X66230Y-42334D01*
X66253Y-42311D01*
X66275Y-42266D01*
X30080Y-42341D02*
X30043Y-42322D01*
X30005Y-42285D01*
X29949Y-42229D01*
X29911Y-42210D01*
X29874Y-42210D01*
X29893Y-42304D02*
X29855Y-42285D01*
X29818Y-42247D01*
X29799Y-42172D01*
X29799Y-42041D01*
X29818Y-41966D01*
X29855Y-41929D01*
X29893Y-41910D01*
X29968Y-41910D01*
X30005Y-41929D01*
X30043Y-41966D01*
X30061Y-42041D01*
X30061Y-42172D01*
X30043Y-42247D01*
X30005Y-42285D01*
X29968Y-42304D01*
X29893Y-42304D01*
X30436Y-42304D02*
X30211Y-42304D01*
X30324Y-42304D02*
X30324Y-41910D01*
X30286Y-41966D01*
X30249Y-42004D01*
X30211Y-42022D01*
X30080Y-40766D02*
X30043Y-40748D01*
X30005Y-40710D01*
X29949Y-40654D01*
X29911Y-40635D01*
X29874Y-40635D01*
X29893Y-40729D02*
X29855Y-40710D01*
X29818Y-40673D01*
X29799Y-40598D01*
X29799Y-40466D01*
X29818Y-40391D01*
X29855Y-40354D01*
X29893Y-40335D01*
X29968Y-40335D01*
X30005Y-40354D01*
X30043Y-40391D01*
X30061Y-40466D01*
X30061Y-40598D01*
X30043Y-40673D01*
X30005Y-40710D01*
X29968Y-40729D01*
X29893Y-40729D01*
X30211Y-40373D02*
X30230Y-40354D01*
X30268Y-40335D01*
X30361Y-40335D01*
X30399Y-40354D01*
X30418Y-40373D01*
X30436Y-40410D01*
X30436Y-40448D01*
X30418Y-40504D01*
X30193Y-40729D01*
X30436Y-40729D01*
X34214Y-41849D02*
X34176Y-41830D01*
X34139Y-41793D01*
X34083Y-41736D01*
X34045Y-41718D01*
X34008Y-41718D01*
X34026Y-41811D02*
X33989Y-41793D01*
X33952Y-41755D01*
X33933Y-41680D01*
X33933Y-41549D01*
X33952Y-41474D01*
X33989Y-41437D01*
X34026Y-41418D01*
X34101Y-41418D01*
X34139Y-41437D01*
X34176Y-41474D01*
X34195Y-41549D01*
X34195Y-41680D01*
X34176Y-41755D01*
X34139Y-41793D01*
X34101Y-41811D01*
X34026Y-41811D01*
X34326Y-41418D02*
X34570Y-41418D01*
X34439Y-41568D01*
X34495Y-41568D01*
X34533Y-41586D01*
X34551Y-41605D01*
X34570Y-41643D01*
X34570Y-41736D01*
X34551Y-41774D01*
X34533Y-41793D01*
X34495Y-41811D01*
X34383Y-41811D01*
X34345Y-41793D01*
X34326Y-41774D01*
X45730Y-38010D02*
X45692Y-37992D01*
X45655Y-37954D01*
X45598Y-37898D01*
X45561Y-37879D01*
X45523Y-37879D01*
X45542Y-37973D02*
X45505Y-37954D01*
X45467Y-37917D01*
X45449Y-37842D01*
X45449Y-37710D01*
X45467Y-37635D01*
X45505Y-37598D01*
X45542Y-37579D01*
X45617Y-37579D01*
X45655Y-37598D01*
X45692Y-37635D01*
X45711Y-37710D01*
X45711Y-37842D01*
X45692Y-37917D01*
X45655Y-37954D01*
X45617Y-37973D01*
X45542Y-37973D01*
X46048Y-37579D02*
X45973Y-37579D01*
X45936Y-37598D01*
X45917Y-37617D01*
X45880Y-37673D01*
X45861Y-37748D01*
X45861Y-37898D01*
X45880Y-37935D01*
X45898Y-37954D01*
X45936Y-37973D01*
X46011Y-37973D01*
X46048Y-37954D01*
X46067Y-37935D01*
X46086Y-37898D01*
X46086Y-37804D01*
X46067Y-37767D01*
X46048Y-37748D01*
X46011Y-37729D01*
X45936Y-37729D01*
X45898Y-37748D01*
X45880Y-37767D01*
X45861Y-37804D01*
X46025Y-33188D02*
X45988Y-33169D01*
X45950Y-33131D01*
X45894Y-33075D01*
X45856Y-33056D01*
X45819Y-33056D01*
X45838Y-33150D02*
X45800Y-33131D01*
X45763Y-33094D01*
X45744Y-33019D01*
X45744Y-32888D01*
X45763Y-32813D01*
X45800Y-32775D01*
X45838Y-32756D01*
X45913Y-32756D01*
X45950Y-32775D01*
X45988Y-32813D01*
X46006Y-32888D01*
X46006Y-33019D01*
X45988Y-33094D01*
X45950Y-33131D01*
X45913Y-33150D01*
X45838Y-33150D01*
X46137Y-32756D02*
X46400Y-32756D01*
X46231Y-33150D01*
X49381Y-27184D02*
X49343Y-27165D01*
X49306Y-27127D01*
X49250Y-27071D01*
X49212Y-27052D01*
X49175Y-27052D01*
X49193Y-27146D02*
X49156Y-27127D01*
X49118Y-27090D01*
X49100Y-27015D01*
X49100Y-26884D01*
X49118Y-26809D01*
X49156Y-26771D01*
X49193Y-26752D01*
X49268Y-26752D01*
X49306Y-26771D01*
X49343Y-26809D01*
X49362Y-26884D01*
X49362Y-27015D01*
X49343Y-27090D01*
X49306Y-27127D01*
X49268Y-27146D01*
X49193Y-27146D01*
X49737Y-27146D02*
X49512Y-27146D01*
X49625Y-27146D02*
X49625Y-26752D01*
X49587Y-26809D01*
X49550Y-26846D01*
X49512Y-26865D01*
X49981Y-26752D02*
X50018Y-26752D01*
X50056Y-26771D01*
X50074Y-26790D01*
X50093Y-26827D01*
X50112Y-26902D01*
X50112Y-26996D01*
X50093Y-27071D01*
X50074Y-27109D01*
X50056Y-27127D01*
X50018Y-27146D01*
X49981Y-27146D01*
X49943Y-27127D01*
X49925Y-27109D01*
X49906Y-27071D01*
X49887Y-26996D01*
X49887Y-26902D01*
X49906Y-26827D01*
X49925Y-26790D01*
X49943Y-26771D01*
X49981Y-26752D01*
X53121Y-27184D02*
X53083Y-27165D01*
X53046Y-27127D01*
X52990Y-27071D01*
X52952Y-27052D01*
X52915Y-27052D01*
X52934Y-27146D02*
X52896Y-27127D01*
X52859Y-27090D01*
X52840Y-27015D01*
X52840Y-26884D01*
X52859Y-26809D01*
X52896Y-26771D01*
X52934Y-26752D01*
X53008Y-26752D01*
X53046Y-26771D01*
X53083Y-26809D01*
X53102Y-26884D01*
X53102Y-27015D01*
X53083Y-27090D01*
X53046Y-27127D01*
X53008Y-27146D01*
X52934Y-27146D01*
X53477Y-27146D02*
X53252Y-27146D01*
X53365Y-27146D02*
X53365Y-26752D01*
X53327Y-26809D01*
X53290Y-26846D01*
X53252Y-26865D01*
X53852Y-27146D02*
X53627Y-27146D01*
X53740Y-27146D02*
X53740Y-26752D01*
X53702Y-26809D01*
X53665Y-26846D01*
X53627Y-26865D01*
X54696Y-29940D02*
X54658Y-29921D01*
X54621Y-29883D01*
X54565Y-29827D01*
X54527Y-29808D01*
X54490Y-29808D01*
X54508Y-29902D02*
X54471Y-29883D01*
X54433Y-29846D01*
X54415Y-29771D01*
X54415Y-29640D01*
X54433Y-29565D01*
X54471Y-29527D01*
X54508Y-29508D01*
X54583Y-29508D01*
X54621Y-29527D01*
X54658Y-29565D01*
X54677Y-29640D01*
X54677Y-29771D01*
X54658Y-29846D01*
X54621Y-29883D01*
X54583Y-29902D01*
X54508Y-29902D01*
X55052Y-29902D02*
X54827Y-29902D01*
X54940Y-29902D02*
X54940Y-29508D01*
X54902Y-29565D01*
X54865Y-29602D01*
X54827Y-29621D01*
X55183Y-29508D02*
X55427Y-29508D01*
X55296Y-29658D01*
X55352Y-29658D01*
X55389Y-29677D01*
X55408Y-29696D01*
X55427Y-29733D01*
X55427Y-29827D01*
X55408Y-29865D01*
X55389Y-29883D01*
X55352Y-29902D01*
X55239Y-29902D01*
X55202Y-29883D01*
X55183Y-29865D01*
X29461Y-38465D02*
X29330Y-38278D01*
X29236Y-38465D02*
X29236Y-38071D01*
X29386Y-38071D01*
X29424Y-38090D01*
X29443Y-38109D01*
X29461Y-38146D01*
X29461Y-38203D01*
X29443Y-38240D01*
X29424Y-38259D01*
X29386Y-38278D01*
X29236Y-38278D01*
X29836Y-38465D02*
X29611Y-38465D01*
X29724Y-38465D02*
X29724Y-38071D01*
X29686Y-38128D01*
X29649Y-38165D01*
X29611Y-38184D01*
X33005Y-43485D02*
X32874Y-43297D01*
X32780Y-43485D02*
X32780Y-43091D01*
X32930Y-43091D01*
X32967Y-43110D01*
X32986Y-43128D01*
X33005Y-43166D01*
X33005Y-43222D01*
X32986Y-43260D01*
X32967Y-43278D01*
X32930Y-43297D01*
X32780Y-43297D01*
X33155Y-43128D02*
X33173Y-43110D01*
X33211Y-43091D01*
X33305Y-43091D01*
X33342Y-43110D01*
X33361Y-43128D01*
X33380Y-43166D01*
X33380Y-43203D01*
X33361Y-43260D01*
X33136Y-43485D01*
X33380Y-43485D01*
X29855Y-35217D02*
X29724Y-35029D01*
X29630Y-35217D02*
X29630Y-34823D01*
X29780Y-34823D01*
X29818Y-34842D01*
X29836Y-34861D01*
X29855Y-34898D01*
X29855Y-34955D01*
X29836Y-34992D01*
X29818Y-35011D01*
X29780Y-35029D01*
X29630Y-35029D01*
X29986Y-34823D02*
X30230Y-34823D01*
X30099Y-34973D01*
X30155Y-34973D01*
X30193Y-34992D01*
X30211Y-35011D01*
X30230Y-35048D01*
X30230Y-35142D01*
X30211Y-35179D01*
X30193Y-35198D01*
X30155Y-35217D01*
X30043Y-35217D01*
X30005Y-35198D01*
X29986Y-35179D01*
X29855Y-36004D02*
X29724Y-35817D01*
X29630Y-36004D02*
X29630Y-35611D01*
X29780Y-35611D01*
X29818Y-35629D01*
X29836Y-35648D01*
X29855Y-35686D01*
X29855Y-35742D01*
X29836Y-35779D01*
X29818Y-35798D01*
X29780Y-35817D01*
X29630Y-35817D01*
X30193Y-35742D02*
X30193Y-36004D01*
X30099Y-35592D02*
X30005Y-35873D01*
X30249Y-35873D01*
X39402Y-37185D02*
X39271Y-36998D01*
X39177Y-37185D02*
X39177Y-36792D01*
X39327Y-36792D01*
X39365Y-36811D01*
X39384Y-36829D01*
X39402Y-36867D01*
X39402Y-36923D01*
X39384Y-36961D01*
X39365Y-36979D01*
X39327Y-36998D01*
X39177Y-36998D01*
X39759Y-36792D02*
X39571Y-36792D01*
X39552Y-36979D01*
X39571Y-36961D01*
X39609Y-36942D01*
X39702Y-36942D01*
X39740Y-36961D01*
X39759Y-36979D01*
X39777Y-37017D01*
X39777Y-37110D01*
X39759Y-37148D01*
X39740Y-37167D01*
X39702Y-37185D01*
X39609Y-37185D01*
X39571Y-37167D01*
X39552Y-37148D01*
X38418Y-37185D02*
X38287Y-36998D01*
X38193Y-37185D02*
X38193Y-36792D01*
X38343Y-36792D01*
X38381Y-36811D01*
X38399Y-36829D01*
X38418Y-36867D01*
X38418Y-36923D01*
X38399Y-36961D01*
X38381Y-36979D01*
X38343Y-36998D01*
X38193Y-36998D01*
X38756Y-36792D02*
X38681Y-36792D01*
X38643Y-36811D01*
X38624Y-36829D01*
X38587Y-36886D01*
X38568Y-36961D01*
X38568Y-37110D01*
X38587Y-37148D01*
X38606Y-37167D01*
X38643Y-37185D01*
X38718Y-37185D01*
X38756Y-37167D01*
X38774Y-37148D01*
X38793Y-37110D01*
X38793Y-37017D01*
X38774Y-36979D01*
X38756Y-36961D01*
X38718Y-36942D01*
X38643Y-36942D01*
X38606Y-36961D01*
X38587Y-36979D01*
X38568Y-37017D01*
X41371Y-34036D02*
X41240Y-33848D01*
X41146Y-34036D02*
X41146Y-33642D01*
X41296Y-33642D01*
X41333Y-33661D01*
X41352Y-33680D01*
X41371Y-33717D01*
X41371Y-33773D01*
X41352Y-33811D01*
X41333Y-33830D01*
X41296Y-33848D01*
X41146Y-33848D01*
X41502Y-33642D02*
X41765Y-33642D01*
X41596Y-34036D01*
X41371Y-34823D02*
X41240Y-34636D01*
X41146Y-34823D02*
X41146Y-34430D01*
X41296Y-34430D01*
X41333Y-34448D01*
X41352Y-34467D01*
X41371Y-34505D01*
X41371Y-34561D01*
X41352Y-34598D01*
X41333Y-34617D01*
X41296Y-34636D01*
X41146Y-34636D01*
X41596Y-34598D02*
X41558Y-34580D01*
X41540Y-34561D01*
X41521Y-34523D01*
X41521Y-34505D01*
X41540Y-34467D01*
X41558Y-34448D01*
X41596Y-34430D01*
X41671Y-34430D01*
X41708Y-34448D01*
X41727Y-34467D01*
X41746Y-34505D01*
X41746Y-34523D01*
X41727Y-34561D01*
X41708Y-34580D01*
X41671Y-34598D01*
X41596Y-34598D01*
X41558Y-34617D01*
X41540Y-34636D01*
X41521Y-34673D01*
X41521Y-34748D01*
X41540Y-34786D01*
X41558Y-34805D01*
X41596Y-34823D01*
X41671Y-34823D01*
X41708Y-34805D01*
X41727Y-34786D01*
X41746Y-34748D01*
X41746Y-34673D01*
X41727Y-34636D01*
X41708Y-34617D01*
X41671Y-34598D01*
X46391Y-34430D02*
X46259Y-34242D01*
X46166Y-34430D02*
X46166Y-34036D01*
X46316Y-34036D01*
X46353Y-34055D01*
X46372Y-34073D01*
X46391Y-34111D01*
X46391Y-34167D01*
X46372Y-34205D01*
X46353Y-34223D01*
X46316Y-34242D01*
X46166Y-34242D01*
X46578Y-34430D02*
X46653Y-34430D01*
X46691Y-34411D01*
X46709Y-34392D01*
X46747Y-34336D01*
X46766Y-34261D01*
X46766Y-34111D01*
X46747Y-34073D01*
X46728Y-34055D01*
X46691Y-34036D01*
X46616Y-34036D01*
X46578Y-34055D01*
X46559Y-34073D01*
X46541Y-34111D01*
X46541Y-34205D01*
X46559Y-34242D01*
X46578Y-34261D01*
X46616Y-34280D01*
X46691Y-34280D01*
X46728Y-34261D01*
X46747Y-34242D01*
X46766Y-34205D01*
X40888Y-37973D02*
X40757Y-37785D01*
X40663Y-37973D02*
X40663Y-37579D01*
X40813Y-37579D01*
X40851Y-37598D01*
X40869Y-37617D01*
X40888Y-37654D01*
X40888Y-37710D01*
X40869Y-37748D01*
X40851Y-37767D01*
X40813Y-37785D01*
X40663Y-37785D01*
X41263Y-37973D02*
X41038Y-37973D01*
X41151Y-37973D02*
X41151Y-37579D01*
X41113Y-37635D01*
X41076Y-37673D01*
X41038Y-37692D01*
X41507Y-37579D02*
X41544Y-37579D01*
X41582Y-37598D01*
X41601Y-37617D01*
X41619Y-37654D01*
X41638Y-37729D01*
X41638Y-37823D01*
X41619Y-37898D01*
X41601Y-37935D01*
X41582Y-37954D01*
X41544Y-37973D01*
X41507Y-37973D01*
X41469Y-37954D01*
X41451Y-37935D01*
X41432Y-37898D01*
X41413Y-37823D01*
X41413Y-37729D01*
X41432Y-37654D01*
X41451Y-37617D01*
X41469Y-37598D01*
X41507Y-37579D01*
X40888Y-36989D02*
X40757Y-36801D01*
X40663Y-36989D02*
X40663Y-36595D01*
X40813Y-36595D01*
X40851Y-36614D01*
X40869Y-36632D01*
X40888Y-36670D01*
X40888Y-36726D01*
X40869Y-36764D01*
X40851Y-36782D01*
X40813Y-36801D01*
X40663Y-36801D01*
X41263Y-36989D02*
X41038Y-36989D01*
X41151Y-36989D02*
X41151Y-36595D01*
X41113Y-36651D01*
X41076Y-36689D01*
X41038Y-36707D01*
X41638Y-36989D02*
X41413Y-36989D01*
X41526Y-36989D02*
X41526Y-36595D01*
X41488Y-36651D01*
X41451Y-36689D01*
X41413Y-36707D01*
X40888Y-38957D02*
X40757Y-38770D01*
X40663Y-38957D02*
X40663Y-38563D01*
X40813Y-38563D01*
X40851Y-38582D01*
X40869Y-38601D01*
X40888Y-38638D01*
X40888Y-38695D01*
X40869Y-38732D01*
X40851Y-38751D01*
X40813Y-38770D01*
X40663Y-38770D01*
X41263Y-38957D02*
X41038Y-38957D01*
X41151Y-38957D02*
X41151Y-38563D01*
X41113Y-38620D01*
X41076Y-38657D01*
X41038Y-38676D01*
X41413Y-38601D02*
X41432Y-38582D01*
X41469Y-38563D01*
X41563Y-38563D01*
X41601Y-38582D01*
X41619Y-38601D01*
X41638Y-38638D01*
X41638Y-38676D01*
X41619Y-38732D01*
X41394Y-38957D01*
X41638Y-38957D01*
X49353Y-23898D02*
X49221Y-23711D01*
X49128Y-23898D02*
X49128Y-23504D01*
X49278Y-23504D01*
X49315Y-23523D01*
X49334Y-23542D01*
X49353Y-23579D01*
X49353Y-23636D01*
X49334Y-23673D01*
X49315Y-23692D01*
X49278Y-23711D01*
X49128Y-23711D01*
X49728Y-23898D02*
X49503Y-23898D01*
X49615Y-23898D02*
X49615Y-23504D01*
X49578Y-23561D01*
X49540Y-23598D01*
X49503Y-23617D01*
X49953Y-23673D02*
X49915Y-23654D01*
X49896Y-23636D01*
X49878Y-23598D01*
X49878Y-23579D01*
X49896Y-23542D01*
X49915Y-23523D01*
X49953Y-23504D01*
X50028Y-23504D01*
X50065Y-23523D01*
X50084Y-23542D01*
X50103Y-23579D01*
X50103Y-23598D01*
X50084Y-23636D01*
X50065Y-23654D01*
X50028Y-23673D01*
X49953Y-23673D01*
X49915Y-23692D01*
X49896Y-23711D01*
X49878Y-23748D01*
X49878Y-23823D01*
X49896Y-23861D01*
X49915Y-23879D01*
X49953Y-23898D01*
X50028Y-23898D01*
X50065Y-23879D01*
X50084Y-23861D01*
X50103Y-23823D01*
X50103Y-23748D01*
X50084Y-23711D01*
X50065Y-23692D01*
X50028Y-23673D01*
X53093Y-23898D02*
X52962Y-23711D01*
X52868Y-23898D02*
X52868Y-23504D01*
X53018Y-23504D01*
X53055Y-23523D01*
X53074Y-23542D01*
X53093Y-23579D01*
X53093Y-23636D01*
X53074Y-23673D01*
X53055Y-23692D01*
X53018Y-23711D01*
X52868Y-23711D01*
X53468Y-23898D02*
X53243Y-23898D01*
X53355Y-23898D02*
X53355Y-23504D01*
X53318Y-23561D01*
X53280Y-23598D01*
X53243Y-23617D01*
X53655Y-23898D02*
X53730Y-23898D01*
X53768Y-23879D01*
X53787Y-23861D01*
X53824Y-23804D01*
X53843Y-23729D01*
X53843Y-23579D01*
X53824Y-23542D01*
X53805Y-23523D01*
X53768Y-23504D01*
X53693Y-23504D01*
X53655Y-23523D01*
X53637Y-23542D01*
X53618Y-23579D01*
X53618Y-23673D01*
X53637Y-23711D01*
X53655Y-23729D01*
X53693Y-23748D01*
X53768Y-23748D01*
X53805Y-23729D01*
X53824Y-23711D01*
X53843Y-23673D01*
X61361Y-35808D02*
X61229Y-35620D01*
X61136Y-35808D02*
X61136Y-35414D01*
X61286Y-35414D01*
X61323Y-35433D01*
X61342Y-35451D01*
X61361Y-35489D01*
X61361Y-35545D01*
X61342Y-35583D01*
X61323Y-35601D01*
X61286Y-35620D01*
X61136Y-35620D01*
X61511Y-35451D02*
X61529Y-35433D01*
X61567Y-35414D01*
X61661Y-35414D01*
X61698Y-35433D01*
X61717Y-35451D01*
X61736Y-35489D01*
X61736Y-35526D01*
X61717Y-35583D01*
X61492Y-35808D01*
X61736Y-35808D01*
X61886Y-35451D02*
X61904Y-35433D01*
X61942Y-35414D01*
X62035Y-35414D01*
X62073Y-35433D01*
X62092Y-35451D01*
X62110Y-35489D01*
X62110Y-35526D01*
X62092Y-35583D01*
X61867Y-35808D01*
X62110Y-35808D01*
X61361Y-37579D02*
X61229Y-37392D01*
X61136Y-37579D02*
X61136Y-37185D01*
X61286Y-37185D01*
X61323Y-37204D01*
X61342Y-37223D01*
X61361Y-37260D01*
X61361Y-37317D01*
X61342Y-37354D01*
X61323Y-37373D01*
X61286Y-37392D01*
X61136Y-37392D01*
X61511Y-37223D02*
X61529Y-37204D01*
X61567Y-37185D01*
X61661Y-37185D01*
X61698Y-37204D01*
X61717Y-37223D01*
X61736Y-37260D01*
X61736Y-37298D01*
X61717Y-37354D01*
X61492Y-37579D01*
X61736Y-37579D01*
X61867Y-37185D02*
X62110Y-37185D01*
X61979Y-37335D01*
X62035Y-37335D01*
X62073Y-37354D01*
X62092Y-37373D01*
X62110Y-37410D01*
X62110Y-37504D01*
X62092Y-37542D01*
X62073Y-37560D01*
X62035Y-37579D01*
X61923Y-37579D01*
X61886Y-37560D01*
X61867Y-37542D01*
X36332Y-37024D02*
X36175Y-36799D01*
X36062Y-37024D02*
X36062Y-36552D01*
X36242Y-36552D01*
X36287Y-36574D01*
X36310Y-36597D01*
X36332Y-36642D01*
X36332Y-36709D01*
X36310Y-36754D01*
X36287Y-36777D01*
X36242Y-36799D01*
X36062Y-36799D01*
X36467Y-36552D02*
X36625Y-37024D01*
X36782Y-36552D01*
X37187Y-37024D02*
X36917Y-37024D01*
X37052Y-37024D02*
X37052Y-36552D01*
X37007Y-36619D01*
X36962Y-36664D01*
X36917Y-36687D01*
X36332Y-29347D02*
X36175Y-29122D01*
X36062Y-29347D02*
X36062Y-28875D01*
X36242Y-28875D01*
X36287Y-28897D01*
X36310Y-28920D01*
X36332Y-28965D01*
X36332Y-29032D01*
X36310Y-29077D01*
X36287Y-29100D01*
X36242Y-29122D01*
X36062Y-29122D01*
X36467Y-28875D02*
X36625Y-29347D01*
X36782Y-28875D01*
X36917Y-28920D02*
X36940Y-28897D01*
X36985Y-28875D01*
X37097Y-28875D01*
X37142Y-28897D01*
X37165Y-28920D01*
X37187Y-28965D01*
X37187Y-29010D01*
X37165Y-29077D01*
X36895Y-29347D01*
X37187Y-29347D01*
X49325Y-30725D02*
X49167Y-30500D01*
X49055Y-30725D02*
X49055Y-30253D01*
X49235Y-30253D01*
X49280Y-30275D01*
X49302Y-30298D01*
X49325Y-30343D01*
X49325Y-30410D01*
X49302Y-30455D01*
X49280Y-30478D01*
X49235Y-30500D01*
X49055Y-30500D01*
X49460Y-30253D02*
X49617Y-30725D01*
X49775Y-30253D01*
X49887Y-30253D02*
X50179Y-30253D01*
X50022Y-30433D01*
X50089Y-30433D01*
X50134Y-30455D01*
X50157Y-30478D01*
X50179Y-30523D01*
X50179Y-30635D01*
X50157Y-30680D01*
X50134Y-30703D01*
X50089Y-30725D01*
X49955Y-30725D01*
X49910Y-30703D01*
X49887Y-30680D01*
X49325Y-38008D02*
X49167Y-37784D01*
X49055Y-38008D02*
X49055Y-37536D01*
X49235Y-37536D01*
X49280Y-37559D01*
X49302Y-37581D01*
X49325Y-37626D01*
X49325Y-37694D01*
X49302Y-37739D01*
X49280Y-37761D01*
X49235Y-37784D01*
X49055Y-37784D01*
X49460Y-37536D02*
X49617Y-38008D01*
X49775Y-37536D01*
X50134Y-37694D02*
X50134Y-38008D01*
X50022Y-37514D02*
X49910Y-37851D01*
X50202Y-37851D01*
X61361Y-38760D02*
X61229Y-38573D01*
X61136Y-38760D02*
X61136Y-38367D01*
X61286Y-38367D01*
X61323Y-38385D01*
X61342Y-38404D01*
X61361Y-38442D01*
X61361Y-38498D01*
X61342Y-38535D01*
X61323Y-38554D01*
X61286Y-38573D01*
X61136Y-38573D01*
X61511Y-38404D02*
X61529Y-38385D01*
X61567Y-38367D01*
X61661Y-38367D01*
X61698Y-38385D01*
X61717Y-38404D01*
X61736Y-38442D01*
X61736Y-38479D01*
X61717Y-38535D01*
X61492Y-38760D01*
X61736Y-38760D01*
X62073Y-38498D02*
X62073Y-38760D01*
X61979Y-38348D02*
X61886Y-38629D01*
X62129Y-38629D01*
X52994Y-45552D02*
X52863Y-45364D01*
X52769Y-45552D02*
X52769Y-45158D01*
X52919Y-45158D01*
X52957Y-45177D01*
X52976Y-45195D01*
X52994Y-45233D01*
X52994Y-45289D01*
X52976Y-45327D01*
X52957Y-45345D01*
X52919Y-45364D01*
X52769Y-45364D01*
X53144Y-45195D02*
X53163Y-45177D01*
X53201Y-45158D01*
X53294Y-45158D01*
X53332Y-45177D01*
X53351Y-45195D01*
X53369Y-45233D01*
X53369Y-45270D01*
X53351Y-45327D01*
X53126Y-45552D01*
X53369Y-45552D01*
X53744Y-45552D02*
X53519Y-45552D01*
X53632Y-45552D02*
X53632Y-45158D01*
X53594Y-45214D01*
X53557Y-45252D01*
X53519Y-45270D01*
X55258Y-34430D02*
X55127Y-34242D01*
X55033Y-34430D02*
X55033Y-34036D01*
X55183Y-34036D01*
X55221Y-34055D01*
X55239Y-34073D01*
X55258Y-34111D01*
X55258Y-34167D01*
X55239Y-34205D01*
X55221Y-34223D01*
X55183Y-34242D01*
X55033Y-34242D01*
X55408Y-34073D02*
X55427Y-34055D01*
X55464Y-34036D01*
X55558Y-34036D01*
X55596Y-34055D01*
X55614Y-34073D01*
X55633Y-34111D01*
X55633Y-34148D01*
X55614Y-34205D01*
X55389Y-34430D01*
X55633Y-34430D01*
X55877Y-34036D02*
X55914Y-34036D01*
X55952Y-34055D01*
X55971Y-34073D01*
X55989Y-34111D01*
X56008Y-34186D01*
X56008Y-34280D01*
X55989Y-34355D01*
X55971Y-34392D01*
X55952Y-34411D01*
X55914Y-34430D01*
X55877Y-34430D01*
X55839Y-34411D01*
X55821Y-34392D01*
X55802Y-34355D01*
X55783Y-34280D01*
X55783Y-34186D01*
X55802Y-34111D01*
X55821Y-34073D01*
X55839Y-34055D01*
X55877Y-34036D01*
X45997Y-29963D02*
X45978Y-29982D01*
X45922Y-30000D01*
X45884Y-30000D01*
X45828Y-29982D01*
X45791Y-29944D01*
X45772Y-29907D01*
X45753Y-29832D01*
X45753Y-29775D01*
X45772Y-29700D01*
X45791Y-29663D01*
X45828Y-29625D01*
X45884Y-29607D01*
X45922Y-29607D01*
X45978Y-29625D01*
X45997Y-29644D01*
X46353Y-29607D02*
X46166Y-29607D01*
X46147Y-29794D01*
X46166Y-29775D01*
X46203Y-29757D01*
X46297Y-29757D01*
X46334Y-29775D01*
X46353Y-29794D01*
X46372Y-29832D01*
X46372Y-29925D01*
X46353Y-29963D01*
X46334Y-29982D01*
X46297Y-30000D01*
X46203Y-30000D01*
X46166Y-29982D01*
X46147Y-29963D01*
X51124Y-35020D02*
X50993Y-34833D01*
X50899Y-35020D02*
X50899Y-34626D01*
X51049Y-34626D01*
X51087Y-34645D01*
X51106Y-34664D01*
X51124Y-34701D01*
X51124Y-34758D01*
X51106Y-34795D01*
X51087Y-34814D01*
X51049Y-34833D01*
X50899Y-34833D01*
X51499Y-35020D02*
X51274Y-35020D01*
X51387Y-35020D02*
X51387Y-34626D01*
X51349Y-34683D01*
X51312Y-34720D01*
X51274Y-34739D01*
X51837Y-34758D02*
X51837Y-35020D01*
X51743Y-34608D02*
X51649Y-34889D01*
X51893Y-34889D01*
X38428Y-30689D02*
X38296Y-30502D01*
X38203Y-30689D02*
X38203Y-30296D01*
X38353Y-30296D01*
X38390Y-30314D01*
X38409Y-30333D01*
X38428Y-30371D01*
X38428Y-30427D01*
X38409Y-30464D01*
X38390Y-30483D01*
X38353Y-30502D01*
X38203Y-30502D01*
X38577Y-30333D02*
X38596Y-30314D01*
X38634Y-30296D01*
X38727Y-30296D01*
X38765Y-30314D01*
X38784Y-30333D01*
X38802Y-30371D01*
X38802Y-30408D01*
X38784Y-30464D01*
X38559Y-30689D01*
X38802Y-30689D01*
X39027Y-30464D02*
X38990Y-30446D01*
X38971Y-30427D01*
X38952Y-30389D01*
X38952Y-30371D01*
X38971Y-30333D01*
X38990Y-30314D01*
X39027Y-30296D01*
X39102Y-30296D01*
X39140Y-30314D01*
X39159Y-30333D01*
X39177Y-30371D01*
X39177Y-30389D01*
X39159Y-30427D01*
X39140Y-30446D01*
X39102Y-30464D01*
X39027Y-30464D01*
X38990Y-30483D01*
X38971Y-30502D01*
X38952Y-30539D01*
X38952Y-30614D01*
X38971Y-30652D01*
X38990Y-30671D01*
X39027Y-30689D01*
X39102Y-30689D01*
X39140Y-30671D01*
X39159Y-30652D01*
X39177Y-30614D01*
X39177Y-30539D01*
X39159Y-30502D01*
X39140Y-30483D01*
X39102Y-30464D01*
X60859Y-35179D02*
X60840Y-35198D01*
X60784Y-35217D01*
X60747Y-35217D01*
X60690Y-35198D01*
X60653Y-35161D01*
X60634Y-35123D01*
X60615Y-35048D01*
X60615Y-34992D01*
X60634Y-34917D01*
X60653Y-34880D01*
X60690Y-34842D01*
X60747Y-34823D01*
X60784Y-34823D01*
X60840Y-34842D01*
X60859Y-34861D01*
X61047Y-35217D02*
X61122Y-35217D01*
X61159Y-35198D01*
X61178Y-35179D01*
X61215Y-35123D01*
X61234Y-35048D01*
X61234Y-34898D01*
X61215Y-34861D01*
X61197Y-34842D01*
X61159Y-34823D01*
X61084Y-34823D01*
X61047Y-34842D01*
X61028Y-34861D01*
X61009Y-34898D01*
X61009Y-34992D01*
X61028Y-35029D01*
X61047Y-35048D01*
X61084Y-35067D01*
X61159Y-35067D01*
X61197Y-35048D01*
X61215Y-35029D01*
X61234Y-34992D01*
G54D16*
X39472Y-14548D02*
X39472Y-14154D01*
X39566Y-14154D01*
X39623Y-14173D01*
X39660Y-14210D01*
X39679Y-14248D01*
X39698Y-14323D01*
X39698Y-14379D01*
X39679Y-14454D01*
X39660Y-14492D01*
X39623Y-14529D01*
X39566Y-14548D01*
X39472Y-14548D01*
X40054Y-14154D02*
X39866Y-14154D01*
X39848Y-14341D01*
X39866Y-14323D01*
X39904Y-14304D01*
X39998Y-14304D01*
X40035Y-14323D01*
X40054Y-14341D01*
X40073Y-14379D01*
X40073Y-14473D01*
X40054Y-14510D01*
X40035Y-14529D01*
X39998Y-14548D01*
X39904Y-14548D01*
X39866Y-14529D01*
X39848Y-14510D01*
G54D13*
X44788Y-14548D02*
X44788Y-14154D01*
X44881Y-14154D01*
X44938Y-14173D01*
X44975Y-14210D01*
X44994Y-14248D01*
X45013Y-14323D01*
X45013Y-14379D01*
X44994Y-14454D01*
X44975Y-14491D01*
X44938Y-14529D01*
X44881Y-14548D01*
X44788Y-14548D01*
X45350Y-14154D02*
X45275Y-14154D01*
X45238Y-14173D01*
X45219Y-14191D01*
X45181Y-14248D01*
X45163Y-14323D01*
X45163Y-14473D01*
X45181Y-14510D01*
X45200Y-14529D01*
X45238Y-14548D01*
X45313Y-14548D01*
X45350Y-14529D01*
X45369Y-14510D01*
X45388Y-14473D01*
X45388Y-14379D01*
X45369Y-14341D01*
X45350Y-14323D01*
X45313Y-14304D01*
X45238Y-14304D01*
X45200Y-14323D01*
X45181Y-14341D01*
X45163Y-14379D01*
X42425Y-25178D02*
X42425Y-24784D01*
X42519Y-24784D01*
X42575Y-24803D01*
X42613Y-24840D01*
X42632Y-24878D01*
X42650Y-24953D01*
X42650Y-25009D01*
X42632Y-25084D01*
X42613Y-25121D01*
X42575Y-25159D01*
X42519Y-25178D01*
X42425Y-25178D01*
X42782Y-24784D02*
X43044Y-24784D01*
X42875Y-25178D01*
X42425Y-26752D02*
X42425Y-26359D01*
X42519Y-26359D01*
X42575Y-26377D01*
X42613Y-26415D01*
X42632Y-26452D01*
X42650Y-26527D01*
X42650Y-26584D01*
X42632Y-26659D01*
X42613Y-26696D01*
X42575Y-26734D01*
X42519Y-26752D01*
X42425Y-26752D01*
X42875Y-26527D02*
X42838Y-26509D01*
X42819Y-26490D01*
X42800Y-26452D01*
X42800Y-26434D01*
X42819Y-26396D01*
X42838Y-26377D01*
X42875Y-26359D01*
X42950Y-26359D01*
X42988Y-26377D01*
X43007Y-26396D01*
X43025Y-26434D01*
X43025Y-26452D01*
X43007Y-26490D01*
X42988Y-26509D01*
X42950Y-26527D01*
X42875Y-26527D01*
X42838Y-26546D01*
X42819Y-26565D01*
X42800Y-26602D01*
X42800Y-26677D01*
X42819Y-26715D01*
X42838Y-26734D01*
X42875Y-26752D01*
X42950Y-26752D01*
X42988Y-26734D01*
X43007Y-26715D01*
X43025Y-26677D01*
X43025Y-26602D01*
X43007Y-26565D01*
X42988Y-26546D01*
X42950Y-26527D01*
X55713Y-36004D02*
X55713Y-35611D01*
X55807Y-35611D01*
X55863Y-35629D01*
X55900Y-35667D01*
X55919Y-35704D01*
X55938Y-35779D01*
X55938Y-35836D01*
X55919Y-35911D01*
X55900Y-35948D01*
X55863Y-35986D01*
X55807Y-36004D01*
X55713Y-36004D01*
X56125Y-36004D02*
X56200Y-36004D01*
X56238Y-35986D01*
X56257Y-35967D01*
X56294Y-35911D01*
X56313Y-35836D01*
X56313Y-35686D01*
X56294Y-35648D01*
X56275Y-35629D01*
X56238Y-35611D01*
X56163Y-35611D01*
X56125Y-35629D01*
X56107Y-35648D01*
X56088Y-35686D01*
X56088Y-35779D01*
X56107Y-35817D01*
X56125Y-35836D01*
X56163Y-35854D01*
X56238Y-35854D01*
X56275Y-35836D01*
X56294Y-35817D01*
X56313Y-35779D01*
X47356Y-42894D02*
X47356Y-42500D01*
X47450Y-42500D01*
X47506Y-42519D01*
X47544Y-42557D01*
X47562Y-42594D01*
X47581Y-42669D01*
X47581Y-42725D01*
X47562Y-42800D01*
X47544Y-42838D01*
X47506Y-42875D01*
X47450Y-42894D01*
X47356Y-42894D01*
X47956Y-42894D02*
X47731Y-42894D01*
X47844Y-42894D02*
X47844Y-42500D01*
X47806Y-42557D01*
X47769Y-42594D01*
X47731Y-42613D01*
X48200Y-42500D02*
X48237Y-42500D01*
X48275Y-42519D01*
X48293Y-42538D01*
X48312Y-42575D01*
X48331Y-42650D01*
X48331Y-42744D01*
X48312Y-42819D01*
X48293Y-42857D01*
X48275Y-42875D01*
X48237Y-42894D01*
X48200Y-42894D01*
X48162Y-42875D01*
X48143Y-42857D01*
X48125Y-42819D01*
X48106Y-42744D01*
X48106Y-42650D01*
X48125Y-42575D01*
X48143Y-42538D01*
X48162Y-42519D01*
X48200Y-42500D01*
X59420Y-31711D02*
X59383Y-31692D01*
X59345Y-31655D01*
X59289Y-31599D01*
X59251Y-31580D01*
X59214Y-31580D01*
X59233Y-31674D02*
X59195Y-31655D01*
X59158Y-31617D01*
X59139Y-31542D01*
X59139Y-31411D01*
X59158Y-31336D01*
X59195Y-31299D01*
X59233Y-31280D01*
X59308Y-31280D01*
X59345Y-31299D01*
X59383Y-31336D01*
X59401Y-31411D01*
X59401Y-31542D01*
X59383Y-31617D01*
X59345Y-31655D01*
X59308Y-31674D01*
X59233Y-31674D01*
X59776Y-31674D02*
X59551Y-31674D01*
X59664Y-31674D02*
X59664Y-31280D01*
X59626Y-31336D01*
X59589Y-31374D01*
X59551Y-31392D01*
X59908Y-31280D02*
X60170Y-31280D01*
X60001Y-31674D01*
X60995Y-31711D02*
X60958Y-31692D01*
X60920Y-31655D01*
X60864Y-31599D01*
X60826Y-31580D01*
X60789Y-31580D01*
X60808Y-31674D02*
X60770Y-31655D01*
X60733Y-31617D01*
X60714Y-31542D01*
X60714Y-31411D01*
X60733Y-31336D01*
X60770Y-31299D01*
X60808Y-31280D01*
X60883Y-31280D01*
X60920Y-31299D01*
X60958Y-31336D01*
X60976Y-31411D01*
X60976Y-31542D01*
X60958Y-31617D01*
X60920Y-31655D01*
X60883Y-31674D01*
X60808Y-31674D01*
X61351Y-31674D02*
X61126Y-31674D01*
X61239Y-31674D02*
X61239Y-31280D01*
X61201Y-31336D01*
X61164Y-31374D01*
X61126Y-31392D01*
X61576Y-31449D02*
X61539Y-31430D01*
X61520Y-31411D01*
X61501Y-31374D01*
X61501Y-31355D01*
X61520Y-31317D01*
X61539Y-31299D01*
X61576Y-31280D01*
X61651Y-31280D01*
X61689Y-31299D01*
X61707Y-31317D01*
X61726Y-31355D01*
X61726Y-31374D01*
X61707Y-31411D01*
X61689Y-31430D01*
X61651Y-31449D01*
X61576Y-31449D01*
X61539Y-31467D01*
X61520Y-31486D01*
X61501Y-31524D01*
X61501Y-31599D01*
X61520Y-31636D01*
X61539Y-31655D01*
X61576Y-31674D01*
X61651Y-31674D01*
X61689Y-31655D01*
X61707Y-31636D01*
X61726Y-31599D01*
X61726Y-31524D01*
X61707Y-31486D01*
X61689Y-31467D01*
X61651Y-31449D01*
X56467Y-29940D02*
X56430Y-29921D01*
X56392Y-29883D01*
X56336Y-29827D01*
X56299Y-29808D01*
X56261Y-29808D01*
X56280Y-29902D02*
X56242Y-29883D01*
X56205Y-29846D01*
X56186Y-29771D01*
X56186Y-29640D01*
X56205Y-29565D01*
X56242Y-29527D01*
X56280Y-29508D01*
X56355Y-29508D01*
X56392Y-29527D01*
X56430Y-29565D01*
X56449Y-29640D01*
X56449Y-29771D01*
X56430Y-29846D01*
X56392Y-29883D01*
X56355Y-29902D01*
X56280Y-29902D01*
X56824Y-29902D02*
X56599Y-29902D01*
X56711Y-29902D02*
X56711Y-29508D01*
X56674Y-29565D01*
X56636Y-29602D01*
X56599Y-29621D01*
X57011Y-29902D02*
X57086Y-29902D01*
X57124Y-29883D01*
X57142Y-29865D01*
X57180Y-29808D01*
X57199Y-29733D01*
X57199Y-29583D01*
X57180Y-29546D01*
X57161Y-29527D01*
X57124Y-29508D01*
X57049Y-29508D01*
X57011Y-29527D01*
X56992Y-29546D01*
X56974Y-29583D01*
X56974Y-29677D01*
X56992Y-29715D01*
X57011Y-29733D01*
X57049Y-29752D01*
X57124Y-29752D01*
X57161Y-29733D01*
X57180Y-29715D01*
X57199Y-29677D01*
X42463Y-28130D02*
X42332Y-27943D01*
X42238Y-28130D02*
X42238Y-27737D01*
X42388Y-27737D01*
X42425Y-27755D01*
X42444Y-27774D01*
X42463Y-27812D01*
X42463Y-27868D01*
X42444Y-27905D01*
X42425Y-27924D01*
X42388Y-27943D01*
X42238Y-27943D01*
X42613Y-27774D02*
X42632Y-27755D01*
X42669Y-27737D01*
X42763Y-27737D01*
X42800Y-27755D01*
X42819Y-27774D01*
X42838Y-27812D01*
X42838Y-27849D01*
X42819Y-27905D01*
X42594Y-28130D01*
X42838Y-28130D01*
X42969Y-27737D02*
X43232Y-27737D01*
X43063Y-28130D01*
X59294Y-29508D02*
X59162Y-29321D01*
X59069Y-29508D02*
X59069Y-29115D01*
X59219Y-29115D01*
X59256Y-29133D01*
X59275Y-29152D01*
X59294Y-29190D01*
X59294Y-29246D01*
X59275Y-29283D01*
X59256Y-29302D01*
X59219Y-29321D01*
X59069Y-29321D01*
X59444Y-29152D02*
X59462Y-29133D01*
X59500Y-29115D01*
X59594Y-29115D01*
X59631Y-29133D01*
X59650Y-29152D01*
X59669Y-29190D01*
X59669Y-29227D01*
X59650Y-29283D01*
X59425Y-29508D01*
X59669Y-29508D01*
X59856Y-29508D02*
X59931Y-29508D01*
X59969Y-29490D01*
X59987Y-29471D01*
X60025Y-29415D01*
X60044Y-29340D01*
X60044Y-29190D01*
X60025Y-29152D01*
X60006Y-29133D01*
X59969Y-29115D01*
X59894Y-29115D01*
X59856Y-29133D01*
X59837Y-29152D01*
X59819Y-29190D01*
X59819Y-29283D01*
X59837Y-29321D01*
X59856Y-29340D01*
X59894Y-29358D01*
X59969Y-29358D01*
X60006Y-29340D01*
X60025Y-29321D01*
X60044Y-29283D01*
X60573Y-29508D02*
X60442Y-29321D01*
X60348Y-29508D02*
X60348Y-29115D01*
X60498Y-29115D01*
X60536Y-29133D01*
X60554Y-29152D01*
X60573Y-29190D01*
X60573Y-29246D01*
X60554Y-29283D01*
X60536Y-29302D01*
X60498Y-29321D01*
X60348Y-29321D01*
X60704Y-29115D02*
X60948Y-29115D01*
X60817Y-29265D01*
X60873Y-29265D01*
X60911Y-29283D01*
X60929Y-29302D01*
X60948Y-29340D01*
X60948Y-29433D01*
X60929Y-29471D01*
X60911Y-29490D01*
X60873Y-29508D01*
X60761Y-29508D01*
X60723Y-29490D01*
X60704Y-29471D01*
X61192Y-29115D02*
X61229Y-29115D01*
X61267Y-29133D01*
X61286Y-29152D01*
X61304Y-29190D01*
X61323Y-29265D01*
X61323Y-29358D01*
X61304Y-29433D01*
X61286Y-29471D01*
X61267Y-29490D01*
X61229Y-29508D01*
X61192Y-29508D01*
X61154Y-29490D01*
X61136Y-29471D01*
X61117Y-29433D01*
X61098Y-29358D01*
X61098Y-29265D01*
X61117Y-29190D01*
X61136Y-29152D01*
X61154Y-29133D01*
X61192Y-29115D01*
X60672Y-34233D02*
X60540Y-34045D01*
X60447Y-34233D02*
X60447Y-33839D01*
X60597Y-33839D01*
X60634Y-33858D01*
X60653Y-33877D01*
X60672Y-33914D01*
X60672Y-33970D01*
X60653Y-34008D01*
X60634Y-34026D01*
X60597Y-34045D01*
X60447Y-34045D01*
X60803Y-33839D02*
X61047Y-33839D01*
X60915Y-33989D01*
X60972Y-33989D01*
X61009Y-34008D01*
X61028Y-34026D01*
X61047Y-34064D01*
X61047Y-34158D01*
X61028Y-34195D01*
X61009Y-34214D01*
X60972Y-34233D01*
X60859Y-34233D01*
X60822Y-34214D01*
X60803Y-34195D01*
X61197Y-33877D02*
X61215Y-33858D01*
X61253Y-33839D01*
X61347Y-33839D01*
X61384Y-33858D01*
X61403Y-33877D01*
X61422Y-33914D01*
X61422Y-33952D01*
X61403Y-34008D01*
X61178Y-34233D01*
X61422Y-34233D01*
X53093Y-32559D02*
X52962Y-32372D01*
X52868Y-32559D02*
X52868Y-32166D01*
X53018Y-32166D01*
X53055Y-32185D01*
X53074Y-32203D01*
X53093Y-32241D01*
X53093Y-32297D01*
X53074Y-32335D01*
X53055Y-32353D01*
X53018Y-32372D01*
X52868Y-32372D01*
X53224Y-32166D02*
X53468Y-32166D01*
X53337Y-32316D01*
X53393Y-32316D01*
X53430Y-32335D01*
X53449Y-32353D01*
X53468Y-32391D01*
X53468Y-32485D01*
X53449Y-32522D01*
X53430Y-32541D01*
X53393Y-32559D01*
X53280Y-32559D01*
X53243Y-32541D01*
X53224Y-32522D01*
X53599Y-32166D02*
X53843Y-32166D01*
X53712Y-32316D01*
X53768Y-32316D01*
X53805Y-32335D01*
X53824Y-32353D01*
X53843Y-32391D01*
X53843Y-32485D01*
X53824Y-32522D01*
X53805Y-32541D01*
X53768Y-32559D01*
X53655Y-32559D01*
X53618Y-32541D01*
X53599Y-32522D01*
X56341Y-32559D02*
X56210Y-32372D01*
X56116Y-32559D02*
X56116Y-32166D01*
X56266Y-32166D01*
X56303Y-32185D01*
X56322Y-32203D01*
X56341Y-32241D01*
X56341Y-32297D01*
X56322Y-32335D01*
X56303Y-32353D01*
X56266Y-32372D01*
X56116Y-32372D01*
X56472Y-32166D02*
X56716Y-32166D01*
X56585Y-32316D01*
X56641Y-32316D01*
X56678Y-32335D01*
X56697Y-32353D01*
X56716Y-32391D01*
X56716Y-32485D01*
X56697Y-32522D01*
X56678Y-32541D01*
X56641Y-32559D01*
X56528Y-32559D01*
X56491Y-32541D01*
X56472Y-32522D01*
X57053Y-32297D02*
X57053Y-32559D01*
X56960Y-32147D02*
X56866Y-32428D01*
X57110Y-32428D01*
X62345Y-24685D02*
X62214Y-24498D01*
X62120Y-24685D02*
X62120Y-24292D01*
X62270Y-24292D01*
X62307Y-24311D01*
X62326Y-24329D01*
X62345Y-24367D01*
X62345Y-24423D01*
X62326Y-24461D01*
X62307Y-24479D01*
X62270Y-24498D01*
X62120Y-24498D01*
X62476Y-24292D02*
X62720Y-24292D01*
X62589Y-24442D01*
X62645Y-24442D01*
X62682Y-24461D01*
X62701Y-24479D01*
X62720Y-24517D01*
X62720Y-24610D01*
X62701Y-24648D01*
X62682Y-24667D01*
X62645Y-24685D01*
X62532Y-24685D01*
X62495Y-24667D01*
X62476Y-24648D01*
X63076Y-24292D02*
X62889Y-24292D01*
X62870Y-24479D01*
X62889Y-24461D01*
X62926Y-24442D01*
X63020Y-24442D01*
X63057Y-24461D01*
X63076Y-24479D01*
X63095Y-24517D01*
X63095Y-24610D01*
X63076Y-24648D01*
X63057Y-24667D01*
X63020Y-24685D01*
X62926Y-24685D01*
X62889Y-24667D01*
X62870Y-24648D01*
X46006Y-42894D02*
X45875Y-42707D01*
X45781Y-42894D02*
X45781Y-42500D01*
X45931Y-42500D01*
X45969Y-42519D01*
X45988Y-42538D01*
X46006Y-42575D01*
X46006Y-42632D01*
X45988Y-42669D01*
X45969Y-42688D01*
X45931Y-42707D01*
X45781Y-42707D01*
X46381Y-42894D02*
X46156Y-42894D01*
X46269Y-42894D02*
X46269Y-42500D01*
X46231Y-42557D01*
X46194Y-42594D01*
X46156Y-42613D01*
X46737Y-42500D02*
X46550Y-42500D01*
X46531Y-42688D01*
X46550Y-42669D01*
X46587Y-42650D01*
X46681Y-42650D01*
X46719Y-42669D01*
X46737Y-42688D01*
X46756Y-42725D01*
X46756Y-42819D01*
X46737Y-42857D01*
X46719Y-42875D01*
X46681Y-42894D01*
X46587Y-42894D01*
X46550Y-42875D01*
X46531Y-42857D01*
X53191Y-37185D02*
X53060Y-36998D01*
X52966Y-37185D02*
X52966Y-36792D01*
X53116Y-36792D01*
X53154Y-36811D01*
X53173Y-36829D01*
X53191Y-36867D01*
X53191Y-36923D01*
X53173Y-36961D01*
X53154Y-36979D01*
X53116Y-36998D01*
X52966Y-36998D01*
X53323Y-36792D02*
X53566Y-36792D01*
X53435Y-36942D01*
X53491Y-36942D01*
X53529Y-36961D01*
X53547Y-36979D01*
X53566Y-37017D01*
X53566Y-37110D01*
X53547Y-37148D01*
X53529Y-37167D01*
X53491Y-37185D01*
X53379Y-37185D01*
X53341Y-37167D01*
X53323Y-37148D01*
X53904Y-36792D02*
X53829Y-36792D01*
X53791Y-36811D01*
X53772Y-36829D01*
X53735Y-36886D01*
X53716Y-36961D01*
X53716Y-37110D01*
X53735Y-37148D01*
X53754Y-37167D01*
X53791Y-37185D01*
X53866Y-37185D01*
X53904Y-37167D01*
X53922Y-37148D01*
X53941Y-37110D01*
X53941Y-37017D01*
X53922Y-36979D01*
X53904Y-36961D01*
X53866Y-36942D01*
X53791Y-36942D01*
X53754Y-36961D01*
X53735Y-36979D01*
X53716Y-37017D01*
X39698Y-30652D02*
X39679Y-30671D01*
X39623Y-30689D01*
X39585Y-30689D01*
X39529Y-30671D01*
X39491Y-30633D01*
X39473Y-30596D01*
X39454Y-30521D01*
X39454Y-30464D01*
X39473Y-30389D01*
X39491Y-30352D01*
X39529Y-30314D01*
X39585Y-30296D01*
X39623Y-30296D01*
X39679Y-30314D01*
X39698Y-30333D01*
X40035Y-30427D02*
X40035Y-30689D01*
X39941Y-30277D02*
X39848Y-30558D01*
X40091Y-30558D01*
G54D16*
X39285Y-11005D02*
X39285Y-10611D01*
X39379Y-10611D01*
X39435Y-10629D01*
X39472Y-10667D01*
X39491Y-10704D01*
X39510Y-10779D01*
X39510Y-10836D01*
X39491Y-10911D01*
X39472Y-10948D01*
X39435Y-10986D01*
X39379Y-11005D01*
X39285Y-11005D01*
X39885Y-11005D02*
X39660Y-11005D01*
X39773Y-11005D02*
X39773Y-10611D01*
X39735Y-10667D01*
X39698Y-10704D01*
X39660Y-10723D01*
X40260Y-11005D02*
X40035Y-11005D01*
X40148Y-11005D02*
X40148Y-10611D01*
X40110Y-10667D01*
X40073Y-10704D01*
X40035Y-10723D01*
M02*
