%FSLAX34Y34*%
G04 Gerber Fmt 3.4, Leading zero omitted, Abs format*
G04 (created by PCBNEW (2014-03-14 BZR 4748)-product) date Tue 18 Mar 2014 03:42:16 PM EDT*
%MOIN*%
G01*
G70*
G90*
G04 APERTURE LIST*
%ADD10C,0.005906*%
%ADD11C,0.003937*%
%ADD12R,0.090000X0.060000*%
%ADD13O,0.090000X0.060000*%
%ADD14C,0.118110*%
%ADD15R,0.060000X0.060000*%
%ADD16C,0.060000*%
%ADD17R,0.060000X0.090000*%
%ADD18O,0.060000X0.090000*%
%ADD19C,0.010000*%
G04 APERTURE END LIST*
G54D10*
G54D11*
X88543Y-24488D02*
X88543Y-22598D01*
X88307Y-24488D02*
X88543Y-24488D01*
X88307Y-24488D02*
G75*
G03X87598Y-25196I0J-708D01*
G74*
G01*
X87598Y-25196D02*
G75*
G03X88307Y-25905I708J0D01*
G74*
G01*
X88543Y-25905D02*
X88307Y-25905D01*
X88543Y-48897D02*
X88543Y-25905D01*
X88307Y-48897D02*
X88543Y-48897D01*
X88307Y-48897D02*
G75*
G03X87598Y-49606I0J-708D01*
G74*
G01*
X87598Y-49606D02*
G75*
G03X88307Y-50314I708J0D01*
G74*
G01*
X88543Y-50314D02*
X88307Y-50314D01*
X88543Y-52125D02*
X88543Y-50314D01*
X49173Y-50314D02*
X49173Y-52125D01*
X49527Y-50314D02*
X49173Y-50314D01*
X49527Y-50314D02*
G75*
G03X50236Y-49606I0J708D01*
G74*
G01*
X50236Y-49606D02*
G75*
G03X49527Y-48897I-708J0D01*
G74*
G01*
X49173Y-48897D02*
X49527Y-48897D01*
X49173Y-25905D02*
X49173Y-48897D01*
X49527Y-25905D02*
X49173Y-25905D01*
X49527Y-25905D02*
G75*
G03X50236Y-25196I0J708D01*
G74*
G01*
X50236Y-25196D02*
G75*
G03X49527Y-24488I-708J0D01*
G74*
G01*
X49173Y-24488D02*
X49527Y-24488D01*
X49173Y-22598D02*
X49173Y-24488D01*
X88543Y-52125D02*
X49173Y-52125D01*
X49173Y-22598D02*
X88543Y-22598D01*
G54D12*
X87007Y-29027D03*
G54D13*
X87007Y-30027D03*
G54D14*
X64960Y-45669D03*
X63385Y-45669D03*
X61811Y-45669D03*
G54D15*
X60826Y-29232D03*
G54D16*
X60826Y-32184D03*
G54D17*
X55692Y-38582D03*
G54D18*
X56692Y-38582D03*
X57692Y-38582D03*
G54D12*
X87007Y-36688D03*
G54D13*
X87007Y-37688D03*
X87007Y-38688D03*
X87007Y-39688D03*
G54D17*
X77452Y-39370D03*
G54D18*
X78452Y-39370D03*
G54D17*
X69078Y-35826D03*
G54D18*
X70078Y-35826D03*
X71078Y-35826D03*
G54D17*
X73318Y-28937D03*
G54D18*
X74318Y-28937D03*
G54D17*
X70972Y-28937D03*
G54D18*
X69972Y-28937D03*
G54D15*
X77165Y-42815D03*
G54D16*
X77165Y-43799D03*
G54D14*
X50787Y-28740D03*
X50787Y-31496D03*
X50787Y-34251D03*
X87007Y-43307D03*
X87007Y-46062D03*
G54D15*
X56299Y-43208D03*
G54D16*
X56299Y-44192D03*
G54D15*
X65944Y-30216D03*
G54D16*
X65944Y-31200D03*
G54D10*
G36*
X62204Y-42034D02*
X61508Y-41338D01*
X62204Y-40642D01*
X62900Y-41338D01*
X62204Y-42034D01*
X62204Y-42034D01*
G37*
G36*
X66535Y-35735D02*
X65839Y-35039D01*
X66535Y-34343D01*
X67231Y-35039D01*
X66535Y-35735D01*
X66535Y-35735D01*
G37*
G36*
X76377Y-38688D02*
X75681Y-37992D01*
X76377Y-37296D01*
X77073Y-37992D01*
X76377Y-38688D01*
X76377Y-38688D01*
G37*
G36*
X54527Y-40853D02*
X53831Y-40157D01*
X54527Y-39461D01*
X55223Y-40157D01*
X54527Y-40853D01*
X54527Y-40853D01*
G37*
G36*
X88335Y-51918D02*
X49459Y-51918D01*
X49459Y-50522D01*
X49613Y-50522D01*
X49901Y-50439D01*
X50109Y-50315D01*
X50196Y-50228D01*
X50360Y-49981D01*
X50443Y-49692D01*
X50443Y-49562D01*
X50402Y-49315D01*
X50317Y-49146D01*
X50153Y-48940D01*
X49987Y-48815D01*
X49818Y-48731D01*
X49571Y-48690D01*
X49459Y-48690D01*
X49459Y-47884D01*
X88335Y-47884D01*
X88335Y-48690D01*
X88223Y-48690D01*
X88015Y-48731D01*
X87846Y-48815D01*
X87640Y-48980D01*
X87516Y-49146D01*
X87432Y-49314D01*
X87390Y-49522D01*
X87390Y-49691D01*
X87473Y-50020D01*
X87559Y-50149D01*
X87683Y-50274D01*
X87847Y-50397D01*
X88015Y-50480D01*
X88223Y-50522D01*
X88335Y-50522D01*
X88335Y-51918D01*
X88335Y-51918D01*
G37*
G54D19*
X88335Y-51918D02*
X49459Y-51918D01*
X49459Y-50522D01*
X49613Y-50522D01*
X49901Y-50439D01*
X50109Y-50315D01*
X50196Y-50228D01*
X50360Y-49981D01*
X50443Y-49692D01*
X50443Y-49562D01*
X50402Y-49315D01*
X50317Y-49146D01*
X50153Y-48940D01*
X49987Y-48815D01*
X49818Y-48731D01*
X49571Y-48690D01*
X49459Y-48690D01*
X49459Y-47884D01*
X88335Y-47884D01*
X88335Y-48690D01*
X88223Y-48690D01*
X88015Y-48731D01*
X87846Y-48815D01*
X87640Y-48980D01*
X87516Y-49146D01*
X87432Y-49314D01*
X87390Y-49522D01*
X87390Y-49691D01*
X87473Y-50020D01*
X87559Y-50149D01*
X87683Y-50274D01*
X87847Y-50397D01*
X88015Y-50480D01*
X88223Y-50522D01*
X88335Y-50522D01*
X88335Y-51918D01*
G54D10*
G36*
X88335Y-26918D02*
X49459Y-26918D01*
X49459Y-26112D01*
X49613Y-26112D01*
X49903Y-26029D01*
X50192Y-25823D01*
X50319Y-25654D01*
X50402Y-25446D01*
X50444Y-25197D01*
X50402Y-24906D01*
X50318Y-24737D01*
X50193Y-24571D01*
X49986Y-24405D01*
X49776Y-24321D01*
X49491Y-24280D01*
X49459Y-24280D01*
X49459Y-22884D01*
X88335Y-22884D01*
X88335Y-24280D01*
X88223Y-24280D01*
X88015Y-24322D01*
X87765Y-24447D01*
X87557Y-24655D01*
X87431Y-24906D01*
X87390Y-25196D01*
X87431Y-25487D01*
X87516Y-25656D01*
X87639Y-25820D01*
X87724Y-25904D01*
X87850Y-25989D01*
X88056Y-26071D01*
X88262Y-26112D01*
X88335Y-26112D01*
X88335Y-26918D01*
X88335Y-26918D01*
G37*
G54D19*
X88335Y-26918D02*
X49459Y-26918D01*
X49459Y-26112D01*
X49613Y-26112D01*
X49903Y-26029D01*
X50192Y-25823D01*
X50319Y-25654D01*
X50402Y-25446D01*
X50444Y-25197D01*
X50402Y-24906D01*
X50318Y-24737D01*
X50193Y-24571D01*
X49986Y-24405D01*
X49776Y-24321D01*
X49491Y-24280D01*
X49459Y-24280D01*
X49459Y-22884D01*
X88335Y-22884D01*
X88335Y-24280D01*
X88223Y-24280D01*
X88015Y-24322D01*
X87765Y-24447D01*
X87557Y-24655D01*
X87431Y-24906D01*
X87390Y-25196D01*
X87431Y-25487D01*
X87516Y-25656D01*
X87639Y-25820D01*
X87724Y-25904D01*
X87850Y-25989D01*
X88056Y-26071D01*
X88262Y-26112D01*
X88335Y-26112D01*
X88335Y-26918D01*
M02*
