M48
;DRILL file {Pcbnew (2014-03-14 BZR 4748)-product} date Tue 18 Mar 2014 03:42:18 PM EDT
;FORMAT={-:-/ absolute / metric / decimal}
FMAT,2
METRIC,TZ
T1C0.500
T2C0.800
T3C0.889
T4C1.016
T5C1.800
%
G90
G05
M71
T1
X126.5Y-60.5
X126.5Y-67.
X126.5Y-123.
X126.5Y-129.5
X129.Y-60.5
X129.Y-64.
X129.Y-67.
X129.Y-123.
X129.Y-126.
X129.Y-129.5
X129.5Y-93.75
X131.Y-112.
X132.Y-93.75
X133.5Y-103.5
X133.5Y-108.
X134.Y-60.
X145.Y-88.75
X145.Y-116.
X145.Y-118.
X148.Y-116.
X148.Y-118.
X151.Y-116.
X151.Y-118.
X151.Y-120.
X152.5Y-108.75
X154.Y-60.
X164.Y-92.5
X164.Y-110.
X165.5Y-129.95
X166.5Y-85.75
X169.5Y-93.5
X171.5Y-80.
X171.5Y-81.5
X172.25Y-80.75
X173.Y-80.
X173.Y-81.5
X174.Y-60.
X174.Y-99.5
X174.Y-101.5
X174.Y-103.5
X176.Y-99.5
X176.Y-101.5
X176.Y-103.5
X178.Y-99.5
X178.Y-101.5
X178.Y-103.5
X183.Y-106.
X183.Y-107.
X183.Y-108.
X183.Y-109.
X183.Y-110.
X185.5Y-130.5
X187.5Y-102.5
X188.75Y-93.75
X191.Y-102.
X192.75Y-70.
X194.Y-60.
X196.Y-89.75
X201.25Y-89.5
X205.5Y-130.5
X214.Y-60.
X217.Y-122.
X220.5Y-60.5
X220.5Y-64.
X220.5Y-67.
X221.Y-123.
X221.Y-126.
X221.Y-129.
X223.5Y-60.5
X223.5Y-67.
X223.5Y-123.
X223.5Y-129.
T2
X138.5Y-102.
X158.Y-105.
X169.Y-89.
X194.Y-96.5
T3
X143.Y-109.75
X143.Y-112.25
X154.5Y-74.251
X154.5Y-81.749
X167.5Y-76.75
X167.5Y-79.25
X196.Y-108.75
X196.Y-111.25
T4
X141.46Y-98.
X144.Y-98.
X146.54Y-98.
X175.46Y-91.
X177.73Y-73.5
X178.Y-91.
X180.27Y-73.5
X180.54Y-91.
X186.23Y-73.5
X188.77Y-73.5
X196.73Y-100.
X199.27Y-100.
X221.Y-73.73
X221.Y-76.27
X221.Y-93.19
X221.Y-95.73
X221.Y-98.27
X221.Y-100.81
T5
X129.Y-73.
X129.Y-80.
X129.Y-87.
X157.Y-116.
X161.Y-116.
X165.Y-116.
X221.Y-110.
X221.Y-117.
T0
M30
