%FSLAX34Y34*%
G04 Gerber Fmt 3.4, Leading zero omitted, Abs format*
G04 (created by PCBNEW (2014-03-14 BZR 4748)-product) date Mon 17 Mar 2014 11:54:22 PM EDT*
%MOIN*%
G01*
G70*
G90*
G04 APERTURE LIST*
%ADD10C,0.005906*%
%ADD11C,0.003937*%
%ADD12C,0.011811*%
G04 APERTURE END LIST*
G54D10*
G54D11*
X88543Y-24488D02*
X88543Y-22598D01*
X88307Y-24488D02*
X88543Y-24488D01*
X88307Y-24488D02*
G75*
G03X87598Y-25196I0J-708D01*
G74*
G01*
X87598Y-25196D02*
G75*
G03X88307Y-25905I708J0D01*
G74*
G01*
X88543Y-25905D02*
X88307Y-25905D01*
X88543Y-48897D02*
X88543Y-25905D01*
X88307Y-48897D02*
X88543Y-48897D01*
X88307Y-48897D02*
G75*
G03X87598Y-49606I0J-708D01*
G74*
G01*
X87598Y-49606D02*
G75*
G03X88307Y-50314I708J0D01*
G74*
G01*
X88543Y-50314D02*
X88307Y-50314D01*
X88543Y-52125D02*
X88543Y-50314D01*
X49173Y-50314D02*
X49173Y-52125D01*
X49527Y-50314D02*
X49173Y-50314D01*
X49527Y-50314D02*
G75*
G03X50236Y-49606I0J708D01*
G74*
G01*
X50236Y-49606D02*
G75*
G03X49527Y-48897I-708J0D01*
G74*
G01*
X49173Y-48897D02*
X49527Y-48897D01*
X49173Y-25905D02*
X49173Y-48897D01*
X49527Y-25905D02*
X49173Y-25905D01*
X49527Y-25905D02*
G75*
G03X50236Y-25196I0J708D01*
G74*
G01*
X50236Y-25196D02*
G75*
G03X49527Y-24488I-708J0D01*
G74*
G01*
X49173Y-24488D02*
X49527Y-24488D01*
X49173Y-22598D02*
X49173Y-24488D01*
X88543Y-52125D02*
X49173Y-52125D01*
X49173Y-22598D02*
X88543Y-22598D01*
G54D12*
X49550Y-21808D02*
X49634Y-21836D01*
X49662Y-21864D01*
X49690Y-21920D01*
X49690Y-22005D01*
X49662Y-22061D01*
X49634Y-22089D01*
X49578Y-22117D01*
X49353Y-22117D01*
X49353Y-21526D01*
X49550Y-21526D01*
X49606Y-21555D01*
X49634Y-21583D01*
X49662Y-21639D01*
X49662Y-21695D01*
X49634Y-21751D01*
X49606Y-21780D01*
X49550Y-21808D01*
X49353Y-21808D01*
X50056Y-21526D02*
X50168Y-21526D01*
X50224Y-21555D01*
X50281Y-21611D01*
X50309Y-21723D01*
X50309Y-21920D01*
X50281Y-22033D01*
X50224Y-22089D01*
X50168Y-22117D01*
X50056Y-22117D01*
X50000Y-22089D01*
X49943Y-22033D01*
X49915Y-21920D01*
X49915Y-21723D01*
X49943Y-21611D01*
X50000Y-21555D01*
X50056Y-21526D01*
X50534Y-21948D02*
X50815Y-21948D01*
X50478Y-22117D02*
X50674Y-21526D01*
X50871Y-22117D01*
X51406Y-22117D02*
X51209Y-21836D01*
X51068Y-22117D02*
X51068Y-21526D01*
X51293Y-21526D01*
X51349Y-21555D01*
X51377Y-21583D01*
X51406Y-21639D01*
X51406Y-21723D01*
X51377Y-21780D01*
X51349Y-21808D01*
X51293Y-21836D01*
X51068Y-21836D01*
X51659Y-22117D02*
X51659Y-21526D01*
X51799Y-21526D01*
X51884Y-21555D01*
X51940Y-21611D01*
X51968Y-21667D01*
X51996Y-21780D01*
X51996Y-21864D01*
X51968Y-21976D01*
X51940Y-22033D01*
X51884Y-22089D01*
X51799Y-22117D01*
X51659Y-22117D01*
X52812Y-21526D02*
X52924Y-21526D01*
X52980Y-21555D01*
X53037Y-21611D01*
X53065Y-21723D01*
X53065Y-21920D01*
X53037Y-22033D01*
X52980Y-22089D01*
X52924Y-22117D01*
X52812Y-22117D01*
X52755Y-22089D01*
X52699Y-22033D01*
X52671Y-21920D01*
X52671Y-21723D01*
X52699Y-21611D01*
X52755Y-21555D01*
X52812Y-21526D01*
X53318Y-21526D02*
X53318Y-22005D01*
X53346Y-22061D01*
X53374Y-22089D01*
X53430Y-22117D01*
X53543Y-22117D01*
X53599Y-22089D01*
X53627Y-22061D01*
X53655Y-22005D01*
X53655Y-21526D01*
X53852Y-21526D02*
X54190Y-21526D01*
X54021Y-22117D02*
X54021Y-21526D01*
X54668Y-22117D02*
X54386Y-22117D01*
X54386Y-21526D01*
X54865Y-22117D02*
X54865Y-21526D01*
X55146Y-22117D02*
X55146Y-21526D01*
X55483Y-22117D01*
X55483Y-21526D01*
X55764Y-21808D02*
X55961Y-21808D01*
X56046Y-22117D02*
X55764Y-22117D01*
X55764Y-21526D01*
X56046Y-21526D01*
M02*
