M48
;DRILL file {Pcbnew (2013-12-31 BZR 4598)-product} date Thu 09 Jan 2014 11:56:05 AM EST
;FORMAT={-:-/ absolute / metric / decimal}
FMAT,2
METRIC,TZ
T1C0.500
T2C0.700
T3C0.889
T4C0.900
T5C1.016
T6C1.200
T7C3.500
%
G90
G05
M71
T1
X82.75Y-42.
X85.75Y-96.25
X86.75Y-118.75
X87.Y-97.5
X87.Y-99.
X88.25Y-96.25
X96.Y-42.
X96.Y-67.25
X96.25Y-94.75
X96.25Y-101.5
X96.25Y-110.25
X96.25Y-118.75
X98.25Y-87.
X103.Y-94.75
X103.25Y-101.5
X105.Y-42.
X105.Y-67.25
X107.Y-69.5
X108.Y-90.75
X109.Y-48.25
X109.Y-69.5
X110.25Y-76.25
X110.5Y-101.5
X110.5Y-110.25
X110.5Y-118.75
X111.25Y-81.
X111.25Y-86.
X112.5Y-48.25
X116.Y-101.5
X116.75Y-105.
X118.Y-37.
X118.Y-56.
X118.25Y-105.
X121.25Y-105.
X122.5Y-76.5
X122.75Y-105.
X124.Y-101.5
X126.Y-110.25
X128.Y-71.25
X128.Y-76.25
X128.25Y-119.5
X131.5Y-101.5
X132.Y-105.
X132.75Y-110.25
X133.5Y-105.
X133.75Y-71.25
X133.75Y-76.25
X136.75Y-105.
X137.5Y-110.25
X138.25Y-105.
X138.5Y-80.75
X138.5Y-85.
X140.Y-37.
X140.Y-56.
X143.25Y-101.5
X145.25Y-77.25
X146.75Y-81.5
X146.75Y-91.5
X148.5Y-110.25
X148.5Y-118.75
X150.25Y-101.5
X150.55Y-85.25
X155.5Y-85.25
X155.75Y-78.
X155.75Y-110.25
X157.5Y-64.
X157.5Y-79.
X158.Y-118.75
X164.5Y-56.
T2
X75.Y-30.
X75.Y-118.
X76.5Y-27.4
X76.5Y-32.6
X76.5Y-115.4
X76.5Y-120.6
X79.5Y-27.4
X79.5Y-32.6
X79.5Y-115.4
X79.5Y-120.6
X81.Y-30.
X81.Y-118.
X163.Y-30.
X163.Y-118.
X164.5Y-27.4
X164.5Y-32.6
X164.5Y-115.4
X164.5Y-120.6
X167.5Y-27.4
X167.5Y-32.6
X167.5Y-115.4
X167.5Y-120.6
X169.Y-30.
X169.Y-118.
T3
X79.5Y-67.25
X79.5Y-70.75
X95.92Y-30.
X95.92Y-34.
X101.Y-48.251
X101.Y-55.749
X106.08Y-30.
X106.08Y-34.
X109.42Y-34.
X119.58Y-34.
X122.92Y-34.
X133.08Y-34.
X156.Y-103.75
X156.Y-106.25
T4
X80.Y-50.
X80.Y-55.
X80.Y-60.
X165.Y-90.
X165.Y-95.
X165.Y-102.5
X165.Y-107.5
T5
X93.Y-79.46
X93.Y-82.
X93.Y-84.54
X117.46Y-118.
X120.Y-118.
X122.54Y-118.
X125.5Y-87.46
X125.5Y-90.
X125.5Y-92.54
X163.73Y-64.5
X163.73Y-73.
X163.73Y-81.5
X166.27Y-64.5
X166.27Y-73.
X166.27Y-81.5
T6
X90.Y-42.38
X90.Y-47.46
X90.Y-52.54
X90.Y-57.62
T7
X78.Y-30.
X78.Y-118.
X166.Y-30.
X166.Y-118.
T0
M30
