%FSLAX34Y34*%
G04 Gerber Fmt 3.4, Leading zero omitted, Abs format*
G04 (created by PCBNEW (2013-12-31 BZR 4598)-product) date Thu 09 Jan 2014 11:56:03 AM EST*
%MOIN*%
G01*
G70*
G90*
G04 APERTURE LIST*
%ADD10C,0.005906*%
%ADD11C,0.011811*%
%ADD12C,0.078740*%
%ADD13R,0.060000X0.090000*%
%ADD14O,0.060000X0.090000*%
%ADD15R,0.060000X0.060000*%
%ADD16C,0.060000*%
%ADD17R,0.090000X0.060000*%
%ADD18O,0.090000X0.060000*%
%ADD19C,0.354331*%
%ADD20C,0.039370*%
%ADD21C,0.035433*%
%ADD22C,0.009449*%
%ADD23C,0.070866*%
%ADD24C,0.026772*%
%ADD25C,0.086614*%
%ADD26C,0.039370*%
%ADD27C,0.010000*%
G04 APERTURE END LIST*
G54D10*
G54D11*
X45219Y-49760D02*
X45303Y-49789D01*
X45331Y-49817D01*
X45359Y-49873D01*
X45359Y-49957D01*
X45331Y-50014D01*
X45303Y-50042D01*
X45247Y-50070D01*
X45022Y-50070D01*
X45022Y-49479D01*
X45219Y-49479D01*
X45275Y-49507D01*
X45303Y-49535D01*
X45331Y-49592D01*
X45331Y-49648D01*
X45303Y-49704D01*
X45275Y-49732D01*
X45219Y-49760D01*
X45022Y-49760D01*
X45584Y-49901D02*
X45866Y-49901D01*
X45528Y-50070D02*
X45725Y-49479D01*
X45922Y-50070D01*
X46456Y-50014D02*
X46428Y-50042D01*
X46344Y-50070D01*
X46287Y-50070D01*
X46203Y-50042D01*
X46147Y-49985D01*
X46119Y-49929D01*
X46091Y-49817D01*
X46091Y-49732D01*
X46119Y-49620D01*
X46147Y-49564D01*
X46203Y-49507D01*
X46287Y-49479D01*
X46344Y-49479D01*
X46428Y-49507D01*
X46456Y-49535D01*
X46709Y-50070D02*
X46709Y-49479D01*
X47047Y-50070D02*
X46794Y-49732D01*
X47047Y-49479D02*
X46709Y-49817D01*
X48087Y-50014D02*
X48059Y-50042D01*
X47975Y-50070D01*
X47919Y-50070D01*
X47834Y-50042D01*
X47778Y-49985D01*
X47750Y-49929D01*
X47722Y-49817D01*
X47722Y-49732D01*
X47750Y-49620D01*
X47778Y-49564D01*
X47834Y-49507D01*
X47919Y-49479D01*
X47975Y-49479D01*
X48059Y-49507D01*
X48087Y-49535D01*
X48453Y-49479D02*
X48565Y-49479D01*
X48622Y-49507D01*
X48678Y-49564D01*
X48706Y-49676D01*
X48706Y-49873D01*
X48678Y-49985D01*
X48622Y-50042D01*
X48565Y-50070D01*
X48453Y-50070D01*
X48397Y-50042D01*
X48340Y-49985D01*
X48312Y-49873D01*
X48312Y-49676D01*
X48340Y-49564D01*
X48397Y-49507D01*
X48453Y-49479D01*
X48959Y-50070D02*
X48959Y-49479D01*
X49184Y-49479D01*
X49240Y-49507D01*
X49268Y-49535D01*
X49296Y-49592D01*
X49296Y-49676D01*
X49268Y-49732D01*
X49240Y-49760D01*
X49184Y-49789D01*
X48959Y-49789D01*
X49550Y-50070D02*
X49550Y-49479D01*
X49775Y-49479D01*
X49831Y-49507D01*
X49859Y-49535D01*
X49887Y-49592D01*
X49887Y-49676D01*
X49859Y-49732D01*
X49831Y-49760D01*
X49775Y-49789D01*
X49550Y-49789D01*
X50140Y-49760D02*
X50337Y-49760D01*
X50421Y-50070D02*
X50140Y-50070D01*
X50140Y-49479D01*
X50421Y-49479D01*
X51012Y-50070D02*
X50815Y-49789D01*
X50674Y-50070D02*
X50674Y-49479D01*
X50899Y-49479D01*
X50956Y-49507D01*
X50984Y-49535D01*
X51012Y-49592D01*
X51012Y-49676D01*
X50984Y-49732D01*
X50956Y-49760D01*
X50899Y-49789D01*
X50674Y-49789D01*
X61684Y-11105D02*
X61740Y-11133D01*
X61853Y-11133D01*
X61909Y-11105D01*
X61937Y-11077D01*
X61965Y-11020D01*
X61965Y-10852D01*
X61937Y-10795D01*
X61909Y-10767D01*
X61853Y-10739D01*
X61740Y-10739D01*
X61684Y-10767D01*
X61178Y-10739D02*
X61178Y-11133D01*
X61318Y-10514D02*
X61459Y-10936D01*
X61093Y-10936D01*
X60925Y-10542D02*
X60531Y-10542D01*
X60784Y-11133D01*
X60025Y-10542D02*
X60306Y-10542D01*
X60334Y-10823D01*
X60306Y-10795D01*
X60250Y-10767D01*
X60109Y-10767D01*
X60053Y-10795D01*
X60025Y-10823D01*
X59997Y-10880D01*
X59997Y-11020D01*
X60025Y-11077D01*
X60053Y-11105D01*
X60109Y-11133D01*
X60250Y-11133D01*
X60306Y-11105D01*
X60334Y-11077D01*
X59800Y-10542D02*
X59406Y-10542D01*
X59659Y-11133D01*
X59181Y-10739D02*
X59181Y-11330D01*
X59181Y-10767D02*
X59125Y-10739D01*
X59012Y-10739D01*
X58956Y-10767D01*
X58928Y-10795D01*
X58900Y-10852D01*
X58900Y-11020D01*
X58928Y-11077D01*
X58956Y-11105D01*
X59012Y-11133D01*
X59125Y-11133D01*
X59181Y-11105D01*
X62260Y-11487D02*
X62260Y-11909D01*
X62289Y-11993D01*
X62345Y-12050D01*
X62429Y-12078D01*
X62485Y-12078D01*
X62007Y-11909D02*
X61726Y-11909D01*
X62064Y-12078D02*
X61867Y-11487D01*
X61670Y-12078D01*
X61473Y-12078D02*
X61473Y-11487D01*
X61136Y-12078D01*
X61136Y-11487D01*
X60433Y-11543D02*
X60404Y-11515D01*
X60348Y-11487D01*
X60208Y-11487D01*
X60151Y-11515D01*
X60123Y-11543D01*
X60095Y-11600D01*
X60095Y-11656D01*
X60123Y-11740D01*
X60461Y-12078D01*
X60095Y-12078D01*
X59730Y-11487D02*
X59673Y-11487D01*
X59617Y-11515D01*
X59589Y-11543D01*
X59561Y-11600D01*
X59533Y-11712D01*
X59533Y-11853D01*
X59561Y-11965D01*
X59589Y-12021D01*
X59617Y-12050D01*
X59673Y-12078D01*
X59730Y-12078D01*
X59786Y-12050D01*
X59814Y-12021D01*
X59842Y-11965D01*
X59870Y-11853D01*
X59870Y-11712D01*
X59842Y-11600D01*
X59814Y-11543D01*
X59786Y-11515D01*
X59730Y-11487D01*
X58970Y-12078D02*
X59308Y-12078D01*
X59139Y-12078D02*
X59139Y-11487D01*
X59195Y-11571D01*
X59251Y-11628D01*
X59308Y-11656D01*
X58464Y-11684D02*
X58464Y-12078D01*
X58605Y-11459D02*
X58745Y-11881D01*
X58380Y-11881D01*
X62218Y-13023D02*
X62218Y-12432D01*
X61993Y-12432D01*
X61937Y-12460D01*
X61909Y-12488D01*
X61881Y-12544D01*
X61881Y-12629D01*
X61909Y-12685D01*
X61937Y-12713D01*
X61993Y-12741D01*
X62218Y-12741D01*
X61656Y-12994D02*
X61571Y-13023D01*
X61431Y-13023D01*
X61375Y-12994D01*
X61347Y-12966D01*
X61318Y-12910D01*
X61318Y-12854D01*
X61347Y-12798D01*
X61375Y-12769D01*
X61431Y-12741D01*
X61543Y-12713D01*
X61600Y-12685D01*
X61628Y-12657D01*
X61656Y-12601D01*
X61656Y-12544D01*
X61628Y-12488D01*
X61600Y-12460D01*
X61543Y-12432D01*
X61403Y-12432D01*
X61318Y-12460D01*
X61065Y-12798D02*
X60615Y-12798D01*
X60025Y-13023D02*
X60362Y-13023D01*
X60194Y-13023D02*
X60194Y-12432D01*
X60250Y-12516D01*
X60306Y-12573D01*
X60362Y-12601D01*
X59322Y-13023D02*
X59322Y-12629D01*
X59322Y-12741D02*
X59294Y-12685D01*
X59266Y-12657D01*
X59209Y-12629D01*
X59153Y-12629D01*
X58759Y-12713D02*
X58675Y-12741D01*
X58647Y-12769D01*
X58619Y-12826D01*
X58619Y-12910D01*
X58647Y-12966D01*
X58675Y-12994D01*
X58731Y-13023D01*
X58956Y-13023D01*
X58956Y-12432D01*
X58759Y-12432D01*
X58703Y-12460D01*
X58675Y-12488D01*
X58647Y-12544D01*
X58647Y-12601D01*
X58675Y-12657D01*
X58703Y-12685D01*
X58759Y-12713D01*
X58956Y-12713D01*
G54D12*
X35433Y-20685D03*
X35433Y-22685D03*
X35433Y-18685D03*
X35433Y-16685D03*
G54D13*
X65460Y-28740D03*
G54D14*
X64460Y-28740D03*
G54D13*
X65460Y-25393D03*
G54D14*
X64460Y-25393D03*
G54D13*
X65460Y-32086D03*
G54D14*
X64460Y-32086D03*
G54D13*
X48244Y-46456D03*
G54D14*
X47244Y-46456D03*
X46244Y-46456D03*
G54D15*
X31299Y-26476D03*
G54D16*
X31299Y-27854D03*
G54D15*
X39763Y-18996D03*
G54D16*
X39763Y-21948D03*
G54D15*
X61417Y-40846D03*
G54D16*
X61417Y-41830D03*
G54D15*
X52393Y-13385D03*
G54D16*
X48393Y-13385D03*
G54D12*
X31496Y-19685D03*
X31496Y-21653D03*
X31496Y-23622D03*
X64960Y-35433D03*
X64960Y-37401D03*
X64960Y-40354D03*
X64960Y-42322D03*
G54D17*
X36614Y-31283D03*
G54D18*
X36614Y-32283D03*
X36614Y-33283D03*
G54D19*
X65354Y-11811D03*
G54D20*
X66535Y-11811D03*
X65944Y-12834D03*
X64763Y-12834D03*
X64173Y-11811D03*
X64763Y-10787D03*
X65944Y-10787D03*
G54D19*
X65354Y-46456D03*
G54D20*
X66535Y-46456D03*
X65944Y-47480D03*
X64763Y-47480D03*
X64173Y-46456D03*
X64763Y-45433D03*
X65944Y-45433D03*
G54D19*
X30708Y-46456D03*
G54D20*
X31889Y-46456D03*
X31299Y-47480D03*
X30118Y-47480D03*
X29527Y-46456D03*
X30118Y-45433D03*
X31299Y-45433D03*
G54D19*
X30708Y-11811D03*
G54D20*
X31889Y-11811D03*
X31299Y-12834D03*
X30118Y-12834D03*
X29527Y-11811D03*
X30118Y-10787D03*
X31299Y-10787D03*
G54D17*
X49409Y-34433D03*
G54D18*
X49409Y-35433D03*
X49409Y-36433D03*
G54D15*
X41763Y-13385D03*
G54D16*
X37763Y-13385D03*
G54D15*
X47078Y-13385D03*
G54D16*
X43078Y-13385D03*
G54D15*
X37763Y-11811D03*
G54D16*
X41763Y-11811D03*
G54D21*
X64763Y-22047D03*
X32578Y-16535D03*
X62204Y-46751D03*
X58464Y-46751D03*
X50492Y-47047D03*
X43503Y-46751D03*
X34153Y-46751D03*
X37893Y-46751D03*
X61318Y-43405D03*
X58464Y-43405D03*
X54133Y-43405D03*
X52263Y-43405D03*
X49606Y-43405D03*
X37893Y-43405D03*
X57775Y-32086D03*
X57775Y-36023D03*
X37893Y-37303D03*
X37893Y-39960D03*
X42519Y-35728D03*
X40551Y-37303D03*
X40649Y-39960D03*
X43503Y-43405D03*
X43503Y-39960D03*
X45669Y-39960D03*
X48818Y-39960D03*
X51771Y-39960D03*
X56397Y-39960D03*
X59153Y-39960D03*
X48228Y-30118D03*
X41338Y-16535D03*
X37795Y-16535D03*
X37795Y-26476D03*
X41338Y-26476D03*
X55118Y-14566D03*
X55118Y-22047D03*
X46456Y-22047D03*
X46456Y-14566D03*
X62007Y-25196D03*
X38681Y-34251D03*
X34251Y-38976D03*
X34251Y-38385D03*
X34744Y-37893D03*
X33759Y-37893D03*
X42125Y-27362D03*
X43405Y-30019D03*
X42913Y-27362D03*
X42913Y-18996D03*
X44291Y-18996D03*
X54429Y-41338D03*
X51968Y-41338D03*
X48326Y-41338D03*
X45964Y-41338D03*
X46555Y-41338D03*
X47736Y-41338D03*
X52559Y-41338D03*
X53838Y-41338D03*
X59271Y-33562D03*
X61220Y-33562D03*
X61318Y-30708D03*
X62007Y-31102D03*
X57185Y-30413D03*
X50393Y-28051D03*
X50393Y-30019D03*
X52657Y-28051D03*
X52657Y-30019D03*
X54527Y-33464D03*
X54527Y-31791D03*
X43799Y-31889D03*
X43799Y-33858D03*
G54D22*
X65460Y-32086D02*
X65460Y-33358D01*
X65460Y-33358D02*
X64566Y-34251D01*
X64566Y-34251D02*
X57775Y-34251D01*
X55118Y-22047D02*
X64763Y-22047D01*
G54D23*
X52393Y-13385D02*
X56496Y-13385D01*
X56496Y-13385D02*
X57677Y-14566D01*
X57677Y-14566D02*
X65551Y-14566D01*
X65551Y-14566D02*
X66535Y-15551D01*
X66535Y-15551D02*
X66535Y-39763D01*
X66535Y-39763D02*
X65944Y-40354D01*
X65944Y-40354D02*
X64960Y-40354D01*
G54D22*
X46456Y-14566D02*
X45669Y-15354D01*
X45669Y-15354D02*
X45669Y-21259D01*
X45669Y-21259D02*
X46456Y-22047D01*
X37795Y-16535D02*
X37106Y-15846D01*
X37106Y-15846D02*
X33267Y-15846D01*
X33267Y-15846D02*
X32578Y-16535D01*
X58464Y-46751D02*
X62204Y-46751D01*
X50492Y-47047D02*
X50787Y-46751D01*
X50787Y-46751D02*
X58464Y-46751D01*
X43503Y-46751D02*
X44685Y-46751D01*
X44685Y-46751D02*
X45472Y-47539D01*
X45472Y-47539D02*
X50000Y-47539D01*
X50000Y-47539D02*
X50492Y-47047D01*
X37893Y-46751D02*
X43405Y-46751D01*
X43405Y-46751D02*
X43503Y-46751D01*
X37893Y-46751D02*
X34153Y-46751D01*
X58464Y-43405D02*
X61318Y-43405D01*
X54133Y-43405D02*
X58464Y-43405D01*
X52263Y-43405D02*
X54133Y-43405D01*
X49606Y-43405D02*
X52263Y-43405D01*
X43503Y-43405D02*
X49606Y-43405D01*
X43503Y-43405D02*
X37893Y-43405D01*
X57775Y-36023D02*
X57775Y-34251D01*
X57775Y-34251D02*
X57775Y-32086D01*
X57775Y-39960D02*
X57775Y-36023D01*
X37893Y-39960D02*
X37893Y-37303D01*
X40649Y-39960D02*
X37893Y-39960D01*
X41535Y-35137D02*
X41535Y-35728D01*
X40551Y-37303D02*
X40551Y-36122D01*
X40551Y-36122D02*
X40944Y-35728D01*
X40944Y-35728D02*
X41535Y-35728D01*
X41535Y-35728D02*
X42519Y-35728D01*
X40649Y-39960D02*
X40551Y-39862D01*
X40551Y-39862D02*
X40551Y-37303D01*
X41929Y-39960D02*
X40649Y-39960D01*
X43503Y-39960D02*
X43503Y-43405D01*
X41929Y-39960D02*
X43503Y-39960D01*
X43503Y-39960D02*
X45669Y-39960D01*
X45669Y-39960D02*
X48818Y-39960D01*
X48818Y-39960D02*
X51771Y-39960D01*
X51771Y-39960D02*
X56397Y-39960D01*
X56397Y-39960D02*
X57775Y-39960D01*
X57775Y-39960D02*
X59153Y-39960D01*
X48228Y-26476D02*
X48228Y-30118D01*
G54D24*
X37795Y-16535D02*
X41338Y-16535D01*
X41387Y-16584D02*
X41338Y-16535D01*
X41387Y-16584D02*
X41387Y-24458D01*
G54D22*
X46456Y-14566D02*
X55118Y-14566D01*
X43799Y-22047D02*
X41387Y-24458D01*
X41387Y-24458D02*
X39370Y-26476D01*
X43799Y-22047D02*
X46456Y-22047D01*
X55118Y-22047D02*
X46456Y-22047D01*
X41633Y-26476D02*
X41633Y-35039D01*
X41633Y-35039D02*
X41535Y-35137D01*
X62007Y-25196D02*
X57381Y-25196D01*
X57381Y-25196D02*
X55167Y-27411D01*
G54D25*
X31299Y-26476D02*
X37795Y-26476D01*
X37795Y-26476D02*
X39370Y-26476D01*
X39370Y-26476D02*
X41338Y-26476D01*
X41338Y-26476D02*
X41633Y-26476D01*
X41633Y-26476D02*
X48228Y-26476D01*
X48228Y-26476D02*
X54232Y-26476D01*
X54232Y-26476D02*
X55167Y-27411D01*
G54D22*
X38681Y-34251D02*
X40649Y-34251D01*
X40649Y-34251D02*
X41535Y-35137D01*
G54D25*
X47244Y-46456D02*
X47244Y-45767D01*
X47244Y-45767D02*
X46653Y-45177D01*
X46653Y-45177D02*
X34350Y-45177D01*
X34350Y-45177D02*
X29921Y-40748D01*
X29921Y-40748D02*
X29921Y-37696D01*
X29921Y-27755D02*
X31200Y-27755D01*
X31200Y-27755D02*
X31299Y-27854D01*
X29921Y-29527D02*
X29921Y-27755D01*
X29921Y-27755D02*
X29921Y-25590D01*
X29921Y-25590D02*
X30511Y-25000D01*
X30511Y-25000D02*
X37795Y-25000D01*
X37795Y-25000D02*
X39763Y-23031D01*
X39763Y-23031D02*
X39763Y-21948D01*
X29921Y-29527D02*
X29921Y-37696D01*
X29921Y-37696D02*
X30118Y-37893D01*
X30118Y-37893D02*
X31988Y-37893D01*
X31988Y-37893D02*
X33759Y-37893D01*
X35433Y-18685D02*
X36500Y-18685D01*
X36500Y-18685D02*
X39763Y-21948D01*
X35433Y-18685D02*
X34070Y-18685D01*
X32480Y-23622D02*
X31496Y-23622D01*
X33070Y-23031D02*
X32480Y-23622D01*
X33070Y-19685D02*
X33070Y-23031D01*
X34070Y-18685D02*
X33070Y-19685D01*
G54D26*
X42913Y-27362D02*
X42125Y-27362D01*
X43405Y-30019D02*
X43405Y-27854D01*
X43405Y-27854D02*
X42913Y-27362D01*
X42913Y-18996D02*
X44291Y-18996D01*
X53838Y-41338D02*
X54429Y-41338D01*
X51968Y-41338D02*
X52559Y-41338D01*
X47736Y-41338D02*
X48326Y-41338D01*
X45964Y-41338D02*
X46555Y-41338D01*
X47736Y-41338D02*
X46555Y-41338D01*
X53838Y-41338D02*
X52559Y-41338D01*
G54D22*
X61220Y-33562D02*
X64271Y-33562D01*
X64460Y-33374D02*
X64460Y-32086D01*
X64271Y-33562D02*
X64460Y-33374D01*
X61220Y-33562D02*
X59271Y-33562D01*
X64460Y-30421D02*
X64460Y-28740D01*
X64173Y-30708D02*
X64460Y-30421D01*
X61318Y-30708D02*
X64173Y-30708D01*
X65157Y-31200D02*
X62106Y-31200D01*
X62106Y-31200D02*
X62007Y-31102D01*
X65460Y-30897D02*
X65460Y-28740D01*
X65157Y-31200D02*
X65460Y-30897D01*
X65460Y-26074D02*
X65460Y-25393D01*
X63681Y-27854D02*
X65460Y-26074D01*
X63681Y-29921D02*
X63681Y-27854D01*
X63484Y-30118D02*
X63681Y-29921D01*
X60826Y-30118D02*
X63484Y-30118D01*
X60531Y-30413D02*
X60826Y-30118D01*
X57185Y-30413D02*
X60531Y-30413D01*
X50393Y-30019D02*
X50393Y-28051D01*
X52657Y-30019D02*
X52657Y-28051D01*
X54527Y-31791D02*
X54527Y-33464D01*
X43799Y-33858D02*
X43799Y-31889D01*
G54D10*
G36*
X67450Y-45727D02*
X67233Y-45203D01*
X66610Y-44579D01*
X65796Y-44241D01*
X65601Y-44241D01*
X65601Y-42195D01*
X65503Y-41960D01*
X65323Y-41780D01*
X65088Y-41682D01*
X64833Y-41682D01*
X64598Y-41779D01*
X64417Y-41959D01*
X64320Y-42194D01*
X64319Y-42449D01*
X64417Y-42685D01*
X64597Y-42865D01*
X64832Y-42963D01*
X65087Y-42963D01*
X65322Y-42866D01*
X65503Y-42686D01*
X65601Y-42450D01*
X65601Y-42195D01*
X65601Y-44241D01*
X64915Y-44240D01*
X64101Y-44577D01*
X63477Y-45200D01*
X63139Y-46014D01*
X63138Y-46895D01*
X63475Y-47709D01*
X64097Y-48333D01*
X64624Y-48552D01*
X61964Y-48552D01*
X61964Y-41722D01*
X61881Y-41521D01*
X61753Y-41393D01*
X61766Y-41393D01*
X61857Y-41355D01*
X61926Y-41286D01*
X61964Y-41195D01*
X61964Y-41097D01*
X61964Y-40497D01*
X61926Y-40406D01*
X61857Y-40337D01*
X61766Y-40299D01*
X61668Y-40299D01*
X61068Y-40299D01*
X60977Y-40337D01*
X60908Y-40406D01*
X60870Y-40497D01*
X60870Y-40595D01*
X60870Y-41195D01*
X60908Y-41286D01*
X60977Y-41355D01*
X61068Y-41393D01*
X61081Y-41393D01*
X60953Y-41520D01*
X60870Y-41721D01*
X60870Y-41938D01*
X60953Y-42139D01*
X61107Y-42293D01*
X61308Y-42377D01*
X61525Y-42377D01*
X61726Y-42294D01*
X61880Y-42140D01*
X61964Y-41939D01*
X61964Y-41722D01*
X61964Y-48552D01*
X54951Y-48552D01*
X54951Y-33380D01*
X54887Y-33224D01*
X54821Y-33159D01*
X54821Y-32096D01*
X54886Y-32031D01*
X54951Y-31876D01*
X54951Y-31707D01*
X54887Y-31551D01*
X54768Y-31432D01*
X54612Y-31367D01*
X54443Y-31367D01*
X54287Y-31431D01*
X54168Y-31550D01*
X54103Y-31706D01*
X54103Y-31875D01*
X54167Y-32031D01*
X54233Y-32096D01*
X54233Y-33159D01*
X54168Y-33224D01*
X54103Y-33379D01*
X54103Y-33548D01*
X54167Y-33704D01*
X54287Y-33823D01*
X54442Y-33888D01*
X54611Y-33888D01*
X54767Y-33824D01*
X54886Y-33705D01*
X54951Y-33549D01*
X54951Y-33380D01*
X54951Y-48552D01*
X54872Y-48552D01*
X54872Y-41338D01*
X54839Y-41168D01*
X54742Y-41024D01*
X54598Y-40928D01*
X54429Y-40894D01*
X53838Y-40894D01*
X53081Y-40894D01*
X53081Y-29935D01*
X53017Y-29779D01*
X52951Y-29714D01*
X52951Y-28356D01*
X53016Y-28291D01*
X53081Y-28135D01*
X53081Y-27967D01*
X53017Y-27811D01*
X52897Y-27691D01*
X52742Y-27627D01*
X52573Y-27627D01*
X52417Y-27691D01*
X52343Y-27765D01*
X52343Y-13873D01*
X52343Y-13435D01*
X52343Y-13335D01*
X52343Y-12898D01*
X52281Y-12835D01*
X52043Y-12835D01*
X51952Y-12873D01*
X51881Y-12944D01*
X51843Y-13036D01*
X51843Y-13135D01*
X51843Y-13273D01*
X51906Y-13335D01*
X52343Y-13335D01*
X52343Y-13435D01*
X51906Y-13435D01*
X51843Y-13498D01*
X51843Y-13636D01*
X51843Y-13735D01*
X51881Y-13827D01*
X51952Y-13897D01*
X52043Y-13935D01*
X52281Y-13935D01*
X52343Y-13873D01*
X52343Y-27765D01*
X52298Y-27810D01*
X52233Y-27966D01*
X52233Y-28135D01*
X52297Y-28291D01*
X52363Y-28356D01*
X52363Y-29714D01*
X52298Y-29779D01*
X52233Y-29934D01*
X52233Y-30103D01*
X52297Y-30259D01*
X52416Y-30378D01*
X52572Y-30443D01*
X52741Y-30443D01*
X52897Y-30379D01*
X53016Y-30260D01*
X53081Y-30104D01*
X53081Y-29935D01*
X53081Y-40894D01*
X52559Y-40894D01*
X51968Y-40894D01*
X51798Y-40928D01*
X51654Y-41024D01*
X51558Y-41168D01*
X51524Y-41338D01*
X51558Y-41508D01*
X51654Y-41652D01*
X51798Y-41748D01*
X51968Y-41782D01*
X52559Y-41782D01*
X53838Y-41782D01*
X54429Y-41782D01*
X54598Y-41748D01*
X54742Y-41652D01*
X54839Y-41508D01*
X54872Y-41338D01*
X54872Y-48552D01*
X50817Y-48552D01*
X50817Y-29935D01*
X50753Y-29779D01*
X50687Y-29714D01*
X50687Y-28356D01*
X50752Y-28291D01*
X50817Y-28135D01*
X50817Y-27967D01*
X50753Y-27811D01*
X50634Y-27691D01*
X50478Y-27627D01*
X50309Y-27627D01*
X50153Y-27691D01*
X50034Y-27810D01*
X49969Y-27966D01*
X49969Y-28135D01*
X50034Y-28291D01*
X50099Y-28356D01*
X50099Y-29714D01*
X50034Y-29779D01*
X49969Y-29934D01*
X49969Y-30103D01*
X50034Y-30259D01*
X50153Y-30378D01*
X50308Y-30443D01*
X50477Y-30443D01*
X50633Y-30379D01*
X50752Y-30260D01*
X50817Y-30104D01*
X50817Y-29935D01*
X50817Y-48552D01*
X50119Y-48552D01*
X50119Y-36433D01*
X50078Y-36223D01*
X49959Y-36046D01*
X49790Y-35933D01*
X49959Y-35819D01*
X50078Y-35642D01*
X50119Y-35433D01*
X50078Y-35223D01*
X49959Y-35046D01*
X49860Y-34979D01*
X49908Y-34979D01*
X49999Y-34942D01*
X50068Y-34872D01*
X50106Y-34782D01*
X50106Y-34683D01*
X50106Y-34083D01*
X50068Y-33993D01*
X49999Y-33923D01*
X49908Y-33886D01*
X49810Y-33886D01*
X48940Y-33886D01*
X48940Y-13277D01*
X48857Y-13076D01*
X48703Y-12922D01*
X48502Y-12839D01*
X48285Y-12838D01*
X48084Y-12921D01*
X47930Y-13075D01*
X47846Y-13276D01*
X47846Y-13494D01*
X47929Y-13695D01*
X48083Y-13849D01*
X48284Y-13932D01*
X48501Y-13932D01*
X48703Y-13849D01*
X48857Y-13695D01*
X48940Y-13495D01*
X48940Y-13277D01*
X48940Y-33886D01*
X48910Y-33886D01*
X48819Y-33923D01*
X48750Y-33993D01*
X48712Y-34083D01*
X48712Y-34182D01*
X48712Y-34782D01*
X48750Y-34872D01*
X48819Y-34942D01*
X48910Y-34979D01*
X48958Y-34979D01*
X48859Y-35046D01*
X48740Y-35223D01*
X48698Y-35433D01*
X48740Y-35642D01*
X48859Y-35819D01*
X49028Y-35933D01*
X48859Y-36046D01*
X48740Y-36223D01*
X48698Y-36433D01*
X48740Y-36642D01*
X48859Y-36819D01*
X49036Y-36938D01*
X49245Y-36979D01*
X49573Y-36979D01*
X49782Y-36938D01*
X49959Y-36819D01*
X50078Y-36642D01*
X50119Y-36433D01*
X50119Y-48552D01*
X48790Y-48552D01*
X48790Y-46955D01*
X48790Y-46857D01*
X48790Y-45957D01*
X48770Y-45908D01*
X48770Y-41338D01*
X48736Y-41168D01*
X48640Y-41024D01*
X48496Y-40928D01*
X48326Y-40894D01*
X47736Y-40894D01*
X47625Y-40894D01*
X47625Y-13734D01*
X47625Y-13636D01*
X47625Y-13036D01*
X47588Y-12945D01*
X47518Y-12876D01*
X47427Y-12838D01*
X47329Y-12838D01*
X46729Y-12838D01*
X46638Y-12876D01*
X46569Y-12945D01*
X46531Y-13036D01*
X46531Y-13134D01*
X46531Y-13734D01*
X46569Y-13825D01*
X46638Y-13895D01*
X46729Y-13932D01*
X46827Y-13932D01*
X47427Y-13932D01*
X47518Y-13895D01*
X47588Y-13825D01*
X47625Y-13734D01*
X47625Y-40894D01*
X46555Y-40894D01*
X45964Y-40894D01*
X45794Y-40928D01*
X45650Y-41024D01*
X45554Y-41168D01*
X45520Y-41338D01*
X45554Y-41508D01*
X45650Y-41652D01*
X45794Y-41748D01*
X45964Y-41782D01*
X46555Y-41782D01*
X47736Y-41782D01*
X48326Y-41782D01*
X48496Y-41748D01*
X48640Y-41652D01*
X48736Y-41508D01*
X48770Y-41338D01*
X48770Y-45908D01*
X48753Y-45866D01*
X48683Y-45797D01*
X48593Y-45759D01*
X48494Y-45759D01*
X47922Y-45759D01*
X47880Y-45550D01*
X47872Y-45507D01*
X47872Y-45507D01*
X47724Y-45286D01*
X47724Y-45286D01*
X47134Y-44696D01*
X46913Y-44549D01*
X46870Y-44540D01*
X46653Y-44497D01*
X44735Y-44497D01*
X44735Y-18996D01*
X44701Y-18826D01*
X44605Y-18682D01*
X44461Y-18586D01*
X44291Y-18552D01*
X43625Y-18552D01*
X43625Y-13277D01*
X43542Y-13076D01*
X43388Y-12922D01*
X43187Y-12839D01*
X42970Y-12838D01*
X42769Y-12921D01*
X42615Y-13075D01*
X42531Y-13276D01*
X42531Y-13494D01*
X42614Y-13695D01*
X42768Y-13849D01*
X42969Y-13932D01*
X43187Y-13932D01*
X43388Y-13849D01*
X43542Y-13695D01*
X43625Y-13495D01*
X43625Y-13277D01*
X43625Y-18552D01*
X42913Y-18552D01*
X42743Y-18586D01*
X42599Y-18682D01*
X42503Y-18826D01*
X42469Y-18996D01*
X42503Y-19165D01*
X42599Y-19309D01*
X42743Y-19405D01*
X42913Y-19439D01*
X44291Y-19439D01*
X44461Y-19405D01*
X44605Y-19309D01*
X44701Y-19165D01*
X44735Y-18996D01*
X44735Y-44497D01*
X44223Y-44497D01*
X44223Y-33774D01*
X44158Y-33618D01*
X44093Y-33552D01*
X44093Y-32195D01*
X44158Y-32130D01*
X44223Y-31974D01*
X44223Y-31805D01*
X44158Y-31649D01*
X44039Y-31530D01*
X43883Y-31465D01*
X43849Y-31465D01*
X43849Y-30019D01*
X43849Y-27854D01*
X43815Y-27684D01*
X43719Y-27540D01*
X43227Y-27048D01*
X43083Y-26952D01*
X42913Y-26918D01*
X42318Y-26918D01*
X42318Y-11892D01*
X42307Y-11674D01*
X42245Y-11523D01*
X42149Y-11495D01*
X42078Y-11566D01*
X42078Y-11425D01*
X42051Y-11329D01*
X41845Y-11256D01*
X41627Y-11267D01*
X41475Y-11329D01*
X41448Y-11425D01*
X41763Y-11740D01*
X42078Y-11425D01*
X42078Y-11566D01*
X41834Y-11811D01*
X42149Y-12126D01*
X42245Y-12098D01*
X42318Y-11892D01*
X42318Y-26918D01*
X42310Y-26918D01*
X42310Y-13734D01*
X42310Y-13636D01*
X42310Y-13036D01*
X42273Y-12945D01*
X42203Y-12876D01*
X42112Y-12838D01*
X42078Y-12838D01*
X42078Y-12196D01*
X41763Y-11881D01*
X41693Y-11952D01*
X41693Y-11811D01*
X41377Y-11495D01*
X41282Y-11523D01*
X41208Y-11729D01*
X41219Y-11947D01*
X41282Y-12098D01*
X41377Y-12126D01*
X41693Y-11811D01*
X41693Y-11952D01*
X41448Y-12196D01*
X41475Y-12292D01*
X41682Y-12365D01*
X41900Y-12354D01*
X42051Y-12292D01*
X42078Y-12196D01*
X42078Y-12838D01*
X42014Y-12838D01*
X41414Y-12838D01*
X41323Y-12876D01*
X41254Y-12945D01*
X41216Y-13036D01*
X41216Y-13134D01*
X41216Y-13734D01*
X41254Y-13825D01*
X41323Y-13895D01*
X41414Y-13932D01*
X41512Y-13932D01*
X42112Y-13932D01*
X42203Y-13895D01*
X42273Y-13825D01*
X42310Y-13734D01*
X42310Y-26918D01*
X42125Y-26918D01*
X41956Y-26952D01*
X41812Y-27048D01*
X41716Y-27192D01*
X41682Y-27362D01*
X41716Y-27532D01*
X41812Y-27675D01*
X41956Y-27772D01*
X42125Y-27805D01*
X42729Y-27805D01*
X42961Y-28038D01*
X42961Y-30019D01*
X42995Y-30189D01*
X43091Y-30333D01*
X43235Y-30429D01*
X43405Y-30463D01*
X43575Y-30429D01*
X43719Y-30333D01*
X43815Y-30189D01*
X43849Y-30019D01*
X43849Y-31465D01*
X43715Y-31465D01*
X43559Y-31530D01*
X43439Y-31649D01*
X43375Y-31805D01*
X43375Y-31973D01*
X43439Y-32129D01*
X43505Y-32195D01*
X43505Y-33552D01*
X43439Y-33617D01*
X43375Y-33773D01*
X43375Y-33942D01*
X43439Y-34098D01*
X43558Y-34217D01*
X43714Y-34282D01*
X43883Y-34282D01*
X44039Y-34217D01*
X44158Y-34098D01*
X44223Y-33942D01*
X44223Y-33774D01*
X44223Y-44497D01*
X34632Y-44497D01*
X30601Y-40466D01*
X30601Y-38573D01*
X31741Y-38573D01*
X31741Y-41290D01*
X37451Y-41290D01*
X37451Y-35186D01*
X37324Y-35186D01*
X37324Y-33283D01*
X37283Y-33074D01*
X37164Y-32896D01*
X36994Y-32783D01*
X37164Y-32670D01*
X37283Y-32492D01*
X37324Y-32283D01*
X37283Y-32074D01*
X37164Y-31896D01*
X37065Y-31830D01*
X37113Y-31830D01*
X37204Y-31792D01*
X37273Y-31723D01*
X37311Y-31632D01*
X37311Y-31534D01*
X37311Y-30934D01*
X37273Y-30843D01*
X37204Y-30774D01*
X37113Y-30736D01*
X37015Y-30736D01*
X36115Y-30736D01*
X36024Y-30774D01*
X35954Y-30843D01*
X35917Y-30934D01*
X35917Y-31032D01*
X35917Y-31632D01*
X35954Y-31723D01*
X36024Y-31792D01*
X36115Y-31830D01*
X36163Y-31830D01*
X36063Y-31896D01*
X35945Y-32074D01*
X35903Y-32283D01*
X35945Y-32492D01*
X36063Y-32670D01*
X36233Y-32783D01*
X36063Y-32896D01*
X35945Y-33074D01*
X35903Y-33283D01*
X35945Y-33492D01*
X36063Y-33670D01*
X36241Y-33788D01*
X36450Y-33830D01*
X36777Y-33830D01*
X36987Y-33788D01*
X37164Y-33670D01*
X37283Y-33492D01*
X37324Y-33283D01*
X37324Y-35186D01*
X37007Y-35186D01*
X31741Y-35186D01*
X31741Y-37213D01*
X30601Y-37213D01*
X30601Y-29527D01*
X30601Y-28435D01*
X30969Y-28435D01*
X31039Y-28482D01*
X31299Y-28534D01*
X31559Y-28482D01*
X31779Y-28335D01*
X31927Y-28114D01*
X31979Y-27854D01*
X31927Y-27594D01*
X31849Y-27477D01*
X31849Y-26826D01*
X31849Y-26588D01*
X31849Y-26363D01*
X31849Y-26126D01*
X31811Y-26034D01*
X31740Y-25964D01*
X31648Y-25926D01*
X31549Y-25926D01*
X31411Y-25926D01*
X31349Y-25988D01*
X31349Y-26426D01*
X31786Y-26426D01*
X31849Y-26363D01*
X31849Y-26588D01*
X31786Y-26526D01*
X31349Y-26526D01*
X31349Y-26963D01*
X31411Y-27026D01*
X31549Y-27026D01*
X31648Y-27026D01*
X31740Y-26988D01*
X31811Y-26917D01*
X31849Y-26826D01*
X31849Y-27477D01*
X31779Y-27373D01*
X31681Y-27275D01*
X31460Y-27127D01*
X31417Y-27119D01*
X31249Y-27085D01*
X31249Y-26963D01*
X31249Y-26526D01*
X31249Y-26426D01*
X31249Y-25988D01*
X31186Y-25926D01*
X31048Y-25926D01*
X30949Y-25926D01*
X30857Y-25964D01*
X30787Y-26034D01*
X30749Y-26126D01*
X30749Y-26363D01*
X30811Y-26426D01*
X31249Y-26426D01*
X31249Y-26526D01*
X30811Y-26526D01*
X30749Y-26588D01*
X30749Y-26826D01*
X30787Y-26917D01*
X30857Y-26988D01*
X30949Y-27026D01*
X31048Y-27026D01*
X31186Y-27026D01*
X31249Y-26963D01*
X31249Y-27085D01*
X31200Y-27075D01*
X30601Y-27075D01*
X30601Y-25872D01*
X30793Y-25679D01*
X37795Y-25679D01*
X37795Y-25679D01*
X38012Y-25636D01*
X38055Y-25628D01*
X38055Y-25628D01*
X38276Y-25480D01*
X40244Y-23512D01*
X40244Y-23512D01*
X40391Y-23291D01*
X40443Y-23031D01*
X40443Y-21948D01*
X40391Y-21688D01*
X40310Y-21566D01*
X40310Y-19345D01*
X40310Y-19247D01*
X40310Y-18647D01*
X40273Y-18556D01*
X40203Y-18487D01*
X40112Y-18449D01*
X40014Y-18449D01*
X39414Y-18449D01*
X39323Y-18487D01*
X39254Y-18556D01*
X39216Y-18647D01*
X39216Y-18745D01*
X39216Y-19345D01*
X39254Y-19436D01*
X39323Y-19505D01*
X39414Y-19543D01*
X39512Y-19543D01*
X40112Y-19543D01*
X40203Y-19505D01*
X40273Y-19436D01*
X40310Y-19345D01*
X40310Y-21566D01*
X40244Y-21467D01*
X38310Y-19533D01*
X38310Y-13277D01*
X38310Y-13277D01*
X38310Y-12160D01*
X38310Y-12061D01*
X38310Y-11461D01*
X38273Y-11371D01*
X38203Y-11301D01*
X38112Y-11264D01*
X38014Y-11264D01*
X37414Y-11264D01*
X37323Y-11301D01*
X37254Y-11371D01*
X37216Y-11461D01*
X37216Y-11560D01*
X37216Y-12160D01*
X37254Y-12250D01*
X37323Y-12320D01*
X37414Y-12357D01*
X37512Y-12357D01*
X38112Y-12357D01*
X38203Y-12320D01*
X38273Y-12250D01*
X38310Y-12160D01*
X38310Y-13277D01*
X38227Y-13076D01*
X38073Y-12922D01*
X37873Y-12839D01*
X37655Y-12838D01*
X37454Y-12921D01*
X37300Y-13075D01*
X37217Y-13276D01*
X37216Y-13494D01*
X37299Y-13695D01*
X37453Y-13849D01*
X37654Y-13932D01*
X37872Y-13932D01*
X38073Y-13849D01*
X38227Y-13695D01*
X38310Y-13495D01*
X38310Y-13277D01*
X38310Y-19533D01*
X36981Y-18204D01*
X36760Y-18056D01*
X36717Y-18048D01*
X36500Y-18005D01*
X36073Y-18005D01*
X36073Y-16558D01*
X35976Y-16322D01*
X35796Y-16142D01*
X35561Y-16044D01*
X35306Y-16044D01*
X35070Y-16141D01*
X34890Y-16321D01*
X34792Y-16557D01*
X34792Y-16811D01*
X34889Y-17047D01*
X35069Y-17227D01*
X35305Y-17325D01*
X35559Y-17325D01*
X35795Y-17228D01*
X35975Y-17048D01*
X36073Y-16813D01*
X36073Y-16558D01*
X36073Y-18005D01*
X35433Y-18005D01*
X34070Y-18005D01*
X33810Y-18056D01*
X33737Y-18105D01*
X33590Y-18204D01*
X32590Y-19204D01*
X32442Y-19424D01*
X32434Y-19468D01*
X32390Y-19685D01*
X32390Y-22749D01*
X32198Y-22942D01*
X32136Y-22942D01*
X32136Y-21526D01*
X32136Y-19558D01*
X32039Y-19322D01*
X31859Y-19142D01*
X31624Y-19044D01*
X31369Y-19044D01*
X31133Y-19141D01*
X30953Y-19321D01*
X30855Y-19557D01*
X30855Y-19811D01*
X30952Y-20047D01*
X31132Y-20227D01*
X31368Y-20325D01*
X31622Y-20325D01*
X31858Y-20228D01*
X32038Y-20048D01*
X32136Y-19813D01*
X32136Y-19558D01*
X32136Y-21526D01*
X32039Y-21291D01*
X31859Y-21110D01*
X31624Y-21013D01*
X31369Y-21012D01*
X31133Y-21110D01*
X30953Y-21290D01*
X30855Y-21525D01*
X30855Y-21780D01*
X30952Y-22015D01*
X31132Y-22196D01*
X31368Y-22293D01*
X31622Y-22294D01*
X31858Y-22196D01*
X32038Y-22016D01*
X32136Y-21781D01*
X32136Y-21526D01*
X32136Y-22942D01*
X31496Y-22942D01*
X31235Y-22993D01*
X31015Y-23141D01*
X30867Y-23361D01*
X30816Y-23622D01*
X30867Y-23882D01*
X31015Y-24102D01*
X31235Y-24250D01*
X31496Y-24301D01*
X32480Y-24301D01*
X32480Y-24301D01*
X32697Y-24258D01*
X32740Y-24250D01*
X32740Y-24250D01*
X32961Y-24102D01*
X33551Y-23512D01*
X33551Y-23512D01*
X33699Y-23291D01*
X33699Y-23291D01*
X33707Y-23248D01*
X33750Y-23031D01*
X33750Y-23031D01*
X33750Y-19966D01*
X34352Y-19364D01*
X35433Y-19364D01*
X36218Y-19364D01*
X39083Y-22230D01*
X39083Y-22749D01*
X37513Y-24320D01*
X36073Y-24320D01*
X36073Y-22558D01*
X36073Y-20558D01*
X35976Y-20322D01*
X35796Y-20142D01*
X35561Y-20044D01*
X35306Y-20044D01*
X35070Y-20141D01*
X34890Y-20321D01*
X34792Y-20557D01*
X34792Y-20811D01*
X34889Y-21047D01*
X35069Y-21227D01*
X35305Y-21325D01*
X35559Y-21325D01*
X35795Y-21228D01*
X35975Y-21048D01*
X36073Y-20813D01*
X36073Y-20558D01*
X36073Y-22558D01*
X35976Y-22322D01*
X35796Y-22142D01*
X35561Y-22044D01*
X35306Y-22044D01*
X35070Y-22141D01*
X34890Y-22321D01*
X34792Y-22557D01*
X34792Y-22811D01*
X34889Y-23047D01*
X35069Y-23227D01*
X35305Y-23325D01*
X35559Y-23325D01*
X35795Y-23228D01*
X35975Y-23048D01*
X36073Y-22813D01*
X36073Y-22558D01*
X36073Y-24320D01*
X30511Y-24320D01*
X30294Y-24363D01*
X30251Y-24371D01*
X30031Y-24519D01*
X29440Y-25109D01*
X29293Y-25330D01*
X29284Y-25373D01*
X29241Y-25590D01*
X29241Y-27755D01*
X29241Y-29527D01*
X29241Y-37696D01*
X29241Y-40748D01*
X29284Y-40965D01*
X29293Y-41008D01*
X29440Y-41228D01*
X33869Y-45657D01*
X34090Y-45805D01*
X34350Y-45857D01*
X45931Y-45857D01*
X45857Y-45906D01*
X45738Y-46083D01*
X45697Y-46293D01*
X45697Y-46620D01*
X45738Y-46829D01*
X45857Y-47007D01*
X46034Y-47125D01*
X46244Y-47167D01*
X46453Y-47125D01*
X46630Y-47007D01*
X46720Y-46873D01*
X46763Y-46937D01*
X46849Y-46994D01*
X46857Y-47007D01*
X47034Y-47125D01*
X47244Y-47167D01*
X47453Y-47125D01*
X47630Y-47007D01*
X47638Y-46994D01*
X47697Y-46955D01*
X47734Y-47046D01*
X47804Y-47115D01*
X47894Y-47153D01*
X47993Y-47153D01*
X48593Y-47153D01*
X48683Y-47115D01*
X48753Y-47046D01*
X48790Y-46955D01*
X48790Y-48552D01*
X31437Y-48552D01*
X31961Y-48335D01*
X32585Y-47713D01*
X32923Y-46899D01*
X32924Y-46017D01*
X32587Y-45203D01*
X31965Y-44579D01*
X31151Y-44241D01*
X30269Y-44240D01*
X29455Y-44577D01*
X28831Y-45200D01*
X28612Y-45726D01*
X28612Y-12540D01*
X28829Y-13064D01*
X29452Y-13688D01*
X30266Y-14025D01*
X31147Y-14026D01*
X31961Y-13690D01*
X32585Y-13067D01*
X32923Y-12253D01*
X32924Y-11372D01*
X32587Y-10557D01*
X31965Y-9934D01*
X31438Y-9715D01*
X64625Y-9715D01*
X64101Y-9931D01*
X63477Y-10554D01*
X63139Y-11368D01*
X63138Y-12249D01*
X63475Y-13064D01*
X64097Y-13688D01*
X64223Y-13740D01*
X62876Y-13740D01*
X62876Y-13475D01*
X62876Y-10028D01*
X57989Y-10028D01*
X57989Y-13475D01*
X62876Y-13475D01*
X62876Y-13740D01*
X57971Y-13740D01*
X56790Y-12559D01*
X52716Y-12559D01*
X52716Y-12835D01*
X52506Y-12835D01*
X52443Y-12898D01*
X52443Y-13335D01*
X52451Y-13335D01*
X52451Y-13435D01*
X52443Y-13435D01*
X52443Y-13873D01*
X52506Y-13935D01*
X52716Y-13935D01*
X52716Y-14212D01*
X56004Y-14212D01*
X57185Y-15393D01*
X65256Y-15393D01*
X65708Y-15845D01*
X65708Y-24696D01*
X65111Y-24696D01*
X65020Y-24734D01*
X64951Y-24803D01*
X64913Y-24894D01*
X64913Y-24942D01*
X64847Y-24843D01*
X64669Y-24724D01*
X64460Y-24683D01*
X64251Y-24724D01*
X64073Y-24843D01*
X63955Y-25020D01*
X63913Y-25230D01*
X63913Y-25557D01*
X63955Y-25766D01*
X64073Y-25944D01*
X64251Y-26062D01*
X64460Y-26104D01*
X64669Y-26062D01*
X64847Y-25944D01*
X64913Y-25844D01*
X64913Y-25892D01*
X64951Y-25983D01*
X65020Y-26052D01*
X65053Y-26066D01*
X63473Y-27646D01*
X63409Y-27741D01*
X63387Y-27854D01*
X63387Y-29799D01*
X63362Y-29824D01*
X60826Y-29824D01*
X60714Y-29846D01*
X60618Y-29910D01*
X60409Y-30119D01*
X57490Y-30119D01*
X57425Y-30054D01*
X57269Y-29989D01*
X57101Y-29989D01*
X56945Y-30053D01*
X56825Y-30172D01*
X56761Y-30328D01*
X56760Y-30497D01*
X56825Y-30653D01*
X56944Y-30772D01*
X57100Y-30837D01*
X57269Y-30837D01*
X57424Y-30773D01*
X57490Y-30707D01*
X60531Y-30707D01*
X60644Y-30685D01*
X60644Y-30685D01*
X60739Y-30621D01*
X60948Y-30412D01*
X61015Y-30412D01*
X60959Y-30468D01*
X60894Y-30623D01*
X60894Y-30792D01*
X60959Y-30948D01*
X61078Y-31067D01*
X61234Y-31132D01*
X61402Y-31132D01*
X61558Y-31068D01*
X61583Y-31043D01*
X61583Y-31186D01*
X61648Y-31342D01*
X61767Y-31461D01*
X61923Y-31526D01*
X62091Y-31526D01*
X62168Y-31494D01*
X64135Y-31494D01*
X64073Y-31536D01*
X63955Y-31713D01*
X63913Y-31922D01*
X63913Y-32250D01*
X63955Y-32459D01*
X64073Y-32636D01*
X64166Y-32698D01*
X64166Y-33252D01*
X64149Y-33268D01*
X61526Y-33268D01*
X61460Y-33203D01*
X61305Y-33139D01*
X61136Y-33138D01*
X60980Y-33203D01*
X60914Y-33268D01*
X59577Y-33268D01*
X59512Y-33203D01*
X59356Y-33139D01*
X59187Y-33138D01*
X59031Y-33203D01*
X58912Y-33322D01*
X58847Y-33478D01*
X58847Y-33646D01*
X58911Y-33802D01*
X59031Y-33922D01*
X59186Y-33986D01*
X59355Y-33987D01*
X59511Y-33922D01*
X59577Y-33857D01*
X60914Y-33857D01*
X60979Y-33922D01*
X61135Y-33986D01*
X61304Y-33987D01*
X61460Y-33922D01*
X61526Y-33857D01*
X64271Y-33857D01*
X64384Y-33834D01*
X64384Y-33834D01*
X64479Y-33770D01*
X64668Y-33581D01*
X64668Y-33581D01*
X64668Y-33581D01*
X64711Y-33518D01*
X64732Y-33486D01*
X64732Y-33486D01*
X64754Y-33374D01*
X64754Y-33374D01*
X64754Y-33374D01*
X64754Y-32698D01*
X64847Y-32636D01*
X64910Y-32542D01*
X64910Y-32586D01*
X64948Y-32678D01*
X65019Y-32748D01*
X65110Y-32786D01*
X65348Y-32786D01*
X65410Y-32724D01*
X65410Y-32136D01*
X65402Y-32136D01*
X65402Y-32036D01*
X65410Y-32036D01*
X65410Y-31449D01*
X65367Y-31406D01*
X65668Y-31105D01*
X65668Y-31105D01*
X65668Y-31105D01*
X65708Y-31045D01*
X65708Y-31386D01*
X65573Y-31386D01*
X65510Y-31449D01*
X65510Y-32036D01*
X65518Y-32036D01*
X65518Y-32136D01*
X65510Y-32136D01*
X65510Y-32724D01*
X65573Y-32786D01*
X65708Y-32786D01*
X65708Y-39272D01*
X65650Y-39330D01*
X65601Y-39330D01*
X65601Y-37274D01*
X65601Y-35306D01*
X65503Y-35070D01*
X65323Y-34890D01*
X65088Y-34792D01*
X64833Y-34792D01*
X64598Y-34889D01*
X64417Y-35069D01*
X64320Y-35305D01*
X64319Y-35559D01*
X64417Y-35795D01*
X64597Y-35975D01*
X64832Y-36073D01*
X65087Y-36073D01*
X65322Y-35976D01*
X65503Y-35796D01*
X65601Y-35561D01*
X65601Y-35306D01*
X65601Y-37274D01*
X65503Y-37039D01*
X65323Y-36858D01*
X65088Y-36761D01*
X64833Y-36760D01*
X64598Y-36858D01*
X64417Y-37038D01*
X64320Y-37273D01*
X64319Y-37528D01*
X64417Y-37763D01*
X64597Y-37944D01*
X64832Y-38042D01*
X65087Y-38042D01*
X65322Y-37944D01*
X65503Y-37764D01*
X65601Y-37529D01*
X65601Y-37274D01*
X65601Y-39330D01*
X64665Y-39330D01*
X64133Y-39862D01*
X64133Y-40845D01*
X64665Y-41377D01*
X66239Y-41377D01*
X67362Y-40255D01*
X67362Y-15256D01*
X66033Y-13927D01*
X66607Y-13690D01*
X67231Y-13067D01*
X67450Y-12540D01*
X67450Y-45727D01*
X67450Y-45727D01*
G37*
G54D27*
X67450Y-45727D02*
X67233Y-45203D01*
X66610Y-44579D01*
X65796Y-44241D01*
X65601Y-44241D01*
X65601Y-42195D01*
X65503Y-41960D01*
X65323Y-41780D01*
X65088Y-41682D01*
X64833Y-41682D01*
X64598Y-41779D01*
X64417Y-41959D01*
X64320Y-42194D01*
X64319Y-42449D01*
X64417Y-42685D01*
X64597Y-42865D01*
X64832Y-42963D01*
X65087Y-42963D01*
X65322Y-42866D01*
X65503Y-42686D01*
X65601Y-42450D01*
X65601Y-42195D01*
X65601Y-44241D01*
X64915Y-44240D01*
X64101Y-44577D01*
X63477Y-45200D01*
X63139Y-46014D01*
X63138Y-46895D01*
X63475Y-47709D01*
X64097Y-48333D01*
X64624Y-48552D01*
X61964Y-48552D01*
X61964Y-41722D01*
X61881Y-41521D01*
X61753Y-41393D01*
X61766Y-41393D01*
X61857Y-41355D01*
X61926Y-41286D01*
X61964Y-41195D01*
X61964Y-41097D01*
X61964Y-40497D01*
X61926Y-40406D01*
X61857Y-40337D01*
X61766Y-40299D01*
X61668Y-40299D01*
X61068Y-40299D01*
X60977Y-40337D01*
X60908Y-40406D01*
X60870Y-40497D01*
X60870Y-40595D01*
X60870Y-41195D01*
X60908Y-41286D01*
X60977Y-41355D01*
X61068Y-41393D01*
X61081Y-41393D01*
X60953Y-41520D01*
X60870Y-41721D01*
X60870Y-41938D01*
X60953Y-42139D01*
X61107Y-42293D01*
X61308Y-42377D01*
X61525Y-42377D01*
X61726Y-42294D01*
X61880Y-42140D01*
X61964Y-41939D01*
X61964Y-41722D01*
X61964Y-48552D01*
X54951Y-48552D01*
X54951Y-33380D01*
X54887Y-33224D01*
X54821Y-33159D01*
X54821Y-32096D01*
X54886Y-32031D01*
X54951Y-31876D01*
X54951Y-31707D01*
X54887Y-31551D01*
X54768Y-31432D01*
X54612Y-31367D01*
X54443Y-31367D01*
X54287Y-31431D01*
X54168Y-31550D01*
X54103Y-31706D01*
X54103Y-31875D01*
X54167Y-32031D01*
X54233Y-32096D01*
X54233Y-33159D01*
X54168Y-33224D01*
X54103Y-33379D01*
X54103Y-33548D01*
X54167Y-33704D01*
X54287Y-33823D01*
X54442Y-33888D01*
X54611Y-33888D01*
X54767Y-33824D01*
X54886Y-33705D01*
X54951Y-33549D01*
X54951Y-33380D01*
X54951Y-48552D01*
X54872Y-48552D01*
X54872Y-41338D01*
X54839Y-41168D01*
X54742Y-41024D01*
X54598Y-40928D01*
X54429Y-40894D01*
X53838Y-40894D01*
X53081Y-40894D01*
X53081Y-29935D01*
X53017Y-29779D01*
X52951Y-29714D01*
X52951Y-28356D01*
X53016Y-28291D01*
X53081Y-28135D01*
X53081Y-27967D01*
X53017Y-27811D01*
X52897Y-27691D01*
X52742Y-27627D01*
X52573Y-27627D01*
X52417Y-27691D01*
X52343Y-27765D01*
X52343Y-13873D01*
X52343Y-13435D01*
X52343Y-13335D01*
X52343Y-12898D01*
X52281Y-12835D01*
X52043Y-12835D01*
X51952Y-12873D01*
X51881Y-12944D01*
X51843Y-13036D01*
X51843Y-13135D01*
X51843Y-13273D01*
X51906Y-13335D01*
X52343Y-13335D01*
X52343Y-13435D01*
X51906Y-13435D01*
X51843Y-13498D01*
X51843Y-13636D01*
X51843Y-13735D01*
X51881Y-13827D01*
X51952Y-13897D01*
X52043Y-13935D01*
X52281Y-13935D01*
X52343Y-13873D01*
X52343Y-27765D01*
X52298Y-27810D01*
X52233Y-27966D01*
X52233Y-28135D01*
X52297Y-28291D01*
X52363Y-28356D01*
X52363Y-29714D01*
X52298Y-29779D01*
X52233Y-29934D01*
X52233Y-30103D01*
X52297Y-30259D01*
X52416Y-30378D01*
X52572Y-30443D01*
X52741Y-30443D01*
X52897Y-30379D01*
X53016Y-30260D01*
X53081Y-30104D01*
X53081Y-29935D01*
X53081Y-40894D01*
X52559Y-40894D01*
X51968Y-40894D01*
X51798Y-40928D01*
X51654Y-41024D01*
X51558Y-41168D01*
X51524Y-41338D01*
X51558Y-41508D01*
X51654Y-41652D01*
X51798Y-41748D01*
X51968Y-41782D01*
X52559Y-41782D01*
X53838Y-41782D01*
X54429Y-41782D01*
X54598Y-41748D01*
X54742Y-41652D01*
X54839Y-41508D01*
X54872Y-41338D01*
X54872Y-48552D01*
X50817Y-48552D01*
X50817Y-29935D01*
X50753Y-29779D01*
X50687Y-29714D01*
X50687Y-28356D01*
X50752Y-28291D01*
X50817Y-28135D01*
X50817Y-27967D01*
X50753Y-27811D01*
X50634Y-27691D01*
X50478Y-27627D01*
X50309Y-27627D01*
X50153Y-27691D01*
X50034Y-27810D01*
X49969Y-27966D01*
X49969Y-28135D01*
X50034Y-28291D01*
X50099Y-28356D01*
X50099Y-29714D01*
X50034Y-29779D01*
X49969Y-29934D01*
X49969Y-30103D01*
X50034Y-30259D01*
X50153Y-30378D01*
X50308Y-30443D01*
X50477Y-30443D01*
X50633Y-30379D01*
X50752Y-30260D01*
X50817Y-30104D01*
X50817Y-29935D01*
X50817Y-48552D01*
X50119Y-48552D01*
X50119Y-36433D01*
X50078Y-36223D01*
X49959Y-36046D01*
X49790Y-35933D01*
X49959Y-35819D01*
X50078Y-35642D01*
X50119Y-35433D01*
X50078Y-35223D01*
X49959Y-35046D01*
X49860Y-34979D01*
X49908Y-34979D01*
X49999Y-34942D01*
X50068Y-34872D01*
X50106Y-34782D01*
X50106Y-34683D01*
X50106Y-34083D01*
X50068Y-33993D01*
X49999Y-33923D01*
X49908Y-33886D01*
X49810Y-33886D01*
X48940Y-33886D01*
X48940Y-13277D01*
X48857Y-13076D01*
X48703Y-12922D01*
X48502Y-12839D01*
X48285Y-12838D01*
X48084Y-12921D01*
X47930Y-13075D01*
X47846Y-13276D01*
X47846Y-13494D01*
X47929Y-13695D01*
X48083Y-13849D01*
X48284Y-13932D01*
X48501Y-13932D01*
X48703Y-13849D01*
X48857Y-13695D01*
X48940Y-13495D01*
X48940Y-13277D01*
X48940Y-33886D01*
X48910Y-33886D01*
X48819Y-33923D01*
X48750Y-33993D01*
X48712Y-34083D01*
X48712Y-34182D01*
X48712Y-34782D01*
X48750Y-34872D01*
X48819Y-34942D01*
X48910Y-34979D01*
X48958Y-34979D01*
X48859Y-35046D01*
X48740Y-35223D01*
X48698Y-35433D01*
X48740Y-35642D01*
X48859Y-35819D01*
X49028Y-35933D01*
X48859Y-36046D01*
X48740Y-36223D01*
X48698Y-36433D01*
X48740Y-36642D01*
X48859Y-36819D01*
X49036Y-36938D01*
X49245Y-36979D01*
X49573Y-36979D01*
X49782Y-36938D01*
X49959Y-36819D01*
X50078Y-36642D01*
X50119Y-36433D01*
X50119Y-48552D01*
X48790Y-48552D01*
X48790Y-46955D01*
X48790Y-46857D01*
X48790Y-45957D01*
X48770Y-45908D01*
X48770Y-41338D01*
X48736Y-41168D01*
X48640Y-41024D01*
X48496Y-40928D01*
X48326Y-40894D01*
X47736Y-40894D01*
X47625Y-40894D01*
X47625Y-13734D01*
X47625Y-13636D01*
X47625Y-13036D01*
X47588Y-12945D01*
X47518Y-12876D01*
X47427Y-12838D01*
X47329Y-12838D01*
X46729Y-12838D01*
X46638Y-12876D01*
X46569Y-12945D01*
X46531Y-13036D01*
X46531Y-13134D01*
X46531Y-13734D01*
X46569Y-13825D01*
X46638Y-13895D01*
X46729Y-13932D01*
X46827Y-13932D01*
X47427Y-13932D01*
X47518Y-13895D01*
X47588Y-13825D01*
X47625Y-13734D01*
X47625Y-40894D01*
X46555Y-40894D01*
X45964Y-40894D01*
X45794Y-40928D01*
X45650Y-41024D01*
X45554Y-41168D01*
X45520Y-41338D01*
X45554Y-41508D01*
X45650Y-41652D01*
X45794Y-41748D01*
X45964Y-41782D01*
X46555Y-41782D01*
X47736Y-41782D01*
X48326Y-41782D01*
X48496Y-41748D01*
X48640Y-41652D01*
X48736Y-41508D01*
X48770Y-41338D01*
X48770Y-45908D01*
X48753Y-45866D01*
X48683Y-45797D01*
X48593Y-45759D01*
X48494Y-45759D01*
X47922Y-45759D01*
X47880Y-45550D01*
X47872Y-45507D01*
X47872Y-45507D01*
X47724Y-45286D01*
X47724Y-45286D01*
X47134Y-44696D01*
X46913Y-44549D01*
X46870Y-44540D01*
X46653Y-44497D01*
X44735Y-44497D01*
X44735Y-18996D01*
X44701Y-18826D01*
X44605Y-18682D01*
X44461Y-18586D01*
X44291Y-18552D01*
X43625Y-18552D01*
X43625Y-13277D01*
X43542Y-13076D01*
X43388Y-12922D01*
X43187Y-12839D01*
X42970Y-12838D01*
X42769Y-12921D01*
X42615Y-13075D01*
X42531Y-13276D01*
X42531Y-13494D01*
X42614Y-13695D01*
X42768Y-13849D01*
X42969Y-13932D01*
X43187Y-13932D01*
X43388Y-13849D01*
X43542Y-13695D01*
X43625Y-13495D01*
X43625Y-13277D01*
X43625Y-18552D01*
X42913Y-18552D01*
X42743Y-18586D01*
X42599Y-18682D01*
X42503Y-18826D01*
X42469Y-18996D01*
X42503Y-19165D01*
X42599Y-19309D01*
X42743Y-19405D01*
X42913Y-19439D01*
X44291Y-19439D01*
X44461Y-19405D01*
X44605Y-19309D01*
X44701Y-19165D01*
X44735Y-18996D01*
X44735Y-44497D01*
X44223Y-44497D01*
X44223Y-33774D01*
X44158Y-33618D01*
X44093Y-33552D01*
X44093Y-32195D01*
X44158Y-32130D01*
X44223Y-31974D01*
X44223Y-31805D01*
X44158Y-31649D01*
X44039Y-31530D01*
X43883Y-31465D01*
X43849Y-31465D01*
X43849Y-30019D01*
X43849Y-27854D01*
X43815Y-27684D01*
X43719Y-27540D01*
X43227Y-27048D01*
X43083Y-26952D01*
X42913Y-26918D01*
X42318Y-26918D01*
X42318Y-11892D01*
X42307Y-11674D01*
X42245Y-11523D01*
X42149Y-11495D01*
X42078Y-11566D01*
X42078Y-11425D01*
X42051Y-11329D01*
X41845Y-11256D01*
X41627Y-11267D01*
X41475Y-11329D01*
X41448Y-11425D01*
X41763Y-11740D01*
X42078Y-11425D01*
X42078Y-11566D01*
X41834Y-11811D01*
X42149Y-12126D01*
X42245Y-12098D01*
X42318Y-11892D01*
X42318Y-26918D01*
X42310Y-26918D01*
X42310Y-13734D01*
X42310Y-13636D01*
X42310Y-13036D01*
X42273Y-12945D01*
X42203Y-12876D01*
X42112Y-12838D01*
X42078Y-12838D01*
X42078Y-12196D01*
X41763Y-11881D01*
X41693Y-11952D01*
X41693Y-11811D01*
X41377Y-11495D01*
X41282Y-11523D01*
X41208Y-11729D01*
X41219Y-11947D01*
X41282Y-12098D01*
X41377Y-12126D01*
X41693Y-11811D01*
X41693Y-11952D01*
X41448Y-12196D01*
X41475Y-12292D01*
X41682Y-12365D01*
X41900Y-12354D01*
X42051Y-12292D01*
X42078Y-12196D01*
X42078Y-12838D01*
X42014Y-12838D01*
X41414Y-12838D01*
X41323Y-12876D01*
X41254Y-12945D01*
X41216Y-13036D01*
X41216Y-13134D01*
X41216Y-13734D01*
X41254Y-13825D01*
X41323Y-13895D01*
X41414Y-13932D01*
X41512Y-13932D01*
X42112Y-13932D01*
X42203Y-13895D01*
X42273Y-13825D01*
X42310Y-13734D01*
X42310Y-26918D01*
X42125Y-26918D01*
X41956Y-26952D01*
X41812Y-27048D01*
X41716Y-27192D01*
X41682Y-27362D01*
X41716Y-27532D01*
X41812Y-27675D01*
X41956Y-27772D01*
X42125Y-27805D01*
X42729Y-27805D01*
X42961Y-28038D01*
X42961Y-30019D01*
X42995Y-30189D01*
X43091Y-30333D01*
X43235Y-30429D01*
X43405Y-30463D01*
X43575Y-30429D01*
X43719Y-30333D01*
X43815Y-30189D01*
X43849Y-30019D01*
X43849Y-31465D01*
X43715Y-31465D01*
X43559Y-31530D01*
X43439Y-31649D01*
X43375Y-31805D01*
X43375Y-31973D01*
X43439Y-32129D01*
X43505Y-32195D01*
X43505Y-33552D01*
X43439Y-33617D01*
X43375Y-33773D01*
X43375Y-33942D01*
X43439Y-34098D01*
X43558Y-34217D01*
X43714Y-34282D01*
X43883Y-34282D01*
X44039Y-34217D01*
X44158Y-34098D01*
X44223Y-33942D01*
X44223Y-33774D01*
X44223Y-44497D01*
X34632Y-44497D01*
X30601Y-40466D01*
X30601Y-38573D01*
X31741Y-38573D01*
X31741Y-41290D01*
X37451Y-41290D01*
X37451Y-35186D01*
X37324Y-35186D01*
X37324Y-33283D01*
X37283Y-33074D01*
X37164Y-32896D01*
X36994Y-32783D01*
X37164Y-32670D01*
X37283Y-32492D01*
X37324Y-32283D01*
X37283Y-32074D01*
X37164Y-31896D01*
X37065Y-31830D01*
X37113Y-31830D01*
X37204Y-31792D01*
X37273Y-31723D01*
X37311Y-31632D01*
X37311Y-31534D01*
X37311Y-30934D01*
X37273Y-30843D01*
X37204Y-30774D01*
X37113Y-30736D01*
X37015Y-30736D01*
X36115Y-30736D01*
X36024Y-30774D01*
X35954Y-30843D01*
X35917Y-30934D01*
X35917Y-31032D01*
X35917Y-31632D01*
X35954Y-31723D01*
X36024Y-31792D01*
X36115Y-31830D01*
X36163Y-31830D01*
X36063Y-31896D01*
X35945Y-32074D01*
X35903Y-32283D01*
X35945Y-32492D01*
X36063Y-32670D01*
X36233Y-32783D01*
X36063Y-32896D01*
X35945Y-33074D01*
X35903Y-33283D01*
X35945Y-33492D01*
X36063Y-33670D01*
X36241Y-33788D01*
X36450Y-33830D01*
X36777Y-33830D01*
X36987Y-33788D01*
X37164Y-33670D01*
X37283Y-33492D01*
X37324Y-33283D01*
X37324Y-35186D01*
X37007Y-35186D01*
X31741Y-35186D01*
X31741Y-37213D01*
X30601Y-37213D01*
X30601Y-29527D01*
X30601Y-28435D01*
X30969Y-28435D01*
X31039Y-28482D01*
X31299Y-28534D01*
X31559Y-28482D01*
X31779Y-28335D01*
X31927Y-28114D01*
X31979Y-27854D01*
X31927Y-27594D01*
X31849Y-27477D01*
X31849Y-26826D01*
X31849Y-26588D01*
X31849Y-26363D01*
X31849Y-26126D01*
X31811Y-26034D01*
X31740Y-25964D01*
X31648Y-25926D01*
X31549Y-25926D01*
X31411Y-25926D01*
X31349Y-25988D01*
X31349Y-26426D01*
X31786Y-26426D01*
X31849Y-26363D01*
X31849Y-26588D01*
X31786Y-26526D01*
X31349Y-26526D01*
X31349Y-26963D01*
X31411Y-27026D01*
X31549Y-27026D01*
X31648Y-27026D01*
X31740Y-26988D01*
X31811Y-26917D01*
X31849Y-26826D01*
X31849Y-27477D01*
X31779Y-27373D01*
X31681Y-27275D01*
X31460Y-27127D01*
X31417Y-27119D01*
X31249Y-27085D01*
X31249Y-26963D01*
X31249Y-26526D01*
X31249Y-26426D01*
X31249Y-25988D01*
X31186Y-25926D01*
X31048Y-25926D01*
X30949Y-25926D01*
X30857Y-25964D01*
X30787Y-26034D01*
X30749Y-26126D01*
X30749Y-26363D01*
X30811Y-26426D01*
X31249Y-26426D01*
X31249Y-26526D01*
X30811Y-26526D01*
X30749Y-26588D01*
X30749Y-26826D01*
X30787Y-26917D01*
X30857Y-26988D01*
X30949Y-27026D01*
X31048Y-27026D01*
X31186Y-27026D01*
X31249Y-26963D01*
X31249Y-27085D01*
X31200Y-27075D01*
X30601Y-27075D01*
X30601Y-25872D01*
X30793Y-25679D01*
X37795Y-25679D01*
X37795Y-25679D01*
X38012Y-25636D01*
X38055Y-25628D01*
X38055Y-25628D01*
X38276Y-25480D01*
X40244Y-23512D01*
X40244Y-23512D01*
X40391Y-23291D01*
X40443Y-23031D01*
X40443Y-21948D01*
X40391Y-21688D01*
X40310Y-21566D01*
X40310Y-19345D01*
X40310Y-19247D01*
X40310Y-18647D01*
X40273Y-18556D01*
X40203Y-18487D01*
X40112Y-18449D01*
X40014Y-18449D01*
X39414Y-18449D01*
X39323Y-18487D01*
X39254Y-18556D01*
X39216Y-18647D01*
X39216Y-18745D01*
X39216Y-19345D01*
X39254Y-19436D01*
X39323Y-19505D01*
X39414Y-19543D01*
X39512Y-19543D01*
X40112Y-19543D01*
X40203Y-19505D01*
X40273Y-19436D01*
X40310Y-19345D01*
X40310Y-21566D01*
X40244Y-21467D01*
X38310Y-19533D01*
X38310Y-13277D01*
X38310Y-13277D01*
X38310Y-12160D01*
X38310Y-12061D01*
X38310Y-11461D01*
X38273Y-11371D01*
X38203Y-11301D01*
X38112Y-11264D01*
X38014Y-11264D01*
X37414Y-11264D01*
X37323Y-11301D01*
X37254Y-11371D01*
X37216Y-11461D01*
X37216Y-11560D01*
X37216Y-12160D01*
X37254Y-12250D01*
X37323Y-12320D01*
X37414Y-12357D01*
X37512Y-12357D01*
X38112Y-12357D01*
X38203Y-12320D01*
X38273Y-12250D01*
X38310Y-12160D01*
X38310Y-13277D01*
X38227Y-13076D01*
X38073Y-12922D01*
X37873Y-12839D01*
X37655Y-12838D01*
X37454Y-12921D01*
X37300Y-13075D01*
X37217Y-13276D01*
X37216Y-13494D01*
X37299Y-13695D01*
X37453Y-13849D01*
X37654Y-13932D01*
X37872Y-13932D01*
X38073Y-13849D01*
X38227Y-13695D01*
X38310Y-13495D01*
X38310Y-13277D01*
X38310Y-19533D01*
X36981Y-18204D01*
X36760Y-18056D01*
X36717Y-18048D01*
X36500Y-18005D01*
X36073Y-18005D01*
X36073Y-16558D01*
X35976Y-16322D01*
X35796Y-16142D01*
X35561Y-16044D01*
X35306Y-16044D01*
X35070Y-16141D01*
X34890Y-16321D01*
X34792Y-16557D01*
X34792Y-16811D01*
X34889Y-17047D01*
X35069Y-17227D01*
X35305Y-17325D01*
X35559Y-17325D01*
X35795Y-17228D01*
X35975Y-17048D01*
X36073Y-16813D01*
X36073Y-16558D01*
X36073Y-18005D01*
X35433Y-18005D01*
X34070Y-18005D01*
X33810Y-18056D01*
X33737Y-18105D01*
X33590Y-18204D01*
X32590Y-19204D01*
X32442Y-19424D01*
X32434Y-19468D01*
X32390Y-19685D01*
X32390Y-22749D01*
X32198Y-22942D01*
X32136Y-22942D01*
X32136Y-21526D01*
X32136Y-19558D01*
X32039Y-19322D01*
X31859Y-19142D01*
X31624Y-19044D01*
X31369Y-19044D01*
X31133Y-19141D01*
X30953Y-19321D01*
X30855Y-19557D01*
X30855Y-19811D01*
X30952Y-20047D01*
X31132Y-20227D01*
X31368Y-20325D01*
X31622Y-20325D01*
X31858Y-20228D01*
X32038Y-20048D01*
X32136Y-19813D01*
X32136Y-19558D01*
X32136Y-21526D01*
X32039Y-21291D01*
X31859Y-21110D01*
X31624Y-21013D01*
X31369Y-21012D01*
X31133Y-21110D01*
X30953Y-21290D01*
X30855Y-21525D01*
X30855Y-21780D01*
X30952Y-22015D01*
X31132Y-22196D01*
X31368Y-22293D01*
X31622Y-22294D01*
X31858Y-22196D01*
X32038Y-22016D01*
X32136Y-21781D01*
X32136Y-21526D01*
X32136Y-22942D01*
X31496Y-22942D01*
X31235Y-22993D01*
X31015Y-23141D01*
X30867Y-23361D01*
X30816Y-23622D01*
X30867Y-23882D01*
X31015Y-24102D01*
X31235Y-24250D01*
X31496Y-24301D01*
X32480Y-24301D01*
X32480Y-24301D01*
X32697Y-24258D01*
X32740Y-24250D01*
X32740Y-24250D01*
X32961Y-24102D01*
X33551Y-23512D01*
X33551Y-23512D01*
X33699Y-23291D01*
X33699Y-23291D01*
X33707Y-23248D01*
X33750Y-23031D01*
X33750Y-23031D01*
X33750Y-19966D01*
X34352Y-19364D01*
X35433Y-19364D01*
X36218Y-19364D01*
X39083Y-22230D01*
X39083Y-22749D01*
X37513Y-24320D01*
X36073Y-24320D01*
X36073Y-22558D01*
X36073Y-20558D01*
X35976Y-20322D01*
X35796Y-20142D01*
X35561Y-20044D01*
X35306Y-20044D01*
X35070Y-20141D01*
X34890Y-20321D01*
X34792Y-20557D01*
X34792Y-20811D01*
X34889Y-21047D01*
X35069Y-21227D01*
X35305Y-21325D01*
X35559Y-21325D01*
X35795Y-21228D01*
X35975Y-21048D01*
X36073Y-20813D01*
X36073Y-20558D01*
X36073Y-22558D01*
X35976Y-22322D01*
X35796Y-22142D01*
X35561Y-22044D01*
X35306Y-22044D01*
X35070Y-22141D01*
X34890Y-22321D01*
X34792Y-22557D01*
X34792Y-22811D01*
X34889Y-23047D01*
X35069Y-23227D01*
X35305Y-23325D01*
X35559Y-23325D01*
X35795Y-23228D01*
X35975Y-23048D01*
X36073Y-22813D01*
X36073Y-22558D01*
X36073Y-24320D01*
X30511Y-24320D01*
X30294Y-24363D01*
X30251Y-24371D01*
X30031Y-24519D01*
X29440Y-25109D01*
X29293Y-25330D01*
X29284Y-25373D01*
X29241Y-25590D01*
X29241Y-27755D01*
X29241Y-29527D01*
X29241Y-37696D01*
X29241Y-40748D01*
X29284Y-40965D01*
X29293Y-41008D01*
X29440Y-41228D01*
X33869Y-45657D01*
X34090Y-45805D01*
X34350Y-45857D01*
X45931Y-45857D01*
X45857Y-45906D01*
X45738Y-46083D01*
X45697Y-46293D01*
X45697Y-46620D01*
X45738Y-46829D01*
X45857Y-47007D01*
X46034Y-47125D01*
X46244Y-47167D01*
X46453Y-47125D01*
X46630Y-47007D01*
X46720Y-46873D01*
X46763Y-46937D01*
X46849Y-46994D01*
X46857Y-47007D01*
X47034Y-47125D01*
X47244Y-47167D01*
X47453Y-47125D01*
X47630Y-47007D01*
X47638Y-46994D01*
X47697Y-46955D01*
X47734Y-47046D01*
X47804Y-47115D01*
X47894Y-47153D01*
X47993Y-47153D01*
X48593Y-47153D01*
X48683Y-47115D01*
X48753Y-47046D01*
X48790Y-46955D01*
X48790Y-48552D01*
X31437Y-48552D01*
X31961Y-48335D01*
X32585Y-47713D01*
X32923Y-46899D01*
X32924Y-46017D01*
X32587Y-45203D01*
X31965Y-44579D01*
X31151Y-44241D01*
X30269Y-44240D01*
X29455Y-44577D01*
X28831Y-45200D01*
X28612Y-45726D01*
X28612Y-12540D01*
X28829Y-13064D01*
X29452Y-13688D01*
X30266Y-14025D01*
X31147Y-14026D01*
X31961Y-13690D01*
X32585Y-13067D01*
X32923Y-12253D01*
X32924Y-11372D01*
X32587Y-10557D01*
X31965Y-9934D01*
X31438Y-9715D01*
X64625Y-9715D01*
X64101Y-9931D01*
X63477Y-10554D01*
X63139Y-11368D01*
X63138Y-12249D01*
X63475Y-13064D01*
X64097Y-13688D01*
X64223Y-13740D01*
X62876Y-13740D01*
X62876Y-13475D01*
X62876Y-10028D01*
X57989Y-10028D01*
X57989Y-13475D01*
X62876Y-13475D01*
X62876Y-13740D01*
X57971Y-13740D01*
X56790Y-12559D01*
X52716Y-12559D01*
X52716Y-12835D01*
X52506Y-12835D01*
X52443Y-12898D01*
X52443Y-13335D01*
X52451Y-13335D01*
X52451Y-13435D01*
X52443Y-13435D01*
X52443Y-13873D01*
X52506Y-13935D01*
X52716Y-13935D01*
X52716Y-14212D01*
X56004Y-14212D01*
X57185Y-15393D01*
X65256Y-15393D01*
X65708Y-15845D01*
X65708Y-24696D01*
X65111Y-24696D01*
X65020Y-24734D01*
X64951Y-24803D01*
X64913Y-24894D01*
X64913Y-24942D01*
X64847Y-24843D01*
X64669Y-24724D01*
X64460Y-24683D01*
X64251Y-24724D01*
X64073Y-24843D01*
X63955Y-25020D01*
X63913Y-25230D01*
X63913Y-25557D01*
X63955Y-25766D01*
X64073Y-25944D01*
X64251Y-26062D01*
X64460Y-26104D01*
X64669Y-26062D01*
X64847Y-25944D01*
X64913Y-25844D01*
X64913Y-25892D01*
X64951Y-25983D01*
X65020Y-26052D01*
X65053Y-26066D01*
X63473Y-27646D01*
X63409Y-27741D01*
X63387Y-27854D01*
X63387Y-29799D01*
X63362Y-29824D01*
X60826Y-29824D01*
X60714Y-29846D01*
X60618Y-29910D01*
X60409Y-30119D01*
X57490Y-30119D01*
X57425Y-30054D01*
X57269Y-29989D01*
X57101Y-29989D01*
X56945Y-30053D01*
X56825Y-30172D01*
X56761Y-30328D01*
X56760Y-30497D01*
X56825Y-30653D01*
X56944Y-30772D01*
X57100Y-30837D01*
X57269Y-30837D01*
X57424Y-30773D01*
X57490Y-30707D01*
X60531Y-30707D01*
X60644Y-30685D01*
X60644Y-30685D01*
X60739Y-30621D01*
X60948Y-30412D01*
X61015Y-30412D01*
X60959Y-30468D01*
X60894Y-30623D01*
X60894Y-30792D01*
X60959Y-30948D01*
X61078Y-31067D01*
X61234Y-31132D01*
X61402Y-31132D01*
X61558Y-31068D01*
X61583Y-31043D01*
X61583Y-31186D01*
X61648Y-31342D01*
X61767Y-31461D01*
X61923Y-31526D01*
X62091Y-31526D01*
X62168Y-31494D01*
X64135Y-31494D01*
X64073Y-31536D01*
X63955Y-31713D01*
X63913Y-31922D01*
X63913Y-32250D01*
X63955Y-32459D01*
X64073Y-32636D01*
X64166Y-32698D01*
X64166Y-33252D01*
X64149Y-33268D01*
X61526Y-33268D01*
X61460Y-33203D01*
X61305Y-33139D01*
X61136Y-33138D01*
X60980Y-33203D01*
X60914Y-33268D01*
X59577Y-33268D01*
X59512Y-33203D01*
X59356Y-33139D01*
X59187Y-33138D01*
X59031Y-33203D01*
X58912Y-33322D01*
X58847Y-33478D01*
X58847Y-33646D01*
X58911Y-33802D01*
X59031Y-33922D01*
X59186Y-33986D01*
X59355Y-33987D01*
X59511Y-33922D01*
X59577Y-33857D01*
X60914Y-33857D01*
X60979Y-33922D01*
X61135Y-33986D01*
X61304Y-33987D01*
X61460Y-33922D01*
X61526Y-33857D01*
X64271Y-33857D01*
X64384Y-33834D01*
X64384Y-33834D01*
X64479Y-33770D01*
X64668Y-33581D01*
X64668Y-33581D01*
X64668Y-33581D01*
X64711Y-33518D01*
X64732Y-33486D01*
X64732Y-33486D01*
X64754Y-33374D01*
X64754Y-33374D01*
X64754Y-33374D01*
X64754Y-32698D01*
X64847Y-32636D01*
X64910Y-32542D01*
X64910Y-32586D01*
X64948Y-32678D01*
X65019Y-32748D01*
X65110Y-32786D01*
X65348Y-32786D01*
X65410Y-32724D01*
X65410Y-32136D01*
X65402Y-32136D01*
X65402Y-32036D01*
X65410Y-32036D01*
X65410Y-31449D01*
X65367Y-31406D01*
X65668Y-31105D01*
X65668Y-31105D01*
X65668Y-31105D01*
X65708Y-31045D01*
X65708Y-31386D01*
X65573Y-31386D01*
X65510Y-31449D01*
X65510Y-32036D01*
X65518Y-32036D01*
X65518Y-32136D01*
X65510Y-32136D01*
X65510Y-32724D01*
X65573Y-32786D01*
X65708Y-32786D01*
X65708Y-39272D01*
X65650Y-39330D01*
X65601Y-39330D01*
X65601Y-37274D01*
X65601Y-35306D01*
X65503Y-35070D01*
X65323Y-34890D01*
X65088Y-34792D01*
X64833Y-34792D01*
X64598Y-34889D01*
X64417Y-35069D01*
X64320Y-35305D01*
X64319Y-35559D01*
X64417Y-35795D01*
X64597Y-35975D01*
X64832Y-36073D01*
X65087Y-36073D01*
X65322Y-35976D01*
X65503Y-35796D01*
X65601Y-35561D01*
X65601Y-35306D01*
X65601Y-37274D01*
X65503Y-37039D01*
X65323Y-36858D01*
X65088Y-36761D01*
X64833Y-36760D01*
X64598Y-36858D01*
X64417Y-37038D01*
X64320Y-37273D01*
X64319Y-37528D01*
X64417Y-37763D01*
X64597Y-37944D01*
X64832Y-38042D01*
X65087Y-38042D01*
X65322Y-37944D01*
X65503Y-37764D01*
X65601Y-37529D01*
X65601Y-37274D01*
X65601Y-39330D01*
X64665Y-39330D01*
X64133Y-39862D01*
X64133Y-40845D01*
X64665Y-41377D01*
X66239Y-41377D01*
X67362Y-40255D01*
X67362Y-15256D01*
X66033Y-13927D01*
X66607Y-13690D01*
X67231Y-13067D01*
X67450Y-12540D01*
X67450Y-45727D01*
G54D10*
G36*
X37154Y-40993D02*
X32038Y-40993D01*
X32038Y-35483D01*
X37007Y-35483D01*
X37154Y-35483D01*
X37154Y-40993D01*
X37154Y-40993D01*
G37*
G54D27*
X37154Y-40993D02*
X32038Y-40993D01*
X32038Y-35483D01*
X37007Y-35483D01*
X37154Y-35483D01*
X37154Y-40993D01*
M02*
