%FSLAX34Y34*%
G04 Gerber Fmt 3.4, Leading zero omitted, Abs format*
G04 (created by PCBNEW (2014-03-14 BZR 4748)-product) date Mon 17 Mar 2014 11:54:22 PM EDT*
%MOIN*%
G01*
G70*
G90*
G04 APERTURE LIST*
%ADD10C,0.005906*%
%ADD11C,0.003937*%
%ADD12C,0.011811*%
%ADD13R,0.090000X0.060000*%
%ADD14O,0.090000X0.060000*%
%ADD15C,0.118110*%
%ADD16R,0.060000X0.060000*%
%ADD17C,0.060000*%
%ADD18R,0.060000X0.090000*%
%ADD19O,0.060000X0.090000*%
%ADD20C,0.035433*%
%ADD21C,0.009449*%
%ADD22C,0.026772*%
%ADD23C,0.047244*%
%ADD24C,0.086614*%
%ADD25C,0.007874*%
%ADD26C,0.012992*%
%ADD27C,0.022047*%
%ADD28C,0.010000*%
G04 APERTURE END LIST*
G54D10*
G54D11*
X88543Y-24488D02*
X88543Y-22598D01*
X88307Y-24488D02*
X88543Y-24488D01*
X88307Y-24488D02*
G75*
G03X87598Y-25196I0J-708D01*
G74*
G01*
X87598Y-25196D02*
G75*
G03X88307Y-25905I708J0D01*
G74*
G01*
X88543Y-25905D02*
X88307Y-25905D01*
X88543Y-48897D02*
X88543Y-25905D01*
X88307Y-48897D02*
X88543Y-48897D01*
X88307Y-48897D02*
G75*
G03X87598Y-49606I0J-708D01*
G74*
G01*
X87598Y-49606D02*
G75*
G03X88307Y-50314I708J0D01*
G74*
G01*
X88543Y-50314D02*
X88307Y-50314D01*
X88543Y-52125D02*
X88543Y-50314D01*
X49173Y-50314D02*
X49173Y-52125D01*
X49527Y-50314D02*
X49173Y-50314D01*
X49527Y-50314D02*
G75*
G03X50236Y-49606I0J708D01*
G74*
G01*
X50236Y-49606D02*
G75*
G03X49527Y-48897I-708J0D01*
G74*
G01*
X49173Y-48897D02*
X49527Y-48897D01*
X49173Y-25905D02*
X49173Y-48897D01*
X49527Y-25905D02*
X49173Y-25905D01*
X49527Y-25905D02*
G75*
G03X50236Y-25196I0J708D01*
G74*
G01*
X50236Y-25196D02*
G75*
G03X49527Y-24488I-708J0D01*
G74*
G01*
X49173Y-24488D02*
X49527Y-24488D01*
X49173Y-22598D02*
X49173Y-24488D01*
X88543Y-52125D02*
X49173Y-52125D01*
X49173Y-22598D02*
X88543Y-22598D01*
G54D12*
X66282Y-54091D02*
X66366Y-54119D01*
X66394Y-54147D01*
X66422Y-54204D01*
X66422Y-54288D01*
X66394Y-54344D01*
X66366Y-54372D01*
X66310Y-54401D01*
X66085Y-54401D01*
X66085Y-53810D01*
X66282Y-53810D01*
X66338Y-53838D01*
X66366Y-53866D01*
X66394Y-53922D01*
X66394Y-53979D01*
X66366Y-54035D01*
X66338Y-54063D01*
X66282Y-54091D01*
X66085Y-54091D01*
X66647Y-54232D02*
X66929Y-54232D01*
X66591Y-54401D02*
X66788Y-53810D01*
X66985Y-54401D01*
X67519Y-54344D02*
X67491Y-54372D01*
X67407Y-54401D01*
X67350Y-54401D01*
X67266Y-54372D01*
X67210Y-54316D01*
X67182Y-54260D01*
X67154Y-54147D01*
X67154Y-54063D01*
X67182Y-53951D01*
X67210Y-53894D01*
X67266Y-53838D01*
X67350Y-53810D01*
X67407Y-53810D01*
X67491Y-53838D01*
X67519Y-53866D01*
X67772Y-54401D02*
X67772Y-53810D01*
X68110Y-54401D02*
X67857Y-54063D01*
X68110Y-53810D02*
X67772Y-54147D01*
X69150Y-54344D02*
X69122Y-54372D01*
X69038Y-54401D01*
X68982Y-54401D01*
X68897Y-54372D01*
X68841Y-54316D01*
X68813Y-54260D01*
X68785Y-54147D01*
X68785Y-54063D01*
X68813Y-53951D01*
X68841Y-53894D01*
X68897Y-53838D01*
X68982Y-53810D01*
X69038Y-53810D01*
X69122Y-53838D01*
X69150Y-53866D01*
X69516Y-53810D02*
X69628Y-53810D01*
X69685Y-53838D01*
X69741Y-53894D01*
X69769Y-54007D01*
X69769Y-54204D01*
X69741Y-54316D01*
X69685Y-54372D01*
X69628Y-54401D01*
X69516Y-54401D01*
X69460Y-54372D01*
X69403Y-54316D01*
X69375Y-54204D01*
X69375Y-54007D01*
X69403Y-53894D01*
X69460Y-53838D01*
X69516Y-53810D01*
X70022Y-54401D02*
X70022Y-53810D01*
X70247Y-53810D01*
X70303Y-53838D01*
X70331Y-53866D01*
X70359Y-53922D01*
X70359Y-54007D01*
X70331Y-54063D01*
X70303Y-54091D01*
X70247Y-54119D01*
X70022Y-54119D01*
X70613Y-54401D02*
X70613Y-53810D01*
X70838Y-53810D01*
X70894Y-53838D01*
X70922Y-53866D01*
X70950Y-53922D01*
X70950Y-54007D01*
X70922Y-54063D01*
X70894Y-54091D01*
X70838Y-54119D01*
X70613Y-54119D01*
X71203Y-54091D02*
X71400Y-54091D01*
X71484Y-54401D02*
X71203Y-54401D01*
X71203Y-53810D01*
X71484Y-53810D01*
X72075Y-54401D02*
X71878Y-54119D01*
X71737Y-54401D02*
X71737Y-53810D01*
X71962Y-53810D01*
X72019Y-53838D01*
X72047Y-53866D01*
X72075Y-53922D01*
X72075Y-54007D01*
X72047Y-54063D01*
X72019Y-54091D01*
X71962Y-54119D01*
X71737Y-54119D01*
G54D13*
X87007Y-29027D03*
G54D14*
X87007Y-30027D03*
G54D15*
X64960Y-45669D03*
X63385Y-45669D03*
X61811Y-45669D03*
G54D16*
X60826Y-29232D03*
G54D17*
X60826Y-32184D03*
G54D18*
X55692Y-38582D03*
G54D19*
X56692Y-38582D03*
X57692Y-38582D03*
G54D13*
X87007Y-36688D03*
G54D14*
X87007Y-37688D03*
X87007Y-38688D03*
X87007Y-39688D03*
G54D18*
X77452Y-39370D03*
G54D19*
X78452Y-39370D03*
G54D18*
X69078Y-35826D03*
G54D19*
X70078Y-35826D03*
X71078Y-35826D03*
G54D18*
X73318Y-28937D03*
G54D19*
X74318Y-28937D03*
G54D18*
X70972Y-28937D03*
G54D19*
X69972Y-28937D03*
G54D16*
X77165Y-42815D03*
G54D17*
X77165Y-43799D03*
G54D15*
X50787Y-28740D03*
X50787Y-31496D03*
X50787Y-34251D03*
X87007Y-43307D03*
X87007Y-46062D03*
G54D16*
X56299Y-43208D03*
G54D17*
X56299Y-44192D03*
G54D16*
X65944Y-30216D03*
G54D17*
X65944Y-31200D03*
G54D10*
G36*
X62204Y-42034D02*
X61508Y-41338D01*
X62204Y-40642D01*
X62900Y-41338D01*
X62204Y-42034D01*
X62204Y-42034D01*
G37*
G36*
X66535Y-35735D02*
X65839Y-35039D01*
X66535Y-34343D01*
X67231Y-35039D01*
X66535Y-35735D01*
X66535Y-35735D01*
G37*
G36*
X76377Y-38688D02*
X75681Y-37992D01*
X76377Y-37296D01*
X77073Y-37992D01*
X76377Y-38688D01*
X76377Y-38688D01*
G37*
G36*
X54527Y-40853D02*
X53831Y-40157D01*
X54527Y-39461D01*
X55223Y-40157D01*
X54527Y-40853D01*
X54527Y-40853D01*
G37*
G54D20*
X74311Y-36909D03*
X51968Y-36909D03*
X50984Y-36909D03*
X65551Y-33759D03*
X64566Y-36417D03*
X66732Y-36811D03*
X79232Y-35236D03*
X77165Y-35334D03*
X57086Y-34940D03*
X59448Y-47244D03*
X52559Y-42519D03*
X52559Y-40748D03*
X69291Y-39173D03*
X68503Y-40748D03*
X68503Y-39173D03*
X70078Y-39173D03*
X69291Y-39960D03*
X70078Y-39960D03*
X70078Y-40748D03*
X68503Y-39960D03*
X72047Y-43307D03*
X72047Y-42125D03*
X72047Y-42913D03*
X72047Y-42519D03*
X72047Y-41732D03*
X67519Y-32086D03*
X67519Y-31496D03*
X68110Y-32086D03*
X67814Y-31791D03*
X68110Y-31496D03*
X64566Y-43307D03*
X69291Y-40748D03*
X51574Y-44094D03*
X60039Y-42814D03*
X73818Y-40354D03*
X75196Y-40157D03*
X59448Y-46456D03*
X59448Y-45669D03*
X58267Y-46456D03*
X58267Y-45669D03*
X57086Y-45669D03*
X75885Y-27559D03*
X57086Y-46456D03*
X86811Y-26377D03*
X86811Y-23818D03*
X87992Y-23818D03*
X86811Y-25196D03*
X87992Y-26377D03*
X50787Y-26377D03*
X50787Y-23818D03*
X84251Y-23622D03*
X76377Y-23622D03*
X68503Y-23622D03*
X60629Y-23622D03*
X52755Y-23622D03*
X49803Y-23818D03*
X50787Y-25196D03*
X49803Y-26377D03*
X87007Y-48425D03*
X87992Y-48425D03*
X87007Y-50787D03*
X87007Y-49606D03*
X87992Y-50787D03*
X50787Y-49606D03*
X49803Y-50984D03*
X50787Y-50984D03*
X50787Y-48425D03*
X49803Y-48425D03*
X73031Y-51377D03*
X65157Y-51161D03*
X85433Y-48031D03*
X80905Y-51377D03*
G54D21*
X66929Y-30905D02*
X66732Y-31102D01*
X66929Y-30905D02*
X67913Y-30905D01*
X65551Y-33759D02*
X66732Y-32578D01*
X66732Y-32578D02*
X66732Y-31102D01*
X74311Y-36909D02*
X74311Y-31397D01*
X74311Y-31397D02*
X73818Y-30905D01*
X73818Y-30905D02*
X67913Y-30905D01*
X77165Y-35334D02*
X75590Y-36909D01*
X75590Y-36909D02*
X74311Y-36909D01*
X57086Y-34940D02*
X63582Y-34940D01*
X51968Y-36909D02*
X56889Y-36909D01*
X56889Y-36909D02*
X57086Y-36712D01*
X57086Y-36712D02*
X57086Y-34940D01*
X50984Y-36909D02*
X51968Y-36909D01*
X60826Y-29232D02*
X67815Y-29232D01*
X67815Y-29232D02*
X67913Y-29330D01*
X68011Y-30905D02*
X67913Y-30905D01*
X67913Y-29330D02*
X68011Y-29429D01*
X68011Y-29429D02*
X68011Y-30905D01*
X63582Y-36811D02*
X63681Y-36811D01*
X64566Y-36811D02*
X63681Y-36811D01*
X63582Y-34940D02*
X63582Y-34842D01*
X63582Y-34842D02*
X63582Y-36811D01*
X67815Y-29232D02*
X67913Y-29330D01*
X65551Y-33759D02*
X64370Y-34940D01*
X64370Y-34940D02*
X63582Y-34940D01*
X64566Y-36417D02*
X64566Y-36811D01*
X66732Y-36811D02*
X64566Y-36811D01*
X77263Y-35236D02*
X77165Y-35334D01*
X79232Y-35236D02*
X77263Y-35236D01*
G54D22*
X49606Y-33464D02*
X49606Y-46456D01*
X49803Y-33267D02*
X49606Y-33464D01*
G54D23*
X59645Y-33464D02*
X52165Y-33464D01*
X52165Y-33464D02*
X51574Y-32874D01*
X51574Y-32874D02*
X50196Y-32874D01*
X50196Y-32874D02*
X49803Y-33267D01*
X49803Y-46653D02*
X50393Y-47244D01*
X59448Y-47244D02*
X50393Y-47244D01*
X59645Y-33464D02*
X60826Y-32283D01*
G54D22*
X49606Y-46456D02*
X49803Y-46653D01*
G54D23*
X63385Y-47047D02*
X63385Y-45669D01*
X59448Y-47244D02*
X63188Y-47244D01*
X63188Y-47244D02*
X63385Y-47047D01*
X60826Y-32184D02*
X60826Y-32283D01*
G54D24*
X60826Y-32184D02*
X60826Y-31594D01*
X60728Y-31496D02*
X50787Y-31496D01*
X60826Y-31594D02*
X60728Y-31496D01*
G54D25*
X52559Y-40748D02*
X52559Y-42519D01*
G54D26*
X54527Y-40157D02*
X55118Y-39566D01*
X55118Y-39566D02*
X55692Y-39566D01*
X52559Y-40748D02*
X53937Y-40748D01*
X53937Y-40748D02*
X54527Y-40157D01*
G54D21*
X67913Y-38582D02*
X75787Y-38582D01*
X75787Y-38582D02*
X76377Y-37992D01*
X55692Y-39566D02*
X55708Y-39566D01*
X55708Y-39566D02*
X55692Y-39566D01*
X76377Y-37992D02*
X76181Y-38188D01*
X61811Y-40944D02*
X62204Y-41338D01*
X67913Y-35039D02*
X66535Y-35039D01*
X55692Y-40944D02*
X61811Y-40944D01*
X61811Y-40944D02*
X64665Y-40944D01*
X68307Y-40944D02*
X68503Y-40748D01*
G54D25*
X55692Y-40748D02*
X55708Y-40748D01*
X55708Y-40748D02*
X55692Y-40748D01*
X55692Y-38582D02*
X55692Y-39566D01*
X55692Y-39566D02*
X55692Y-40748D01*
X55692Y-40748D02*
X55692Y-40944D01*
X55692Y-40944D02*
X55692Y-41519D01*
X55692Y-41519D02*
X56299Y-42125D01*
X56299Y-42125D02*
X56299Y-43208D01*
G54D21*
X67913Y-39960D02*
X68503Y-39960D01*
X72047Y-40551D02*
X71850Y-40354D01*
X71850Y-40354D02*
X68897Y-40354D01*
X68897Y-40354D02*
X68503Y-39960D01*
X72047Y-41732D02*
X72047Y-40551D01*
X67913Y-32480D02*
X68110Y-32086D01*
X67913Y-39960D02*
X67913Y-38582D01*
X67913Y-38582D02*
X67913Y-38188D01*
X67913Y-38188D02*
X67913Y-35039D01*
X67913Y-35039D02*
X67913Y-32480D01*
X64665Y-40944D02*
X68307Y-40944D01*
X64566Y-43307D02*
X64566Y-40944D01*
X64665Y-40944D02*
X64566Y-40944D01*
G54D25*
X60039Y-44488D02*
X74606Y-44488D01*
G54D21*
X51574Y-44094D02*
X56200Y-44094D01*
G54D22*
X60039Y-44685D02*
X60039Y-44488D01*
X60039Y-44488D02*
X60039Y-42814D01*
G54D21*
X77452Y-39370D02*
X77452Y-40551D01*
X77452Y-40551D02*
X74606Y-40551D01*
X74606Y-40551D02*
X74606Y-40157D01*
X73818Y-40354D02*
X74212Y-40354D01*
X74212Y-40354D02*
X74409Y-40157D01*
X74409Y-40157D02*
X74606Y-40157D01*
X74606Y-40157D02*
X75196Y-40157D01*
X60039Y-44783D02*
X60039Y-44685D01*
G54D22*
X60039Y-44685D02*
X60039Y-45275D01*
X60039Y-45275D02*
X59645Y-45669D01*
X59645Y-45669D02*
X58267Y-45669D01*
G54D21*
X58267Y-45669D02*
X58267Y-46456D01*
X56200Y-44094D02*
X56299Y-44192D01*
X74606Y-44488D02*
X74606Y-44783D01*
X75885Y-27559D02*
X87696Y-27559D01*
X87696Y-27559D02*
X87992Y-27854D01*
X87992Y-27854D02*
X87992Y-40452D01*
X87992Y-40452D02*
X87500Y-40944D01*
X87500Y-40944D02*
X82480Y-40944D01*
X82480Y-40944D02*
X78641Y-44783D01*
X78641Y-44783D02*
X74606Y-44783D01*
X74606Y-40551D02*
X74606Y-44488D01*
G54D25*
X87204Y-49803D02*
X87204Y-51181D01*
X87204Y-49803D02*
X87007Y-49606D01*
G54D27*
X65157Y-51161D02*
X65157Y-51181D01*
G54D10*
G36*
X88237Y-47390D02*
X87884Y-47390D01*
X87884Y-45889D01*
X87884Y-43133D01*
X87751Y-42811D01*
X87505Y-42564D01*
X87183Y-42430D01*
X86834Y-42430D01*
X86511Y-42563D01*
X86265Y-42809D01*
X86131Y-43131D01*
X86130Y-43480D01*
X86264Y-43803D01*
X86510Y-44049D01*
X86832Y-44183D01*
X87181Y-44184D01*
X87503Y-44050D01*
X87750Y-43804D01*
X87884Y-43482D01*
X87884Y-43133D01*
X87884Y-45889D01*
X87751Y-45566D01*
X87505Y-45320D01*
X87183Y-45186D01*
X86834Y-45186D01*
X86511Y-45319D01*
X86265Y-45565D01*
X86131Y-45887D01*
X86130Y-46236D01*
X86264Y-46558D01*
X86510Y-46805D01*
X86832Y-46939D01*
X87181Y-46939D01*
X87503Y-46806D01*
X87750Y-46560D01*
X87884Y-46238D01*
X87884Y-45889D01*
X87884Y-47390D01*
X77751Y-47390D01*
X77751Y-43682D01*
X77662Y-43467D01*
X77574Y-43379D01*
X77627Y-43357D01*
X77708Y-43277D01*
X77751Y-43172D01*
X77751Y-43058D01*
X77751Y-42458D01*
X77708Y-42352D01*
X77627Y-42272D01*
X77522Y-42228D01*
X77408Y-42228D01*
X76808Y-42228D01*
X76703Y-42272D01*
X76622Y-42352D01*
X76579Y-42458D01*
X76579Y-42572D01*
X76579Y-43172D01*
X76622Y-43277D01*
X76703Y-43357D01*
X76755Y-43379D01*
X76668Y-43466D01*
X76579Y-43681D01*
X76579Y-43915D01*
X76668Y-44130D01*
X76832Y-44295D01*
X77048Y-44385D01*
X77281Y-44385D01*
X77496Y-44296D01*
X77662Y-44131D01*
X77751Y-43916D01*
X77751Y-43682D01*
X77751Y-47390D01*
X64459Y-47390D01*
X64459Y-46408D01*
X64463Y-46412D01*
X64785Y-46545D01*
X65134Y-46546D01*
X65456Y-46413D01*
X65703Y-46166D01*
X65837Y-45844D01*
X65837Y-45495D01*
X65704Y-45173D01*
X65457Y-44926D01*
X65135Y-44792D01*
X64786Y-44792D01*
X64464Y-44925D01*
X64459Y-44930D01*
X64459Y-44595D01*
X62312Y-44595D01*
X62312Y-44930D01*
X62308Y-44926D01*
X61986Y-44792D01*
X61637Y-44792D01*
X61315Y-44925D01*
X61068Y-45171D01*
X60934Y-45494D01*
X60934Y-45842D01*
X61067Y-46165D01*
X61072Y-46170D01*
X59556Y-46170D01*
X59556Y-46564D01*
X56979Y-46564D01*
X56979Y-46170D01*
X56853Y-46170D01*
X56742Y-46170D01*
X56742Y-46111D01*
X56614Y-46111D01*
X56614Y-44578D01*
X56299Y-44263D01*
X56228Y-44334D01*
X55984Y-44578D01*
X56011Y-44674D01*
X56217Y-44747D01*
X56435Y-44736D01*
X56587Y-44674D01*
X56614Y-44578D01*
X56614Y-46111D01*
X50738Y-46111D01*
X50738Y-43849D01*
X55884Y-43849D01*
X55913Y-43877D01*
X55817Y-43904D01*
X55744Y-44111D01*
X55755Y-44329D01*
X55817Y-44480D01*
X55913Y-44507D01*
X56228Y-44192D01*
X56222Y-44187D01*
X56293Y-44116D01*
X56299Y-44122D01*
X56304Y-44116D01*
X56375Y-44187D01*
X56369Y-44192D01*
X56685Y-44507D01*
X56780Y-44480D01*
X56853Y-44274D01*
X56843Y-44056D01*
X56780Y-43904D01*
X56685Y-43877D01*
X56713Y-43849D01*
X59006Y-43849D01*
X59006Y-42274D01*
X61072Y-42274D01*
X61072Y-43849D01*
X72983Y-43849D01*
X72983Y-40473D01*
X73642Y-39813D01*
X76902Y-39813D01*
X76902Y-39869D01*
X76940Y-39961D01*
X77011Y-40032D01*
X77103Y-40070D01*
X77340Y-40070D01*
X77402Y-40007D01*
X77402Y-39813D01*
X77502Y-39813D01*
X77502Y-40007D01*
X77565Y-40070D01*
X77802Y-40070D01*
X77894Y-40032D01*
X77964Y-39961D01*
X77996Y-39885D01*
X78038Y-39949D01*
X78228Y-40076D01*
X78452Y-40120D01*
X78677Y-40076D01*
X78867Y-39949D01*
X78957Y-39813D01*
X86282Y-39813D01*
X86301Y-39913D01*
X86428Y-40103D01*
X86619Y-40230D01*
X86843Y-40275D01*
X87172Y-40275D01*
X87396Y-40230D01*
X87586Y-40103D01*
X87713Y-39913D01*
X87758Y-39688D01*
X87713Y-39464D01*
X87586Y-39274D01*
X87458Y-39188D01*
X87586Y-39103D01*
X87713Y-38913D01*
X87758Y-38688D01*
X87713Y-38464D01*
X87586Y-38274D01*
X87458Y-38188D01*
X87586Y-38103D01*
X87713Y-37913D01*
X87758Y-37688D01*
X87713Y-37464D01*
X87586Y-37274D01*
X87559Y-37256D01*
X87620Y-37231D01*
X87700Y-37151D01*
X87744Y-37045D01*
X87744Y-36932D01*
X87744Y-36332D01*
X87700Y-36226D01*
X87620Y-36146D01*
X87514Y-36102D01*
X87400Y-36102D01*
X87353Y-36102D01*
X87353Y-30577D01*
X87396Y-30569D01*
X87586Y-30442D01*
X87713Y-30251D01*
X87758Y-30027D01*
X87713Y-29803D01*
X87586Y-29613D01*
X87559Y-29595D01*
X87620Y-29570D01*
X87700Y-29489D01*
X87744Y-29384D01*
X87744Y-29270D01*
X87744Y-28670D01*
X87700Y-28565D01*
X87620Y-28484D01*
X87514Y-28441D01*
X87400Y-28441D01*
X87353Y-28441D01*
X87353Y-28099D01*
X75640Y-28099D01*
X75640Y-27412D01*
X88237Y-27412D01*
X88237Y-47390D01*
X88237Y-47390D01*
G37*
G54D28*
X88237Y-47390D02*
X87884Y-47390D01*
X87884Y-45889D01*
X87884Y-43133D01*
X87751Y-42811D01*
X87505Y-42564D01*
X87183Y-42430D01*
X86834Y-42430D01*
X86511Y-42563D01*
X86265Y-42809D01*
X86131Y-43131D01*
X86130Y-43480D01*
X86264Y-43803D01*
X86510Y-44049D01*
X86832Y-44183D01*
X87181Y-44184D01*
X87503Y-44050D01*
X87750Y-43804D01*
X87884Y-43482D01*
X87884Y-43133D01*
X87884Y-45889D01*
X87751Y-45566D01*
X87505Y-45320D01*
X87183Y-45186D01*
X86834Y-45186D01*
X86511Y-45319D01*
X86265Y-45565D01*
X86131Y-45887D01*
X86130Y-46236D01*
X86264Y-46558D01*
X86510Y-46805D01*
X86832Y-46939D01*
X87181Y-46939D01*
X87503Y-46806D01*
X87750Y-46560D01*
X87884Y-46238D01*
X87884Y-45889D01*
X87884Y-47390D01*
X77751Y-47390D01*
X77751Y-43682D01*
X77662Y-43467D01*
X77574Y-43379D01*
X77627Y-43357D01*
X77708Y-43277D01*
X77751Y-43172D01*
X77751Y-43058D01*
X77751Y-42458D01*
X77708Y-42352D01*
X77627Y-42272D01*
X77522Y-42228D01*
X77408Y-42228D01*
X76808Y-42228D01*
X76703Y-42272D01*
X76622Y-42352D01*
X76579Y-42458D01*
X76579Y-42572D01*
X76579Y-43172D01*
X76622Y-43277D01*
X76703Y-43357D01*
X76755Y-43379D01*
X76668Y-43466D01*
X76579Y-43681D01*
X76579Y-43915D01*
X76668Y-44130D01*
X76832Y-44295D01*
X77048Y-44385D01*
X77281Y-44385D01*
X77496Y-44296D01*
X77662Y-44131D01*
X77751Y-43916D01*
X77751Y-43682D01*
X77751Y-47390D01*
X64459Y-47390D01*
X64459Y-46408D01*
X64463Y-46412D01*
X64785Y-46545D01*
X65134Y-46546D01*
X65456Y-46413D01*
X65703Y-46166D01*
X65837Y-45844D01*
X65837Y-45495D01*
X65704Y-45173D01*
X65457Y-44926D01*
X65135Y-44792D01*
X64786Y-44792D01*
X64464Y-44925D01*
X64459Y-44930D01*
X64459Y-44595D01*
X62312Y-44595D01*
X62312Y-44930D01*
X62308Y-44926D01*
X61986Y-44792D01*
X61637Y-44792D01*
X61315Y-44925D01*
X61068Y-45171D01*
X60934Y-45494D01*
X60934Y-45842D01*
X61067Y-46165D01*
X61072Y-46170D01*
X59556Y-46170D01*
X59556Y-46564D01*
X56979Y-46564D01*
X56979Y-46170D01*
X56853Y-46170D01*
X56742Y-46170D01*
X56742Y-46111D01*
X56614Y-46111D01*
X56614Y-44578D01*
X56299Y-44263D01*
X56228Y-44334D01*
X55984Y-44578D01*
X56011Y-44674D01*
X56217Y-44747D01*
X56435Y-44736D01*
X56587Y-44674D01*
X56614Y-44578D01*
X56614Y-46111D01*
X50738Y-46111D01*
X50738Y-43849D01*
X55884Y-43849D01*
X55913Y-43877D01*
X55817Y-43904D01*
X55744Y-44111D01*
X55755Y-44329D01*
X55817Y-44480D01*
X55913Y-44507D01*
X56228Y-44192D01*
X56222Y-44187D01*
X56293Y-44116D01*
X56299Y-44122D01*
X56304Y-44116D01*
X56375Y-44187D01*
X56369Y-44192D01*
X56685Y-44507D01*
X56780Y-44480D01*
X56853Y-44274D01*
X56843Y-44056D01*
X56780Y-43904D01*
X56685Y-43877D01*
X56713Y-43849D01*
X59006Y-43849D01*
X59006Y-42274D01*
X61072Y-42274D01*
X61072Y-43849D01*
X72983Y-43849D01*
X72983Y-40473D01*
X73642Y-39813D01*
X76902Y-39813D01*
X76902Y-39869D01*
X76940Y-39961D01*
X77011Y-40032D01*
X77103Y-40070D01*
X77340Y-40070D01*
X77402Y-40007D01*
X77402Y-39813D01*
X77502Y-39813D01*
X77502Y-40007D01*
X77565Y-40070D01*
X77802Y-40070D01*
X77894Y-40032D01*
X77964Y-39961D01*
X77996Y-39885D01*
X78038Y-39949D01*
X78228Y-40076D01*
X78452Y-40120D01*
X78677Y-40076D01*
X78867Y-39949D01*
X78957Y-39813D01*
X86282Y-39813D01*
X86301Y-39913D01*
X86428Y-40103D01*
X86619Y-40230D01*
X86843Y-40275D01*
X87172Y-40275D01*
X87396Y-40230D01*
X87586Y-40103D01*
X87713Y-39913D01*
X87758Y-39688D01*
X87713Y-39464D01*
X87586Y-39274D01*
X87458Y-39188D01*
X87586Y-39103D01*
X87713Y-38913D01*
X87758Y-38688D01*
X87713Y-38464D01*
X87586Y-38274D01*
X87458Y-38188D01*
X87586Y-38103D01*
X87713Y-37913D01*
X87758Y-37688D01*
X87713Y-37464D01*
X87586Y-37274D01*
X87559Y-37256D01*
X87620Y-37231D01*
X87700Y-37151D01*
X87744Y-37045D01*
X87744Y-36932D01*
X87744Y-36332D01*
X87700Y-36226D01*
X87620Y-36146D01*
X87514Y-36102D01*
X87400Y-36102D01*
X87353Y-36102D01*
X87353Y-30577D01*
X87396Y-30569D01*
X87586Y-30442D01*
X87713Y-30251D01*
X87758Y-30027D01*
X87713Y-29803D01*
X87586Y-29613D01*
X87559Y-29595D01*
X87620Y-29570D01*
X87700Y-29489D01*
X87744Y-29384D01*
X87744Y-29270D01*
X87744Y-28670D01*
X87700Y-28565D01*
X87620Y-28484D01*
X87514Y-28441D01*
X87400Y-28441D01*
X87353Y-28441D01*
X87353Y-28099D01*
X75640Y-28099D01*
X75640Y-27412D01*
X88237Y-27412D01*
X88237Y-47390D01*
G54D10*
G36*
X86556Y-39188D02*
X86428Y-39274D01*
X86398Y-39320D01*
X79038Y-39320D01*
X79038Y-39205D01*
X78994Y-38981D01*
X78867Y-38791D01*
X78677Y-38664D01*
X78452Y-38619D01*
X78228Y-38664D01*
X78038Y-38791D01*
X78020Y-38818D01*
X77995Y-38757D01*
X77914Y-38677D01*
X77809Y-38633D01*
X77695Y-38633D01*
X77323Y-38633D01*
X77323Y-38041D01*
X77323Y-37942D01*
X77285Y-37850D01*
X77215Y-37780D01*
X76982Y-37546D01*
X76893Y-37546D01*
X76448Y-37992D01*
X76893Y-38437D01*
X76982Y-38437D01*
X77285Y-38133D01*
X77323Y-38041D01*
X77323Y-38633D01*
X77095Y-38633D01*
X76990Y-38677D01*
X76910Y-38757D01*
X76866Y-38863D01*
X76866Y-38977D01*
X76866Y-39320D01*
X76823Y-39320D01*
X76823Y-38596D01*
X76823Y-38508D01*
X76377Y-38062D01*
X76307Y-38133D01*
X76307Y-37992D01*
X75862Y-37546D01*
X75773Y-37546D01*
X75470Y-37850D01*
X75431Y-37942D01*
X75431Y-38041D01*
X75470Y-38133D01*
X75540Y-38204D01*
X75773Y-38437D01*
X75862Y-38437D01*
X76307Y-37992D01*
X76307Y-38133D01*
X75932Y-38508D01*
X75932Y-38596D01*
X76166Y-38829D01*
X76236Y-38900D01*
X76328Y-38938D01*
X76427Y-38938D01*
X76519Y-38900D01*
X76823Y-38596D01*
X76823Y-39320D01*
X73404Y-39320D01*
X72587Y-40136D01*
X72587Y-43453D01*
X63150Y-43453D01*
X63150Y-41388D01*
X63150Y-41288D01*
X63112Y-41196D01*
X63042Y-41126D01*
X62809Y-40893D01*
X62720Y-40893D01*
X62649Y-40964D01*
X62649Y-40822D01*
X62649Y-40734D01*
X62416Y-40500D01*
X62346Y-40430D01*
X62254Y-40392D01*
X62154Y-40392D01*
X62063Y-40430D01*
X61759Y-40734D01*
X61759Y-40822D01*
X62204Y-41267D01*
X62649Y-40822D01*
X62649Y-40964D01*
X62275Y-41338D01*
X62720Y-41783D01*
X62809Y-41783D01*
X63112Y-41480D01*
X63150Y-41388D01*
X63150Y-43453D01*
X62649Y-43453D01*
X62649Y-41942D01*
X62649Y-41854D01*
X62204Y-41409D01*
X62134Y-41480D01*
X62134Y-41338D01*
X61688Y-40893D01*
X61600Y-40893D01*
X61296Y-41196D01*
X61258Y-41288D01*
X61258Y-41388D01*
X61296Y-41480D01*
X61367Y-41550D01*
X61600Y-41783D01*
X61688Y-41783D01*
X62134Y-41338D01*
X62134Y-41480D01*
X61759Y-41854D01*
X61759Y-41942D01*
X61992Y-42176D01*
X62063Y-42246D01*
X62154Y-42284D01*
X62254Y-42284D01*
X62346Y-42246D01*
X62649Y-41942D01*
X62649Y-43453D01*
X61467Y-43453D01*
X61467Y-41879D01*
X58611Y-41879D01*
X58611Y-43453D01*
X58279Y-43453D01*
X58279Y-38747D01*
X58279Y-38418D01*
X58234Y-38193D01*
X58107Y-38003D01*
X57917Y-37876D01*
X57692Y-37832D01*
X57468Y-37876D01*
X57278Y-38003D01*
X57192Y-38131D01*
X57107Y-38003D01*
X56917Y-37876D01*
X56692Y-37832D01*
X56468Y-37876D01*
X56278Y-38003D01*
X56236Y-38066D01*
X56204Y-37991D01*
X56134Y-37920D01*
X56042Y-37882D01*
X55805Y-37882D01*
X55742Y-37945D01*
X55742Y-38532D01*
X55750Y-38532D01*
X55750Y-38632D01*
X55742Y-38632D01*
X55742Y-39220D01*
X55805Y-39282D01*
X56042Y-39282D01*
X56134Y-39244D01*
X56204Y-39174D01*
X56236Y-39098D01*
X56278Y-39161D01*
X56468Y-39288D01*
X56692Y-39333D01*
X56917Y-39288D01*
X57107Y-39161D01*
X57192Y-39033D01*
X57278Y-39161D01*
X57468Y-39288D01*
X57692Y-39333D01*
X57917Y-39288D01*
X58107Y-39161D01*
X58234Y-38971D01*
X58279Y-38747D01*
X58279Y-43453D01*
X56849Y-43453D01*
X56849Y-43321D01*
X56849Y-43096D01*
X56849Y-42859D01*
X56811Y-42767D01*
X56740Y-42696D01*
X56648Y-42658D01*
X56549Y-42658D01*
X56411Y-42658D01*
X56349Y-42721D01*
X56349Y-43158D01*
X56786Y-43158D01*
X56849Y-43096D01*
X56849Y-43321D01*
X56786Y-43258D01*
X56349Y-43258D01*
X56349Y-43266D01*
X56249Y-43266D01*
X56249Y-43258D01*
X56249Y-43158D01*
X56249Y-42721D01*
X56186Y-42658D01*
X56048Y-42658D01*
X55949Y-42658D01*
X55857Y-42696D01*
X55787Y-42767D01*
X55749Y-42859D01*
X55749Y-43096D01*
X55811Y-43158D01*
X56249Y-43158D01*
X56249Y-43258D01*
X55811Y-43258D01*
X55749Y-43321D01*
X55749Y-43453D01*
X55642Y-43453D01*
X55642Y-39220D01*
X55642Y-38632D01*
X55642Y-38532D01*
X55642Y-37945D01*
X55580Y-37882D01*
X55343Y-37882D01*
X55251Y-37920D01*
X55180Y-37991D01*
X55142Y-38082D01*
X55142Y-38182D01*
X55142Y-38470D01*
X55205Y-38532D01*
X55642Y-38532D01*
X55642Y-38632D01*
X55205Y-38632D01*
X55142Y-38695D01*
X55142Y-38982D01*
X55142Y-39082D01*
X55180Y-39174D01*
X55251Y-39244D01*
X55343Y-39282D01*
X55580Y-39282D01*
X55642Y-39220D01*
X55642Y-43453D01*
X55473Y-43453D01*
X55473Y-40207D01*
X55473Y-40107D01*
X55435Y-40015D01*
X55365Y-39945D01*
X55131Y-39712D01*
X55043Y-39712D01*
X54972Y-39782D01*
X54972Y-39641D01*
X54972Y-39553D01*
X54739Y-39319D01*
X54669Y-39249D01*
X54577Y-39211D01*
X54477Y-39211D01*
X54385Y-39249D01*
X54082Y-39553D01*
X54082Y-39641D01*
X54527Y-40086D01*
X54972Y-39641D01*
X54972Y-39782D01*
X54598Y-40157D01*
X55043Y-40602D01*
X55131Y-40602D01*
X55435Y-40299D01*
X55473Y-40207D01*
X55473Y-43453D01*
X54972Y-43453D01*
X54972Y-40761D01*
X54972Y-40673D01*
X54527Y-40228D01*
X54456Y-40298D01*
X54456Y-40157D01*
X54011Y-39712D01*
X53923Y-39712D01*
X53619Y-40015D01*
X53581Y-40107D01*
X53581Y-40207D01*
X53619Y-40299D01*
X53689Y-40369D01*
X53923Y-40602D01*
X54011Y-40602D01*
X54456Y-40157D01*
X54456Y-40298D01*
X54082Y-40673D01*
X54082Y-40761D01*
X54315Y-40995D01*
X54385Y-41065D01*
X54477Y-41103D01*
X54577Y-41103D01*
X54669Y-41065D01*
X54972Y-40761D01*
X54972Y-43453D01*
X50738Y-43453D01*
X50738Y-37550D01*
X67372Y-37550D01*
X67372Y-35251D01*
X67443Y-35180D01*
X67481Y-35089D01*
X67481Y-34989D01*
X67443Y-34897D01*
X67373Y-34827D01*
X67372Y-34827D01*
X67372Y-31349D01*
X68257Y-31349D01*
X68257Y-37451D01*
X75932Y-37451D01*
X75932Y-37476D01*
X76377Y-37921D01*
X76823Y-37476D01*
X76823Y-37451D01*
X83780Y-37451D01*
X84075Y-37156D01*
X86320Y-37156D01*
X86395Y-37231D01*
X86455Y-37256D01*
X86428Y-37274D01*
X86301Y-37464D01*
X86257Y-37688D01*
X86301Y-37913D01*
X86428Y-38103D01*
X86556Y-38188D01*
X86428Y-38274D01*
X86301Y-38464D01*
X86257Y-38688D01*
X86301Y-38913D01*
X86428Y-39103D01*
X86556Y-39188D01*
X86556Y-39188D01*
G37*
G54D28*
X86556Y-39188D02*
X86428Y-39274D01*
X86398Y-39320D01*
X79038Y-39320D01*
X79038Y-39205D01*
X78994Y-38981D01*
X78867Y-38791D01*
X78677Y-38664D01*
X78452Y-38619D01*
X78228Y-38664D01*
X78038Y-38791D01*
X78020Y-38818D01*
X77995Y-38757D01*
X77914Y-38677D01*
X77809Y-38633D01*
X77695Y-38633D01*
X77323Y-38633D01*
X77323Y-38041D01*
X77323Y-37942D01*
X77285Y-37850D01*
X77215Y-37780D01*
X76982Y-37546D01*
X76893Y-37546D01*
X76448Y-37992D01*
X76893Y-38437D01*
X76982Y-38437D01*
X77285Y-38133D01*
X77323Y-38041D01*
X77323Y-38633D01*
X77095Y-38633D01*
X76990Y-38677D01*
X76910Y-38757D01*
X76866Y-38863D01*
X76866Y-38977D01*
X76866Y-39320D01*
X76823Y-39320D01*
X76823Y-38596D01*
X76823Y-38508D01*
X76377Y-38062D01*
X76307Y-38133D01*
X76307Y-37992D01*
X75862Y-37546D01*
X75773Y-37546D01*
X75470Y-37850D01*
X75431Y-37942D01*
X75431Y-38041D01*
X75470Y-38133D01*
X75540Y-38204D01*
X75773Y-38437D01*
X75862Y-38437D01*
X76307Y-37992D01*
X76307Y-38133D01*
X75932Y-38508D01*
X75932Y-38596D01*
X76166Y-38829D01*
X76236Y-38900D01*
X76328Y-38938D01*
X76427Y-38938D01*
X76519Y-38900D01*
X76823Y-38596D01*
X76823Y-39320D01*
X73404Y-39320D01*
X72587Y-40136D01*
X72587Y-43453D01*
X63150Y-43453D01*
X63150Y-41388D01*
X63150Y-41288D01*
X63112Y-41196D01*
X63042Y-41126D01*
X62809Y-40893D01*
X62720Y-40893D01*
X62649Y-40964D01*
X62649Y-40822D01*
X62649Y-40734D01*
X62416Y-40500D01*
X62346Y-40430D01*
X62254Y-40392D01*
X62154Y-40392D01*
X62063Y-40430D01*
X61759Y-40734D01*
X61759Y-40822D01*
X62204Y-41267D01*
X62649Y-40822D01*
X62649Y-40964D01*
X62275Y-41338D01*
X62720Y-41783D01*
X62809Y-41783D01*
X63112Y-41480D01*
X63150Y-41388D01*
X63150Y-43453D01*
X62649Y-43453D01*
X62649Y-41942D01*
X62649Y-41854D01*
X62204Y-41409D01*
X62134Y-41480D01*
X62134Y-41338D01*
X61688Y-40893D01*
X61600Y-40893D01*
X61296Y-41196D01*
X61258Y-41288D01*
X61258Y-41388D01*
X61296Y-41480D01*
X61367Y-41550D01*
X61600Y-41783D01*
X61688Y-41783D01*
X62134Y-41338D01*
X62134Y-41480D01*
X61759Y-41854D01*
X61759Y-41942D01*
X61992Y-42176D01*
X62063Y-42246D01*
X62154Y-42284D01*
X62254Y-42284D01*
X62346Y-42246D01*
X62649Y-41942D01*
X62649Y-43453D01*
X61467Y-43453D01*
X61467Y-41879D01*
X58611Y-41879D01*
X58611Y-43453D01*
X58279Y-43453D01*
X58279Y-38747D01*
X58279Y-38418D01*
X58234Y-38193D01*
X58107Y-38003D01*
X57917Y-37876D01*
X57692Y-37832D01*
X57468Y-37876D01*
X57278Y-38003D01*
X57192Y-38131D01*
X57107Y-38003D01*
X56917Y-37876D01*
X56692Y-37832D01*
X56468Y-37876D01*
X56278Y-38003D01*
X56236Y-38066D01*
X56204Y-37991D01*
X56134Y-37920D01*
X56042Y-37882D01*
X55805Y-37882D01*
X55742Y-37945D01*
X55742Y-38532D01*
X55750Y-38532D01*
X55750Y-38632D01*
X55742Y-38632D01*
X55742Y-39220D01*
X55805Y-39282D01*
X56042Y-39282D01*
X56134Y-39244D01*
X56204Y-39174D01*
X56236Y-39098D01*
X56278Y-39161D01*
X56468Y-39288D01*
X56692Y-39333D01*
X56917Y-39288D01*
X57107Y-39161D01*
X57192Y-39033D01*
X57278Y-39161D01*
X57468Y-39288D01*
X57692Y-39333D01*
X57917Y-39288D01*
X58107Y-39161D01*
X58234Y-38971D01*
X58279Y-38747D01*
X58279Y-43453D01*
X56849Y-43453D01*
X56849Y-43321D01*
X56849Y-43096D01*
X56849Y-42859D01*
X56811Y-42767D01*
X56740Y-42696D01*
X56648Y-42658D01*
X56549Y-42658D01*
X56411Y-42658D01*
X56349Y-42721D01*
X56349Y-43158D01*
X56786Y-43158D01*
X56849Y-43096D01*
X56849Y-43321D01*
X56786Y-43258D01*
X56349Y-43258D01*
X56349Y-43266D01*
X56249Y-43266D01*
X56249Y-43258D01*
X56249Y-43158D01*
X56249Y-42721D01*
X56186Y-42658D01*
X56048Y-42658D01*
X55949Y-42658D01*
X55857Y-42696D01*
X55787Y-42767D01*
X55749Y-42859D01*
X55749Y-43096D01*
X55811Y-43158D01*
X56249Y-43158D01*
X56249Y-43258D01*
X55811Y-43258D01*
X55749Y-43321D01*
X55749Y-43453D01*
X55642Y-43453D01*
X55642Y-39220D01*
X55642Y-38632D01*
X55642Y-38532D01*
X55642Y-37945D01*
X55580Y-37882D01*
X55343Y-37882D01*
X55251Y-37920D01*
X55180Y-37991D01*
X55142Y-38082D01*
X55142Y-38182D01*
X55142Y-38470D01*
X55205Y-38532D01*
X55642Y-38532D01*
X55642Y-38632D01*
X55205Y-38632D01*
X55142Y-38695D01*
X55142Y-38982D01*
X55142Y-39082D01*
X55180Y-39174D01*
X55251Y-39244D01*
X55343Y-39282D01*
X55580Y-39282D01*
X55642Y-39220D01*
X55642Y-43453D01*
X55473Y-43453D01*
X55473Y-40207D01*
X55473Y-40107D01*
X55435Y-40015D01*
X55365Y-39945D01*
X55131Y-39712D01*
X55043Y-39712D01*
X54972Y-39782D01*
X54972Y-39641D01*
X54972Y-39553D01*
X54739Y-39319D01*
X54669Y-39249D01*
X54577Y-39211D01*
X54477Y-39211D01*
X54385Y-39249D01*
X54082Y-39553D01*
X54082Y-39641D01*
X54527Y-40086D01*
X54972Y-39641D01*
X54972Y-39782D01*
X54598Y-40157D01*
X55043Y-40602D01*
X55131Y-40602D01*
X55435Y-40299D01*
X55473Y-40207D01*
X55473Y-43453D01*
X54972Y-43453D01*
X54972Y-40761D01*
X54972Y-40673D01*
X54527Y-40228D01*
X54456Y-40298D01*
X54456Y-40157D01*
X54011Y-39712D01*
X53923Y-39712D01*
X53619Y-40015D01*
X53581Y-40107D01*
X53581Y-40207D01*
X53619Y-40299D01*
X53689Y-40369D01*
X53923Y-40602D01*
X54011Y-40602D01*
X54456Y-40157D01*
X54456Y-40298D01*
X54082Y-40673D01*
X54082Y-40761D01*
X54315Y-40995D01*
X54385Y-41065D01*
X54477Y-41103D01*
X54577Y-41103D01*
X54669Y-41065D01*
X54972Y-40761D01*
X54972Y-43453D01*
X50738Y-43453D01*
X50738Y-37550D01*
X67372Y-37550D01*
X67372Y-35251D01*
X67443Y-35180D01*
X67481Y-35089D01*
X67481Y-34989D01*
X67443Y-34897D01*
X67373Y-34827D01*
X67372Y-34827D01*
X67372Y-31349D01*
X68257Y-31349D01*
X68257Y-37451D01*
X75932Y-37451D01*
X75932Y-37476D01*
X76377Y-37921D01*
X76823Y-37476D01*
X76823Y-37451D01*
X83780Y-37451D01*
X84075Y-37156D01*
X86320Y-37156D01*
X86395Y-37231D01*
X86455Y-37256D01*
X86428Y-37274D01*
X86301Y-37464D01*
X86257Y-37688D01*
X86301Y-37913D01*
X86428Y-38103D01*
X86556Y-38188D01*
X86428Y-38274D01*
X86301Y-38464D01*
X86257Y-38688D01*
X86301Y-38913D01*
X86428Y-39103D01*
X86556Y-39188D01*
G54D10*
G36*
X88237Y-26918D02*
X49479Y-26918D01*
X49479Y-26211D01*
X49527Y-26211D01*
X49557Y-26205D01*
X49587Y-26205D01*
X49858Y-26151D01*
X49968Y-26105D01*
X49968Y-26105D01*
X50198Y-25952D01*
X50283Y-25867D01*
X50436Y-25637D01*
X50436Y-25637D01*
X50482Y-25527D01*
X50536Y-25256D01*
X50536Y-25137D01*
X50482Y-24865D01*
X50436Y-24755D01*
X50283Y-24525D01*
X50198Y-24441D01*
X49968Y-24287D01*
X49858Y-24242D01*
X49587Y-24188D01*
X49557Y-24188D01*
X49527Y-24182D01*
X49479Y-24182D01*
X49479Y-22904D01*
X88237Y-22904D01*
X88237Y-24190D01*
X87976Y-24242D01*
X87865Y-24287D01*
X87636Y-24441D01*
X87551Y-24525D01*
X87398Y-24755D01*
X87352Y-24865D01*
X87298Y-25137D01*
X87298Y-25256D01*
X87352Y-25527D01*
X87398Y-25637D01*
X87551Y-25867D01*
X87636Y-25952D01*
X87865Y-26105D01*
X87976Y-26151D01*
X88237Y-26203D01*
X88237Y-26918D01*
X88237Y-26918D01*
G37*
G54D28*
X88237Y-26918D02*
X49479Y-26918D01*
X49479Y-26211D01*
X49527Y-26211D01*
X49557Y-26205D01*
X49587Y-26205D01*
X49858Y-26151D01*
X49968Y-26105D01*
X49968Y-26105D01*
X50198Y-25952D01*
X50283Y-25867D01*
X50436Y-25637D01*
X50436Y-25637D01*
X50482Y-25527D01*
X50536Y-25256D01*
X50536Y-25137D01*
X50482Y-24865D01*
X50436Y-24755D01*
X50283Y-24525D01*
X50198Y-24441D01*
X49968Y-24287D01*
X49858Y-24242D01*
X49587Y-24188D01*
X49557Y-24188D01*
X49527Y-24182D01*
X49479Y-24182D01*
X49479Y-22904D01*
X88237Y-22904D01*
X88237Y-24190D01*
X87976Y-24242D01*
X87865Y-24287D01*
X87636Y-24441D01*
X87551Y-24525D01*
X87398Y-24755D01*
X87352Y-24865D01*
X87298Y-25137D01*
X87298Y-25256D01*
X87352Y-25527D01*
X87398Y-25637D01*
X87551Y-25867D01*
X87636Y-25952D01*
X87865Y-26105D01*
X87976Y-26151D01*
X88237Y-26203D01*
X88237Y-26918D01*
G54D10*
G36*
X88237Y-51820D02*
X49479Y-51820D01*
X49479Y-50620D01*
X49527Y-50620D01*
X49557Y-50614D01*
X49587Y-50614D01*
X49858Y-50561D01*
X49968Y-50515D01*
X49968Y-50515D01*
X50198Y-50361D01*
X50283Y-50277D01*
X50436Y-50047D01*
X50436Y-50047D01*
X50482Y-49937D01*
X50536Y-49665D01*
X50536Y-49546D01*
X50482Y-49275D01*
X50436Y-49165D01*
X50283Y-48935D01*
X50198Y-48850D01*
X49968Y-48697D01*
X49858Y-48651D01*
X49587Y-48597D01*
X49557Y-48597D01*
X49527Y-48591D01*
X49479Y-48591D01*
X49479Y-47924D01*
X64459Y-47924D01*
X64459Y-47884D01*
X88237Y-47884D01*
X88237Y-48599D01*
X87976Y-48651D01*
X87865Y-48697D01*
X87636Y-48850D01*
X87551Y-48935D01*
X87398Y-49165D01*
X87352Y-49275D01*
X87298Y-49546D01*
X87298Y-49665D01*
X87352Y-49937D01*
X87398Y-50047D01*
X87551Y-50277D01*
X87636Y-50361D01*
X87865Y-50515D01*
X87976Y-50561D01*
X88237Y-50612D01*
X88237Y-51820D01*
X88237Y-51820D01*
G37*
G54D28*
X88237Y-51820D02*
X49479Y-51820D01*
X49479Y-50620D01*
X49527Y-50620D01*
X49557Y-50614D01*
X49587Y-50614D01*
X49858Y-50561D01*
X49968Y-50515D01*
X49968Y-50515D01*
X50198Y-50361D01*
X50283Y-50277D01*
X50436Y-50047D01*
X50436Y-50047D01*
X50482Y-49937D01*
X50536Y-49665D01*
X50536Y-49546D01*
X50482Y-49275D01*
X50436Y-49165D01*
X50283Y-48935D01*
X50198Y-48850D01*
X49968Y-48697D01*
X49858Y-48651D01*
X49587Y-48597D01*
X49557Y-48597D01*
X49527Y-48591D01*
X49479Y-48591D01*
X49479Y-47924D01*
X64459Y-47924D01*
X64459Y-47884D01*
X88237Y-47884D01*
X88237Y-48599D01*
X87976Y-48651D01*
X87865Y-48697D01*
X87636Y-48850D01*
X87551Y-48935D01*
X87398Y-49165D01*
X87352Y-49275D01*
X87298Y-49546D01*
X87298Y-49665D01*
X87352Y-49937D01*
X87398Y-50047D01*
X87551Y-50277D01*
X87636Y-50361D01*
X87865Y-50515D01*
X87976Y-50561D01*
X88237Y-50612D01*
X88237Y-51820D01*
G54D10*
G36*
X86859Y-36102D02*
X86500Y-36102D01*
X86395Y-36146D01*
X86315Y-36226D01*
X86271Y-36332D01*
X86271Y-36445D01*
X86271Y-36662D01*
X83739Y-36662D01*
X83345Y-37056D01*
X76542Y-37056D01*
X76540Y-37053D01*
X76434Y-37009D01*
X76321Y-37009D01*
X76215Y-37053D01*
X76213Y-37056D01*
X74905Y-37056D01*
X74905Y-29101D01*
X74905Y-28772D01*
X74860Y-28548D01*
X74733Y-28358D01*
X74543Y-28230D01*
X74318Y-28186D01*
X74094Y-28230D01*
X73904Y-28358D01*
X73886Y-28384D01*
X73861Y-28324D01*
X73781Y-28244D01*
X73675Y-28200D01*
X73561Y-28200D01*
X72961Y-28200D01*
X72856Y-28244D01*
X72776Y-28324D01*
X72732Y-28430D01*
X72732Y-28543D01*
X72732Y-29443D01*
X72776Y-29549D01*
X72856Y-29629D01*
X72961Y-29673D01*
X73075Y-29673D01*
X73675Y-29673D01*
X73781Y-29629D01*
X73861Y-29549D01*
X73886Y-29489D01*
X73904Y-29515D01*
X74094Y-29643D01*
X74318Y-29687D01*
X74543Y-29643D01*
X74733Y-29515D01*
X74860Y-29325D01*
X74905Y-29101D01*
X74905Y-37056D01*
X68652Y-37056D01*
X68652Y-36534D01*
X68721Y-36562D01*
X68835Y-36562D01*
X69435Y-36562D01*
X69540Y-36519D01*
X69621Y-36438D01*
X69646Y-36378D01*
X69664Y-36405D01*
X69854Y-36532D01*
X70078Y-36577D01*
X70303Y-36532D01*
X70493Y-36405D01*
X70578Y-36277D01*
X70664Y-36405D01*
X70854Y-36532D01*
X71078Y-36577D01*
X71303Y-36532D01*
X71493Y-36405D01*
X71620Y-36215D01*
X71664Y-35991D01*
X71664Y-35662D01*
X71620Y-35438D01*
X71558Y-35345D01*
X71558Y-29443D01*
X71558Y-29330D01*
X71558Y-28430D01*
X71515Y-28324D01*
X71434Y-28244D01*
X71329Y-28200D01*
X71215Y-28200D01*
X70615Y-28200D01*
X70510Y-28244D01*
X70429Y-28324D01*
X70404Y-28384D01*
X70386Y-28358D01*
X70196Y-28230D01*
X69972Y-28186D01*
X69748Y-28230D01*
X69557Y-28358D01*
X69430Y-28548D01*
X69386Y-28772D01*
X69386Y-29101D01*
X69430Y-29325D01*
X69557Y-29515D01*
X69748Y-29643D01*
X69972Y-29687D01*
X70196Y-29643D01*
X70386Y-29515D01*
X70404Y-29489D01*
X70429Y-29549D01*
X70510Y-29629D01*
X70615Y-29673D01*
X70729Y-29673D01*
X71329Y-29673D01*
X71434Y-29629D01*
X71515Y-29549D01*
X71558Y-29443D01*
X71558Y-35345D01*
X71493Y-35247D01*
X71303Y-35120D01*
X71078Y-35076D01*
X70854Y-35120D01*
X70664Y-35247D01*
X70578Y-35375D01*
X70493Y-35247D01*
X70303Y-35120D01*
X70078Y-35076D01*
X69854Y-35120D01*
X69664Y-35247D01*
X69646Y-35274D01*
X69621Y-35214D01*
X69540Y-35134D01*
X69435Y-35090D01*
X69321Y-35090D01*
X68721Y-35090D01*
X68652Y-35119D01*
X68652Y-30953D01*
X66977Y-30953D01*
X66977Y-34380D01*
X66697Y-34100D01*
X66592Y-34057D01*
X66531Y-34057D01*
X66531Y-31084D01*
X66442Y-30869D01*
X66354Y-30781D01*
X66407Y-30759D01*
X66487Y-30678D01*
X66531Y-30573D01*
X66531Y-30459D01*
X66531Y-29859D01*
X66487Y-29754D01*
X66407Y-29674D01*
X66301Y-29630D01*
X66187Y-29630D01*
X65587Y-29630D01*
X65482Y-29674D01*
X65402Y-29754D01*
X65358Y-29859D01*
X65358Y-29973D01*
X65358Y-30573D01*
X65402Y-30678D01*
X65482Y-30759D01*
X65535Y-30781D01*
X65448Y-30868D01*
X65358Y-31083D01*
X65358Y-31316D01*
X65447Y-31532D01*
X65612Y-31697D01*
X65827Y-31786D01*
X66060Y-31786D01*
X66276Y-31697D01*
X66441Y-31533D01*
X66531Y-31317D01*
X66531Y-31084D01*
X66531Y-34057D01*
X66478Y-34057D01*
X66373Y-34100D01*
X66292Y-34181D01*
X65596Y-34877D01*
X65553Y-34982D01*
X65553Y-35096D01*
X65596Y-35201D01*
X65677Y-35282D01*
X66373Y-35977D01*
X66478Y-36021D01*
X66592Y-36021D01*
X66697Y-35977D01*
X66778Y-35897D01*
X66977Y-35697D01*
X66977Y-37154D01*
X50738Y-37154D01*
X50738Y-36073D01*
X54548Y-36073D01*
X55926Y-34695D01*
X59863Y-34695D01*
X62254Y-32304D01*
X62254Y-30658D01*
X61376Y-30658D01*
X61376Y-29582D01*
X61376Y-29345D01*
X61376Y-29120D01*
X61376Y-28882D01*
X61338Y-28791D01*
X61268Y-28720D01*
X61176Y-28682D01*
X61077Y-28682D01*
X60939Y-28682D01*
X60876Y-28745D01*
X60876Y-29182D01*
X61314Y-29182D01*
X61376Y-29120D01*
X61376Y-29345D01*
X61314Y-29282D01*
X60876Y-29282D01*
X60876Y-29720D01*
X60939Y-29782D01*
X61077Y-29782D01*
X61176Y-29782D01*
X61268Y-29744D01*
X61338Y-29674D01*
X61376Y-29582D01*
X61376Y-30658D01*
X60776Y-30658D01*
X60776Y-29720D01*
X60776Y-29282D01*
X60776Y-29182D01*
X60776Y-28745D01*
X60714Y-28682D01*
X60576Y-28682D01*
X60477Y-28682D01*
X60385Y-28720D01*
X60314Y-28791D01*
X60276Y-28882D01*
X60276Y-29120D01*
X60339Y-29182D01*
X60776Y-29182D01*
X60776Y-29282D01*
X60339Y-29282D01*
X60276Y-29345D01*
X60276Y-29582D01*
X60314Y-29674D01*
X60385Y-29744D01*
X60477Y-29782D01*
X60576Y-29782D01*
X60714Y-29782D01*
X60776Y-29720D01*
X60776Y-30658D01*
X59498Y-30658D01*
X59498Y-27412D01*
X75245Y-27412D01*
X75245Y-28494D01*
X86385Y-28494D01*
X86315Y-28565D01*
X86271Y-28670D01*
X86271Y-28784D01*
X86271Y-29384D01*
X86315Y-29489D01*
X86395Y-29570D01*
X86455Y-29595D01*
X86428Y-29613D01*
X86301Y-29803D01*
X86257Y-30027D01*
X86301Y-30251D01*
X86428Y-30442D01*
X86619Y-30569D01*
X86843Y-30613D01*
X86859Y-30613D01*
X86859Y-36102D01*
X86859Y-36102D01*
G37*
G54D28*
X86859Y-36102D02*
X86500Y-36102D01*
X86395Y-36146D01*
X86315Y-36226D01*
X86271Y-36332D01*
X86271Y-36445D01*
X86271Y-36662D01*
X83739Y-36662D01*
X83345Y-37056D01*
X76542Y-37056D01*
X76540Y-37053D01*
X76434Y-37009D01*
X76321Y-37009D01*
X76215Y-37053D01*
X76213Y-37056D01*
X74905Y-37056D01*
X74905Y-29101D01*
X74905Y-28772D01*
X74860Y-28548D01*
X74733Y-28358D01*
X74543Y-28230D01*
X74318Y-28186D01*
X74094Y-28230D01*
X73904Y-28358D01*
X73886Y-28384D01*
X73861Y-28324D01*
X73781Y-28244D01*
X73675Y-28200D01*
X73561Y-28200D01*
X72961Y-28200D01*
X72856Y-28244D01*
X72776Y-28324D01*
X72732Y-28430D01*
X72732Y-28543D01*
X72732Y-29443D01*
X72776Y-29549D01*
X72856Y-29629D01*
X72961Y-29673D01*
X73075Y-29673D01*
X73675Y-29673D01*
X73781Y-29629D01*
X73861Y-29549D01*
X73886Y-29489D01*
X73904Y-29515D01*
X74094Y-29643D01*
X74318Y-29687D01*
X74543Y-29643D01*
X74733Y-29515D01*
X74860Y-29325D01*
X74905Y-29101D01*
X74905Y-37056D01*
X68652Y-37056D01*
X68652Y-36534D01*
X68721Y-36562D01*
X68835Y-36562D01*
X69435Y-36562D01*
X69540Y-36519D01*
X69621Y-36438D01*
X69646Y-36378D01*
X69664Y-36405D01*
X69854Y-36532D01*
X70078Y-36577D01*
X70303Y-36532D01*
X70493Y-36405D01*
X70578Y-36277D01*
X70664Y-36405D01*
X70854Y-36532D01*
X71078Y-36577D01*
X71303Y-36532D01*
X71493Y-36405D01*
X71620Y-36215D01*
X71664Y-35991D01*
X71664Y-35662D01*
X71620Y-35438D01*
X71558Y-35345D01*
X71558Y-29443D01*
X71558Y-29330D01*
X71558Y-28430D01*
X71515Y-28324D01*
X71434Y-28244D01*
X71329Y-28200D01*
X71215Y-28200D01*
X70615Y-28200D01*
X70510Y-28244D01*
X70429Y-28324D01*
X70404Y-28384D01*
X70386Y-28358D01*
X70196Y-28230D01*
X69972Y-28186D01*
X69748Y-28230D01*
X69557Y-28358D01*
X69430Y-28548D01*
X69386Y-28772D01*
X69386Y-29101D01*
X69430Y-29325D01*
X69557Y-29515D01*
X69748Y-29643D01*
X69972Y-29687D01*
X70196Y-29643D01*
X70386Y-29515D01*
X70404Y-29489D01*
X70429Y-29549D01*
X70510Y-29629D01*
X70615Y-29673D01*
X70729Y-29673D01*
X71329Y-29673D01*
X71434Y-29629D01*
X71515Y-29549D01*
X71558Y-29443D01*
X71558Y-35345D01*
X71493Y-35247D01*
X71303Y-35120D01*
X71078Y-35076D01*
X70854Y-35120D01*
X70664Y-35247D01*
X70578Y-35375D01*
X70493Y-35247D01*
X70303Y-35120D01*
X70078Y-35076D01*
X69854Y-35120D01*
X69664Y-35247D01*
X69646Y-35274D01*
X69621Y-35214D01*
X69540Y-35134D01*
X69435Y-35090D01*
X69321Y-35090D01*
X68721Y-35090D01*
X68652Y-35119D01*
X68652Y-30953D01*
X66977Y-30953D01*
X66977Y-34380D01*
X66697Y-34100D01*
X66592Y-34057D01*
X66531Y-34057D01*
X66531Y-31084D01*
X66442Y-30869D01*
X66354Y-30781D01*
X66407Y-30759D01*
X66487Y-30678D01*
X66531Y-30573D01*
X66531Y-30459D01*
X66531Y-29859D01*
X66487Y-29754D01*
X66407Y-29674D01*
X66301Y-29630D01*
X66187Y-29630D01*
X65587Y-29630D01*
X65482Y-29674D01*
X65402Y-29754D01*
X65358Y-29859D01*
X65358Y-29973D01*
X65358Y-30573D01*
X65402Y-30678D01*
X65482Y-30759D01*
X65535Y-30781D01*
X65448Y-30868D01*
X65358Y-31083D01*
X65358Y-31316D01*
X65447Y-31532D01*
X65612Y-31697D01*
X65827Y-31786D01*
X66060Y-31786D01*
X66276Y-31697D01*
X66441Y-31533D01*
X66531Y-31317D01*
X66531Y-31084D01*
X66531Y-34057D01*
X66478Y-34057D01*
X66373Y-34100D01*
X66292Y-34181D01*
X65596Y-34877D01*
X65553Y-34982D01*
X65553Y-35096D01*
X65596Y-35201D01*
X65677Y-35282D01*
X66373Y-35977D01*
X66478Y-36021D01*
X66592Y-36021D01*
X66697Y-35977D01*
X66778Y-35897D01*
X66977Y-35697D01*
X66977Y-37154D01*
X50738Y-37154D01*
X50738Y-36073D01*
X54548Y-36073D01*
X55926Y-34695D01*
X59863Y-34695D01*
X62254Y-32304D01*
X62254Y-30658D01*
X61376Y-30658D01*
X61376Y-29582D01*
X61376Y-29345D01*
X61376Y-29120D01*
X61376Y-28882D01*
X61338Y-28791D01*
X61268Y-28720D01*
X61176Y-28682D01*
X61077Y-28682D01*
X60939Y-28682D01*
X60876Y-28745D01*
X60876Y-29182D01*
X61314Y-29182D01*
X61376Y-29120D01*
X61376Y-29345D01*
X61314Y-29282D01*
X60876Y-29282D01*
X60876Y-29720D01*
X60939Y-29782D01*
X61077Y-29782D01*
X61176Y-29782D01*
X61268Y-29744D01*
X61338Y-29674D01*
X61376Y-29582D01*
X61376Y-30658D01*
X60776Y-30658D01*
X60776Y-29720D01*
X60776Y-29282D01*
X60776Y-29182D01*
X60776Y-28745D01*
X60714Y-28682D01*
X60576Y-28682D01*
X60477Y-28682D01*
X60385Y-28720D01*
X60314Y-28791D01*
X60276Y-28882D01*
X60276Y-29120D01*
X60339Y-29182D01*
X60776Y-29182D01*
X60776Y-29282D01*
X60339Y-29282D01*
X60276Y-29345D01*
X60276Y-29582D01*
X60314Y-29674D01*
X60385Y-29744D01*
X60477Y-29782D01*
X60576Y-29782D01*
X60714Y-29782D01*
X60776Y-29720D01*
X60776Y-30658D01*
X59498Y-30658D01*
X59498Y-27412D01*
X75245Y-27412D01*
X75245Y-28494D01*
X86385Y-28494D01*
X86315Y-28565D01*
X86271Y-28670D01*
X86271Y-28784D01*
X86271Y-29384D01*
X86315Y-29489D01*
X86395Y-29570D01*
X86455Y-29595D01*
X86428Y-29613D01*
X86301Y-29803D01*
X86257Y-30027D01*
X86301Y-30251D01*
X86428Y-30442D01*
X86619Y-30569D01*
X86843Y-30613D01*
X86859Y-30613D01*
X86859Y-36102D01*
G54D10*
G36*
X64123Y-47587D02*
X49479Y-47587D01*
X49479Y-32530D01*
X59666Y-32530D01*
X59863Y-32333D01*
X61296Y-32333D01*
X59428Y-34201D01*
X55491Y-34201D01*
X54113Y-35579D01*
X51664Y-35579D01*
X51664Y-34078D01*
X51531Y-33755D01*
X51284Y-33509D01*
X50962Y-33375D01*
X50613Y-33375D01*
X50291Y-33508D01*
X50044Y-33754D01*
X49910Y-34076D01*
X49910Y-34425D01*
X50043Y-34747D01*
X50290Y-34994D01*
X50612Y-35128D01*
X50961Y-35128D01*
X51283Y-34995D01*
X51530Y-34749D01*
X51664Y-34427D01*
X51664Y-34078D01*
X51664Y-35579D01*
X50343Y-35579D01*
X50343Y-46506D01*
X56623Y-46506D01*
X56623Y-46548D01*
X56642Y-46596D01*
X56642Y-46900D01*
X56946Y-46900D01*
X56994Y-46919D01*
X57178Y-46920D01*
X57226Y-46900D01*
X58127Y-46900D01*
X58175Y-46919D01*
X58359Y-46920D01*
X58407Y-46900D01*
X59309Y-46900D01*
X59356Y-46919D01*
X59540Y-46920D01*
X59588Y-46900D01*
X59892Y-46900D01*
X59892Y-46596D01*
X59912Y-46549D01*
X59912Y-46506D01*
X61541Y-46506D01*
X61635Y-46545D01*
X61984Y-46546D01*
X62080Y-46506D01*
X62648Y-46506D01*
X62648Y-45938D01*
X62687Y-45844D01*
X62687Y-45495D01*
X62648Y-45400D01*
X62648Y-44931D01*
X64123Y-44931D01*
X64123Y-45399D01*
X64084Y-45494D01*
X64083Y-45842D01*
X64123Y-45938D01*
X64123Y-47587D01*
X64123Y-47587D01*
G37*
G54D28*
X64123Y-47587D02*
X49479Y-47587D01*
X49479Y-32530D01*
X59666Y-32530D01*
X59863Y-32333D01*
X61296Y-32333D01*
X59428Y-34201D01*
X55491Y-34201D01*
X54113Y-35579D01*
X51664Y-35579D01*
X51664Y-34078D01*
X51531Y-33755D01*
X51284Y-33509D01*
X50962Y-33375D01*
X50613Y-33375D01*
X50291Y-33508D01*
X50044Y-33754D01*
X49910Y-34076D01*
X49910Y-34425D01*
X50043Y-34747D01*
X50290Y-34994D01*
X50612Y-35128D01*
X50961Y-35128D01*
X51283Y-34995D01*
X51530Y-34749D01*
X51664Y-34427D01*
X51664Y-34078D01*
X51664Y-35579D01*
X50343Y-35579D01*
X50343Y-46506D01*
X56623Y-46506D01*
X56623Y-46548D01*
X56642Y-46596D01*
X56642Y-46900D01*
X56946Y-46900D01*
X56994Y-46919D01*
X57178Y-46920D01*
X57226Y-46900D01*
X58127Y-46900D01*
X58175Y-46919D01*
X58359Y-46920D01*
X58407Y-46900D01*
X59309Y-46900D01*
X59356Y-46919D01*
X59540Y-46920D01*
X59588Y-46900D01*
X59892Y-46900D01*
X59892Y-46596D01*
X59912Y-46549D01*
X59912Y-46506D01*
X61541Y-46506D01*
X61635Y-46545D01*
X61984Y-46546D01*
X62080Y-46506D01*
X62648Y-46506D01*
X62648Y-45938D01*
X62687Y-45844D01*
X62687Y-45495D01*
X62648Y-45400D01*
X62648Y-44931D01*
X64123Y-44931D01*
X64123Y-45399D01*
X64084Y-45494D01*
X64083Y-45842D01*
X64123Y-45938D01*
X64123Y-47587D01*
M02*
